<?xml version="1.0" encoding="utf-8"?>
<!-- Generator: Adobe Illustrator 21.1.0, SVG Export Plug-In . SVG Version: 6.00 Build 0)  -->
<svg version="1.1" id="Layer_1" xmlns="http://www.w3.org/2000/svg" xmlns:xlink="http://www.w3.org/1999/xlink" x="0px" y="0px"
	 viewBox="0 0 80 80" style="enable-background:new 0 0 80 80;" xml:space="preserve">
<path d="M32.5,0C14.6,0,0,14.6,0,32.5S14.6,65,32.5,65c6.2,0,12.1-1.8,17-4.8l17.6,17.6c1.4,1.4,3.3,2.2,5.3,2.2s3.9-0.8,5.3-2.2
	s2.2-3.3,2.2-5.3s-0.8-3.9-2.2-5.3L60.2,49.5c3.1-5,4.8-10.8,4.8-17C65,14.6,50.4,0,32.5,0z M32.5,55C20.1,55,10,44.9,10,32.5
	S20.1,10,32.5,10S55,20.1,55,32.5S44.9,55,32.5,55z"/>
<path d="M15,32.5h5C20,25.6,25.6,20,32.5,20v-5C22.9,15,15,22.9,15,32.5z"/>
</svg>
