<svg xmlns="http://www.w3.org/2000/svg" xmlns:xlink="http://www.w3.org/1999/xlink" viewBox="0 0 52 63.75" version="1.1" x="0px" y="0px"><title>clock-icon@1x</title><desc>Created with Sketch.</desc><g stroke="none" stroke-width="1" fill="none" fill-rule="evenodd"><g transform="translate(-1049.000000, -2459.000000)" fill="#000000"><g transform="translate(275.000000, 1935.000000)"><g transform="translate(75.000000, 512.000000)"><g transform="translate(699.000000, 12.000000)"><path d="M26.0906,10.6902 C27.3326,10.6902 28.3406,11.6982 28.3406,12.9402 L28.3406,24.5202 L36.4106,32.5932 C37.2866,33.4692 37.2866,34.9002 36.4106,35.7732 C35.5376,36.6492 34.1066,36.6492 33.2306,35.7732 L24.4976,27.0402 C24.4736,27.0192 24.4676,26.9892 24.4466,26.9652 C24.2696,26.7732 24.1166,26.5572 24.0146,26.3112 C23.9066,26.0562 23.8616,25.7862 23.8526,25.5162 C23.8526,25.4952 23.8406,25.4772 23.8406,25.4532 L23.8406,12.9402 C23.8406,11.6982 24.8486,10.6902 26.0906,10.6902 Z M46.3904,10.2273 C49.5854,14.4723 51.5054,19.7283 51.5054,25.4523 C51.5054,39.4893 40.1264,50.8653 26.0894,50.8653 C12.0554,50.8653 0.6764,39.4893 0.6764,25.4523 C0.6764,11.4153 12.0554,0.0393 26.0894,0.0393 C31.4114,0.0393 36.3314,1.6893 40.4144,4.4853 L40.3784,4.5303 C40.9484,4.9413 41.3384,5.5803 41.3384,6.3363 C41.3384,7.5963 40.3214,8.6163 39.0614,8.6163 C38.4824,8.6163 37.9664,8.3853 37.5674,8.0283 L37.5524,8.0463 C34.2494,5.8683 30.3404,4.5393 26.0894,4.5393 C14.5424,4.5393 5.1794,13.9053 5.1794,25.4523 C5.1794,37.0023 14.5424,46.3653 26.0894,46.3653 C37.6394,46.3653 47.0024,37.0023 47.0024,25.4523 C47.0024,20.7183 45.4124,16.3683 42.7574,12.8673 L42.7844,12.8493 C42.5234,12.4803 42.3374,12.0543 42.3374,11.5713 C42.3374,10.3293 43.3454,9.3213 44.5874,9.3213 C45.3254,9.3213 45.9494,9.6993 46.3574,10.2483 L46.3904,10.2273 Z"/></g></g></g></g></g><text x="0" y="66" fill="#000000" font-size="5px" font-weight="bold" font-family="'Helvetica Neue', Helvetica, Arial-Unicode, Arial, Sans-serif">Created by Andrew</text><text x="0" y="71" fill="#000000" font-size="5px" font-weight="bold" font-family="'Helvetica Neue', Helvetica, Arial-Unicode, Arial, Sans-serif">from the Noun Project</text></svg>