<svg xmlns="http://www.w3.org/2000/svg" data-name="Layer 1" viewBox="0 0 512 640" x="0px" y="0px"><title>360</title><path d="M485.319,196.137c-12.993-10.016-31.365-18.938-54.605-26.516C397.654,158.84,356.967,151.488,312.7,148.1c-5.325-33.363-13.107-63.131-22.742-86.454C274.49,24.211,254.93,4.424,233.389,4.424c-13.332,0-25.866,7.489-37.252,22.257C186.12,39.674,177.2,58.046,169.62,81.286c-6.914,21.205-12.415,45.553-16.37,71.964-26.411,3.955-50.759,9.456-71.964,16.371-23.24,7.578-41.612,16.5-54.6,26.516C11.913,207.523,4.424,220.057,4.424,233.39c0,21.54,19.787,41.1,57.221,56.565,23.323,9.635,53.09,17.418,86.453,22.743,3.39,44.269,10.742,84.956,21.522,118.016,7.579,23.24,16.5,41.612,26.517,54.605,11.386,14.768,23.92,22.257,37.252,22.257,47.427,0,76.478-94.069,84.75-189.342,95.148-8.109,189.437-37.188,189.437-84.844C507.576,220.057,500.087,207.523,485.319,196.137ZM184.832,86.247c13.44-41.216,31.592-65.823,48.557-65.823,14.124,0,29.352,17.251,41.778,47.33,8.839,21.4,16.06,48.633,21.152,79.281-13.209-.706-26.679-1.072-40.319-1.072a718.461,718.461,0,0,0-86.227,5.049A425.549,425.549,0,0,1,184.832,86.247ZM67.754,275.167c-30.079-12.426-47.33-27.653-47.33-41.777,0-16.966,24.607-35.118,65.822-48.557a425.468,425.468,0,0,1,64.766-15.06A718.461,718.461,0,0,0,145.963,256c0,13.64.365,27.11,1.072,40.32C116.387,291.227,89.15,284.006,67.754,275.167ZM233.389,491.576c-16.965,0-35.117-24.607-48.557-65.822-10.113-31.013-17-69.108-20.4-110.7,8,1.051,15.567,1.964,24.567,2.732v40.254a7.9,7.9,0,0,0,4.09,7.039,7.775,7.775,0,0,0,3.746.961,7.908,7.908,0,0,0,4.361-1.31L270.14,319.5c7.326-.065,21.877-.366,31.885-.585-4.345,48.471-13.657,92.182-26.432,123.8C263.046,473.766,247.661,491.576,233.389,491.576ZM205,343.223V279.806l48.348,31.709ZM443.2,275.6c-33.1,13.476-79.719,23.095-131.278,27.092-2.75.064-30.852.712-41.831.812L201.17,258.3a7.8,7.8,0,0,0-8.08-.35,7.9,7.9,0,0,0-4.09,7.039v36.722c-9-.826-17.362-1.812-25.7-2.953-.81-13.968-1.282-28.262-1.282-42.761a698.487,698.487,0,0,1,5.431-88.579,698.134,698.134,0,0,1,88.566-5.458c14.5,0,28.786.526,42.754,1.337,1.14,8.338,2.12,16.7,2.945,25.7H264.992a7.869,7.869,0,0,0-6.69,12.224l46.523,70.908a8,8,0,0,0,13.379-.021l46.523-70.938a7.806,7.806,0,0,0,.349-8.081A7.9,7.9,0,0,0,358.037,189H317.783c-.768-9-1.681-16.571-2.732-24.567,41.6,3.4,79.69,10.341,110.7,20.454,41.215,13.439,65.822,31.565,65.822,48.53C491.576,247.724,473.941,263.081,443.2,275.6ZM343.223,205l-31.708,48.348L279.806,205Z"/><text x="0" y="527" fill="#000000" font-size="5px" font-weight="bold" font-family="'Helvetica Neue', Helvetica, Arial-Unicode, Arial, Sans-serif">Created by Shastry</text><text x="0" y="532" fill="#000000" font-size="5px" font-weight="bold" font-family="'Helvetica Neue', Helvetica, Arial-Unicode, Arial, Sans-serif">from the Noun Project</text></svg>