<svg xmlns="http://www.w3.org/2000/svg" xmlns:xlink="http://www.w3.org/1999/xlink" version="1.1" x="0px" y="0px" viewBox="0 0 100 125" enable-background="new 0 0 100 100" xml:space="preserve"><path d="M81.095,22.78c-5.696,0-10.316,4.619-10.316,10.316c0,2.794,1.112,5.324,2.917,7.181l-11.316,18.66  c-0.596-0.135-1.215-0.214-1.851-0.214c-2.078,0-3.971,0.771-5.426,2.033l-16.496-9.817c0.043-0.315,0.076-0.633,0.076-0.962  c0-3.744-3.038-6.78-6.786-6.78c-3.745,0-6.781,3.037-6.781,6.78c0,1.156,0.289,2.243,0.798,3.196L15.176,66.278  c-0.344-0.068-0.703-0.104-1.067-0.104c-3.051,0-5.523,2.475-5.523,5.521c0,3.052,2.472,5.523,5.523,5.523  c3.048,0,5.52-2.472,5.52-5.523c0-0.746-0.149-1.46-0.421-2.114l10.741-13.107c0.617,0.185,1.27,0.287,1.948,0.287  c1.518,0,2.914-0.503,4.043-1.344l16.493,9.817c-0.126,0.575-0.198,1.167-0.198,1.784c0,4.582,3.713,8.293,8.294,8.293  c4.579,0,8.294-3.711,8.294-8.293c0-2.053-0.747-3.93-1.985-5.377L78.15,42.983c0.934,0.281,1.92,0.433,2.944,0.433  c5.698,0,10.319-4.619,10.319-10.32C91.414,27.399,86.793,22.78,81.095,22.78z"/><text x="0" y="115" fill="#000000" font-size="5px" font-weight="bold" font-family="'Helvetica Neue', Helvetica, Arial-Unicode, Arial, Sans-serif">Created by Samy Menai</text><text x="0" y="120" fill="#000000" font-size="5px" font-weight="bold" font-family="'Helvetica Neue', Helvetica, Arial-Unicode, Arial, Sans-serif">from the Noun Project</text></svg>