<?xml version="1.0" encoding="utf-8"?>
<!-- Generator: Adobe Illustrator 23.0.3, SVG Export Plug-In . SVG Version: 6.00 Build 0)  -->
<svg version="1.1" id="Layer_1" xmlns="http://www.w3.org/2000/svg" xmlns:xlink="http://www.w3.org/1999/xlink" x="0px" y="0px"
	 viewBox="0 0 112 103" style="enable-background:new 0 0 112 103;" xml:space="preserve">
<g>
	<g>
		<path d="M79.7,103H65.3l-0.9-5.7c-2.1,0.3-4.2,0.5-6.3,0.6v0l-1.9,0c-0.4,0-0.8,0-1.2,0c-0.1,0-0.3,0-0.4,0l-0.3,0
			c-0.3,0-0.6,0-0.9,0c-0.6,0-1.2-0.1-1.8-0.1l-0.2,0c-1.5-0.1-3-0.3-4.4-0.5l-4.1,5.8H28.4V91.1c-13-6.7-23-17.8-28.3-31.4L0,59.4
			V45.1h1.9c6,0,11.5-2.4,15.1-6.5c2.8-3.1,5.5-5.6,8.3-7.7V16.8h1.9c6,0,11.6,2.2,15.9,6.3c4.3-1,8.7-1.5,13.2-1.5
			c26,0,47.2,17.1,47.2,38.1c0,11.4-6.2,22-17,29.3L79.7,103z M68.5,99.3h8.8l6.1-12.8l0.4-0.3c10-6.6,15.7-16.2,15.7-26.5
			c0-18.9-19.5-34.4-43.4-34.4c-4.5,0-9,0.6-13.3,1.7l-1.1,0.3l-0.8-0.8c-3.2-3.4-7.5-5.4-12.1-5.9V33l-0.8,0.6
			c-2.9,1.9-5.6,4.4-8.4,7.6c-3.9,4.5-9.7,7.2-16,7.7v9.9c5.1,12.9,14.9,23.4,27.4,29.6l1,0.5v10.5h8.7l4.3-6.2l1.2,0.2
			c1.6,0.3,3.4,0.5,5.2,0.6l0.2,0c0.6,0,1.1,0.1,1.7,0.1c0.3,0,0.5,0,0.8,0l0.3,0c0.1,0,0.2,0,0.4,0c0.2,0,0.5,0,0.7,0l0.5,0
			c3.2,0,6.3-0.3,9.5-0.8l1.9-0.3L68.5,99.3z"/>
		<path d="M101.5,61.6v-3.7c3.7,0,6.7-3,6.7-6.7h3.7C112,56.9,107.3,61.6,101.5,61.6z"/>
		<path d="M28.4,53.2c-3.4,0-6.2-2.8-6.2-6.2h3.7c0,1.4,1.1,2.5,2.5,2.5s2.5-1.1,2.5-2.5h3.7C34.6,50.4,31.8,53.2,28.4,53.2z"/>
		<g>
			<path d="M57.8,71.1h-3.2c-1.8,0-3.4-0.7-4.7-1.9c-1.2-1.3-1.9-2.9-1.9-4.7h3.7c0,0.8,0.3,1.5,0.8,2c0.5,0.5,1.3,0.8,2,0.8h3.2
				c0.8,0,1.5-0.3,2-0.8c0.5-0.5,0.8-1.3,0.8-2c0-0.8-0.3-1.5-0.8-2c-0.5-0.5-1.3-0.8-2-0.8h-3.2c-1.8,0-3.4-0.7-4.7-1.9
				c-1.2-1.2-1.9-2.9-1.9-4.7c0-1.8,0.7-3.4,1.9-4.7c1.2-1.2,2.9-1.9,4.7-1.9h3.2c1.8,0,3.4,0.7,4.7,1.9c1.2,1.2,1.9,2.9,1.9,4.7
				h-3.7c0-0.8-0.3-1.5-0.8-2c-0.5-0.5-1.3-0.8-2-0.8h-3.2c-0.8,0-1.5,0.3-2,0.8c-0.5,0.5-0.8,1.3-0.8,2c0,0.8,0.3,1.5,0.8,2
				c0.5,0.5,1.3,0.8,2,0.8h3.2c1.8,0,3.4,0.7,4.7,1.9c1.2,1.2,1.9,2.9,1.9,4.7c0,1.8-0.7,3.4-1.9,4.7C61.2,70.4,59.6,71.1,57.8,71.1
				z"/>
			<rect x="54.4" y="45.5" width="3.7" height="4.8"/>
			<rect x="54.4" y="69.2" width="3.7" height="4.8"/>
		</g>
	</g>
	<path d="M56.3,17.9c-4.9,0-8.9-4-8.9-9c0-4.9,4-8.9,8.9-8.9c4.9,0,9,4,9,8.9C65.2,13.9,61.2,17.9,56.3,17.9z M56.3,3.7
		c-2.9,0-5.2,2.3-5.2,5.2c0,2.9,2.3,5.2,5.2,5.2c2.9,0,5.2-2.3,5.2-5.2C61.5,6.1,59.1,3.7,56.3,3.7z"/>
</g>
</svg>
