<svg xmlns="http://www.w3.org/2000/svg" xmlns:xlink="http://www.w3.org/1999/xlink" version="1.1" x="0px" y="0px" viewBox="0 0 100 125" enable-background="new 0 0 100 100" xml:space="preserve"><path d="M93.401,38.806c-1.051-2.096-2.451-3.845-4.028-5.423c-1.572-1.572-3.319-2.797-5.068-3.845  c-3.504-2.279-7.344-3.674-11.02-4.899c-3.854-1.223-7.871-2.093-11.722-2.448c-7.871-1.054-15.742-0.879-23.612,0.175  c-3.851,0.701-7.704,1.397-11.372,2.623c-3.854,1.226-7.524,2.797-10.851,4.899c-1.747,1.051-3.319,2.099-4.721,3.496  c-1.575,1.406-2.972,2.803-4.023,4.549c-1.045,1.749-1.747,3.679-1.921,5.6c-0.18,2.096,0,4.203,0.876,5.95  c0.696,1.918,1.919,3.493,3.319,4.898c1.225,1.394,2.803,2.62,4.375,3.668c3.321,2.099,6.823,3.676,10.496,4.902  c-3.496-1.4-7-3.152-10.147-5.248c-1.572-1.226-2.975-2.448-4.2-3.851c-1.225-1.4-2.271-2.972-2.797-4.721  c-0.699-1.746-0.873-3.676-0.699-5.423c0.349-1.747,1.051-3.324,2.096-4.902c2.101-2.966,5.076-5.248,8.397-6.995  c3.329-1.924,6.82-3.144,10.496-4.2c3.676-1.048,7.347-1.575,11.023-2.099c7.524-0.696,15.217-0.349,22.564,0.876  c3.676,0.699,7.35,1.578,10.845,2.803c3.496,1.223,6.823,2.795,9.798,4.89c1.397,0.879,2.8,2.104,3.848,3.33  c1.222,1.22,2.098,2.445,2.794,3.848c0.527,1.4,0.879,2.797,0.701,4.194c-0.175,1.397-0.524,2.803-1.397,4.028  c-1.575,2.62-4.2,4.721-7.172,6.47c-2.972,1.75-6.473,3.149-9.792,4.195c-6.82,1.93-14,2.628-21.17,2.453v-7.521L29.027,66.796  l20.291,11.721V71.17c7.873-0.175,15.741-1.4,23.266-3.845c4.026-1.406,7.696-3.152,11.372-5.425  c1.749-1.048,3.496-2.451,5.071-3.851c1.578-1.572,2.975-3.318,4.026-5.423c1.222-2.096,1.921-4.369,1.921-6.823  C95.148,43.183,94.449,40.73,93.401,38.806z"/><text x="0" y="115" fill="#000000" font-size="5px" font-weight="bold" font-family="'Helvetica Neue', Helvetica, Arial-Unicode, Arial, Sans-serif">Created by Vladimir Belochkin</text><text x="0" y="120" fill="#000000" font-size="5px" font-weight="bold" font-family="'Helvetica Neue', Helvetica, Arial-Unicode, Arial, Sans-serif">from the Noun Project</text></svg>