<?xml version="1.0" encoding="utf-8"?>
<!-- Generator: Adobe Illustrator 21.1.0, SVG Export Plug-In . SVG Version: 6.00 Build 0)  -->
<svg version="1.1" id="Layer_1" xmlns="http://www.w3.org/2000/svg" xmlns:xlink="http://www.w3.org/1999/xlink" x="0px" y="0px"
	 viewBox="0 0 84 84" style="enable-background:new 0 0 84 84;" xml:space="preserve">
<path d="M37.4,22.6c-0.8-0.8-2-0.8-2.8,0s-0.8,2,0,2.8L51.2,42L34.6,58.6c-0.8,0.8-0.8,2,0,2.8C35,61.8,35.5,62,36,62s1-0.2,1.4-0.6
	l18-18c0.8-0.8,0.8-2,0-2.8L37.4,22.6z"/>
<path d="M42,0C19.2,0,0,19.2,0,42s19.2,42,42,42s42-19.2,42-42S64.8,0,42,0z M42,80C21.4,80,4,62.6,4,42S21.4,4,42,4s38,17.4,38,38
	S62.6,80,42,80z"/>
</svg>
