<svg xmlns="http://www.w3.org/2000/svg" xmlns:xlink="http://www.w3.org/1999/xlink" version="1.1" x="0px" y="0px" viewBox="0 0 100 125" enable-background="new 0 0 100 100" xml:space="preserve"><path d="M94.593,76.755l-0.472-1.364c-1.05-3.167-4.492-6.439-7.701-7.328l-11.837-3.218c-3.201-0.876-7.778,0.302-10.112,2.661  l-4.314,4.267C44.631,67.583,32.445,55.367,28.25,39.832l4.263-4.28c2.329-2.346,3.502-6.915,2.652-10.137l-3.238-11.807  c-0.863-3.213-4.166-6.677-7.289-7.762l-1.352-0.429c-3.137-1.079-7.684,0.013-9.988,2.363L6.85,14.186  c-1.109,1.139-1.841,4.373-1.841,4.391c-0.251,20.325,7.744,39.91,22.132,54.28c14.345,14.345,33.837,22.319,54.072,22.14  c0.128,0,3.464-0.735,4.629-1.866l6.384-6.401C94.593,84.388,95.635,79.891,94.593,76.755z"/><text x="0" y="115" fill="#000000" font-size="5px" font-weight="bold" font-family="'Helvetica Neue', Helvetica, Arial-Unicode, Arial, Sans-serif">Created by Vladimir Belochkin</text><text x="0" y="120" fill="#000000" font-size="5px" font-weight="bold" font-family="'Helvetica Neue', Helvetica, Arial-Unicode, Arial, Sans-serif">from the Noun Project</text></svg>