<svg xmlns="http://www.w3.org/2000/svg" xmlns:xlink="http://www.w3.org/1999/xlink" xml:space="preserve" version="1.1" style="shape-rendering:geometricPrecision;text-rendering:geometricPrecision;image-rendering:optimizeQuality;" viewBox="0 0 333 416.25" x="0px" y="0px" fill-rule="evenodd" clip-rule="evenodd"><defs><style type="text/css">
   
    .str0 {stroke:black;stroke-width:13.3307;stroke-linecap:round;stroke-linejoin:round}
    .fil1 {fill:none}
    .fil0 {fill:black}
   
  </style></defs><g><path class="fil0" d="M164 10c52,0 95,42 95,95 0,42 -55,123 -85,171 -11,13 -18,3 -20,1 -30,-49 -85,-134 -85,-172 0,-53 42,-95 95,-95zm0 48c24,0 44,20 44,45 0,25 -20,45 -44,45 -25,0 -45,-20 -45,-45 0,-25 20,-45 45,-45z"/><path class="fil1 str0" d="M79 256c58,0 117,0 176,0l47 67c-90,0 -180,0 -271,0l48 -67z"/></g><text x="0" y="348" fill="#000000" font-size="5px" font-weight="bold" font-family="'Helvetica Neue', Helvetica, Arial-Unicode, Arial, Sans-serif">Created by Princes Kumudawati</text><text x="0" y="353" fill="#000000" font-size="5px" font-weight="bold" font-family="'Helvetica Neue', Helvetica, Arial-Unicode, Arial, Sans-serif">from the Noun Project</text></svg>