<svg xmlns="http://www.w3.org/2000/svg" xmlns:xlink="http://www.w3.org/1999/xlink" version="1.1" x="0px" y="0px" viewBox="0 0 90 112.5" enable-background="new 0 0 90 90" xml:space="preserve"><g><path d="M85,24.4c-3.2-6.1-7.7-11.5-13.3-15.6c-0.8-0.6-2-0.4-2.6,0.4s-0.4,2,0.4,2.6c5.1,3.8,9.3,8.7,12.2,14.3   c3,5.9,4.6,12.2,4.6,18.9c0,22.8-18.5,41.3-41.3,41.3S3.7,67.8,3.7,45S22.2,3.7,45,3.7c1,0,1.8-0.8,1.8-1.8S46,0,45,0   C20.2,0,0,20.2,0,45s20.2,45,45,45s45-20.2,45-45C90,37.8,88.3,30.7,85,24.4z"/></g><g><path d="M33.5,24.1c-0.6,0.3-0.9,0.9-0.9,1.6v40.2c0,1,0.8,1.8,1.8,1.8c1,0,1.8-0.8,1.8-1.8v-37l27.1,16.1L43.4,57.9   c-0.9,0.5-1.1,1.7-0.5,2.5c0.5,0.9,1.7,1.1,2.5,0.5l22.4-14.4c0.5-0.3,0.9-0.9,0.8-1.6c0-0.6-0.3-1.2-0.9-1.5L35.3,24.1   C34.8,23.8,34.1,23.8,33.5,24.1z"/></g><text x="0" y="105" fill="#000000" font-size="5px" font-weight="bold" font-family="'Helvetica Neue', Helvetica, Arial-Unicode, Arial, Sans-serif">Created by emel çelik</text><text x="0" y="110" fill="#000000" font-size="5px" font-weight="bold" font-family="'Helvetica Neue', Helvetica, Arial-Unicode, Arial, Sans-serif">from the Noun Project</text></svg>