<svg xmlns="http://www.w3.org/2000/svg" xmlns:xlink="http://www.w3.org/1999/xlink" version="1.1" x="0px" y="0px" viewBox="0 0 75 93.75" enable-background="new 0 0 75 75" xml:space="preserve"><path d="M62.755,23.355c2.268,0.229-0.601,1.436-0.601,1.436c-3.244,1.547-3.684,2.945-3.974,3.607  c-0.252,0.588,0.069,1.227,0.528,0.416c0.455-0.812,0.39-1.826,4.089-3.599c3.695-1.772,0.916-2.856,0.916-2.856 M65.158,20.386  c-0.171-0.165-2.088-2.007-2.088-2.007s-0.133-0.148-0.287,0.002c-0.085,0.085-6.857,6.846-12.663,12.639l-3.108-9.069  c-0.175-0.498-0.605-0.861-1.13-0.942l-32.738-5.084c-0.518-0.081-1.036,0.129-1.35,0.548c-0.314,0.415-0.377,0.973-0.158,1.447  l21.698,47.292c0.237,0.516,0.747,0.824,1.292,0.824c0.135,0,0.274-0.02,0.412-0.059l23.113-7.004  c0.367-0.112,0.674-0.37,0.851-0.713c0.175-0.342,0.203-0.74,0.079-1.107l-7.827-22.823l13.905-13.655  C65.158,20.674,65.329,20.55,65.158,20.386z M55.917,56.683l-20.515,6.217L15.319,19.131l29.285,4.547l3.28,9.573  c-3.363,3.355-5.966,5.954-5.966,5.954s-1.858,3.233-2.208,3.852c-0.354,0.621,0.085,0.454,0.288,0.375l4.043-2.013l4.971-4.884  L55.917,56.683z"/><text x="0" y="90" fill="#000000" font-size="5px" font-weight="bold" font-family="'Helvetica Neue', Helvetica, Arial-Unicode, Arial, Sans-serif">Created by Stephen Borengasser</text><text x="0" y="95" fill="#000000" font-size="5px" font-weight="bold" font-family="'Helvetica Neue', Helvetica, Arial-Unicode, Arial, Sans-serif">from the Noun Project</text></svg>