<svg xmlns="http://www.w3.org/2000/svg" xmlns:xlink="http://www.w3.org/1999/xlink" version="1.1" x="0px" y="0px" viewBox="0 0 100 125" style="enable-background:new 0 0 100 100;" xml:space="preserve"><g><path d="M65.3,35.5L44.1,56.7l-9.4-9.4c-1.6-1.6-4.1-1.6-5.7,0c-1.6,1.6-1.6,4.1,0,5.7l12.3,12.3c0.8,0.8,1.8,1.2,2.8,1.2   c1,0,2-0.4,2.8-1.2l24-24c1.6-1.6,1.6-4.1,0-5.7C69.4,34,66.9,34,65.3,35.5z"/><path d="M9,67.6C9,80.5,19.5,91,32.4,91h35.2C80.5,91,91,80.5,91,67.6c0-2.2-1.8-4-4-4s-4,1.8-4,4C83,76.1,76.1,83,67.6,83H32.4   C23.9,83,17,76.1,17,67.6V32.4C17,23.9,23.9,17,32.4,17h35.2C76.1,17,83,23.9,83,32.4V55c0,2.2,1.8,4,4,4s4-1.8,4-4V32.4   C91,19.5,80.5,9,67.6,9H32.4C19.5,9,9,19.5,9,32.4V67.6z"/></g><text x="0" y="115" fill="#000000" font-size="5px" font-weight="bold" font-family="'Helvetica Neue', Helvetica, Arial-Unicode, Arial, Sans-serif">Created by Icon Depot</text><text x="0" y="120" fill="#000000" font-size="5px" font-weight="bold" font-family="'Helvetica Neue', Helvetica, Arial-Unicode, Arial, Sans-serif">from the Noun Project</text></svg>