<svg xmlns="http://www.w3.org/2000/svg" xmlns:xlink="http://www.w3.org/1999/xlink" viewBox="0 0 24 30" version="1.1" x="0px" y="0px"><title>Notifications Copy@1x</title><desc>Created with Sketch.</desc><g stroke="none" stroke-width="1" fill="none" fill-rule="evenodd"><g><g transform="translate(3.000000, 4.000000)" fill-rule="nonzero" fill="#000000"><path d="M1.05882353,5.31541178 L1.05882353,13.8235294 C1.05882353,14.9930736 2.00692641,15.9411765 3.17647059,15.9411765 L13.7647059,15.9411765 C14.9342501,15.9411765 15.8823529,14.9930736 15.8823529,13.8235294 L15.8823529,3.23529412 C15.8823529,2.06574994 14.9342501,1.11764706 13.7647059,1.11764706 L5.25658825,1.11764706 C5.2031144,0.743805431 5.09384616,0.387962312 4.93748938,0.0588235294 L13.7647059,0.0588235294 C15.5190221,0.0588235294 16.9411765,1.48097785 16.9411765,3.23529412 L16.9411765,13.8235294 C16.9411765,15.5778457 15.5190221,17 13.7647059,17 L3.17647059,17 C1.42215432,17 6.26949473e-15,15.5778457 6.26949473e-15,13.8235294 L5.39836771e-15,4.99631291 C0.329138783,5.15266969 0.684981901,5.26193793 1.05882353,5.31541178 Z" transform="translate(8.470588, 8.529412) rotate(-270.000000) translate(-8.470588, -8.529412) "/></g><rect fill="#000000" x="15.71" y="3" width="5.28999996" height="5.28999996" rx="2.64499998"/></g></g><text x="0" y="39" fill="#000000" font-size="5px" font-weight="bold" font-family="'Helvetica Neue', Helvetica, Arial-Unicode, Arial, Sans-serif">Created by Joshua Swattridge</text><text x="0" y="44" fill="#000000" font-size="5px" font-weight="bold" font-family="'Helvetica Neue', Helvetica, Arial-Unicode, Arial, Sans-serif">from the Noun Project</text></svg>