<?xml version="1.0" encoding="utf-8"?>
<!-- Generator: Adobe Illustrator 21.1.0, SVG Export Plug-In . SVG Version: 6.00 Build 0)  -->
<svg version="1.1" id="Layer_1" xmlns:sketch="http://www.bohemiancoding.com/sketch/ns"
	 xmlns="http://www.w3.org/2000/svg" xmlns:xlink="http://www.w3.org/1999/xlink" x="0px" y="0px" viewBox="0 0 509 512"
	 style="enable-background:new 0 0 509 512;" xml:space="preserve">
<style type="text/css">
	.st0{fill:#FFFFFF;}
</style>
<title></title>
<desc></desc>
<g id="Page-1">
	<path id="whatsup" class="st0" d="M259.3,0C121.5,0,9.8,111.7,9.8,249.4c0,47.1,13.1,91.2,35.8,128.8L0.6,512l138.1-44.2
		c35.7,19.8,76.8,31,120.6,31c137.7,0,249.4-111.7,249.4-249.4C508.7,111.7,397,0,259.3,0L259.3,0z M259.3,459.1
		c-42.6,0-82.3-12.8-115.4-34.7l-80.6,25.8l26.2-77.9c-25.1-34.6-39.9-77-39.9-122.9c0-115.6,94.1-209.7,209.7-209.7
		c115.6,0,209.7,94.1,209.7,209.7C468.9,365,374.9,459.1,259.3,459.1z M200.8,146.2c-4-9.7-7.1-10.1-13.4-10.4
		c-2.1-0.1-4.5-0.2-7-0.2c-8,0-16.4,2.4-21.4,7.5c-6.1,6.3-21.4,20.9-21.4,51c0,30.1,21.9,59.2,25,63.2
		c3.1,4.1,42.7,66.7,104.4,92.3c48.2,20,62.5,18.2,73.5,15.8c16-3.5,36.1-15.3,41.2-29.5c5.1-14.3,5.1-26.5,3.6-29.1
		c-1.5-2.6-5.6-4.1-11.7-7.1c-6.1-3.1-36.2-17.8-41.8-19.9c-5.6-2-10.8-1.4-15.1,4.5c-5.9,8.2-11.7,16.7-16.4,21.7
		c-3.7,3.9-9.7,4.5-14.8,2.3c-6.8-2.9-25.8-9.5-49.2-30.3c-18.2-16.2-30.4-36.2-34-42.3c-3.6-6.1-0.3-9.8,2.4-13.1
		c3.1-3.8,6-6.5,9.1-10.1c3.1-3.6,4.8-5.5,6.8-9.6c2-4.1,0.7-8.3-0.9-11.3C218.1,188.6,205.8,158.5,200.8,146.2z"/>
</g>
</svg>
