<svg xmlns="http://www.w3.org/2000/svg" xmlns:xlink="http://www.w3.org/1999/xlink" version="1.1" x="0px" y="0px" viewBox="0 0 100 125" enable-background="new 0 0 100 100" xml:space="preserve"><path d="M98.9,47c0.4,0.5,0.1,1.3-0.6,1.3H77.5c-0.1-0.5-0.2-1-0.4-1.4L77,46.8l0.1-0.1c1.7-1.5,2.8-3.7,2.8-6.1  c0-2.3-1-4.5-2.7-6.1l-0.1-0.1l0.1-0.1c0.2-0.5,0.4-1,0.5-1.6h20.7c0.7,0,1.1,0.8,0.6,1.3l-5,6.2c-0.2,0.2-0.2,0.5,0,0.7L98.9,47z   M22.9,34.4l0.1-0.1l-0.1-0.1c-0.2-0.5-0.3-0.9-0.4-1.4H1.7c-0.7,0-1.1,0.8-0.6,1.3l5,6.1c0.2,0.2,0.2,0.5,0,0.7l-5,6.2  c-0.4,0.5,0,1.3,0.6,1.3h20.7c0.1-0.5,0.3-1.1,0.5-1.6l0.1-0.1l-0.1-0.1c-1.7-1.5-2.7-3.8-2.7-6.1C20.1,38.1,21.1,35.9,22.9,34.4z   M21.8,75.5L18,75.2l-1.4-3.5c-0.3-0.7-1.2-0.7-1.5,0l-1.4,3.5l-3.8,0.3c-0.7,0.1-1,0.9-0.5,1.4l2.9,2.5l-0.9,3.7  c-0.2,0.7,0.6,1.2,1.2,0.9l3.2-2l3.2,2c0.6,0.4,1.4-0.2,1.2-0.9l-0.9-3.7l2.9-2.5C22.8,76.5,22.5,75.6,21.8,75.5z M38.9,75.5  l-3.8-0.3l-1.4-3.5c-0.3-0.7-1.2-0.7-1.5,0l-1.4,3.5l-3.8,0.3c-0.7,0.1-1,0.9-0.5,1.4l2.9,2.5l-0.9,3.7c-0.2,0.7,0.6,1.2,1.2,0.9  l3.2-2l3.2,2c0.6,0.4,1.4-0.2,1.2-0.9l-0.9-3.7l2.9-2.5C39.9,76.5,39.6,75.6,38.9,75.5z M56,75.5l-3.8-0.3l-1.4-3.5  c-0.3-0.7-1.2-0.7-1.5,0l-1.4,3.5L44,75.5c-0.7,0.1-1,0.9-0.5,1.4l2.9,2.5l-0.9,3.7c-0.2,0.7,0.6,1.2,1.2,0.9l3.2-2l3.2,2  c0.6,0.4,1.4-0.2,1.2-0.9l-0.9-3.7l2.9-2.5C57,76.5,56.7,75.6,56,75.5z M73.1,75.5l-3.8-0.3l-1.4-3.5c-0.3-0.7-1.2-0.7-1.5,0  l-1.4,3.5l-3.8,0.3c-0.7,0.1-1,0.9-0.5,1.4l2.9,2.5l-0.9,3.7c-0.2,0.7,0.6,1.2,1.2,0.9l3.2-2l3.2,2c0.6,0.4,1.4-0.2,1.2-0.9  l-0.9-3.7l2.9-2.5C74.1,76.5,73.8,75.6,73.1,75.5z M90.1,75.5l-3.8-0.3l-1.4-3.5c-0.3-0.7-1.2-0.7-1.5,0L82,75.2l-3.8,0.3  c-0.7,0.1-1,0.9-0.5,1.4l2.9,2.5l-0.9,3.7c-0.2,0.7,0.6,1.2,1.2,0.9l3.2-2l3.2,2c0.6,0.4,1.4-0.2,1.2-0.9l-0.9-3.7l2.9-2.5  C91.1,76.5,90.9,75.6,90.1,75.5z M74,38.2c1.5,1.3,1.5,3.6,0,4.9l-1,0.8c-1.1,0.9-1.4,2.4-0.9,3.7l0.5,1.2c0.8,1.8-0.2,3.9-2.1,4.4  l-1.2,0.3c-1.4,0.4-2.3,1.6-2.4,3l-0.1,1.3c-0.1,1.8-1.6,3.1-3.3,3.1c-0.2,0-0.4,0-0.6-0.1l-1.3-0.2c-0.2,0-0.4-0.1-0.6-0.1  c-1.2,0-2.3,0.6-2.9,1.7l-0.6,1.1c-0.6,1.1-1.7,1.7-2.9,1.7c-0.7,0-1.3-0.2-1.9-0.6l-1-0.8c-0.6-0.4-1.2-0.6-1.9-0.6  c-0.7,0-1.3,0.2-1.9,0.6l-1,0.7c-0.6,0.4-1.2,0.6-1.9,0.6c-1.2,0-2.3-0.6-2.9-1.7l-0.6-1.1c-0.6-1.1-1.7-1.7-2.9-1.7  c-0.2,0-0.4,0-0.6,0l-1.3,0.2c-0.2,0-0.4,0-0.6,0c-1.7,0-3.2-1.3-3.3-3.1L33,56.5c-0.1-1.4-1-2.6-2.4-3l-1.2-0.4  c-1.9-0.5-2.9-2.6-2.1-4.4l0.5-1.2c0.5-1.3,0.2-2.8-0.8-3.7l-1-0.9c-1.5-1.3-1.5-3.6,0-4.9l1-0.8c1.1-0.9,1.4-2.4,0.9-3.7l-0.5-1.2  c-0.8-1.8,0.2-3.9,2.1-4.4l1.2-0.3c1.4-0.4,2.3-1.6,2.4-3l0.1-1.3c0.1-1.8,1.6-3.1,3.3-3.1c0.2,0,0.4,0,0.6,0.1l1.3,0.2  c0.2,0,0.4,0.1,0.6,0.1c1.2,0,2.3-0.6,2.9-1.7l0.6-1.1c0.6-1.1,1.7-1.7,2.9-1.7c0.7,0,1.3,0.2,1.9,0.6l1,0.8  c0.6,0.4,1.2,0.6,1.9,0.6c0.7,0,1.3-0.2,1.9-0.6l1-0.7c0.6-0.4,1.2-0.6,1.9-0.6c1.2,0,2.3,0.6,2.9,1.7l0.6,1.1  c0.6,1.1,1.7,1.7,2.9,1.7c0.2,0,0.4,0,0.6,0l1.3-0.2c0.2,0,0.4,0,0.6,0c1.7,0,3.2,1.3,3.3,3.1l0.1,1.3c0.1,1.4,1,2.6,2.4,3l1.2,0.4  c1.9,0.5,2.9,2.6,2.1,4.4l-0.5,1.2c-0.5,1.3-0.2,2.8,0.8,3.7L74,38.2z M61.3,39.5c0,0,1.1-1.7-0.3-3c-1.7-1.6-6.5-0.5-6.5-0.5l0,0  c-0.3,0.1-0.7,0.1-1.1,0.2c0,0-1.6,0.8,0-4.2c1.6-5-1.1-5.7-2.2-5.7c-1.1,0-0.8,2.5-0.8,2.5s-2.5,6.8-4.8,8.6  c-0.6,0.7-1,1.4-1.1,1.9c-0.4-0.3-0.8-0.5-1.4-0.5H40c-1.2,0-2.1,0.9-2.1,2.1v8.4c0,1.2,0.9,2.1,2.1,2.1h3.2c0.4,0,0.8-0.1,1.2-0.4  c0.1-0.1,0.5-0.5,0.5-1.7v-5.2c0,0,0,6.5,3.6,6.9c1.3,0.1,2.9,0.2,4.5,0.1c1.5,0.1,3,0.1,4.2-0.1c4.2-0.9,3.1-3.8,3.1-3.8  c2.3-1.7,1-3.8,1-3.8C63.3,41.2,61.3,39.5,61.3,39.5z"/><text x="0" y="115" fill="#000000" font-size="5px" font-weight="bold" font-family="'Helvetica Neue', Helvetica, Arial-Unicode, Arial, Sans-serif">Created by Gregor Cresnar</text><text x="0" y="120" fill="#000000" font-size="5px" font-weight="bold" font-family="'Helvetica Neue', Helvetica, Arial-Unicode, Arial, Sans-serif">from the Noun Project</text></svg>