<svg xmlns="http://www.w3.org/2000/svg" xmlns:xlink="http://www.w3.org/1999/xlink" version="1.1" x="0px" y="0px" viewBox="0 0 66 82.5" enable-background="new 0 0 66 66" xml:space="preserve"><g><path d="M64.5,28.7L52.9,11.4c-0.9-1.4-2.8-1.8-4.2-0.8L45,13c-1.4,0.9-1.7,2.8-0.8,4.2l1,1.5c-3.1,0.2-6.1-1.1-6.1-1.2   c-2.9-1.2-6-0.5-8.3,0.4c-1.6-1.3-4.2-2.6-6.5-3.4c0.9-1.4,0.6-3.2-0.7-4.2L20,7.8c-1.3-1-3.3-0.6-4.3,0.7L1.6,27.8   c-1,1.4-0.7,3.3,0.7,4.3l3.5,2.6c0.5,0.4,1.2,0.6,1.8,0.6c0.9,0,1.6-0.4,2.2-1c1.2,1.2,2.4,2.3,3.3,3l-2.2,3.2   c-1.3,2-0.8,4.8,1.3,6.1c1.1,0.7,2.4,0.9,3.8,0.5c0.1,1.3,0.8,2.5,1.9,3.3c0.7,0.5,1.6,0.7,2.4,0.7c0.5,0,0.9-0.1,1.3-0.2   c0.1,1.3,0.8,2.5,1.9,3.3c0.7,0.5,1.6,0.7,2.4,0.7c0.4,0,0.9-0.1,1.3-0.2c0.1,1.2,0.8,2.4,1.9,3.2l0.2,0.1c2,1.3,4.7,0.8,6-1.2   c0.5-0.8,0.9-1.1,1.2-2.2l0.6,0.4c1.7,1.2,4.1,0.8,5.3-1c0.4-0.6,0.7-1.4,0.7-2.2c1.4,0.2,2.9-0.4,3.7-1.6c0.6-0.8,0.8-1.9,0.6-3.1   c1.2-0.2,2.1-0.8,2.7-1.6c0.5-0.7,0.7-1.4,0.7-2.2c1.4,0.2,2.9-0.4,3.7-1.6c0.9-1.4,0.9-3.2-0.2-4.6c0.7-1,1.1-1.9,1.3-2.7l0.1,0.2   c0.9,1.4,2.8,1.8,4.2,0.8l3.8-2.5C65.1,32,65.4,30.1,64.5,28.7z M7,33.1l-3.5-2.6c-0.5-0.4-0.6-1-0.2-1.5L17.4,9.6   c0.4-0.5,1-0.6,1.5-0.2l3.5,2.6c0.5,0.3,0.6,1,0.2,1.5L8.5,32.8C8.1,33.3,7.4,33.4,7,33.1z M13.2,45c-1.1-0.7-1.4-2.2-0.7-3.3   l4.7-6.8c0.7-1.1,2.2-1.4,3.4-0.7c1.1,0.8,1.4,2.3,0.7,3.3l-4.7,6.8C15.9,45.4,14.3,45.7,13.2,45z M18.9,48.8   c-1.1-0.7-1.4-2.2-0.7-3.3l3.1-4.5c0.7-1.1,2.2-1.4,3.4-0.7c1.1,0.7,1.4,2.2,0.7,3.3l-3.1,4.5C21.6,49.2,20,49.5,18.9,48.8z    M24.7,52.6c-1.1-0.7-1.4-2.2-0.7-3.3l1.5-2c1.8-2.7,5.8,0,4.1,2.6c-1,1.3-0.7,1-1.4,2l0,0C27.3,52.9,25.7,53.3,24.7,52.6z    M34.3,54.7l-0.7,1c-0.7,1-2.2,1.3-3.2,0.7l-0.2-0.1c-1.1-0.7-1.4-2.1-0.7-3.2c0.1-0.1,1-1.4,0.9-1.3   C32.5,49.7,35.9,52.4,34.3,54.7z M52.9,40.6c-0.6,0.8-1.7,1-2.5,0.5L43.1,36c-0.1-0.1-0.3-0.1-0.5-0.2c-0.3,0-0.7,0.1-0.9,0.4   c-0.3,0.4-0.2,1.1,0.2,1.4l6.1,4.3c2,1.4-0.1,4.4-2.1,3L40.4,41c-0.5-0.3-1.1-0.2-1.4,0.2c-0.3,0.5-0.2,1.1,0.2,1.4l5.5,3.9   c0.8,0.6,1,1.7,0.5,2.6c-0.6,0.8-1.7,1.1-2.6,0.5c-0.6-0.4-5.2-3.5-4.9-3.3l-0.5-0.3c-0.5-0.3-1.1-0.2-1.4,0.3   c-0.2,0.3-0.2,0.8,0,1.1c0.2,0.3,0.4,0.3,0.9,0.7c2.8,2.1,4.4,2.3,4.4,3.9c0,1.4-1.6,2.4-2.9,1.5l-1.8-1.3c-0.6-2-2.7-3.3-4.7-3.1   c0.2-1.6-0.5-3.3-1.9-4.2c-1.2-0.8-2.2-0.7-2.4-0.7c0.9-1.9,0.2-4.3-1.6-5.5c-0.7-0.5-1.6-0.7-2.5-0.7c0.7-1.9,0.1-4.1-1.7-5.3   c-2-1.3-4.8-0.8-6.1,1.2l-1.3,1.9c-0.9-0.7-2.1-1.8-3.2-3l12-16.4c2.2,0.8,4.3,1.8,5.7,2.7c-0.7,0.4-1.2,0.7-1.4,0.9   c-2.5,1.3-3.3,3.1-3.6,4.4c-0.4,2.5,1.8,4.7,5.3,4.4c4.8-0.4,4.7-2.6,7.1-3.5c0.3-0.1,0.7,0,0.9,0.2C53.6,39,52.3,38,52.4,38   C53.3,38.6,53.5,39.8,52.9,40.6z M53.8,31.6c0.1,0.5,0.4,2.1-1,4.2l-14.4-12c-0.8-0.6-1.9-0.8-2.8-0.5c-3.4,1.2-2.2,3-6.6,3.4   c-1.6,0.1-3.4-0.5-3.2-2.1c0.2-1.3,1.1-2.3,2.6-3.1c0,0,0.1-0.1,0.1-0.1c0.1,0,5.4-3.9,9.7-2.1c0.2,0.1,4.2,1.9,8.2,1.2   C47.2,21.7,43.7,16.5,53.8,31.6z M62.6,31.2l-3.8,2.5c-0.5,0.3-1.1,0.2-1.4-0.3L45.9,16.1c-0.3-0.5-0.2-1.1,0.3-1.4l3.8-2.5   c0.5-0.3,1.1-0.2,1.4,0.3l11.6,17.3C63.2,30.3,63,30.9,62.6,31.2z"/></g><text x="0" y="81" fill="#000000" font-size="5px" font-weight="bold" font-family="'Helvetica Neue', Helvetica, Arial-Unicode, Arial, Sans-serif">Created by ProSymbols</text><text x="0" y="86" fill="#000000" font-size="5px" font-weight="bold" font-family="'Helvetica Neue', Helvetica, Arial-Unicode, Arial, Sans-serif">from the Noun Project</text></svg>