<svg xmlns="http://www.w3.org/2000/svg" xmlns:xlink="http://www.w3.org/1999/xlink" version="1.1" x="0px" y="0px" viewBox="0 0 100 125" enable-background="new 0 0 100 100" xml:space="preserve"><g><path d="M77.537,61.234c1.417-3.467,2.211-7.255,2.211-11.233s-0.794-7.766-2.211-11.235c4.498-2.4,8.461-4.877,8.856-6.352   c0.387-1.432-1.534-4.754-2.969-5.139c-1.474-0.396-5.61,1.805-9.943,4.506c-4.661-5.998-11.554-10.149-19.442-11.222   c0.172-5.105,0.01-9.789-1.072-10.871c-1.049-1.049-4.885-1.049-5.934,0c-1.081,1.082-1.242,5.766-1.07,10.872   c-7.889,1.074-14.78,5.224-19.44,11.221c-4.333-2.701-8.47-4.901-9.947-4.506c-1.434,0.385-3.35,3.707-2.967,5.139   c0.396,1.475,4.359,3.952,8.858,6.352c-1.416,3.469-2.211,7.257-2.211,11.235c0,3.977,0.795,7.766,2.211,11.233   c-4.499,2.4-8.462,4.877-8.858,6.352c-0.382,1.433,1.534,4.755,2.967,5.139c1.478,0.396,5.613-1.805,9.946-4.506   c4.66,5.997,11.552,10.148,19.441,11.221c-0.172,5.105-0.011,9.791,1.07,10.872c1.049,1.048,4.885,1.048,5.934,0   c1.082-1.081,1.244-5.765,1.072-10.871C61.926,78.37,68.82,74.217,73.48,68.22c4.333,2.701,8.469,4.901,9.943,4.506   c1.436-0.384,3.356-3.706,2.969-5.139C85.998,66.112,82.035,63.634,77.537,61.234z M74.132,50.001c0,3.057-0.595,5.972-1.636,8.666   c-2.761-1.354-5.292-2.523-6.902-3.264c0.22-1.081-0.226-2.23-1.236-2.812l-2.236-1.293c-0.05-0.029-0.107-0.028-0.158-0.053   c0.042-0.409,0.064-0.824,0.064-1.244s-0.022-0.836-0.064-1.245c0.051-0.025,0.108-0.024,0.158-0.053l2.236-1.295   c1.01-0.579,1.457-1.728,1.235-2.811c1.61-0.739,4.142-1.909,6.903-3.262C73.537,44.028,74.132,46.944,74.132,50.001z    M68.757,34.849c-2.554,1.715-4.834,3.324-6.281,4.348c-0.827-0.731-2.045-0.919-3.05-0.339l-2.243,1.294   c-0.054,0.031-0.084,0.085-0.135,0.119c-0.668-0.486-1.385-0.905-2.148-1.247c0.004-0.059,0.035-0.11,0.035-0.17v-2.588   c0-1.161-0.772-2.122-1.819-2.473c0.163-1.764,0.416-4.54,0.625-7.606C59.775,27.133,65.076,30.299,68.757,34.849z M50.003,55.426   c-2.995,0-5.43-2.435-5.43-5.425s2.435-5.424,5.43-5.424c2.989,0,5.421,2.434,5.421,5.424S52.992,55.426,50.003,55.426z    M46.257,26.189c0.209,3.065,0.461,5.841,0.625,7.605c-1.048,0.352-1.819,1.313-1.819,2.473v2.588c0,0.061,0.031,0.112,0.035,0.171   c-0.763,0.341-1.479,0.761-2.148,1.247c-0.051-0.035-0.081-0.089-0.135-0.12l-2.24-1.294c-1.008-0.58-2.226-0.392-3.052,0.339   c-1.447-1.025-3.726-2.633-6.28-4.349C34.925,30.3,40.226,27.135,46.257,26.189z M25.866,50.001c0-3.058,0.595-5.973,1.637-8.668   c2.761,1.353,5.292,2.522,6.902,3.262c-0.219,1.082,0.228,2.233,1.233,2.812l2.24,1.295c0.051,0.029,0.108,0.028,0.16,0.054   c-0.042,0.408-0.064,0.824-0.064,1.244s0.022,0.835,0.064,1.244c-0.052,0.025-0.109,0.024-0.16,0.053l-2.24,1.293   c-1.006,0.582-1.451,1.731-1.233,2.814c-1.61,0.74-4.141,1.91-6.902,3.262C26.46,55.974,25.866,53.058,25.866,50.001z    M31.242,65.153c2.555-1.716,4.835-3.325,6.281-4.349c0.828,0.731,2.047,0.919,3.052,0.338l2.24-1.294   c0.053-0.031,0.083-0.084,0.133-0.118c0.669,0.486,1.387,0.906,2.15,1.248c-0.004,0.059-0.035,0.11-0.035,0.17v2.587   c0,1.162,0.771,2.122,1.819,2.473c-0.164,1.764-0.417,4.54-0.625,7.605C40.225,72.867,34.924,69.701,31.242,65.153z M53.742,73.813   c-0.208-3.066-0.461-5.843-0.625-7.605c1.048-0.351,1.82-1.312,1.82-2.474v-2.587c0-0.06-0.03-0.11-0.034-0.17   c0.763-0.34,1.48-0.761,2.149-1.248c0.05,0.034,0.08,0.087,0.133,0.118l2.243,1.294c1.005,0.582,2.223,0.393,3.05-0.338   c1.447,1.024,3.728,2.633,6.282,4.349C65.076,69.703,59.776,72.869,53.742,73.813z"/></g><text x="0" y="115" fill="#000000" font-size="5px" font-weight="bold" font-family="'Helvetica Neue', Helvetica, Arial-Unicode, Arial, Sans-serif">Created by Andhi Yulianto</text><text x="0" y="120" fill="#000000" font-size="5px" font-weight="bold" font-family="'Helvetica Neue', Helvetica, Arial-Unicode, Arial, Sans-serif">from the Noun Project</text></svg>