<svg xmlns:dc="http://purl.org/dc/elements/1.1/" xmlns:cc="http://creativecommons.org/ns#" xmlns:rdf="http://www.w3.org/1999/02/22-rdf-syntax-ns#" xmlns:svg="http://www.w3.org/2000/svg" xmlns="http://www.w3.org/2000/svg" xmlns:sodipodi="http://sodipodi.sourceforge.net/DTD/sodipodi-0.dtd" xmlns:inkscape="http://www.inkscape.org/namespaces/inkscape" version="1.1" x="0px" y="0px" viewBox="0 0 100 125"><g transform="translate(0,-952.36218)"><path style="text-indent:0;text-transform:none;direction:ltr;block-progression:tb;baseline-shift:baseline;color:#000000;enable-background:accumulate;" d="m 43.571149,959.3622 c -0.489685,0.007 -0.899291,0.61747 -0.886535,1.13948 l 0,24.5343 -32.491524,32.54622 -3.1214406,0 c -0.825874,0.019 -1.377389,1.1488 -0.886818,1.816 l 14.6140146,20.0833 c -2.579669,-0.2939 -4.716531,-1.4048 -5.781685,-2.7775 -0.324319,-0.5609 -1.170496,-0.7253 -1.679917,-0.3264 -0.509421,0.3988 -0.556512,1.2628 -0.09308,1.7151 3.389315,4.3681 12.145359,5.8659 18.870555,-0.178 2.505791,2.8131 5.061508,5.4445 7.980909,6.3383 1.612028,0.4936 3.404658,0.3436 4.965839,-0.7121 1.264252,-0.8549 2.397756,-2.2455 3.440905,-4.2018 3.308386,3.318 6.302835,5.6332 9.505984,5.9822 1.782284,0.1941 3.575197,-0.3007 5.214331,-1.5312 1.353898,-1.0163 2.634094,-2.4954 3.90189,-4.4867 0.93437,0.8054 2.099055,1.3814 3.405118,1.8161 1.911614,0.6365 4.107401,0.9514 6.278385,0.8546 2.170985,-0.097 4.337008,-0.5888 6.136299,-1.5668 1.8,-0.978 3.265158,-2.5353 3.795591,-4.6291 0.169724,-0.6594 -0.385866,-1.4034 -1.064055,-1.4244 -0.520158,-0.013 -1.021536,0.3807 -1.135276,0.8903 -0.354685,1.3986 -1.300393,2.411 -2.695748,3.1691 -0.954212,0.5186 -2.121023,0.8611 -3.369685,1.0683 l 15.323386,-20.0833 c 0.398622,-0.5389 0.178937,-1.4219 -0.425551,-1.7092 2.318023,-18.71288 -4.431969,-31.47189 -13.727126,-40.30886 -9.45,-8.98381 -21.43807,-14.03716 -29.228031,-17.8399 -0.276024,-0.12563 -0.460984,-0.17062 -0.603071,-0.17804 -2.157519,0 -4.373504,0 -6.242952,0 z m 1.383307,2.27895 3.724724,0 0,55.94105 -3.724724,0 z m 8.300551,1.78043 c 7.56,3.61271 17.140393,8.28694 24.829369,15.59656 8.939764,8.49889 15.325158,20.40958 13.01811,38.56406 l -36.074054,0 c 8.33315,-12.6468 9.986811,-23.49384 8.193543,-32.83108 -1.563661,-8.14751 -5.670708,-15.09879 -9.966968,-21.32954 z m -2.30563,0.67656 c 4.380591,6.29879 8.519882,13.20684 10.038189,21.11589 1.74189,9.07187 0.147401,19.53947 -8.690669,32.36817 l -1.34752,0 z m -8.264763,24.17823 0,29.30583 -29.299146,0 z m -33.3783426,31.58483 81.2994436,0 -15.14622,19.8339 c -1.488898,-0.049 -2.966811,-0.2947 -4.220788,-0.7121 -1.604763,-0.5344 -2.819055,-1.3708 -3.369685,-2.2078 -0.43122,-0.6291 -1.531771,-0.5882 -1.915511,0.071 -1.441063,2.5121 -2.80878,4.174 -4.079055,5.1276 -1.270276,0.9536 -2.388189,1.2378 -3.618425,1.1038 -2.458701,-0.2678 -5.587441,-2.6211 -9.257599,-6.4451 -0.512362,-0.5272 -1.538858,-0.3489 -1.844645,0.3205 -1.145906,2.5427 -2.299961,4.001 -3.334252,4.7003 -1.034292,0.6993 -1.942547,0.7665 -3.050469,0.4273 -2.215771,-0.6784 -5.017925,-3.466 -7.732665,-6.552 -0.413858,-0.4692 -1.233815,-0.4867 -1.66709,-0.035 -2.419512,2.4899 -5.160366,3.632 -7.732772,3.9525 z" fill="#000000" fill-opacity="1" fill-rule="evenodd" stroke="none" marker="none" visibility="visible" display="inline" overflow="visible"/><path style="text-indent:0;text-transform:none;direction:ltr;block-progression:tb;baseline-shift:baseline;color:#000000;enable-background:accumulate;" d="m 67.704613,976.05968 a 1.1351839,1.1395885 0 0 0 -0.600945,2.06544 c 9.940394,7.34469 15.922559,14.55972 17.364685,25.43508 a 1.1351839,1.1395885 0 1 0 2.249645,-0.3003 C 85.183746,991.68664 78.617644,983.80266 68.448707,976.28931 a 1.1351839,1.1395885 0 0 0 -0.744094,-0.22963 z" fill="#000000" fill-opacity="1" fill-rule="evenodd" stroke="none" marker="none" visibility="visible" display="inline" overflow="visible"/><path style="text-indent:0;text-transform:none;direction:ltr;block-progression:tb;baseline-shift:baseline;color:#000000;enable-background:accumulate;" d="m 85.987723,1008.1503 a 1.1351839,1.1395885 0 0 0 -1.166457,1.1052 l -0.120472,2.7859 a 1.1351839,1.1395885 0 1 0 2.267362,0.1 l 0.120827,-2.7859 a 1.1351839,1.1395885 0 0 0 -1.10126,-1.2049 z" fill="#000000" fill-opacity="1" fill-rule="evenodd" stroke="none" marker="none" visibility="visible" display="inline" overflow="visible"/></g><text x="0" y="115" fill="#000000" font-size="5px" font-weight="bold" font-family="'Helvetica Neue', Helvetica, Arial-Unicode, Arial, Sans-serif">Created by Royyan Razka</text><text x="0" y="120" fill="#000000" font-size="5px" font-weight="bold" font-family="'Helvetica Neue', Helvetica, Arial-Unicode, Arial, Sans-serif">from the Noun Project</text></svg>