<?xml version="1.0" encoding="UTF-8"?>
<svg width="700pt" height="700pt" version="1.1" viewBox="0 0 700 700" xmlns="http://www.w3.org/2000/svg">
 <path d="m209.32 49.906c-41.887 0-75.828 34.012-75.828 75.895v162.13h-28.488c-2.3555-0.050782-4.6289 0.84766-6.3125 2.4922-1.6836 1.6484-2.6328 3.9023-2.6328 6.2578 0 2.3555 0.94922 4.6094 2.6328 6.2578 1.6836 1.6445 3.957 2.543 6.3125 2.4922h15.191v115.43c0 24.844 20.238 45.082 45.082 45.082h3.6758v35.207c0.10547 4.7539 3.9922 8.5547 8.75 8.5547 4.7578 0 8.6445-3.8008 8.75-8.5547v-35.207h327.03v35.207c-0.050781 2.3516 0.84766 4.6289 2.4922 6.3125 1.6484 1.6836 3.9023 2.6328 6.2578 2.6328s4.6133-0.94922 6.2578-2.6328c1.6484-1.6836 2.5469-3.9609 2.4922-6.3125v-35.207h3.6914c24.844 0 45.152-20.238 45.152-45.082v-115.43h15.176c2.3555 0.050781 4.6289-0.84766 6.3125-2.4922 1.6836-1.6484 2.6328-3.9023 2.6328-6.2578 0-2.3555-0.94922-4.6094-2.6328-6.2578-1.6836-1.6445-3.957-2.543-6.3125-2.4922h-444.01v-162.13c0-32.492 25.836-58.379 58.328-58.379 32.492 0 58.395 25.887 58.395 58.379v2.375c-27.234 4.25-48.176 27.809-48.176 56.207v15.57c0.003906 2.3242 0.93359 4.5508 2.582 6.1875 1.6484 1.6406 3.8789 2.5547 6.2031 2.5469h96.371c4.8125-0.019531 8.7031-3.9219 8.7148-8.7344v-15.57c0-28.426-20.934-52.004-48.191-56.227v-2.3594c0-41.887-34.012-75.895-75.895-75.895zm67.18 95.02c22 0 39.41 17.461 39.41 39.461v6.7852h-78.871v-6.7852c0-22 17.461-39.461 39.461-39.461zm-138.8 160.51h248.54v75.895c0.019531 4.8125 3.9219 8.707 8.7344 8.7188h103.34-0.003906c4.832 0.015625 8.7656-3.8828 8.7852-8.7188v-75.895h55.219v115.43c0 15.449-12.184 27.652-27.633 27.652h-369.4c-15.449 0-27.582-12.199-27.582-27.652zm266.05 0h85.844v67.113h-85.844z"/>
</svg>
