<svg xmlns="http://www.w3.org/2000/svg" xmlns:xlink="http://www.w3.org/1999/xlink" xml:space="preserve" style="shape-rendering:geometricPrecision;text-rendering:geometricPrecision;image-rendering:optimizeQuality;" viewBox="0 0 22.1112 12.207125000000001" x="0px" y="0px" fill-rule="evenodd" clip-rule="evenodd"><defs><style type="text/css">
   
    .fil1 {fill:black}
    .fil0 {fill:black;fill-rule:nonzero}
   
  </style></defs><g><path class="fil0" d="M-0 9.6168c5.9025,0.0378 23.7286,0.3604 21.9926,-0.0822 -1.5685,-0.3997 -1.7658,-0.5399 -3.7513,-1.2068 -1.9328,-1.5919 -2.028,-1.4783 -2.4148,-0.8672 -0.1852,-0.124 -0.3888,-0.2589 -0.6161,-0.4076 -2.8975,-4.5587 -1.6647,-1.8072 -3.4761,0.4357 -0.9284,-0.4931 -0.6901,0.1821 -0.8691,0.3397 -0.4503,-0.2795 -0.5285,-1.3921 -1.1994,-0.9587 -0.3148,-0.2248 -0.85,-1.7985 -1.339,-1.7387 -0.7395,0.0905 -1.8154,2.4703 -2.0902,2.7744 -2.6988,-1.8504 0.0314,1.1307 -6.2366,1.7114z"/><path class="fil0" d="M10.8583 0.9457c0.7323,0 1.3442,0.5829 1.3442,1.3215 0,0.7386 -0.6119,1.3216 -1.3442,1.3216 -0.7323,0 -1.3442,-0.583 -1.3442,-1.3216 0,-0.7386 0.6119,-1.3215 1.3442,-1.3215zm0 0.2176c-0.613,0 -1.1266,0.4844 -1.1266,1.1039 0,0.6196 0.5135,1.104 1.1266,1.104 0.6131,0 1.1266,-0.4844 1.1266,-1.104 0,-0.6195 -0.5136,-1.1039 -1.1266,-1.1039z"/><path class="fil1" d="M10.9093 0.2998l0 0.4534c0,0.067 -0.102,0.067 -0.102,0l0 -0.4534c0,-0.067 0.102,-0.067 0.102,0z"/><path class="fil1" d="M10.2333 0.401l0.155 0.426c0.0229,0.063 -0.0729,0.0979 -0.0958,0.0349l-0.155 -0.426c-0.023,-0.063 0.0728,-0.0979 0.0958,-0.0349z"/><path class="fil1" d="M9.6326 0.7273l0.2915 0.3473c0.043,0.0514 -0.0351,0.1169 -0.0781,0.0656l-0.2915 -0.3473c-0.043,-0.0514 0.0351,-0.1169 0.0781,-0.0656z"/><path class="fil1" d="M9.1799 1.2394l0.3926 0.2267c0.058,0.0335 0.0071,0.1218 -0.051,0.0883l-0.3926 -0.2267c-0.058,-0.0335 -0.0071,-0.1218 0.051,-0.0883z"/><path class="fil1" d="M8.9295 1.8754l0.4465 0.0788c0.066,0.0116 0.0483,0.112 -0.0177,0.1004l-0.4465 -0.0788c-0.066,-0.0116 -0.0483,-0.112 0.0177,-0.1004z"/><path class="fil1" d="M8.9118 2.5587l0.4465 -0.0787c0.066,-0.0116 0.0837,0.0888 0.0177,0.1004l-0.4465 0.0787c-0.066,0.0117 -0.0837,-0.0887 -0.0177,-0.1004z"/><path class="fil1" d="M9.1289 3.2069l0.3926 -0.2267c0.0581,-0.0335 0.109,0.0548 0.051,0.0883l-0.3926 0.2267c-0.0581,0.0335 -0.109,-0.0548 -0.051,-0.0883z"/><path class="fil1" d="M9.5545 3.7417l0.2915 -0.3473c0.043,-0.0513 0.1211,0.0142 0.0781,0.0655l-0.2915 0.3474c-0.043,0.0513 -0.1211,-0.0143 -0.0781,-0.0656z"/><path class="fil1" d="M10.1375 4.0987l0.155 -0.426c0.0229,-0.063 0.1187,-0.0281 0.0958,0.0348l-0.155 0.4261c-0.023,0.0629 -0.1188,0.0281 -0.0958,-0.0349z"/><path class="fil1" d="M10.8073 4.2348l0 -0.4534c0,-0.067 0.102,-0.067 0.102,0l0 0.4534c0,0.067 -0.102,0.067 -0.102,0z"/><path class="fil1" d="M11.4833 4.1336l-0.155 -0.4261c-0.023,-0.0629 0.0728,-0.0978 0.0958,-0.0348l0.155 0.426c0.0229,0.063 -0.0729,0.0978 -0.0958,0.0349z"/><path class="fil1" d="M12.0839 3.8073l-0.2914 -0.3474c-0.0431,-0.0513 0.035,-0.1168 0.0781,-0.0655l0.2914 0.3473c0.0431,0.0513 -0.035,0.1169 -0.0781,0.0656z"/><path class="fil1" d="M12.5367 3.2952l-0.3926 -0.2267c-0.058,-0.0335 -0.0071,-0.1218 0.0509,-0.0883l0.3927 0.2267c0.058,0.0335 0.007,0.1218 -0.051,0.0883z"/><path class="fil1" d="M12.7871 2.6591l-0.4465 -0.0787c-0.066,-0.0116 -0.0483,-0.112 0.0177,-0.1004l0.4465 0.0787c0.0659,0.0117 0.0482,0.1121 -0.0177,0.1004z"/><path class="fil1" d="M12.8048 1.9758l-0.4465 0.0788c-0.066,0.0116 -0.0837,-0.0888 -0.0177,-0.1004l0.4465 -0.0788c0.0659,-0.0116 0.0836,0.0888 0.0177,0.1004z"/><path class="fil1" d="M12.5877 1.3277l-0.3927 0.2267c-0.058,0.0335 -0.1089,-0.0548 -0.0509,-0.0883l0.3926 -0.2267c0.058,-0.0335 0.109,0.0548 0.051,0.0883z"/><path class="fil1" d="M12.162 0.7929l-0.2914 0.3473c-0.0431,0.0513 -0.1212,-0.0142 -0.0781,-0.0656l0.2914 -0.3473c0.0431,-0.0513 0.1212,0.0142 0.0781,0.0656z"/><path class="fil1" d="M11.5791 0.4359l-0.155 0.426c-0.023,0.063 -0.1188,0.0281 -0.0958,-0.0349l0.155 -0.426c0.0229,-0.063 0.1187,-0.0281 0.0958,0.0349z"/><path class="fil1" d="M11.3392 0.0808l-0.0977 0.5064c-0.0144,0.0748 -0.1283,0.0529 -0.1138,-0.022l0.0977 -0.5063c0.0144,-0.0748 0.1283,-0.0529 0.1138,0.0219z"/><path class="fil1" d="M10.5624 0.0482l0.0814 0.5092c0.012,0.0753 -0.1025,0.0936 -0.1145,0.0183l-0.0814 -0.5092c-0.012,-0.0753 0.1025,-0.0936 0.1145,-0.0183z"/><path class="fil1" d="M9.8213 0.2832l0.2506 0.4507c0.0371,0.0666 -0.0643,0.123 -0.1013,0.0564l-0.2506 -0.4507c-0.0371,-0.0666 0.0643,-0.123 0.1013,-0.0564z"/><path class="fil1" d="M9.2053 0.7575l0.3896 0.3378c0.0576,0.0499 -0.0184,0.1376 -0.0759,0.0876l-0.3897 -0.3378c-0.0576,-0.0499 0.0184,-0.1375 0.076,-0.0876z"/><path class="fil1" d="M8.7886 1.4139l0.4817 0.1842c0.0712,0.0272 0.0298,0.1355 -0.0414,0.1083l-0.4817 -0.1842c-0.0712,-0.0272 -0.0298,-0.1355 0.0414,-0.1083z"/><path class="fil1" d="M8.6216 2.1732l0.5156 0.0083c0.0762,0.0013 0.0743,0.1172 -0.0019,0.116l-0.5156 -0.0083c-0.0762,-0.0012 -0.0743,-0.1172 0.0019,-0.116z"/><path class="fil1" d="M8.7243 2.9439l0.4874 -0.1686c0.072,-0.0249 0.1099,0.0847 0.0379,0.1096l-0.4874 0.1686c-0.072,0.0249 -0.1099,-0.0847 -0.0379,-0.1096z"/><path class="fil1" d="M9.0844 3.633l0.4003 -0.3251c0.0592,-0.0481 0.1323,0.042 0.0731,0.09l-0.4003 0.3251c-0.0591,0.048 -0.1322,-0.042 -0.0731,-0.09z"/><path class="fil1" d="M9.6585 4.1573l0.265 -0.4424c0.0392,-0.0654 0.1386,-0.0058 0.0995,0.0596l-0.265 0.4424c-0.0392,0.0653 -0.1387,0.0058 -0.0995,-0.0596z"/><path class="fil1" d="M10.3773 4.4536l0.0977 -0.5063c0.0144,-0.0748 0.1283,-0.0529 0.1139,0.022l-0.0978 0.5063c-0.0144,0.0748 -0.1283,0.0529 -0.1138,-0.022z"/><path class="fil1" d="M11.1541 4.4863l-0.0814 -0.5093c-0.012,-0.0752 0.1025,-0.0935 0.1145,-0.0182l0.0814 0.5092c0.012,0.0752 -0.1025,0.0935 -0.1145,0.0183z"/><path class="fil1" d="M11.8952 4.2513l-0.2506 -0.4507c-0.0371,-0.0666 0.0643,-0.123 0.1013,-0.0564l0.2506 0.4507c0.0371,0.0666 -0.0643,0.123 -0.1013,0.0564z"/><path class="fil1" d="M12.5112 3.777l-0.3896 -0.3378c-0.0576,-0.0499 0.0184,-0.1376 0.0759,-0.0876l0.3897 0.3378c0.0576,0.0499 -0.0184,0.1375 -0.076,0.0876z"/><path class="fil1" d="M12.9279 3.1206l-0.4817 -0.1842c-0.0712,-0.0272 -0.0298,-0.1355 0.0414,-0.1083l0.4817 0.1842c0.0712,0.0272 0.0298,0.1355 -0.0414,0.1083z"/><path class="fil1" d="M13.095 2.3613l-0.5157 -0.0083c-0.0762,-0.0013 -0.0743,-0.1172 0.0019,-0.116l0.5156 0.0083c0.0762,0.0012 0.0743,0.1172 -0.0018,0.116z"/><path class="fil1" d="M12.9922 1.5906l-0.4874 0.1685c-0.072,0.025 -0.1099,-0.0846 -0.0379,-0.1096l0.4874 -0.1685c0.072,-0.0249 0.1099,0.0847 0.0379,0.1096z"/><path class="fil1" d="M12.6321 0.9015l-0.4003 0.3251c-0.0592,0.0481 -0.1323,-0.042 -0.0731,-0.09l0.4003 -0.3251c0.0591,-0.048 0.1322,0.042 0.0731,0.09z"/><path class="fil1" d="M12.058 0.3772l-0.265 0.4424c-0.0392,0.0654 -0.1386,0.0058 -0.0995,-0.0596l0.265 -0.4424c0.0392,-0.0654 0.1387,-0.0058 0.0995,0.0596z"/></g><text x="0" y="24.765700000000002" fill="#000000" font-size="5px" font-weight="bold" font-family="'Helvetica Neue', Helvetica, Arial-Unicode, Arial, Sans-serif">Created by VANISHA</text><text x="0" y="29.765700000000002" fill="#000000" font-size="5px" font-weight="bold" font-family="'Helvetica Neue', Helvetica, Arial-Unicode, Arial, Sans-serif">from the Noun Project</text></svg>