<?xml version="1.0" encoding="UTF-8"?>
<svg width="700pt" height="700pt" version="1.1" viewBox="0 0 700 700" xmlns="http://www.w3.org/2000/svg" xmlns:xlink="http://www.w3.org/1999/xlink">
 <defs>
  <symbol id="i" overflow="visible">
   <path d="m37.516-2.25c-1.9297 1.0117-3.9453 1.7734-6.0469 2.2812-2.0938 0.50781-4.2812 0.76562-6.5625 0.76562-6.793 0-12.18-1.8984-16.156-5.7031-3.9688-3.8008-5.9531-8.957-5.9531-15.469 0-6.5195 1.9844-11.68 5.9531-15.484 3.9766-3.8008 9.3633-5.7031 16.156-5.7031 2.2812 0 4.4688 0.25781 6.5625 0.76562 2.1016 0.51172 4.1172 1.2656 6.0469 2.2656v8.4531c-1.9492-1.332-3.8711-2.3047-5.7656-2.9219-1.8984-0.625-3.8906-0.9375-5.9844-0.9375-3.7617 0-6.7188 1.2031-8.875 3.6094-2.1484 2.4062-3.2188 5.7266-3.2188 9.9531 0 4.2109 1.0703 7.5156 3.2188 9.9219 2.1562 2.4062 5.1133 3.6094 8.875 3.6094 2.0938 0 4.0859-0.30469 5.9844-0.92188 1.8945-0.625 3.8164-1.5977 5.7656-2.9219z"/>
  </symbol>
  <symbol id="e" overflow="visible">
   <path d="m27.453-22.281c-0.85547-0.40625-1.7109-0.70312-2.5625-0.89062-0.84375-0.19531-1.6953-0.29688-2.5469-0.29688-2.5234 0-4.4609 0.80859-5.8125 2.4219-1.3555 1.6172-2.0312 3.9297-2.0312 6.9375v14.109h-9.7969v-30.625h9.7969v5.0312c1.25-2.0078 2.6914-3.4727 4.3281-4.3906 1.6328-0.91406 3.5859-1.375 5.8594-1.375 0.33203 0 0.6875 0.015625 1.0625 0.046875 0.38281 0.023438 0.94141 0.078125 1.6719 0.17188z"/>
  </symbol>
  <symbol id="a" overflow="visible">
   <path d="m35.281-15.391v2.7812h-22.891c0.23828 2.3047 1.0664 4.0273 2.4844 5.1719 1.4258 1.1484 3.4141 1.7188 5.9688 1.7188 2.0508 0 4.1562-0.30078 6.3125-0.90625 2.1641-0.61328 4.3906-1.5391 6.6719-2.7812v7.5469c-2.3125 0.875-4.6328 1.5391-6.9531 1.9844-2.3125 0.44531-4.625 0.67188-6.9375 0.67188-5.543 0-9.8516-1.4062-12.922-4.2188-3.0742-2.8203-4.6094-6.7734-4.6094-11.859 0-5 1.5039-8.9258 4.5156-11.781 3.0195-2.8633 7.1758-4.2969 12.469-4.2969 4.8125 0 8.6602 1.4492 11.547 4.3438 2.8945 2.8984 4.3438 6.7734 4.3438 11.625zm-10.062-3.2656c0-1.8516-0.54688-3.3477-1.6406-4.4844-1.0859-1.1445-2.5-1.7188-4.25-1.7188-1.8984 0-3.4375 0.53906-4.625 1.6094-1.1797 1.0625-1.9141 2.5938-2.2031 4.5938z"/>
  </symbol>
  <symbol id="d" overflow="visible">
   <path d="m18.438-13.781c-2.043 0-3.5781 0.35156-4.6094 1.0469-1.0312 0.6875-1.5469 1.7031-1.5469 3.0469 0 1.2422 0.41016 2.2148 1.2344 2.9219 0.83203 0.69922 1.9883 1.0469 3.4688 1.0469 1.8438 0 3.3906-0.66016 4.6406-1.9844 1.2578-1.3203 1.8906-2.9727 1.8906-4.9531v-1.125zm14.953-3.6875v17.469h-9.875v-4.5469c-1.3125 1.8672-2.793 3.2266-4.4375 4.0781-1.6367 0.84375-3.6328 1.2656-5.9844 1.2656-3.168 0-5.7422-0.92578-7.7188-2.7812-1.9805-1.8516-2.9688-4.2539-2.9688-7.2031 0-3.5938 1.2344-6.2266 3.7031-7.9062 2.4688-1.6758 6.3477-2.5156 11.641-2.5156h5.7656v-0.76562c0-1.5508-0.60938-2.6875-1.8281-3.4062s-3.125-1.0781-5.7188-1.0781c-2.0938 0-4.0469 0.21484-5.8594 0.64062-1.8047 0.41797-3.4766 1.043-5.0156 1.875v-7.4688c2.0938-0.50781 4.1953-0.89453 6.3125-1.1562 2.1133-0.25781 4.2266-0.39062 6.3438-0.39062 5.5195 0 9.5039 1.0898 11.953 3.2656 2.457 2.1797 3.6875 5.7188 3.6875 10.625z"/>
  </symbol>
  <symbol id="h" overflow="visible">
   <path d="m15.391-39.328v8.7031h10.094v7h-10.094v12.984c0 1.4297 0.28125 2.3906 0.84375 2.8906 0.57031 0.5 1.6953 0.75 3.375 0.75h5.0312v7h-8.3906c-3.8672 0-6.6055-0.80469-8.2188-2.4219-1.6172-1.6133-2.4219-4.3516-2.4219-8.2188v-12.984h-4.875v-7h4.875v-8.7031z"/>
  </symbol>
  <symbol id="c" overflow="visible">
   <path d="m25.547-26.141v-16.406h9.8438v42.547h-9.8438v-4.4375c-1.3555 1.8125-2.8438 3.1406-4.4688 3.9844-1.6172 0.83203-3.4922 1.25-5.625 1.25-3.7734 0-6.8711-1.5-9.2969-4.5-2.4297-3-3.6406-6.8594-3.6406-11.578 0-4.7266 1.2109-8.5859 3.6406-11.578 2.4258-3 5.5234-4.5 9.2969-4.5 2.1133 0 3.9844 0.42188 5.6094 1.2656 1.6328 0.84375 3.1289 2.1641 4.4844 3.9531zm-6.4531 19.828c2.0938 0 3.6914-0.76562 4.7969-2.2969 1.1016-1.5312 1.6562-3.7539 1.6562-6.6719 0-2.9141-0.55469-5.1406-1.6562-6.6719-1.1055-1.5312-2.7031-2.2969-4.7969-2.2969-2.0859 0-3.6797 0.76562-4.7812 2.2969-1.1055 1.5312-1.6562 3.7578-1.6562 6.6719 0 2.918 0.55078 5.1406 1.6562 6.6719 1.1016 1.5312 2.6953 2.2969 4.7812 2.2969z"/>
  </symbol>
  <symbol id="g" overflow="visible">
   <path d="m21-6.3125c2.0938 0 3.6914-0.76562 4.7969-2.2969 1.1016-1.5312 1.6562-3.7539 1.6562-6.6719 0-2.9141-0.55469-5.1406-1.6562-6.6719-1.1055-1.5312-2.7031-2.2969-4.7969-2.2969s-3.7031 0.77344-4.8281 2.3125c-1.1172 1.5312-1.6719 3.75-1.6719 6.6562 0 2.8984 0.55469 5.1172 1.6719 6.6562 1.125 1.543 2.7344 2.3125 4.8281 2.3125zm-6.5-19.828c1.3438-1.7891 2.832-3.1094 4.4688-3.9531 1.6445-0.84375 3.5352-1.2656 5.6719-1.2656 3.7695 0 6.8672 1.5 9.2969 4.5 2.4258 2.9922 3.6406 6.8516 3.6406 11.578 0 4.7188-1.2148 8.5781-3.6406 11.578-2.4297 3-5.5273 4.5-9.2969 4.5-2.1367 0-4.0273-0.42188-5.6719-1.2656-1.6367-0.85156-3.125-2.1758-4.4688-3.9688v4.4375h-9.7969v-42.547h9.7969z"/>
  </symbol>
  <symbol id="f" overflow="visible">
   <path d="m0.6875-30.625h9.7812l8.2344 20.781 7-20.781h9.7969l-12.891 33.531c-1.293 3.4062-2.8047 5.7852-4.5312 7.1406-1.7188 1.3633-3.9922 2.0469-6.8125 2.0469h-5.6562v-6.4375h3.0625c1.6562 0 2.8594-0.26562 3.6094-0.79688 0.75781-0.52344 1.3516-1.4648 1.7812-2.8281l0.26562-0.85938z"/>
  </symbol>
  <symbol id="b" overflow="visible">
   <path d="m5.1406-40.828h13.406l9.2969 21.844 9.3438-21.844h13.375v40.828h-9.9531v-29.859l-9.4062 22.016h-6.6719l-9.4062-22.016v29.859h-9.9844z"/>
  </symbol>
 </defs>
 <g>
  <path d="m590.06 253.76c-3.6953 0-7.2031 0.71875-10.562 1.7461l-52.719-91.648c3.1133-5.3633 5.0391-11.512 5.0391-18.168 0-20.07-16.32-36.391-36.391-36.391-11.008 0-20.766 5.0195-27.453 12.77l-83.215-32.68c0.25781-1.7344 0.53906-3.4727 0.53906-5.2734 0-20.07-16.32-36.391-36.391-36.391-20.07 0-36.391 16.328-36.391 36.391 0 1.3789 0.25781 2.6758 0.40234 4.0078l-70.516 9.9219c-6.1055-11.547-18.098-19.531-32.055-19.531-20.07 0-36.391 16.328-36.391 36.391 0 6.875 2.0273 13.238 5.3555 18.727l-58.723 60.324c-3.3945-1.0547-6.9219-1.7812-10.652-1.7812-20.07 0-36.391 16.328-36.391 36.391 0 20.059 16.328 36.391 36.391 36.391 6.6523 0 12.812-1.9258 18.176-5.0508l94.652 57.289c-0.13281 1.2305-0.37891 2.4531-0.37891 3.7305 0 20.07 16.328 36.391 36.391 36.391 10.293 0 19.566-4.3438 26.188-11.246l138.9 118.05c-1.2773 3.707-2.1172 7.6289-2.1172 11.762 0 20.07 16.32 36.391 36.391 36.391 20.07 0 36.391-16.32 36.391-36.391 0-2.2305-0.26953-4.3906-0.66016-6.5078l92.488-143.21c1.2305 0.125 2.4297 0.37109 3.6953 0.37109 20.07 0 36.391-16.32 36.391-36.379 0-20.055-16.316-36.387-36.387-36.387zm-309.95-10.57c15.637-2.0391 28.191-13.91 31.035-29.289l57.176 10.809c-0.14453 1.2891-0.39062 2.543-0.39062 3.8516 0 7.8047 2.5312 15.02 6.7422 20.957l-81.098 61.363c-3.2266-11.121-11.523-20.004-22.309-23.992zm68.789-122.68c3.0469 0 5.9688-0.48047 8.793-1.1992l27.52 78.422c-6.1719 3.8398-11.121 9.4062-14.113 16.105l-59.773-11.301c-1.1641-8.8477-5.4414-16.645-11.805-22.309l39.445-61.266c3.1914 0.91016 6.4727 1.5469 9.9336 1.5469zm-54.039 203.44 87.73-66.383c6.082 4.5703 13.551 7.3789 21.727 7.3789 5.7461 0 11.109-1.457 15.949-3.8398l30.609 56.156c-6.4844 5.4336-11.066 12.98-12.555 21.684l-143.57-13.898c0.046875-0.38281 0.089844-0.73828 0.11328-1.0977zm258.81-33.801c0 1.7695 0.26953 3.4844 0.52734 5.1953l-49.504 30.141c-6.4727-10.078-17.73-16.824-30.574-16.824-4.8398 0-9.4414 0.99609-13.664 2.7109l-30.91-56.684c6.8672-6.6211 11.176-15.871 11.176-26.129 0-7.168-2.1523-13.809-5.7461-19.441l39.246-33.969c5.9805 4.3242 13.281 6.9453 21.211 6.9453 9.1055 0 17.328-3.4727 23.711-9.0156l50.188 87.238c-9.4453 6.5781-15.66 17.477-15.66 29.832zm-87.414-122.91-38.742 33.523c-6.3047-5.2734-14.324-8.5781-23.184-8.5781-3.0352 0-5.9453 0.48047-8.7695 1.1875l-27.52-78.434c5.7578-3.5859 10.383-8.7148 13.395-14.816l80.426 31.586c-1.8047 4.3125-2.8242 9.0391-2.8242 14-0.007812 8.0703 2.7266 15.484 7.2188 21.531zm-137.61-52.91-38.484 59.742c-4.5234-2.0156-9.4883-3.1914-14.75-3.1914-5.3438 0-10.371 1.2227-14.941 3.293l-24.203-33.812c6.4531-6.5742 10.461-15.559 10.461-25.457 0-2.082-0.28125-4.0898-0.61719-6.0703l69.676-9.8008c2.8125 6.2148 7.2617 11.535 12.859 15.297zm-142.07 27.91c6.3945 5.5664 14.648 9.0625 23.777 9.0625 6.1133 0 11.805-1.6562 16.867-4.3438l23.91 33.422c-7.3594 6.6523-12.074 16.16-12.098 26.836l-93.363 14.906c-1.7031-9.4297-7.0352-17.551-14.504-22.961zm-40.746 91.191 95.078-15.176c4.0195 12.602 14.594 22.242 27.797 24.73l-8.4336 41.73c-0.50391-0.023438-0.98438-0.15625-1.5-0.15625-14.695 0-27.305 8.793-33.051 21.348l-88.469-53.547c4.5664-5.2422 7.6133-11.727 8.5781-18.93zm145.97 102.58 146.44 14.191c2.1836 15.344 13.867 27.641 28.984 30.543l-13.652 59.215c-9.9219 1.2539-18.547 6.4531-24.328 14.043l-137.88-117.2c0.13672-0.26563 0.30469-0.52344 0.4375-0.79297zm173.22 104.18 13.652-59.215c17.91-2.2734 31.832-17.426 31.832-35.918 0-3.1914-0.54687-6.2383-1.3203-9.1836l48.461-29.535c3.7188 7.3906 9.7891 13.352 17.328 16.824l-86.117 133.36c-5.3008-8.3359-13.812-14.406-23.836-16.332z"/>
  <use x="70" y="728" xlink:href="#i"/>
  <use x="111.097656" y="728" xlink:href="#e"/>
  <use x="138.714844" y="728" xlink:href="#a"/>
  <use x="176.695312" y="728" xlink:href="#d"/>
  <use x="214.484375" y="728" xlink:href="#h"/>
  <use x="241.253906" y="728" xlink:href="#a"/>
  <use x="279.234375" y="728" xlink:href="#c"/>
  <use x="338.816406" y="728" xlink:href="#g"/>
  <use x="378.902344" y="728" xlink:href="#f"/>
  <use x="434.902344" y="728" xlink:href="#b"/>
  <use x="490.628906" y="728" xlink:href="#a"/>
  <use x="528.609375" y="728" xlink:href="#c"/>
  <use x="588.191406" y="728" xlink:href="#b"/>
  <use x="643.917969" y="728" xlink:href="#d"/>
  <use x="681.707031" y="728" xlink:href="#e"/>
 </g>
</svg>
