<svg xmlns="http://www.w3.org/2000/svg" data-name="Layer 1" viewBox="0 0 100 125" x="0px" y="0px"><title>Artboard 84</title><path d="M72,19H46a9,9,0,0,0-9,9v9H28a9,9,0,0,0-9,9V72a9,9,0,0,0,9,9H54a9,9,0,0,0,9-9V63h9a9,9,0,0,0,9-9V28A9,9,0,0,0,72,19ZM57,72a3,3,0,0,1-3,3H28a3,3,0,0,1-3-3V46a3,3,0,0,1,3-3h9V54a9,9,0,0,0,9,9H57Zm0-15H46a3,3,0,0,1-3-3V43H54a3,3,0,0,1,3,3Zm18-3a3,3,0,0,1-3,3H63V46a9,9,0,0,0-9-9H43V28a3,3,0,0,1,3-3H72a3,3,0,0,1,3,3Z"/><text x="0" y="115" fill="#000000" font-size="5px" font-weight="bold" font-family="'Helvetica Neue', Helvetica, Arial-Unicode, Arial, Sans-serif">Created by Gregor Cresnar</text><text x="0" y="120" fill="#000000" font-size="5px" font-weight="bold" font-family="'Helvetica Neue', Helvetica, Arial-Unicode, Arial, Sans-serif">from the Noun Project</text></svg>