<svg xmlns="http://www.w3.org/2000/svg" xmlns:ooo="http://xml.openoffice.org/svg/export" xmlns:xlink="http://www.w3.org/1999/xlink" xmlns:presentation="http://sun.com/xmlns/staroffice/presentation" xmlns:smil="http://www.w3.org/2001/SMIL20/" xmlns:anim="urn:oasis:names:tc:opendocument:xmlns:animation:1.0" version="1.2" viewBox="0 0 2540 3175" preserveAspectRatio="xMidYMid" fill-rule="evenodd" stroke-width="28.222" stroke-linejoin="round" xml:space="preserve" x="0px" y="0px"><defs class="ClipPathGroup"><clipPath id="a" clipPathUnits="userSpaceOnUse"><rect x="0" y="0" width="2540" height="2540"/></clipPath></defs><g class="SlideGroup"><g><g><g class="Slide" clip-path="url(#a)"><g class="Page"><g class="com.sun.star.drawing.ClosedBezierShape"><g><rect class="BoundingBox" stroke="none" fill="none" x="152" y="152" width="2237" height="2237"/><path fill="rgb(0,0,0)" stroke="none" d="M 1906,1831 L 1834,1892 C 1834,1893 1835,1893 1835,1893 1875,1948 1949,1885 1908,1833 1907,1832 1907,1832 1906,1831 Z M 1804,1853 L 1876,1792 C 1862,1774 1848,1755 1833,1736 L 1948,1736 C 1954,1736 1960,1734 1966,1731 1972,1728 1976,1724 1980,1718 1983,1712 1985,1706 1985,1699 L 1985,1533 1985,1527 1985,977 C 1985,973 1984,969 1983,966 1983,962 1981,958 1979,954 1977,951 1976,949 1973,946 L 1673,639 C 1671,637 1669,635 1666,635 1665,634 1663,633 1662,632 1656,629 1650,627 1643,627 L 837,627 C 823,627 810,629 797,632 783,635 770,639 759,645 734,656 713,673 693,691 674,711 658,733 647,757 641,769 636,782 634,795 631,809 629,822 629,836 L 629,1527 C 629,1553 635,1577 644,1600 654,1623 668,1644 684,1664 702,1683 722,1698 743,1711 755,1718 767,1724 781,1728 L 781,1983 C 781,1990 783,1995 786,2001 790,2007 794,2011 800,2015 806,2018 811,2020 818,2020 825,2020 831,2018 837,2015 839,2014 841,2012 843,2011 L 1154,1736 1715,1736 C 1744,1775 1774,1814 1804,1853 Z M 1457,1252 C 1417,1224 1378,1196 1338,1168 1355,1215 1372,1263 1388,1310 1478,1427 1568,1545 1658,1662 L 1140,1662 C 1133,1662 1127,1664 1121,1667 1119,1668 1117,1670 1116,1671 L 855,1901 855,1698 C 855,1691 854,1686 851,1680 847,1674 843,1670 837,1666 833,1663 828,1662 823,1661 809,1659 793,1654 779,1646 765,1638 752,1627 740,1614 728,1601 720,1587 713,1571 707,1557 703,1542 703,1527 L 703,836 C 703,828 704,820 706,812 708,805 711,796 715,788 722,772 732,757 746,744 759,730 774,720 790,713 798,709 806,706 813,704 821,702 829,701 837,701 L 1609,701 1609,973 C 1609,980 1611,985 1614,991 1618,997 1622,1001 1628,1005 1634,1008 1640,1010 1646,1010 L 1910,1010 1910,1527 1910,1533 1910,1662 1782,1662 1775,1662 C 1669,1525 1562,1389 1457,1252 Z M 910,1041 C 912,1024 917,1010 926,998 935,986 947,977 963,969 974,962 980,953 980,940 980,932 978,924 972,919 967,913 959,910 950,910 936,910 920,918 902,933 884,947 869,967 856,992 844,1018 838,1045 838,1073 838,1105 845,1129 859,1147 873,1163 891,1172 912,1172 932,1172 948,1166 962,1154 975,1142 982,1126 982,1108 982,1089 975,1073 962,1060 948,1047 934,1041 917,1041 L 910,1041 Z M 1104,1041 C 1106,1024 1111,1010 1119,998 1127,987 1139,978 1156,969 1166,963 1172,953 1172,940 1172,931 1170,924 1164,918 1160,913 1153,910 1143,910 1132,910 1120,914 1107,923 1094,932 1081,943 1070,958 1058,973 1049,990 1041,1010 1034,1029 1030,1051 1030,1073 1030,1105 1037,1129 1052,1147 1066,1164 1083,1173 1105,1173 1124,1173 1141,1166 1155,1155 1167,1142 1174,1126 1174,1108 1174,1089 1167,1073 1155,1060 1141,1047 1126,1041 1110,1041 L 1104,1041 Z M 1270,153 C 1904,153 2387,636 2387,1270 2387,1904 1904,2387 1270,2387 636,2387 153,1904 153,1270 153,636 636,153 1270,153 Z"/></g></g></g></g></g></g></g><text x="0" y="2555" fill="#000000" font-size="5px" font-weight="bold" font-family="'Helvetica Neue', Helvetica, Arial-Unicode, Arial, Sans-serif">Created by Erik Arndt</text><text x="0" y="2560" fill="#000000" font-size="5px" font-weight="bold" font-family="'Helvetica Neue', Helvetica, Arial-Unicode, Arial, Sans-serif">from the Noun Project</text></svg>