<svg xmlns="http://www.w3.org/2000/svg" data-name="Layer 1" viewBox="0 0 100 125" x="0px" y="0px"><title>Artboard 48</title><path d="M22,71a7,7,0,0,0,7,7h8a7,7,0,0,0,7-7V63a7,7,0,0,0-.41-2.34L60.65,43.59A7,7,0,0,0,63,44h8a7,7,0,0,0,7-7V29a7,7,0,0,0-7-7H63a7,7,0,0,0-7,7v8a7,7,0,0,0,.41,2.34L39.34,56.41A7,7,0,0,0,37,56H29a7,7,0,0,0-7,7ZM62,29a1,1,0,0,1,1-1h8a1,1,0,0,1,1,1v8a1,1,0,0,1-1,1H63a1,1,0,0,1-1-1ZM28,63a1,1,0,0,1,1-1h8a1,1,0,0,1,1,1v8a1,1,0,0,1-1,1H29a1,1,0,0,1-1-1Z"/><path d="M71,66a5,5,0,0,1-5,5H53v6H66A11,11,0,0,0,77,66V53H71Z"/><path d="M23,34V47h6V34a5,5,0,0,1,5-5H47V23H34A11,11,0,0,0,23,34Z"/><text x="0" y="115" fill="#000000" font-size="5px" font-weight="bold" font-family="'Helvetica Neue', Helvetica, Arial-Unicode, Arial, Sans-serif">Created by Gregor Cresnar</text><text x="0" y="120" fill="#000000" font-size="5px" font-weight="bold" font-family="'Helvetica Neue', Helvetica, Arial-Unicode, Arial, Sans-serif">from the Noun Project</text></svg>