<svg xmlns="http://www.w3.org/2000/svg" xmlns:xlink="http://www.w3.org/1999/xlink" version="1.1" x="0px" y="0px" viewBox="0 0 100 125" style="enable-background:new 0 0 100 100;" xml:space="preserve"><style type="text/css">
	.st0{fill:none;}
</style><path class="st0" d="M81.67,20.39c-0.58,0.45-1.42,0.43-1.95-0.1c-0.54-0.54-0.55-1.37-0.1-1.95C71.85,11.07,61.44,6.61,50,6.61  C26.08,6.61,6.61,26.08,6.61,50c0,11.44,4.46,21.85,11.72,29.61c0.58-0.47,1.43-0.45,1.97,0.09c0.54,0.54,0.56,1.39,0.09,1.97  C28.15,88.93,38.56,93.39,50,93.39c23.92,0,43.39-19.46,43.39-43.39C93.39,38.56,88.93,28.15,81.67,20.39z M70.07,70.07  c-0.56,0.56-1.46,0.57-2.05,0.04c-4.78,4.29-11.1,6.91-18.02,6.91C35.1,77.02,22.98,64.9,22.98,50c0-6.92,2.62-13.24,6.91-18.02  c-0.53-0.58-0.53-1.48,0.04-2.05c0.56-0.56,1.46-0.57,2.05-0.04c4.78-4.29,11.1-6.91,18.02-6.91c14.9,0,27.02,12.12,27.02,27.02  c0,6.92-2.62,13.24-6.91,18.02C70.64,68.61,70.63,69.5,70.07,70.07z"/><path class="st0" d="M67.96,67.96c0.54-0.54,1.37-0.55,1.95-0.1c4.26-4.74,6.85-11,6.85-17.86c0-14.76-12.01-26.77-26.77-26.77  c-6.86,0-13.12,2.6-17.86,6.85c0.45,0.58,0.43,1.42-0.1,1.95c-0.54,0.54-1.37,0.55-1.95,0.1c-4.26,4.74-6.85,11-6.85,17.86  c0,14.76,12.01,26.77,26.77,26.77c6.86,0,13.12-2.6,17.86-6.85C67.41,69.33,67.43,68.5,67.96,67.96z M50,54.73  c-2.61,0-4.73-2.12-4.73-4.73s2.12-4.73,4.73-4.73s4.73,2.12,4.73,4.73S52.61,54.73,50,54.73z"/><circle cx="50" cy="50" r="4.73"/><path d="M50,22.98c-6.92,0-13.24,2.62-18.02,6.91c-0.58-0.53-1.48-0.53-2.05,0.04c-0.56,0.56-0.57,1.46-0.04,2.05  c-4.29,4.78-6.91,11.1-6.91,18.02c0,14.9,12.12,27.02,27.02,27.02c6.92,0,13.24-2.62,18.02-6.91c0.58,0.53,1.48,0.53,2.05-0.04  c0.56-0.56,0.57-1.46,0.04-2.05c4.29-4.78,6.91-11.1,6.91-18.02C77.02,35.1,64.9,22.98,50,22.98z M23.23,50  c0-6.86,2.6-13.12,6.85-17.86c0.58,0.45,1.42,0.43,1.95-0.1c0.54-0.54,0.55-1.37,0.1-1.95c4.74-4.26,11-6.85,17.86-6.85  c14.76,0,26.77,12.01,26.77,26.77c0,6.86-2.6,13.12-6.85,17.86c-0.58-0.45-1.42-0.44-1.95,0.1c-0.54,0.54-0.55,1.37-0.1,1.95  c-4.74,4.26-11,6.85-17.86,6.85C35.24,76.77,23.23,64.76,23.23,50z"/><path d="M81.86,20.23c0.53-0.58,0.53-1.48-0.04-2.05c-0.56-0.56-1.47-0.57-2.05-0.04C71.97,10.84,61.5,6.36,50,6.36  C25.94,6.36,6.36,25.94,6.36,50c0,11.5,4.48,21.97,11.78,29.78c-0.51,0.59-0.51,1.47,0.05,2.03c0.56,0.56,1.44,0.57,2.03,0.05  c7.8,7.3,18.27,11.78,29.78,11.78c24.06,0,43.64-19.58,43.64-43.64C93.64,38.5,89.16,28.03,81.86,20.23z M50,93.39  c-11.44,0-21.85-4.46-29.61-11.72c0.47-0.58,0.45-1.43-0.09-1.97c-0.54-0.54-1.39-0.56-1.97-0.09C11.07,71.85,6.61,61.44,6.61,50  C6.61,26.08,26.08,6.61,50,6.61c11.44,0,21.85,4.46,29.61,11.72c-0.45,0.58-0.43,1.42,0.1,1.95c0.54,0.54,1.37,0.55,1.95,0.1  C88.93,28.15,93.39,38.56,93.39,50C93.39,73.92,73.92,93.39,50,93.39z"/><text x="0" y="115" fill="#000000" font-size="5px" font-weight="bold" font-family="'Helvetica Neue', Helvetica, Arial-Unicode, Arial, Sans-serif">Created by Icontive</text><text x="0" y="120" fill="#000000" font-size="5px" font-weight="bold" font-family="'Helvetica Neue', Helvetica, Arial-Unicode, Arial, Sans-serif">from the Noun Project</text></svg>