<svg xmlns="http://www.w3.org/2000/svg" data-name="Layer 1" viewBox="0 0 100 125" x="0px" y="0px"><defs><style>.cls-1{fill:none;}</style></defs><title>01</title><rect class="cls-1" width="100" height="100"/><path d="M97.58,61.67,51.32,15.42A5.25,5.25,0,0,0,48.55,14L25.83,10a5.2,5.2,0,0,0-4.59,1.44l-8.91,8.91A12,12,0,0,0,21,24.46,10,10,0,0,0,25,23.69a4.39,4.39,0,0,1,1.92-.44,4.43,4.43,0,0,1,1.94,8.42,20,20,0,0,1-19.4-2.16l3.63,20a5.21,5.21,0,0,0,1.44,2.75L60.78,98.47a5.19,5.19,0,0,0,7.36,0L97.58,69A5.22,5.22,0,0,0,97.58,61.67ZM44,59.11a6.15,6.15,0,1,1,.61-8.67A6.13,6.13,0,0,1,44,59.11Zm13.93,17.8a2.66,2.66,0,0,1-2.65,2.48h-.19a2.66,2.66,0,0,1-2.47-2.84l2.85-40.41a2.66,2.66,0,0,1,5.31.37ZM77.15,61.45a6.15,6.15,0,1,1,.61-8.67A6.15,6.15,0,0,1,77.15,61.45Z"/><path d="M9,26.87v0a18.29,18.29,0,0,0,19.1,3.19,2.66,2.66,0,1,0-2.31-4.79,11.69,11.69,0,0,1-4.71.95c-2.77,0-6.43-.94-10-4.66l-.67.68A5.22,5.22,0,0,0,9,26.87Z"/><path d="M29.3,26.53a2.64,2.64,0,0,0-3.55-1.24,11.69,11.69,0,0,1-4.71.95c-3.69,0-8.92-1.66-13.39-9.3-2.54-4.35-1.34-8,.46-9.83a6,6,0,0,1,4.38-1.79,8.76,8.76,0,0,1,4.32,1.25A2.66,2.66,0,1,0,19.47,2a14,14,0,0,0-7-2A11.34,11.34,0,0,0,4.34,3.36C.28,7.45-.24,14,3.06,19.62,8.72,29.31,15.79,31.47,21,31.47a18.08,18.08,0,0,0,7.09-1.39A2.66,2.66,0,0,0,29.3,26.53Z"/><text x="0" y="115" fill="#000000" font-size="5px" font-weight="bold" font-family="'Helvetica Neue', Helvetica, Arial-Unicode, Arial, Sans-serif">Created by Prashanth Rapolu</text><text x="0" y="120" fill="#000000" font-size="5px" font-weight="bold" font-family="'Helvetica Neue', Helvetica, Arial-Unicode, Arial, Sans-serif">from the Noun Project</text></svg>