<svg xmlns="http://www.w3.org/2000/svg" data-name="Layer 1" viewBox="0 0 95 118.75" x="0px" y="0px"><path d="M79.491,42.487V36.2a2.785,2.785,0,0,0-2.782-2.782h-3.9v-3.9a2.785,2.785,0,0,0-2.782-2.782H63.743a2.785,2.785,0,0,0-2.782,2.782v.92a18.856,18.856,0,0,0-14.709,3.043,15.29,15.29,0,0,0-5.3,7.039,15.421,15.421,0,0,0-2.427-4.287,16.294,16.294,0,0,0-7.861-5.27,19.521,19.521,0,0,0-21.139,6.36A19.068,19.068,0,0,0,5.669,48.809,23.786,23.786,0,0,0,8.877,60.7H2.09a1.09,1.09,0,0,0,0,2.18h8.157c4.225,5.876,15.291,14.582,23.464,21.012,2.593,2.04,4.832,3.8,6.545,5.224a1.089,1.089,0,0,0,1.393,0c1.713-1.423,3.952-3.184,6.545-5.224C56.722,77.185,68.4,68,72.17,62.131A23.188,23.188,0,0,0,75.887,45.27h.822A2.785,2.785,0,0,0,79.491,42.487Zm-16.35-7.98V29.522a.611.611,0,0,1,.6-.6h6.288a.611.611,0,0,1,.6.6v4.985a1.09,1.09,0,0,0,1.09,1.09h4.985a.61.61,0,0,1,.6.6v6.288a.611.611,0,0,1-.6.6H71.724a1.09,1.09,0,0,0-1.09,1.09v4.985a.61.61,0,0,1-.6.6H63.743a.61.61,0,0,1-.6-.6V44.18a1.09,1.09,0,0,0-1.09-1.09H57.066a.611.611,0,0,1-.6-.6V36.2a.611.611,0,0,1,.6-.6h4.985A1.09,1.09,0,0,0,63.141,34.507Zm7.2,26.446c-3.571,5.556-15.084,14.614-23.491,21.228-2.269,1.785-4.269,3.358-5.894,4.687-1.625-1.329-3.624-2.9-5.893-4.687C27.566,76.286,17.605,68.45,13,62.882h4.514a1.09,1.09,0,0,0,1.058-.828L22.72,45.282l5.686,26.332a1.089,1.089,0,0,0,1.016.858l.05,0a1.092,1.092,0,0,0,1.04-.765l5.279-16.887,2,8.411a1.089,1.089,0,0,0,1.06.839H58.36a1.09,1.09,0,1,0,0-2.18H39.709L36.995,50.458a1.089,1.089,0,0,0-2.1-.074l-5.23,16.73L23.857,40.222a1.09,1.09,0,0,0-2.123-.031L16.661,60.7H11.412c-4.662-7.443-4.734-16.069-.157-22.05a17.307,17.307,0,0,1,18.75-5.607c6,1.9,9.6,6.722,9.858,13.226a1.09,1.09,0,0,0,2.178,0,13.854,13.854,0,0,1,5.506-11.033,16.718,16.718,0,0,1,13.414-2.571v.75H57.066A2.785,2.785,0,0,0,54.283,36.2v6.288a2.786,2.786,0,0,0,2.783,2.783h3.895v3.895a2.785,2.785,0,0,0,2.782,2.782h6.288a2.785,2.785,0,0,0,2.782-2.782V45.27h.851C74.752,50.362,73.585,55.9,70.337,60.953ZM64.868,9V6.72a1.09,1.09,0,1,1,2.179,0V9a1.09,1.09,0,1,1-2.179,0Zm0,8.974V15.693a1.09,1.09,0,0,1,2.179,0v2.281a1.09,1.09,0,1,1-2.179,0Zm3.346-5.627a1.09,1.09,0,0,1,1.09-1.09h2.281a1.09,1.09,0,0,1,0,2.18H69.3A1.09,1.09,0,0,1,68.214,12.347Zm-8.973,0a1.09,1.09,0,0,1,1.09-1.09h2.28a1.09,1.09,0,1,1,0,2.18h-2.28A1.09,1.09,0,0,1,59.241,12.347ZM76.03,67.585v1.993a1.09,1.09,0,0,1-2.18,0V67.585a1.09,1.09,0,0,1,2.18,0Zm0,7.843v1.993a1.09,1.09,0,1,1-2.18,0V75.428a1.09,1.09,0,0,1,2.18,0ZM73.105,72.5a1.09,1.09,0,0,1-1.09,1.09H70.022a1.09,1.09,0,0,1,0-2.18h1.993A1.09,1.09,0,0,1,73.105,72.5Zm7.843,0a1.09,1.09,0,0,1-1.09,1.09H77.865a1.09,1.09,0,1,1,0-2.18h1.993A1.09,1.09,0,0,1,80.948,72.5ZM89.54,24.83v1.808a1.09,1.09,0,1,1-2.179,0V24.83a1.09,1.09,0,0,1,2.179,0Zm0,7.112v1.807a1.09,1.09,0,1,1-2.179,0V31.942a1.09,1.09,0,1,1,2.179,0ZM94,29.29a1.09,1.09,0,0,1-1.09,1.09H91.1a1.09,1.09,0,0,1,0-2.18H92.91A1.09,1.09,0,0,1,94,29.29Zm-11.1,0a1.09,1.09,0,0,1,1.09-1.09H85.8a1.09,1.09,0,1,1,0,2.18H83.991A1.09,1.09,0,0,1,82.9,29.29Zm1.571,20.053v1.548a1.09,1.09,0,0,1-2.18,0V49.343a1.09,1.09,0,1,1,2.18,0Zm0,6.093v1.549a1.09,1.09,0,0,1-2.18,0V55.436a1.09,1.09,0,0,1,2.18,0ZM82.2,53.164a1.09,1.09,0,0,1-1.09,1.09H79.561a1.09,1.09,0,0,1,0-2.18h1.548A1.09,1.09,0,0,1,82.2,53.164Zm6.094,0a1.09,1.09,0,0,1-1.09,1.09H85.654a1.09,1.09,0,0,1,0-2.18H87.2A1.09,1.09,0,0,1,88.293,53.164ZM39.862,21.516V19.967a1.09,1.09,0,0,1,2.18,0v1.549a1.09,1.09,0,1,1-2.18,0Zm0,6.094V26.061a1.09,1.09,0,0,1,2.18,0V27.61a1.09,1.09,0,0,1-2.18,0Zm2.273-3.822a1.09,1.09,0,0,1,1.09-1.089h1.549a1.09,1.09,0,0,1,0,2.179H43.225A1.09,1.09,0,0,1,42.135,23.788Zm-6.094,0a1.09,1.09,0,0,1,1.09-1.089H38.68a1.09,1.09,0,1,1,0,2.179H37.131A1.09,1.09,0,0,1,36.041,23.788Z"/><text x="0" y="110" fill="#000000" font-size="5px" font-weight="bold" font-family="'Helvetica Neue', Helvetica, Arial-Unicode, Arial, Sans-serif">Created by Sunardi</text><text x="0" y="115" fill="#000000" font-size="5px" font-weight="bold" font-family="'Helvetica Neue', Helvetica, Arial-Unicode, Arial, Sans-serif">from the Noun Project</text></svg>