<svg xmlns="http://www.w3.org/2000/svg" xmlns:xlink="http://www.w3.org/1999/xlink" xml:space="preserve" version="1.1" style="shape-rendering:geometricPrecision;text-rendering:geometricPrecision;image-rendering:optimizeQuality;" viewBox="0 0 100 125" x="0px" y="0px" fill-rule="evenodd" clip-rule="evenodd"><defs><style type="text/css">
   
    .fil0 {fill:black;fill-rule:nonzero}
   
  </style></defs><g><path class="fil0" d="M28.54 34.23c-2.83,-2.82 -2.82,-7.44 0.01,-10.27l7.92 -7.9c2.84,-2.63 7.3,-2.54 10.04,0.2l22.41 22.41c6.14,6.14 6.22,16.24 0.18,22.47l-22.59 22.6c-2.82,2.82 -7.46,2.82 -10.27,0l-7.7 -7.69c-2.73,-2.73 -2.82,-7.22 -0.21,-10.05l15.98 -16 -15.77 -15.77zm36.12 22.55c3.65,-3.81 3.59,-9.96 -0.15,-13.69l-22.41 -22.41c-0.37,-0.38 -0.96,-0.41 -1.37,-0.08l-7.77 7.77c-0.42,0.39 -0.4,1.06 -0.01,1.45l22.41 22.41c2.6,2.6 4.12,5.89 4.55,9.29l4.75 -4.74z"/></g><text x="0" y="115" fill="#000000" font-size="5px" font-weight="bold" font-family="'Helvetica Neue', Helvetica, Arial-Unicode, Arial, Sans-serif">Created by Hadi</text><text x="0" y="120" fill="#000000" font-size="5px" font-weight="bold" font-family="'Helvetica Neue', Helvetica, Arial-Unicode, Arial, Sans-serif">from the Noun Project</text></svg>