<?xml version="1.0" encoding="UTF-8"?>
<svg width="700pt" height="700pt" version="1.1" viewBox="0 0 700 700" xmlns="http://www.w3.org/2000/svg">
 <g>
  <path d="m128.33 513.33h163.34c6.4414 0 11.664-5.2227 11.664-11.664v-350c0-6.4453-5.2227-11.668-11.664-11.668h-163.34c-6.4414 0-11.664 5.2227-11.664 11.668v350c0 6.4414 5.2227 11.664 11.664 11.664zm11.668-23.332v-326.67h140v326.67z"/>
  <path d="m280 175c0-6.4414 5.2227-11.668 11.668-11.668h116.66c6.4453 0 11.668 5.2266 11.668 11.668v58.332c0 3.0938-1.2305 6.0625-3.418 8.25l-35 35c-2.1875 2.1875-5.1562 3.418-8.25 3.418h-81.664c-6.4453 0-11.668-5.2227-11.668-11.668zm23.332 11.668v70h65.168l28.168-28.168v-41.832z"/>
  <path d="m408.33 221.67h140c6.4453 0 11.668-5.2266 11.668-11.668s-5.2227-11.668-11.668-11.668h-140c-6.4414 0-11.664 5.2266-11.664 11.668s5.2227 11.668 11.664 11.668z"/>
  <path d="m326.67 268.33v140c0 6.4453 5.2227 11.668 11.664 11.668 6.4453 0 11.668-5.2227 11.668-11.668v-140c0-6.4414-5.2227-11.664-11.668-11.664-6.4414 0-11.664 5.2227-11.664 11.664z"/>
  <path d="m388.46 260.35 92.746 92.746c4.5586 4.5586 11.945 4.5586 16.5 0 4.5547-4.5547 4.5547-11.941 0-16.496l-92.746-92.75c-4.5547-4.5547-11.945-4.5547-16.5 0-4.5547 4.5586-4.5547 11.945 0 16.5z"/>
  <path d="m175 210h70c6.4414 0 11.668-5.2227 11.668-11.668 0-6.4414-5.2266-11.664-11.668-11.664h-70c-6.4414 0-11.668 5.2227-11.668 11.664 0 6.4453 5.2266 11.668 11.668 11.668z"/>
  <path d="m195 266.67 20 20 10-10 5 35-35-5 10-10-20-20z" fill-rule="evenodd"/>
  <path d="m210 344.17c28.996 0 52.5-23.508 52.5-52.5 0-28.996-23.504-52.5-52.5-52.5s-52.5 23.504-52.5 52.5c0 28.992 23.504 52.5 52.5 52.5zm0-11.668c-22.551 0-40.832-18.281-40.832-40.832 0-22.555 18.281-40.836 40.832-40.836s40.832 18.281 40.832 40.836c0 22.551-18.281 40.832-40.832 40.832z"/>
 </g>
</svg>
