<?xml version="1.0" encoding="UTF-8"?>
<svg width="700pt" height="700pt" version="1.1" viewBox="0 0 700 700" xmlns="http://www.w3.org/2000/svg" xmlns:xlink="http://www.w3.org/1999/xlink">
 <defs>
  <symbol id="v" overflow="visible">
   <path d="m8.8906-0.53125c-0.46094 0.24219-0.9375 0.41797-1.4375 0.53125-0.5 0.125-1.0156 0.1875-1.5469 0.1875-1.6172 0-2.8984-0.44531-3.8438-1.3438-0.9375-0.90625-1.4062-2.1289-1.4062-3.6719 0-1.5391 0.46875-2.7578 1.4062-3.6562 0.94531-0.90625 2.2266-1.3594 3.8438-1.3594 0.53125 0 1.0469 0.0625 1.5469 0.1875 0.5 0.11719 0.97656 0.29297 1.4375 0.53125v2c-0.46875-0.3125-0.92969-0.53906-1.375-0.6875-0.44922-0.14453-0.91797-0.21875-1.4062-0.21875-0.89844 0-1.6016 0.28906-2.1094 0.85938-0.51172 0.5625-0.76562 1.3438-0.76562 2.3438s0.25391 1.7891 0.76562 2.3594c0.50781 0.5625 1.2109 0.84375 2.1094 0.84375 0.48828 0 0.95703-0.070312 1.4062-0.21875 0.44531-0.14453 0.90625-0.375 1.375-0.6875z"/>
  </symbol>
  <symbol id="c" overflow="visible">
   <path d="m6.5-5.2812c-0.19922-0.09375-0.40234-0.16016-0.60938-0.20312-0.19922-0.050781-0.39844-0.078125-0.59375-0.078125-0.60547 0-1.0703 0.19531-1.3906 0.57812-0.3125 0.38672-0.46875 0.93359-0.46875 1.6406v3.3438h-2.3281v-7.25h2.3281v1.1875c0.28906-0.47656 0.62891-0.82031 1.0156-1.0312 0.39453-0.21875 0.85938-0.32812 1.3906-0.32812 0.082031 0 0.16406 0.007813 0.25 0.015625 0.09375 0 0.22656 0.011719 0.40625 0.03125z"/>
  </symbol>
  <symbol id="a" overflow="visible">
   <path d="m8.3594-3.6406v0.65625h-5.4219c0.050781 0.54297 0.24219 0.94922 0.57812 1.2188 0.34375 0.27344 0.81641 0.40625 1.4219 0.40625 0.48828 0 0.98828-0.066406 1.5-0.20312 0.50781-0.14453 1.0352-0.36719 1.5781-0.67188v1.7969c-0.55469 0.21094-1.1055 0.36719-1.6562 0.46875-0.54297 0.10156-1.0898 0.15625-1.6406 0.15625-1.3125 0-2.3359-0.33203-3.0625-1-0.73047-0.66406-1.0938-1.6016-1.0938-2.8125 0-1.1758 0.35938-2.1016 1.0781-2.7812 0.71875-0.67578 1.7031-1.0156 2.9531-1.0156 1.1328 0 2.0469 0.34375 2.7344 1.0312 0.6875 0.67969 1.0312 1.5938 1.0312 2.75zm-2.3906-0.78125c0-0.4375-0.13281-0.78906-0.39062-1.0625-0.25-0.26953-0.58594-0.40625-1-0.40625-0.44922 0-0.8125 0.13281-1.0938 0.39062-0.28125 0.25-0.46094 0.60938-0.53125 1.0781z"/>
  </symbol>
  <symbol id="k" overflow="visible">
   <path d="m4.3594-3.2656c-0.48047 0-0.84375 0.085937-1.0938 0.25-0.24219 0.16797-0.35938 0.40625-0.35938 0.71875 0 0.29297 0.097656 0.52344 0.29688 0.6875 0.19531 0.16797 0.46875 0.25 0.8125 0.25 0.4375 0 0.80469-0.15625 1.1094-0.46875 0.30078-0.3125 0.45312-0.70312 0.45312-1.1719v-0.26562zm3.5469-0.875v4.1406h-2.3281v-1.0781c-0.3125 0.4375-0.66797 0.76172-1.0625 0.96875-0.38672 0.19531-0.85547 0.29688-1.4062 0.29688-0.76172 0-1.375-0.21875-1.8438-0.65625s-0.70312-1.0039-0.70312-1.7031c0-0.85156 0.28906-1.4766 0.875-1.875 0.59375-0.39453 1.5156-0.59375 2.7656-0.59375h1.375v-0.1875c0-0.36328-0.14844-0.62891-0.4375-0.79688-0.29297-0.17578-0.74609-0.26562-1.3594-0.26562-0.5 0-0.96484 0.054687-1.3906 0.15625-0.42969 0.09375-0.82422 0.24219-1.1875 0.4375v-1.7656c0.5-0.11328 1-0.20312 1.5-0.26562s1-0.09375 1.5-0.09375c1.3125 0 2.2539 0.26172 2.8281 0.78125 0.58203 0.51172 0.875 1.3438 0.875 2.5z"/>
  </symbol>
  <symbol id="b" overflow="visible">
   <path d="m3.6406-9.3125v2.0625h2.3906v1.6562h-2.3906v3.0781c0 0.33594 0.066406 0.5625 0.20312 0.6875 0.13281 0.11719 0.39844 0.17188 0.79688 0.17188h1.2031v1.6562h-2c-0.91797 0-1.5703-0.1875-1.9531-0.5625-0.375-0.38281-0.5625-1.0352-0.5625-1.9531v-3.0781h-1.1562v-1.6562h1.1562v-2.0625z"/>
  </symbol>
  <symbol id="f" overflow="visible">
   <path d="m6.0469-6.1875v-3.8906h2.3281v10.078h-2.3281v-1.0469c-0.3125 0.42969-0.66406 0.74219-1.0469 0.9375-0.38672 0.19531-0.83594 0.29688-1.3438 0.29688-0.89844 0-1.6328-0.35156-2.2031-1.0625-0.57422-0.70703-0.85938-1.625-0.85938-2.75 0-1.1133 0.28516-2.0234 0.85938-2.7344 0.57031-0.70703 1.3047-1.0625 2.2031-1.0625 0.5 0 0.94141 0.10156 1.3281 0.29688 0.39453 0.19922 0.75 0.51172 1.0625 0.9375zm-1.5312 4.6875c0.5 0 0.87891-0.17578 1.1406-0.53125 0.25781-0.36328 0.39062-0.89453 0.39062-1.5938 0-0.6875-0.13281-1.2109-0.39062-1.5781-0.26172-0.36328-0.64062-0.54688-1.1406-0.54688-0.49219 0-0.86719 0.18359-1.125 0.54688-0.26172 0.36719-0.39062 0.89062-0.39062 1.5781 0 0.69922 0.12891 1.2305 0.39062 1.5938 0.25781 0.35547 0.63281 0.53125 1.125 0.53125z"/>
  </symbol>
  <symbol id="j" overflow="visible">
   <path d="m4.9688-1.5c0.5 0 0.87891-0.17578 1.1406-0.53125 0.25781-0.36328 0.39062-0.89453 0.39062-1.5938 0-0.6875-0.13281-1.2109-0.39062-1.5781-0.26172-0.36328-0.64062-0.54688-1.1406-0.54688-0.49219 0-0.87109 0.18359-1.1406 0.54688-0.26172 0.36719-0.39062 0.89062-0.39062 1.5781s0.12891 1.2148 0.39062 1.5781c0.26953 0.36719 0.64844 0.54688 1.1406 0.54688zm-1.5312-4.6875c0.3125-0.42578 0.66016-0.73828 1.0469-0.9375 0.39453-0.19531 0.84766-0.29688 1.3594-0.29688 0.88281 0 1.6133 0.35547 2.1875 1.0625 0.58203 0.71094 0.875 1.6211 0.875 2.7344 0 1.125-0.29297 2.043-0.875 2.75-0.57422 0.71094-1.3047 1.0625-2.1875 1.0625-0.51172 0-0.96484-0.10156-1.3594-0.29688-0.38672-0.20703-0.73438-0.51953-1.0469-0.9375v1.0469h-2.3281v-10.078h2.3281z"/>
  </symbol>
  <symbol id="i" overflow="visible">
   <path d="m0.15625-7.25h2.3281l1.9531 4.9219 1.6562-4.9219h2.3125l-3.0469 7.9375c-0.3125 0.80078-0.67188 1.3633-1.0781 1.6875-0.40625 0.32031-0.94531 0.48438-1.6094 0.48438h-1.3438v-1.5156h0.71875c0.39453 0 0.67969-0.0625 0.85938-0.1875 0.1875-0.125 0.32812-0.35156 0.42188-0.67188l0.0625-0.20312z"/>
  </symbol>
  <symbol id="e" overflow="visible">
   <path d="m6.9688-7.0312v1.8906c-0.3125-0.20703-0.63281-0.36328-0.95312-0.46875-0.3125-0.10156-0.63672-0.15625-0.96875-0.15625-0.65625 0-1.168 0.1875-1.5312 0.5625-0.35547 0.375-0.53125 0.90234-0.53125 1.5781 0 0.67969 0.17578 1.2109 0.53125 1.5938 0.36328 0.375 0.875 0.5625 1.5312 0.5625 0.35156 0 0.69141-0.050781 1.0156-0.15625 0.33203-0.11328 0.63281-0.27344 0.90625-0.48438v1.8906c-0.35547 0.13672-0.71875 0.23438-1.0938 0.29688-0.375 0.070313-0.75 0.10938-1.125 0.10938-1.3125 0-2.3398-0.33203-3.0781-1-0.74219-0.67578-1.1094-1.6133-1.1094-2.8125 0-1.1953 0.36719-2.1289 1.1094-2.7969 0.73828-0.66406 1.7656-1 3.0781-1 0.375 0 0.74219 0.03125 1.1094 0.09375 0.375 0.0625 0.74219 0.16406 1.1094 0.29688z"/>
  </symbol>
  <symbol id="d" overflow="visible">
   <path d="m4.5625-5.7656c-0.51172 0-0.90234 0.1875-1.1719 0.5625-0.27344 0.36719-0.40625 0.89062-0.40625 1.5781 0 0.69922 0.13281 1.2344 0.40625 1.6094 0.26953 0.36719 0.66016 0.54688 1.1719 0.54688 0.50781 0 0.89453-0.17969 1.1562-0.54688 0.26953-0.375 0.40625-0.91016 0.40625-1.6094 0-0.6875-0.13672-1.2109-0.40625-1.5781-0.26172-0.375-0.64844-0.5625-1.1562-0.5625zm0-1.6562c1.25 0 2.2227 0.33984 2.9219 1.0156 0.70703 0.66797 1.0625 1.5938 1.0625 2.7812 0 1.1992-0.35547 2.1367-1.0625 2.8125-0.69922 0.66797-1.6719 1-2.9219 1s-2.2305-0.33203-2.9375-1c-0.71094-0.67578-1.0625-1.6133-1.0625-2.8125 0-1.1875 0.35156-2.1133 1.0625-2.7812 0.70703-0.67578 1.6875-1.0156 2.9375-1.0156z"/>
  </symbol>
  <symbol id="u" overflow="visible">
   <path d="m3.4375-1.0469v3.8125h-2.3281v-10.016h2.3281v1.0625c0.3125-0.42578 0.66016-0.73828 1.0469-0.9375 0.39453-0.19531 0.84766-0.29688 1.3594-0.29688 0.88281 0 1.6133 0.35547 2.1875 1.0625 0.58203 0.71094 0.875 1.6211 0.875 2.7344 0 1.125-0.29297 2.043-0.875 2.75-0.57422 0.71094-1.3047 1.0625-2.1875 1.0625-0.51172 0-0.96484-0.10156-1.3594-0.29688-0.38672-0.20703-0.73438-0.51953-1.0469-0.9375zm1.5312-4.7031c-0.49219 0-0.87109 0.18359-1.1406 0.54688-0.26172 0.36719-0.39062 0.89062-0.39062 1.5781s0.12891 1.2148 0.39062 1.5781c0.26953 0.36719 0.64844 0.54688 1.1406 0.54688 0.5 0 0.87891-0.17578 1.1406-0.53125 0.25781-0.36328 0.39062-0.89453 0.39062-1.5938 0-0.6875-0.13281-1.2109-0.39062-1.5781-0.26172-0.36328-0.64062-0.54688-1.1406-0.54688z"/>
  </symbol>
  <symbol id="h" overflow="visible">
   <path d="m1.0312-2.8281v-4.4219h2.3438v0.71875c0 0.39844-0.007812 0.89062-0.015625 1.4844v1.1875c0 0.58594 0.015625 1.0078 0.046875 1.2656 0.03125 0.25 0.082031 0.43359 0.15625 0.54688 0.09375 0.15625 0.21094 0.27734 0.35938 0.35938 0.15625 0.085938 0.33203 0.125 0.53125 0.125 0.48828 0 0.86719-0.1875 1.1406-0.5625 0.28125-0.375 0.42188-0.89062 0.42188-1.5469v-3.5781h2.3125v7.25h-2.3125v-1.0469c-0.35547 0.41797-0.73047 0.73047-1.125 0.9375-0.38672 0.19531-0.8125 0.29688-1.2812 0.29688-0.84375 0-1.4844-0.25391-1.9219-0.76562-0.4375-0.51953-0.65625-1.2695-0.65625-2.25z"/>
  </symbol>
  <symbol id="t" overflow="visible">
   <path d="m6.7812-7.0312v1.7656c-0.5-0.20703-0.98047-0.36328-1.4375-0.46875-0.46094-0.10156-0.89844-0.15625-1.3125-0.15625-0.4375 0-0.76562 0.058594-0.98438 0.17188-0.21094 0.10547-0.3125 0.27344-0.3125 0.5 0 0.1875 0.078125 0.33594 0.23438 0.4375 0.16406 0.09375 0.45703 0.16797 0.875 0.21875l0.40625 0.046875c1.1875 0.15625 1.9844 0.40625 2.3906 0.75 0.41406 0.34375 0.625 0.88672 0.625 1.625 0 0.77344-0.28906 1.3555-0.85938 1.75-0.5625 0.38672-1.4141 0.57812-2.5469 0.57812-0.48047 0-0.97656-0.039062-1.4844-0.10938-0.51172-0.074219-1.0391-0.1875-1.5781-0.34375v-1.7656c0.45703 0.23047 0.92969 0.40234 1.4219 0.51562 0.48828 0.10547 0.98438 0.15625 1.4844 0.15625 0.44531 0 0.78516-0.0625 1.0156-0.1875 0.22656-0.125 0.34375-0.30469 0.34375-0.54688 0-0.20703-0.078125-0.36328-0.23438-0.46875-0.15625-0.10156-0.46875-0.17969-0.9375-0.23438l-0.40625-0.046875c-1.0312-0.13281-1.7578-0.375-2.1719-0.71875-0.41797-0.35156-0.625-0.88281-0.625-1.5938 0-0.76953 0.25781-1.3359 0.78125-1.7031 0.53125-0.375 1.3438-0.5625 2.4375-0.5625 0.42578 0 0.875 0.03125 1.3438 0.09375s0.97656 0.16406 1.5312 0.29688z"/>
  </symbol>
  <symbol id="s" overflow="visible">
   <path d="m1.1094-10.078h2.3281v10.078h-2.3281z"/>
  </symbol>
  <symbol id="g" overflow="visible">
   <path d="m1.1094-7.25h2.3281v7.25h-2.3281zm0-2.8281h2.3281v1.8906h-2.3281z"/>
  </symbol>
  <symbol id="r" overflow="visible">
   <path d="m5.8906-10.078v1.5156h-1.2812c-0.33594 0-0.57031 0.0625-0.70312 0.1875-0.125 0.11719-0.1875 0.32031-0.1875 0.60938v0.51562h1.9844v1.6562h-1.9844v5.5938h-2.3125v-5.5938h-1.1562v-1.6562h1.1562v-0.51562c0-0.78125 0.21875-1.3594 0.65625-1.7344 0.44531-0.38281 1.1289-0.57812 2.0469-0.57812z"/>
  </symbol>
  <symbol id="q" overflow="visible">
   <path d="m7.8438-6.0469c0.28906-0.44531 0.63281-0.78516 1.0312-1.0156 0.40625-0.23828 0.85156-0.35938 1.3438-0.35938 0.83203 0 1.4609 0.25781 1.8906 0.76562 0.4375 0.51172 0.65625 1.2578 0.65625 2.2344v4.4219h-2.3281v-3.7812c0.007812-0.050781 0.015625-0.10938 0.015625-0.17188v-0.26562c0-0.50781-0.078125-0.87891-0.23438-1.1094-0.14844-0.23828-0.38672-0.35938-0.71875-0.35938-0.44922 0-0.79297 0.18359-1.0312 0.54688-0.24219 0.36719-0.35938 0.89062-0.35938 1.5781v3.5625h-2.3438v-3.7812c0-0.80078-0.070313-1.3164-0.20312-1.5469-0.13672-0.23828-0.38281-0.35938-0.73438-0.35938-0.44922 0-0.79297 0.18359-1.0312 0.54688-0.24219 0.36719-0.35938 0.89062-0.35938 1.5781v3.5625h-2.3438v-7.25h2.3438v1.0625c0.28125-0.41406 0.60156-0.72266 0.96875-0.92188 0.375-0.20703 0.78516-0.3125 1.2344-0.3125 0.5 0 0.94141 0.12109 1.3281 0.35938 0.38281 0.24219 0.67578 0.57812 0.875 1.0156z"/>
  </symbol>
  <symbol id="p" overflow="visible">
   <path d="m8.4062-4.4219v4.4219h-2.3281v-3.375c0-0.63281-0.015625-1.0664-0.046875-1.2969-0.03125-0.23828-0.078125-0.41406-0.14062-0.53125-0.09375-0.14453-0.21875-0.25781-0.375-0.34375-0.15625-0.09375-0.33594-0.14062-0.53125-0.14062-0.48047 0-0.85938 0.1875-1.1406 0.5625-0.27344 0.375-0.40625 0.89844-0.40625 1.5625v3.5625h-2.3281v-10.078h2.3281v3.8906c0.34375-0.42578 0.71094-0.73828 1.1094-0.9375 0.39453-0.19531 0.82812-0.29688 1.2969-0.29688 0.84375 0 1.4766 0.25781 1.9062 0.76562 0.4375 0.51172 0.65625 1.2578 0.65625 2.2344z"/>
  </symbol>
  <symbol id="o" overflow="visible">
   <path d="m1.2188-9.6719h2.7812l3.5156 6.6406v-6.6406h2.375v9.6719h-2.7969l-3.5156-6.6406v6.6406h-2.3594z"/>
  </symbol>
  <symbol id="n" overflow="visible">
   <path d="m8.4062-4.4219v4.4219h-2.3281v-3.375c0-0.63281-0.015625-1.0664-0.046875-1.2969-0.03125-0.23828-0.078125-0.41406-0.14062-0.53125-0.09375-0.14453-0.21875-0.25781-0.375-0.34375-0.15625-0.09375-0.33594-0.14062-0.53125-0.14062-0.48047 0-0.85938 0.1875-1.1406 0.5625-0.27344 0.375-0.40625 0.89844-0.40625 1.5625v3.5625h-2.3281v-7.25h2.3281v1.0625c0.34375-0.42578 0.71094-0.73828 1.1094-0.9375 0.39453-0.19531 0.82812-0.29688 1.2969-0.29688 0.84375 0 1.4766 0.25781 1.9062 0.76562 0.4375 0.51172 0.65625 1.2578 0.65625 2.2344z"/>
  </symbol>
  <symbol id="m" overflow="visible">
   <path d="m1.2188-9.6719h4.1406c1.2266 0 2.1719 0.27734 2.8281 0.82812 0.65625 0.54297 0.98438 1.3203 0.98438 2.3281 0 1.0117-0.32812 1.793-0.98438 2.3438-0.65625 0.54297-1.6016 0.8125-2.8281 0.8125h-1.6406v3.3594h-2.5zm2.5 1.8125v2.7031h1.375c0.47656 0 0.84766-0.11719 1.1094-0.35938 0.26953-0.23828 0.40625-0.57031 0.40625-1 0-0.42578-0.13672-0.75391-0.40625-0.98438-0.26172-0.23828-0.63281-0.35938-1.1094-0.35938z"/>
  </symbol>
  <symbol id="l" overflow="visible">
   <path d="m1.1094-7.25h2.3281v7.125c0 0.96875-0.23438 1.707-0.70312 2.2188-0.46875 0.50781-1.1484 0.76562-2.0312 0.76562h-1.1406v-1.5156h0.40625c0.4375 0 0.73438-0.10156 0.89062-0.29688 0.16406-0.19922 0.25-0.58984 0.25-1.1719zm0-2.8281h2.3281v1.8906h-2.3281z"/>
  </symbol>
 </defs>
 <g>
  <path d="m163.36 56.926v446.15h373.28v-446.15zm365.32 438.19h-357.36v-430.23h357.36z"/>
  <path d="m229.35 415.73h241.3v7.9609h-241.3z"/>
  <path d="m229.35 374.84h241.3v7.9609h-241.3z"/>
  <path d="m249.7 242.51c2.0508 0.28906 4.6875 0.4375 7.6133 0.4375 13.18 0 24.453-3.2227 32.07-10.395 5.8594-5.5664 9.0781-13.77 9.0781-23.43 0-9.668-4.2461-17.867-10.543-22.844-6.5898-5.2695-16.402-7.9102-30.164-7.9102-13.617 0-23.285 0.88281-30.164 2.0508v97.379h22.113zm0-46.426c1.6094-0.4375 4.6875-0.87891 9.2266-0.87891 11.129 0 17.426 5.418 17.426 14.5 0 10.105-7.3242 16.105-19.184 16.105-3.2227 0-5.5664-0.14453-7.4688-0.58594z"/>
  <path d="m383.54 266.08c9.5195-8.0547 16.402-21.086 16.402-39.977 0-17.426-6.4453-29.582-16.691-37.199-9.5195-7.1758-21.672-10.543-40.418-10.543-11.277 0-21.965 0.73438-30.164 2.0508v96.938c5.5664 0.73438 13.766 1.4688 25.332 1.4688 19.328 0.003906 35.145-4.0938 45.539-12.738zm-48.469-69.703c1.9023-0.44141 5.125-0.87891 10.105-0.87891 19.184 0 31.191 10.836 31.047 31.34 0 23.574-13.184 34.703-33.391 34.559-2.7812 0-5.8594 0-7.7617-0.44141z"/>
  <path d="m436.98 238.11h35.441v-18.156h-35.441v-22.551h37.926v-18.305h-60.328v98.695h22.402z"/>
  <use x="126.675781" y="599.808594" xlink:href="#v"/>
  <use x="136.414062" y="599.808594" xlink:href="#c"/>
  <use x="142.957031" y="599.808594" xlink:href="#a"/>
  <use x="151.957031" y="599.808594" xlink:href="#k"/>
  <use x="160.914062" y="599.808594" xlink:href="#b"/>
  <use x="167.253906" y="599.808594" xlink:href="#a"/>
  <use x="176.253906" y="599.808594" xlink:href="#f"/>
  <use x="190.375" y="599.808594" xlink:href="#j"/>
  <use x="199.875" y="599.808594" xlink:href="#i"/>
  <use x="213.144531" y="599.808594" xlink:href="#e"/>
  <use x="221.011719" y="599.808594" xlink:href="#d"/>
  <use x="230.125" y="599.808594" xlink:href="#c"/>
  <use x="236.671875" y="599.808594" xlink:href="#u"/>
  <use x="246.171875" y="599.808594" xlink:href="#h"/>
  <use x="255.617188" y="599.808594" xlink:href="#t"/>
  <use x="268.136719" y="599.808594" xlink:href="#f"/>
  <use x="277.636719" y="599.808594" xlink:href="#a"/>
  <use x="286.636719" y="599.808594" xlink:href="#s"/>
  <use x="291.183594" y="599.808594" xlink:href="#g"/>
  <use x="295.730469" y="599.808594" xlink:href="#e"/>
  <use x="303.597656" y="599.808594" xlink:href="#b"/>
  <use x="309.941406" y="599.808594" xlink:href="#g"/>
  <use x="126.675781" y="613.082031" xlink:href="#r"/>
  <use x="132.449219" y="613.082031" xlink:href="#c"/>
  <use x="138.992187" y="613.082031" xlink:href="#d"/>
  <use x="148.109375" y="613.082031" xlink:href="#q"/>
  <use x="166.554688" y="613.082031" xlink:href="#b"/>
  <use x="172.898438" y="613.082031" xlink:href="#p"/>
  <use x="182.347656" y="613.082031" xlink:href="#a"/>
  <use x="195.964844" y="613.082031" xlink:href="#o"/>
  <use x="207.074219" y="613.082031" xlink:href="#d"/>
  <use x="216.1875" y="613.082031" xlink:href="#h"/>
  <use x="225.636719" y="613.082031" xlink:href="#n"/>
  <use x="239.703125" y="613.082031" xlink:href="#m"/>
  <use x="249.429687" y="613.082031" xlink:href="#c"/>
  <use x="255.972656" y="613.082031" xlink:href="#d"/>
  <use x="265.089844" y="613.082031" xlink:href="#l"/>
  <use x="269.640625" y="613.082031" xlink:href="#a"/>
  <use x="278.640625" y="613.082031" xlink:href="#e"/>
  <use x="286.503906" y="613.082031" xlink:href="#b"/>
 </g>
</svg>
