<svg xmlns:dc="http://purl.org/dc/elements/1.1/" xmlns:cc="http://creativecommons.org/ns#" xmlns:rdf="http://www.w3.org/1999/02/22-rdf-syntax-ns#" xmlns:svg="http://www.w3.org/2000/svg" xmlns="http://www.w3.org/2000/svg" version="1.1" viewBox="0 0 8.4666665 10.58333375" x="0px" y="0px"><path transform="scale(0.26458334)" d="M 15.966797 5.9941406 A 1.0001001 1.0001001 0 0 0 15.183594 6.4140625 L 10.341797 13.203125 L 9.8320312 12.439453 A 1.0001001 1.0001001 0 0 0 8.984375 11.996094 A 1.0001001 1.0001001 0 0 0 8.1640625 12.439453 L 0.16992188 24.441406 A 1.0001001 1.0001001 0 0 0 0.99609375 25.992188 L 30.996094 25.992188 A 1.0001001 1.0001001 0 0 0 31.845703 24.462891 L 26.847656 16.460938 A 1.0001001 1.0001001 0 0 0 25.291016 16.291016 L 24.326172 17.261719 L 16.824219 6.421875 A 1.0001001 1.0001001 0 0 0 15.966797 5.9941406 z M 15.988281 8.7324219 L 24.175781 20.566406 A 1.0023751 1.0023751 0 0 0 25.822266 19.421875 L 25.460938 18.900391 A 1.0001001 1.0001001 0 0 0 25.710938 18.705078 L 25.822266 18.595703 L 29.195312 23.990234 L 2.8710938 23.990234 L 8.9980469 14.800781 L 10.164062 16.550781 A 1.0032108 1.0032108 0 1 0 11.833984 15.435547 L 11.482422 14.908203 A 1.0001001 1.0001001 0 0 0 11.810547 14.580078 L 15.988281 8.7324219 z " style="color:#000000;font-style:normal;font-variant:normal;font-weight:normal;font-stretch:normal;font-size:medium;line-height:normal;font-family:sans-serif;font-variant-ligatures:normal;font-variant-position:normal;font-variant-caps:normal;font-variant-numeric:normal;font-variant-alternates:normal;font-feature-settings:normal;text-indent:0;text-align:start;text-decoration:none;text-decoration-line:none;text-decoration-style:solid;text-decoration-color:#000000;letter-spacing:normal;word-spacing:normal;text-transform:none;writing-mode:lr-tb;direction:ltr;text-orientation:mixed;dominant-baseline:auto;baseline-shift:baseline;text-anchor:start;white-space:normal;shape-padding:0;clip-rule:nonzero;display:inline;overflow:visible;visibility:visible;opacity:1;isolation:auto;mix-blend-mode:normal;color-interpolation:sRGB;color-interpolation-filters:linearRGB;solid-color:#000000;solid-opacity:1;vector-effect:none;fill:#000000;fill-opacity:1;fill-rule:nonzero;stroke:none;stroke-width:2;stroke-linecap:round;stroke-linejoin:round;stroke-miterlimit:4;stroke-dasharray:none;stroke-dashoffset:0;stroke-opacity:1;color-rendering:auto;image-rendering:auto;shape-rendering:auto;text-rendering:auto;enable-background:accumulate"/><text x="0" y="23.466667" fill="#000000" font-size="5px" font-weight="bold" font-family="'Helvetica Neue', Helvetica, Arial-Unicode, Arial, Sans-serif">Created by Warunk Icon</text><text x="0" y="28.466667" fill="#000000" font-size="5px" font-weight="bold" font-family="'Helvetica Neue', Helvetica, Arial-Unicode, Arial, Sans-serif">from the Noun Project</text></svg>