<svg xmlns="http://www.w3.org/2000/svg" viewBox="0 0 64 80" x="0px" y="0px"><g data-name="Layer 2"><path d="M61,54H58.40015C58.29153,53.82556,41.09768,25.14341,41,25l-5.27,7L30,34l-3.78,6.09.37067.61779,3.89874-6.11206,5.90424-2.04254,4.7619-6.724L42,36H38l-3,4-.37,7.44L38.56946,54H37.4l-4.8-8-5.47577-2.83234L25,46l-4-1-5,2-3.83759-.42639L5.85,54H3a1,1,0,0,0,0,2H52a.99974.99974,0,0,0,1-1h2a.99974.99974,0,0,0,1,1h5A1.00019,1.00019,0,0,0,61,54Z"/><path d="M11.75,45.52l-1.57,1.84C10.19,47.36,11.75,45.52,11.75,45.52Z"/><path d="M17,27c7.9309-.24488,7.92905-11.7563-.00013-12C9.0691,15.24488,9.071,26.7563,17,27Z"/><path d="M17,13a.99974.99974,0,0,0,1-1V9a1,1,0,0,0-2,0v3A.99974.99974,0,0,0,17,13Z"/><path d="M9.9292,15.34277a1.00008,1.00008,0,0,0,1.414-1.4141L9.22168,11.80762a1.00008,1.00008,0,0,0-1.414,1.4141Z"/><path d="M5,22H8a1.00019,1.00019,0,0,0-.00006-2H5A1.00019,1.00019,0,0,0,5,22Z"/><path d="M11.34326,26.65723a.99962.99962,0,0,0-1.41406,0L7.80762,28.77832a.99989.99989,0,0,0,1.41406,1.41406l2.12158-2.12109A.99962.99962,0,0,0,11.34326,26.65723Z"/><path d="M16,30v3a1.00019,1.00019,0,0,0,2-.00006V30A1.00019,1.00019,0,0,0,16,30Z"/><path d="M22.65674,26.65723a.99962.99962,0,0,0,0,1.41406l2.12158,2.12109a.99989.99989,0,0,0,1.41406-1.41406L24.0708,26.65723A.99962.99962,0,0,0,22.65674,26.65723Z"/><path d="M25,21a.99974.99974,0,0,0,1,1h3a1,1,0,0,0,0-2H26A.99974.99974,0,0,0,25,21Z"/><path d="M23.36377,15.63574a.99672.99672,0,0,0,.707-.293l2.12158-2.12109a.99989.99989,0,0,0-1.41406-1.41406l-2.12158,2.12109A1.00664,1.00664,0,0,0,23.36377,15.63574Z"/><polygon points="21.915 36.596 26.322 44.238 27.124 43.168 26.8 43 22 35 12.162 46.574 13.478 46.72 21.915 36.596"/></g><text x="0" y="79" fill="#000000" font-size="5px" font-weight="bold" font-family="'Helvetica Neue', Helvetica, Arial-Unicode, Arial, Sans-serif">Created by LUTFI GANI AL ACHMAD</text><text x="0" y="84" fill="#000000" font-size="5px" font-weight="bold" font-family="'Helvetica Neue', Helvetica, Arial-Unicode, Arial, Sans-serif">from the Noun Project</text></svg>