<svg xmlns="http://www.w3.org/2000/svg" viewBox="0 0 128 160" x="0px" y="0px"><title>7</title><g data-name="1"><path d="M79.29462,55.65836V75.1235a5.5615,5.5615,0,0,1-11.123,0V55.65836a5.5615,5.5615,0,1,1,11.123,0ZM93.19775,30.63254a5.56125,5.56125,0,0,0-5.56146,5.56116V91.80881a5.56147,5.56147,0,0,0,11.12293,0V36.1937A5.5611,5.5611,0,0,0,93.19775,30.63254ZM112.6629,55.65915a5.56137,5.56137,0,0,0-5.56146,5.56152V69.5629a5.5615,5.5615,0,0,0,11.123,0V61.22067A5.56158,5.56158,0,0,0,112.6629,55.65915ZM34.80334,36.1929H34.8028a5.56124,5.56124,0,0,0-5.56092,5.56146V89.02719a5.56119,5.56119,0,0,0,5.56092,5.56122h.00054a5.56131,5.56131,0,0,0,5.56147-5.56122V41.75436A5.56136,5.56136,0,0,0,34.80334,36.1929ZM15.33875,52.87759H15.337a5.56136,5.56136,0,0,0-5.56147,5.56147V69.562A5.56151,5.56151,0,0,0,15.337,75.1235h.00171A5.56151,5.56151,0,0,0,20.90021,69.562v-11.123A5.56136,5.56136,0,0,0,15.33875,52.87759ZM54.2688,22.28891a5.56154,5.56154,0,0,0-5.56146,5.56146v72.29926a5.56146,5.56146,0,0,0,11.12292,0V27.85037A5.56174,5.56174,0,0,0,54.2688,22.28891Z"/></g><text x="0" y="143" fill="#000000" font-size="5px" font-weight="bold" font-family="'Helvetica Neue', Helvetica, Arial-Unicode, Arial, Sans-serif">Created by Deylotus Creative Design</text><text x="0" y="148" fill="#000000" font-size="5px" font-weight="bold" font-family="'Helvetica Neue', Helvetica, Arial-Unicode, Arial, Sans-serif">from the Noun Project</text></svg>