<svg xmlns="http://www.w3.org/2000/svg" xmlns:xlink="http://www.w3.org/1999/xlink" version="1.1" x="0px" y="0px" viewBox="7.5 7.5 50 62.5" enable-background="new 7.5 7.5 50 50" xml:space="preserve"><path d="M49.87,46.751h-1.018v-3.144c0-2.656-2.16-4.816-4.816-4.816c-0.114,0-0.222,0.025-0.334,0.034V11.708  c0-0.276-0.224-0.5-0.5-0.5h-5.062l-2.346-2.82c-0.096-0.114-0.236-0.18-0.385-0.18H21.994c-0.148,0-0.29,0.066-0.384,0.18  l-2.345,2.82h-5.063c-0.276,0-0.5,0.224-0.5,0.5v41c0,0.276,0.224,0.5,0.5,0.5h22.573v2.156c0,0.787,0.64,1.428,1.427,1.428H49.87  c0.787,0,1.428-0.641,1.428-1.428v-7.188C51.298,47.391,50.657,46.751,49.87,46.751z M47.853,43.607v3.144H40.22v-3.144  c0-2.104,1.712-3.816,3.816-3.816S47.853,41.503,47.853,43.607z M22.229,9.208h12.947l1.663,2H20.565L22.229,9.208z M14.702,52.208  v-40h4.797h18.406h4.797v26.794c-2.005,0.583-3.482,2.415-3.482,4.605v3.144h-1.018c-0.787,0-1.427,0.64-1.427,1.426v4.031H14.702z   M44.036,53.163c-0.853,0-1.547-0.694-1.547-1.549c0-0.852,0.694-1.545,1.547-1.545s1.547,0.693,1.547,1.545  C45.583,52.469,44.889,53.163,44.036,53.163z M50.298,55.364c0,0.236-0.191,0.428-0.428,0.428h-5.334v-1.68  c1.165-0.233,2.047-1.264,2.047-2.498c0-1.403-1.143-2.545-2.547-2.545s-2.547,1.142-2.547,2.545c0,1.234,0.882,2.265,2.047,2.498  v1.68h-5.334c-0.235,0-0.427-0.191-0.427-0.428v-7.188c0-0.234,0.191-0.426,0.427-0.426H49.87c0.236,0,0.428,0.191,0.428,0.426  V55.364z"/><path d="M18.119,15.541H39.72c0.276,0,0.5-0.224,0.5-0.5s-0.224-0.5-0.5-0.5H18.119c-0.276,0-0.5,0.224-0.5,0.5  S17.843,15.541,18.119,15.541z"/><path d="M39.206,19.041c0-0.276-0.224-0.5-0.5-0.5H19.133c-0.276,0-0.5,0.224-0.5,0.5s0.224,0.5,0.5,0.5h19.573  C38.982,19.541,39.206,19.317,39.206,19.041z"/><path d="M21.17,22.541c-0.276,0-0.5,0.224-0.5,0.5s0.224,0.5,0.5,0.5h15.499c0.276,0,0.5-0.224,0.5-0.5s-0.224-0.5-0.5-0.5H21.17z"/><path d="M39.794,27.041c0-0.276-0.224-0.5-0.5-0.5H18.545c-0.276,0-0.5,0.224-0.5,0.5s0.224,0.5,0.5,0.5h20.749  C39.57,27.541,39.794,27.317,39.794,27.041z"/><path d="M22.295,30.541c-0.276,0-0.5,0.224-0.5,0.5s0.224,0.5,0.5,0.5h13.249c0.276,0,0.5-0.224,0.5-0.5s-0.224-0.5-0.5-0.5H22.295z  "/><path d="M17.836,35.541h22.167c0.276,0,0.5-0.224,0.5-0.5s-0.224-0.5-0.5-0.5H17.836c-0.276,0-0.5,0.224-0.5,0.5  S17.56,35.541,17.836,35.541z"/><path d="M36.086,38.541H21.753c-0.276,0-0.5,0.224-0.5,0.5s0.224,0.5,0.5,0.5h14.333c0.276,0,0.5-0.224,0.5-0.5  S36.362,38.541,36.086,38.541z"/><path d="M34.021,42.541H23.817c-0.276,0-0.5,0.224-0.5,0.5s0.224,0.5,0.5,0.5h10.204c0.276,0,0.5-0.224,0.5-0.5  S34.298,42.541,34.021,42.541z"/><path d="M21.447,44.958c-0.23-0.153-0.541-0.092-0.693,0.139L18.07,49.13l-0.936-1.099c-0.178-0.209-0.494-0.235-0.705-0.057  c-0.21,0.18-0.235,0.495-0.056,0.705l1.365,1.603c0.013,0.016,0.033,0.022,0.047,0.036c0.02,0.018,0.033,0.04,0.056,0.056  c0.009,0.006,0.021,0.004,0.03,0.009c0.077,0.045,0.159,0.074,0.245,0.075c0,0,0,0,0.001,0c0,0,0,0,0,0l0,0  c0.071,0,0.14-0.021,0.207-0.051c0.019-0.009,0.035-0.02,0.053-0.03c0.021-0.014,0.045-0.021,0.065-0.038  c0.024-0.021,0.037-0.048,0.056-0.071c0.011-0.013,0.027-0.018,0.036-0.032l3.051-4.584C21.739,45.421,21.677,45.11,21.447,44.958z"/><text x="7.5" y="72.5" fill="#000000" font-size="5px" font-weight="bold" font-family="'Helvetica Neue', Helvetica, Arial-Unicode, Arial, Sans-serif">Created by Abd Majd</text><text x="7.5" y="77.5" fill="#000000" font-size="5px" font-weight="bold" font-family="'Helvetica Neue', Helvetica, Arial-Unicode, Arial, Sans-serif">from the Noun Project</text></svg>