<svg xmlns="http://www.w3.org/2000/svg" xmlns:xlink="http://www.w3.org/1999/xlink" version="1.1" x="0px" y="0px" viewBox="0 0 100 125" enable-background="new 0 0 100 100" xml:space="preserve"><g><polygon fill-rule="evenodd" clip-rule="evenodd" points="50.255,28.685 39.988,4.91 17.235,57.814 29.708,57.829 39.997,33.171    52.231,62.033 15.56,62.02 10.597,73.268 69.429,73.405 56.312,42.922 60.126,33.962 77.138,73.461 89.403,73.566 60.136,5.724    50.255,28.685  "/><path fill-rule="evenodd" clip-rule="evenodd" d="M15.836,79.525c12.243-4.733,24.821-3.131,36.226-0.335   c13.976,2.348,25.939,1.565,35.89-2.348c-2.488,3.634-5.898,6.652-9.727,9.392c-10.566,2.739-21.355,2.348-32.368-1.174   c-8.162-1.719-16.324-1.579-24.486-0.168C19.242,83.292,17.317,81.557,15.836,79.525L15.836,79.525z"/><path fill-rule="evenodd" clip-rule="evenodd" d="M24.638,87.338c7.696-2.137,15.721-1.087,24.069,1.075   c7.597,1.968,14.967,2.603,22.138,2.18C55.18,98.259,39.872,95.427,24.638,87.338L24.638,87.338z"/></g><text x="0" y="115" fill="#000000" font-size="5px" font-weight="bold" font-family="'Helvetica Neue', Helvetica, Arial-Unicode, Arial, Sans-serif">Created by Anton</text><text x="0" y="120" fill="#000000" font-size="5px" font-weight="bold" font-family="'Helvetica Neue', Helvetica, Arial-Unicode, Arial, Sans-serif">from the Noun Project</text></svg>