<svg xmlns="http://www.w3.org/2000/svg" xmlns:xlink="http://www.w3.org/1999/xlink" version="1.1" x="0px" y="0px" viewBox="0 0 100 125" style="enable-background:new 0 0 100 100;" xml:space="preserve"><path d="M52.9,81.2c-3.4-0.6-7.1-0.1-9.6,1.2L25,92c-1.3,0.7-2.4,0.8-3,0.4c-0.6-0.4-0.8-1.5-0.6-3L25,69.1  c0.7-4.1-1.2-9.9-4.2-12.8L6,41.9c-1-1-1.5-2-1.3-2.7C5,38.5,6,37.9,7.4,37.7l20.4-3c4.2-0.6,9.1-4.2,10.9-7.9l9.1-18.5  c0.6-1.3,1.4-2,2.2-2c0.8,0,1.6,0.7,2.2,2l9.1,18.5c1.9,3.8,6.8,7.3,10.9,7.9l20.4,3c1.4,0.2,2.4,0.7,2.6,1.5  c0.2,0.7-0.2,1.7-1.3,2.7L80.1,55.5c-0.4,0.4-0.4,1,0,1.5c0.4,0.4,1,0.4,1.5,0l13.9-13.5c1.6-1.6,2.3-3.3,1.8-4.8  c-0.5-1.5-2-2.5-4.3-2.9l-20.4-3c-3.5-0.5-7.8-3.6-9.4-6.8L54.1,7.5c-1-2.1-2.5-3.2-4.1-3.2c-1.6,0-3,1.1-4.1,3.2l-9.1,18.5  c-1.6,3.2-5.9,6.3-9.4,6.8l-20.4,3C4.8,36,3.3,37,2.8,38.6c-0.5,1.5,0.1,3.2,1.8,4.8l14.7,14.4c2.5,2.5,4.2,7.5,3.6,11l-3.5,20.3  c-0.4,2.3,0.1,4,1.4,5c0.6,0.4,1.3,0.7,2.1,0.7c0.9,0,1.9-0.3,3-0.9l18.2-9.6c2.1-1.1,5.4-1.5,8.3-1c0.6,0.1,1.1-0.3,1.2-0.8  C53.8,81.8,53.4,81.3,52.9,81.2z M93.9,63.3L83,61.7c-1.7-0.2-3.9-1.8-4.6-3.4l-4.9-9.9c-0.8-1.7-2-2-2.6-2c-0.6,0-1.7,0.3-2.6,2  l-4.9,9.9c-0.8,1.5-2.9,3.1-4.6,3.4L48,63.3c-1.9,0.3-2.5,1.3-2.7,1.9c-0.2,0.6-0.3,1.7,1.1,3.1l7.9,7.7c1.2,1.2,2.1,3.7,1.8,5.4  l-1.9,10.8c-0.2,1.4,0.2,2.3,0.5,2.8c0.8,0.9,2.2,1.1,3.7,0.3l9.7-5.1c1.5-0.8,4.3-0.8,5.7,0l9.7,5.1c0.6,0.3,1.3,0.5,1.8,0.5  c0.7,0,1.4-0.3,1.8-0.8c0.4-0.5,0.8-1.3,0.5-2.8l-1.9-10.8c-0.3-1.7,0.5-4.2,1.8-5.5l7.9-7.7c1.4-1.3,1.3-2.5,1.1-3.1  C96.4,64.5,95.8,63.5,93.9,63.3z M94.1,66.7l-7.9,7.7c-1.7,1.7-2.8,4.9-2.4,7.3l1.9,10.8c0.1,0.6,0,1-0.1,1.1c0,0-0.1,0.1-0.2,0.1  c-0.1,0-0.4,0-0.9-0.3l-9.7-5.1c-1-0.5-2.4-0.8-3.8-0.8c-1.4,0-2.8,0.3-3.8,0.8l-9.7,5.1c-0.5,0.2-0.7,0.3-0.9,0.3  c-0.2,0-0.2-0.1-0.2-0.1c-0.1-0.1-0.2-0.5-0.1-1.1L58,81.7c0.4-2.4-0.6-5.6-2.4-7.3l-7.9-7.7c-0.5-0.5-0.6-0.8-0.6-1  c0-0.1,0.3-0.4,1-0.5l10.9-1.6c2.4-0.3,5.1-2.3,6.2-4.5l4.9-9.9c0.3-0.6,0.6-0.8,0.7-0.8s0.5,0.2,0.7,0.8l4.9,9.9  c1.1,2.2,3.8,4.1,6.2,4.5l10.9,1.6c0.7,0.1,1,0.3,1,0.5C94.6,65.9,94.5,66.2,94.1,66.7z"/><text x="0" y="115" fill="#000000" font-size="5px" font-weight="bold" font-family="'Helvetica Neue', Helvetica, Arial-Unicode, Arial, Sans-serif">Created by Sofía Franco</text><text x="0" y="120" fill="#000000" font-size="5px" font-weight="bold" font-family="'Helvetica Neue', Helvetica, Arial-Unicode, Arial, Sans-serif">from the Noun Project</text></svg>