<svg xmlns="http://www.w3.org/2000/svg" xmlns:xlink="http://www.w3.org/1999/xlink" version="1.1" x="0px" y="0px" viewBox="0 0 100 125" style="enable-background:new 0 0 100 100;" xml:space="preserve"><g><path d="M55.5125771,17.880621c2.4180641,0,4.3845253,2.217989,4.3845253,4.9437885   c0,0.5387764,0.4363594,0.9756088,0.9756126,0.9756088s0.9756088-0.4368324,0.9756088-0.9756088   c0-2.7257996,1.9626503-4.9437885,4.3740501-4.9437885c0.5392532,0,0.9756088-0.4368324,0.9756088-0.9756088   c0-0.5387783-0.4363556-0.9756107-0.9756088-0.9756107c-2.4113998,0-4.3740501-2.2222748-4.3740501-4.9537916   C61.8483238,10.4368334,61.4119682,10,60.872715,10s-0.9756126,0.4368334-0.9756126,0.9756098   c0,2.7315168-1.9664612,4.9537916-4.3845253,4.9537916c-0.5392532,0-0.9756088,0.4368324-0.9756088,0.9756107   C54.5369682,17.4437885,54.9733238,17.880621,55.5125771,17.880621z M60.8717613,14.6551065   c0.5316315,0.9179688,1.2557144,1.6906443,2.1103287,2.2494287c-0.8546143,0.5573559-1.5786972,1.3290768-2.1103287,2.2456169   c-0.5325851-0.9165401-1.2576218-1.688261-2.1141396-2.2456169C59.6141396,16.3457508,60.3391762,15.5730753,60.8717613,14.6551065   z"/><path d="M32.4980927,68.515625c0,0.5387802,0.4363594,0.9756088,0.9756126,0.9756088s0.9756088-0.4368286,0.9756088-0.9756088   c0-2.7257996,1.9626541-4.9437866,4.3740463-4.9437866c0.5392532,0,0.9756088-0.4368362,0.9756088-0.9756126   s-0.4363556-0.9756088-0.9756088-0.9756088c-2.4113922,0-4.3740463-2.2222748-4.3740463-4.9542694   c0-0.5387764-0.4363556-0.9756088-0.9756088-0.9756088s-0.9756126,0.4368324-0.9756126,0.9756088   c0,2.7319946-1.9664612,4.9542694-4.3845253,4.9542694c-0.5392532,0-0.9756107,0.4368324-0.9756107,0.9756088   s0.4363575,0.9756126,0.9756107,0.9756126C30.5316315,63.5718384,32.4980927,65.7898254,32.4980927,68.515625z    M33.4727516,60.3463211c0.5316315,0.9179688,1.2566681,1.6906471,2.1112785,2.2489548   c-0.8546104,0.5578308-1.5796471,1.3295517-2.1112785,2.2460938c-0.5325851-0.9165421-1.2576218-1.6882629-2.1141396-2.2460938   C32.2151299,62.0369682,32.9401665,61.2642899,33.4727516,60.3463211z"/><path d="M79.1777802,56.8754768c-3.9376907,0-7.1408157-3.597084-7.1408157-8.0187683   c0-0.5387764-0.4363556-0.9756126-0.9756088-0.9756126s-0.9756088,0.4368362-0.9756088,0.9756126   c0,4.4216843-3.2097931,8.0187683-7.1541519,8.0187683c-0.5392532,0-0.9756126,0.4368324-0.9756126,0.9756088   s0.4363594,0.9756088,0.9756126,0.9756088c3.9443588,0,7.1541519,3.5899391,7.1541519,8.0030479   c0,0.5387802,0.4363556,0.9756088,0.9756088,0.9756088s0.9756088-0.4368286,0.9756088-0.9756088   c0-4.4131088,3.203125-8.0030479,7.1408157-8.0030479c0.5392532,0,0.9756088-0.4368324,0.9756088-0.9756088   S79.7170334,56.8754768,79.1777802,56.8754768z M71.0604019,62.3475609   c-0.9070129-1.9574127-2.3885269-3.5461121-4.2006454-4.4974289c1.8121185-0.9527435,3.2936325-2.5433502,4.2006454-4.504097   c0.9060593,1.9607468,2.3856735,3.5513535,4.194931,4.504097C73.4460754,58.8014488,71.9664612,60.3901482,71.0604019,62.3475609z"/><path d="M31.5320129,45.3401299c0.5392532,0,0.9756088-0.4368324,0.9756088-0.9756088s-0.4363556-0.9756126-0.9756088-0.9756126   c-2.411396,0-4.3740482-2.2222748-4.3740482-4.9537888c0-0.5387764-0.4363556-0.9756126-0.9756088-0.9756126   s-0.9756107,0.4368362-0.9756107,0.9756126c0,2.731514-1.9664631,4.9537888-4.3845272,4.9537888   c-0.5392532,0-0.9756088,0.4368362-0.9756088,0.9756126s0.4363556,0.9756088,0.9756088,0.9756088   c2.4180641,0,4.3845272,2.2179871,4.3845272,4.9437866c0,0.5387764,0.4363575,0.9756126,0.9756107,0.9756126   s0.9756088-0.4368362,0.9756088-0.9756126C27.1579647,47.5581169,29.1206169,45.3401299,31.5320129,45.3401299z    M26.1814022,46.6096611c-0.5325832-0.9165382-1.2576218-1.6882629-2.1141376-2.2456169   c0.8565159-0.5587845,1.5815544-1.331459,2.1141376-2.2494278c0.5316315,0.9179688,1.2557163,1.6906433,2.1103287,2.2494278   C27.4371185,44.9213982,26.7130337,45.6931229,26.1814022,46.6096611z"/><path d="M73.3403168,75.886055h-9.3368835v-2.6710205c0-0.5387802-0.4363594-0.9756088-0.9756126-0.9756088h-3.9043465V44.9566498   l11.9607468-13.2321835c0.3353653-0.3715706,0.3353653-0.9370232,0-1.3081169l-3.3603287-3.7171307   c-0.3725204-0.4101563-1.0794525-0.4092026-1.4481659,0l-8.6861687,9.6108055   c-0.6081467-0.2700462-1.2342186-0.4462433-1.8703537-0.5476494c1.2243347-1.2484512,1.995163-3.0190697,1.995163-4.9863644   c0-3.7700081-2.8144035-6.8368912-6.2728653-6.8368912c-3.4594116,0-6.273819,3.0668831-6.273819,6.8368912   c0,1.9672375,0.770771,3.7377911,1.9951668,4.9863033c-0.6362572,0.1013489-1.2620888,0.2774277-1.8703575,0.5472336   l-8.6861649-9.6103287c-0.1848335-0.2048397-0.4477921-0.3215504-0.7240868-0.3215504   c-0.275341,0-0.5382996,0.1167107-0.7240829,0.3215504l-3.3603287,3.7171307c-0.3353672,0.3710938-0.3353672,0.9365463,0,1.3081169   l11.9712257,13.2431393v27.2718201H39.854229c-0.5392532,0-0.9756088,0.4368286-0.9756088,0.9756088v6.066597h-9.3368893   c-0.5392532,0-0.9756107,0.4368362-0.9756107,0.9756088v8.7671509C28.5661201,89.5631638,29.0024776,90,29.5417309,90h43.798584   c0.5392532,0,0.9756165-0.4368362,0.9756165-0.9756088V76.8616638C74.3159332,76.3228836,73.87957,75.886055,73.3403168,75.886055z    M47.1189041,30.7760105c0-2.6938839,1.9388313-4.8856716,4.3225975-4.8856716   c2.3828125,0,4.3216476,2.1917877,4.3216476,4.8856716s-1.9388351,4.8856716-4.3216476,4.8856716   C49.0577354,35.6616821,47.1189041,33.4698944,47.1189041,30.7760105z M33.8367004,31.0704079l2.0455399-2.262291   l8.4594154,9.3597565c0.3067818,0.3386993,0.8069725,0.4192085,1.2023621,0.1962662   c0.8860512-0.498764,1.8149757-0.7512398,2.7639084-0.7512398h6.2661972c0.947979,0,1.8778572,0.2529526,2.7639084,0.7517166   c0.3944359,0.2224655,0.8955803,0.1424332,1.2023659-0.1962662l8.4594116-9.3602333l2.0455399,2.262291L57.4237823,43.9272118   c-0.1619682,0.1791153-0.2515259,0.4125366-0.2515259,0.6540565v27.6581573h-4.755146V60.4063454   c0-0.5387764-0.4363556-0.9756088-0.9756088-0.9756088s-0.9756088,0.4368324-0.9756088,0.9756088v11.8330803h-4.7456169V44.5922241   c0-0.2415199-0.0895576-0.4749413-0.2515259-0.6540565L33.8367004,31.0704079z M72.3647079,88.0487823H30.5173397v-6.8159332   h9.3368893c0.5392532,0,0.9756126-0.4368286,0.9756126-0.9756088v-6.066597h3.9148216h13.4032021h3.9043465v2.6710205   c0,0.5387726,0.4363556,0.9756088,0.9756088,0.9756088h9.3368874V88.0487823z"/></g><text x="0" y="115" fill="#000000" font-size="5px" font-weight="bold" font-family="'Helvetica Neue', Helvetica, Arial-Unicode, Arial, Sans-serif">Created by Mat fine</text><text x="0" y="120" fill="#000000" font-size="5px" font-weight="bold" font-family="'Helvetica Neue', Helvetica, Arial-Unicode, Arial, Sans-serif">from the Noun Project</text></svg>