<?xml version="1.0" encoding="UTF-8"?>
<svg width="700pt" height="700pt" version="1.1" viewBox="0 0 700 700" xmlns="http://www.w3.org/2000/svg">
 <g>
  <path d="m281.75 350c0 12.25-3.5 22.75-12.25 29.75s-19.25 10.5-33.25 10.5h-15.75v40.25h-24.5v-122.5h40.25c14 0 26.25 3.5 33.25 10.5s12.25 17.5 12.25 31.5zm-24.5 0c0-5.25-1.75-10.5-5.25-14s-8.75-5.25-15.75-5.25h-15.75v40.25h15.75c7 0 12.25-1.75 15.75-5.25 3.5-5.25 5.25-10.5 5.25-15.75z"/>
  <path d="m406 369.25c0 21-5.25 35-15.75 45.5s-26.25 15.75-47.25 15.75h-42v-122.5h42c19.25 0 33.25 5.25 45.5 15.75 12.25 12.25 17.5 26.25 17.5 45.5zm-24.5 0c0-12.25-3.5-21-10.5-28s-15.75-10.5-28-10.5h-21v80.5h17.5c29.75-1.75 42-14 42-42z"/>
  <path d="m504 308v21h-52.5v28h50.75v21h-50.75v52.5h-22.75v-122.5z"/>
  <path d="m525 294h-350c-5.25 0-8.75-3.5-8.75-8.75v-250.25c0-5.25 3.5-8.75 8.75-8.75h210c1.75 0 5.25 1.75 7 1.75l140 141.75c1.75 1.75 1.75 3.5 1.75 7v108.5c0 3.5-3.5 8.75-8.75 8.75zm-341.25-17.5h332.5v-96.25l-134.75-136.5h-197.75z"/>
  <path d="m525 533.75h-350c-5.25 0-8.75-3.5-8.75-8.75v-70c0-5.25 3.5-8.75 8.75-8.75h350c5.25 0 8.75 3.5 8.75 8.75v70c0 5.25-3.5 8.75-8.75 8.75zm-341.25-17.5h332.5v-52.5h-332.5z"/>
  <path d="m525 185.5h-140c-5.25 0-8.75-3.5-8.75-8.75v-141.75c0-3.5 1.75-7 5.25-8.75s7 0 8.75 1.75l138.25 140c1.75 1.75 3.5 3.5 3.5 7 1.75 7-1.75 10.5-7 10.5zm-131.25-17.5h110.25l-110.25-112z"/>
  <path d="m595 463.75h-490c-5.25 0-8.75-3.5-8.75-8.75v-171.5c0-5.25 3.5-8.75 8.75-8.75h490c5.25 0 8.75 3.5 8.75 8.75v171.5c0 5.25-3.5 8.75-8.75 8.75zm-481.25-17.5h472.5v-154h-472.5z"/>
 </g>
</svg>
