<svg xmlns:dc="http://purl.org/dc/elements/1.1/" xmlns:cc="http://creativecommons.org/ns#" xmlns:rdf="http://www.w3.org/1999/02/22-rdf-syntax-ns#" xmlns:svg="http://www.w3.org/2000/svg" xmlns="http://www.w3.org/2000/svg" xmlns:sodipodi="http://sodipodi.sourceforge.net/DTD/sodipodi-0.dtd" xmlns:inkscape="http://www.inkscape.org/namespaces/inkscape" viewBox="0 0 12.7 15.875" version="1.1" x="0px" y="0px"><g transform="translate(0,-284.29998)"><path style="" d="m 6.3763868,284.82957 a 1.3624833,1.3624833 0 0 0 -0.5849673,2.60501 l -0.1550458,6.65334 a 0.63397322,0.63397322 0 0 1 -0.7095067,0.59997 2.2809441,2.2809441 0 0 1 -1.5911247,-0.95186 0.63397322,0.63397322 0 0 1 0.2532327,-0.94052 4.0823901,4.0823901 0 0 1 -2.3445788,-1.78802 0.05702357,0.05702357 0 0 0 -0.1033462,0.014 3.2185707,3.2185707 0 0 0 0.6542352,2.9905 0.43166712,0.43166712 0 0 1 0.2402946,-0.15658 0.28511801,0.28511801 0 0 1 0.3100387,0.12817 4.4534997,4.4534997 0 0 0 2.8732162,2.02726 2.0190625,2.0190625 0 0 1 1.0774627,0.4408 0.08553543,0.08553543 0 0 0 0.1074738,0 2.0190625,2.0190625 0 0 1 1.0774627,-0.4408 4.4534997,4.4534997 0 0 0 2.8732161,-2.02726 0.28511801,0.28511801 0 0 1 0.310039,-0.12817 0.43166712,0.43166712 0 0 1 0.240321,0.15658 3.2185707,3.2185707 0 0 0 0.654209,-2.9905 0.05702357,0.05702357 0 0 0 -0.103347,-0.014 4.0823901,4.0823901 0 0 1 -2.3445519,1.78802 0.63397322,0.63397322 0 0 1 0.2532063,0.94052 2.2809441,2.2809441 0 0 1 -1.5916275,0.95186 0.63397322,0.63397322 0 0 1 -0.7100359,-0.62941 l -0.1540139,-6.6239 a 1.3624833,1.3624833 0 0 0 -0.5322623,-2.60501 z m -0.043392,0.77825 a 0.58409998,0.58409998 0 0 1 0.6009746,0.58396 0.58409998,0.58409998 0 1 1 -1.1678708,0 0.58409998,0.58409998 0 0 1 0.5668962,-0.58396 z" fill="#000000" stroke="none"/></g><text x="0" y="27.7" fill="#000000" font-size="5px" font-weight="bold" font-family="'Helvetica Neue', Helvetica, Arial-Unicode, Arial, Sans-serif">Created by Phạm Thanh Lộc</text><text x="0" y="32.7" fill="#000000" font-size="5px" font-weight="bold" font-family="'Helvetica Neue', Helvetica, Arial-Unicode, Arial, Sans-serif">from the Noun Project</text></svg>