<?xml version="1.0" encoding="utf-8"?>
<!-- Generator: Adobe Illustrator 23.0.3, SVG Export Plug-In . SVG Version: 6.00 Build 0)  -->
<svg version="1.1" id="Layer_1" xmlns="http://www.w3.org/2000/svg" xmlns:xlink="http://www.w3.org/1999/xlink" x="0px" y="0px"
	 viewBox="0 0 38.3 25.2" style="enable-background:new 0 0 38.3 25.2;" xml:space="preserve">
<g>
	<g>
		<path d="M0.9,12.6c0,0.8,0.6,1.4,1.4,1.4h32.8c0.8,0,1.4-0.6,1.4-1.4c0-0.8-0.6-1.4-1.4-1.4H2.3C1.6,11.1,0.9,11.8,0.9,12.6z"/>
	</g>
	<g>
		<path d="M24.1,2c0,0.4,0.1,0.7,0.4,1l9.5,9.5l-9.5,9.6c-0.6,0.6-0.6,1.5,0,2c0.6,0.6,1.5,0.6,2,0L37,13.6c0.6-0.6,0.6-1.5,0-2
			L26.5,1c-0.6-0.6-1.5-0.6-2,0C24.2,1.3,24.1,1.7,24.1,2z"/>
	</g>
</g>
</svg>
