<svg xmlns="http://www.w3.org/2000/svg" xmlns:xlink="http://www.w3.org/1999/xlink" version="1.1" x="0px" y="0px" viewBox="0 0 100 125" style="enable-background:new 0 0 100 100;" xml:space="preserve"><path d="M47.5,48C47.5,48,47.5,48.1,47.5,48c-0.1,1.3-0.1,2.4-0.3,3.6c-0.6,4.7-2.3,9.1-4.8,12.8c-1.2,1.9-2.7,3.5-4.3,5  c-1.6,1.4-3.3,2.7-5.2,3.7c-0.5,0.3-1.1,0.5-1.6,0.8c-0.3,0.1-0.5,0.3-0.8,0.4c-1.1,0.4-2.2,0.8-3.3,1.1c-0.3,0.1-0.6,0.1-0.9,0.2  c-1,0.2-1.4-1.1-0.6-1.6c0.2-0.1,0.4-0.3,0.7-0.4c0.8-0.5,1.5-1.1,2.2-1.7c0.3-0.3,0.6-0.6,1-0.9c0.3-0.3,0.6-0.6,0.9-1  c1.2-1.3,2.1-2.8,2.9-4.3c0.8-1.5,1.3-3.1,1.7-4.7c0.1-0.3,0.1-0.6,0.2-0.8c0.1-0.5-0.3-1-0.9-1H21.6c-5.2,0-9.5-4.2-9.5-9.5V33.5  c0-5.2,4.2-9.5,9.5-9.5h16.3c5.2,0,9.5,4.2,9.5,9.5v10.4c0,0.5,0,1.1,0.1,1.6c0,0.3,0,0.5,0,0.8L47.5,48z"/><path d="M87.5,48C87.5,48,87.5,48.1,87.5,48c-0.1,1.3-0.1,2.4-0.3,3.6c-0.6,4.7-2.3,9.1-4.8,12.8c-1.2,1.9-2.7,3.5-4.3,5  c-1.6,1.4-3.3,2.7-5.2,3.7c-0.5,0.3-1.1,0.5-1.6,0.8c-0.3,0.1-0.5,0.3-0.8,0.4c-1.1,0.4-2.2,0.8-3.3,1.1c-0.3,0.1-0.6,0.1-0.9,0.2  c-1,0.2-1.4-1.1-0.6-1.6c0.2-0.1,0.4-0.3,0.7-0.4c0.8-0.5,1.5-1.1,2.2-1.7c0.3-0.3,0.6-0.6,1-0.9c0.3-0.3,0.6-0.6,0.9-1  c1.2-1.3,2.1-2.8,2.9-4.3c0.8-1.5,1.3-3.1,1.7-4.7c0.1-0.3,0.1-0.6,0.2-0.8c0.1-0.5-0.3-1-0.9-1H61.6c-5.2,0-9.5-4.2-9.5-9.5V33.5  c0-5.2,4.2-9.5,9.5-9.5h16.3c5.2,0,9.5,4.2,9.5,9.5v10.4c0,0.5,0,1.1,0.1,1.6c0,0.3,0,0.5,0,0.8L87.5,48z"/><text x="0" y="115" fill="#000000" font-size="5px" font-weight="bold" font-family="'Helvetica Neue', Helvetica, Arial-Unicode, Arial, Sans-serif">Created by Shiva</text><text x="0" y="120" fill="#000000" font-size="5px" font-weight="bold" font-family="'Helvetica Neue', Helvetica, Arial-Unicode, Arial, Sans-serif">from the Noun Project</text></svg>