<svg xmlns:dc="http://purl.org/dc/elements/1.1/" xmlns:cc="http://creativecommons.org/ns#" xmlns:rdf="http://www.w3.org/1999/02/22-rdf-syntax-ns#" xmlns:svg="http://www.w3.org/2000/svg" xmlns="http://www.w3.org/2000/svg" xmlns:sodipodi="http://sodipodi.sourceforge.net/DTD/sodipodi-0.dtd" xmlns:inkscape="http://www.inkscape.org/namespaces/inkscape" version="1.1" x="0px" y="0px" viewBox="0 0 785.29803 711.4437125000001" enable-background="new 0 0 2000 2000" xml:space="preserve"><path style="" d="m 395.0395,0 c -65.202,0 -118.30598,59.014 -118.30598,131.529 0,72.548 53.10398,131.59299 118.30598,131.59299 65.202,0 118.246,-59.04499 118.246,-131.59299 C 513.2855,59.014 460.2415,0 395.0395,0 Z m 0,62.514 c 30.758,0 55.732,30.945 55.732,69.015 0,38.103 -24.974,69.079 -55.732,69.079 -30.756,0 -55.793,-30.976 -55.793,-69.079 0,-38.07 25.037,-69.015 55.793,-69.015 z M 124.82452,87.333 c -45.978997,0 -83.392997,42.103 -83.392997,93.802 0,51.72999 37.414,93.83099 83.392997,93.83099 46.041,0 83.518,-42.069 83.518,-93.83099 0,-51.699 -37.477,-93.802 -83.518,-93.802 z m 535.64898,0 c -46.041,0 -83.517,42.103 -83.517,93.802 0,51.72999 37.476,93.83099 83.517,93.83099 45.98,0 83.394,-42.069 83.394,-93.83099 0,-51.699 -37.414,-93.802 -83.394,-93.802 z M 124.82452,118.62 c 28.819,0 52.261,28.037 52.261,62.544 0,34.508 -23.442,62.57899 -52.261,62.57899 -28.755997,0 -52.135997,-28.07099 -52.135997,-62.57899 0,-34.507 23.38,-62.544 52.135997,-62.544 z m 535.64898,0 c 28.757,0 52.136,28.037 52.136,62.544 0,34.508 -23.379,62.57899 -52.136,62.57899 -28.818,0 -52.261,-28.07099 -52.261,-62.57899 0,-34.507 23.443,-62.544 52.261,-62.544 z m -267.515,181.52599 c -45.076,-0.02 -90.219,7.656 -133.25998,23.113 -43.166,15.972 -75.893,64.673 -72.892,108.464 2.376,35.695 4.813,71.984 7.375,108.243 1.157,16.41 14.786,29.099 31.196,29.099 l 335.04398,0 0,0.09 c 16.41,0 30.038,-12.723 31.225,-29.101 l 7.378,-108.116 c 3.032,-44.009 -29.664,-92.71 -73.204,-108.683 -42.776,-15.363 -87.785,-23.09 -132.862,-23.113 z m 231.382,8.735 c -8.47,0 -15.44,6.815 -15.627,15.349 -0.125,8.658 6.719,15.596 15.379,15.908 32.474,0.563 64.325,6.346 94.677,17.224 21.254,7.783 36.318,33.724 35.163,50.884 l -5.437,78.769 -118.808,0 c -8.659,0 -15.631,7.001 -15.631,15.629 0,8.627 6.972,15.627 15.631,15.627 l 133.404,0 c 8.252,0 15.004,-6.344 15.661,-14.597 l 6.407,-93.334 c 2.25,-32.726 -23.192,-70.451 -55.731,-82.392 -33.662,-12.034 -68.892,-18.442 -104.777,-19.067 l -0.311,0 z m -463.72798,0.03 c -35.883,0.593 -71.108997,7.002 -104.865997,19.099 -32.414,11.909 -57.8580001,49.633 -55.6080001,82.328 l 6.408,93.365 c 0.563,8.221 7.3770001,14.566 15.5670001,14.566 l 133.467997,0 c 8.689,0 15.628,-6.971 15.628,-15.597 0,-8.628 -6.971,-15.629 -15.628,-15.629 l -118.871997,0 -5.377,-78.799 c -1.155,-17.129 13.911,-43.07 35.103,-50.823 30.382,-10.908 62.264997,-16.692 94.740997,-17.254 8.658,-0.157 15.508,-7.281 15.379,-15.907 -0.189,-8.628 -6.91,-14.161 -15.943,-15.349 z m 232.43298,53.814 c 37.927,0.01 75.778,6.433 111.489,19.233 19.942,7.313 33.007,32.288 32.1,45.635 l -5.376,78.957 -276.75098,0 0,-0.07 c -1.781,-26.475 -3.622,-52.917 -5.279,-78.985 -0.906,-13.254 12.22,-38.292 31.88,-45.543 36.00898,-12.847 74.01098,-19.245 111.93698,-19.233 z" fill="#000000"/><text x="0" y="584.15497" fill="#000000" font-size="5px" font-weight="bold" font-family="'Helvetica Neue', Helvetica, Arial-Unicode, Arial, Sans-serif">Created by logan</text><text x="0" y="589.15497" fill="#000000" font-size="5px" font-weight="bold" font-family="'Helvetica Neue', Helvetica, Arial-Unicode, Arial, Sans-serif">from the Noun Project</text></svg>