<?xml version="1.0" encoding="utf-8"?>
<!-- Generator: Adobe Illustrator 21.1.0, SVG Export Plug-In . SVG Version: 6.00 Build 0)  -->
<svg version="1.1" id="Layer_1" xmlns="http://www.w3.org/2000/svg" xmlns:xlink="http://www.w3.org/1999/xlink" x="0px" y="0px"
	 viewBox="0 0 58 82.7" style="enable-background:new 0 0 58 82.7;" xml:space="preserve">
<path d="M29,82.7c-0.8,0-1.5-0.3-2-0.9C25.9,80.3,0,47.5,0,29C0,13,13,0,29,0s29,13,29,29c0,18.5-25.9,51.3-27,52.7
	C30.5,82.3,29.8,82.7,29,82.7L29,82.7z M29,5C15.8,5,5,15.8,5,29c0,14,18,39,24,47.1C35,68,53,43,53,29C53,15.8,42.2,5,29,5z
	 M29,41.8c-7.1,0-12.8-5.7-12.8-12.8c0-7.1,5.7-12.8,12.8-12.8S41.8,21.9,41.8,29c0,1.4-1.1,2.5-2.5,2.5s-2.5-1.1-2.5-2.5
	c0-4.3-3.5-7.8-7.8-7.8s-7.8,3.5-7.8,7.8c0,4.3,3.5,7.8,7.8,7.8c2.3,0,4.5-1,6-2.8c0.9-1.1,2.5-1.2,3.5-0.3c1.1,0.9,1.2,2.5,0.3,3.5
	C36.4,40.1,32.8,41.8,29,41.8z"/>
</svg>
