<svg xmlns="http://www.w3.org/2000/svg" data-name="Layer 1" viewBox="0 0 100 125" x="0px" y="0px"><defs><style>.cls-1{fill-rule:evenodd;}</style></defs><title>a</title><path class="cls-1" d="M56.216,76.239l-2.243,8.37a1.42,1.42,0,0,0,1,1.737l21.258,5.7a1.42,1.42,0,0,0,1.736-1l2.243-8.371a1.419,1.419,0,0,0-1-1.736l-21.258-5.7a1.419,1.419,0,0,0-1.737,1Zm17.525,7.923a1.422,1.422,0,1,1-.866.662,1.425,1.425,0,0,1,.866-.662Zm-2.932-.534a3.8,3.8,0,1,1-.384,2.894,3.819,3.819,0,0,1,.384-2.894Zm14.6-35.209L87.1,31.649c.234-1.565.669-2.373,1.172-2.734a2.318,2.318,0,0,1,2.75.563,5.066,5.066,0,0,1,.536,2.547c.1,3.27.3,6.514.507,9.747.245,3.871.488,7.727.545,11.339a8.33,8.33,0,0,1-.38,2.834,15.985,15.985,0,0,1-3.189,4.8,35.071,35.071,0,0,1-6.758,5.668c-2.331,1.633-5.248,3.625-6.734,5.907-1,1.545-.943,3.268-.913,4.911L61.8,73.792c.1-.9,1.148-10.334,1.239-10.541.968-2.213,4.74-5.944,6.6-7.671L79.509,47c1.659-1.442,3.384-.518,3.508,1.043a1.63,1.63,0,0,1-.475,1.338l-9.31,11.487a1.194,1.194,0,0,0,1.853,1.507l9.242-11.4a3.944,3.944,0,0,0,1.083-2.555ZM82.664,35.124l-.886,8.8a3.944,3.944,0,0,1,1.625.59L84.61,32.528c-1.426.049-1.768,1.426-1.946,2.6Zm-5.679,10.9A9.22,9.22,0,0,1,79.34,44.3l.838-8.327a1.916,1.916,0,0,0-1.377.288,4.3,4.3,0,0,0-1.143,2.8l-.673,6.957ZM46.027,84.609l-2.243-8.37a1.419,1.419,0,0,0-1.737-1l-21.258,5.7a1.42,1.42,0,0,0-1,1.736l2.243,8.371a1.42,1.42,0,0,0,1.736,1l21.258-5.7a1.42,1.42,0,0,0,1-1.737ZM26.876,81.851a3.815,3.815,0,1,1-2.889.383,3.817,3.817,0,0,1,2.889-.383Zm-2.36,3.316a1.422,1.422,0,1,1,.138,1.08,1.429,1.429,0,0,1-.138-1.08ZM12.9,31.649l1.689,16.77a3.944,3.944,0,0,0,1.083,2.555l9.242,11.4a1.194,1.194,0,0,0,1.853-1.507l-9.31-11.487a1.63,1.63,0,0,1-.475-1.338c.124-1.561,1.849-2.485,3.508-1.043l9.866,8.577c1.446,1.341,5.634,5.46,6.6,7.671.091.207,1.144,9.641,1.239,10.541L25.365,77.231c.03-1.643.092-3.366-.913-4.911A13.4,13.4,0,0,0,22,69.623c-2.623-2.28-5.927-4.132-8.641-6.507a27.045,27.045,0,0,1-4.393-4.9,7.761,7.761,0,0,1-1.57-5.1c.027-3.392.312-7.659.545-11.344.2-3.233.408-6.477.507-9.747a5.066,5.066,0,0,1,.536-2.547,2.318,2.318,0,0,1,2.75-.563c.5.361.938,1.169,1.172,2.734ZM23.015,46.025l-.673-6.957a4.3,4.3,0,0,0-1.143-2.8,1.916,1.916,0,0,0-1.377-.288L20.66,44.3a9.2,9.2,0,0,1,2.355,1.722ZM19.457,33.607a4.2,4.2,0,0,1,3.22.777c.943.741,1.69,2.057,2.031,4.338l.926,9.582,6.316,5.5a62.615,62.615,0,0,1,4.64,4.79,16.867,16.867,0,0,1,2.558,3.7c.3.678,1.215,9.263,1.385,10.869,1.394-.373,2.247-.646,3.7.1A3.794,3.794,0,0,1,46.1,75.621l2.243,8.371a3.823,3.823,0,0,1-2.695,4.665l-21.258,5.7a3.823,3.823,0,0,1-4.666-2.695l-2.243-8.37a3.824,3.824,0,0,1,2.7-4.666l2.8-.75c0-1.414.184-3.163-.524-4.251-1.249-1.92-4.185-3.912-6.1-5.253a36.975,36.975,0,0,1-7.169-6.032A17.71,17.71,0,0,1,5.506,56.7a10.681,10.681,0,0,1-.5-3.624c.108-6.9.844-14.248,1.052-21.119.09-2.975.913-4.96,3.725-5.562,2.625-.561,4.5.826,5.253,3.743,2.119-.1,3.737,1.024,4.422,3.466Zm-2.121,1.517c-.178-1.17-.52-2.547-1.946-2.6L16.6,44.512a3.944,3.944,0,0,1,1.625-.59l-.886-8.8ZM60.883,5.518A12.113,12.113,0,0,0,50,12.379,12.074,12.074,0,0,0,27.036,17.6c0,14.386,12.062,22.289,22.273,28.979.78.511,1.311.046,1.9-.341C61.439,39.541,72.964,32,72.964,17.6A12.116,12.116,0,0,0,60.883,5.518Zm0,2.4a9.719,9.719,0,0,0-9.689,9.61,1.2,1.2,0,1,1-2.389-.095,9.688,9.688,0,0,0-19.374.171c0,12.818,10.994,20.291,20.569,26.57,9.693-6.345,20.569-13.51,20.569-26.57a9.715,9.715,0,0,0-9.686-9.686ZM33.074,15.227a9,9,0,0,0-.437,6.613,20.962,20.962,0,0,0,4.2,7.32,1.193,1.193,0,1,0,1.843-1.516c-2.781-3.378-5.261-7.658-3.459-11.378a1.195,1.195,0,1,0-2.152-1.039Zm5.54-5.367a1.195,1.195,0,0,1,1.179,2.078,15.826,15.826,0,0,0-2.12,1.42,1.195,1.195,0,0,1-1.5-1.863A18.745,18.745,0,0,1,38.614,9.86ZM59.467,73.166c.17-1.606,1.088-10.191,1.385-10.869a16.867,16.867,0,0,1,2.558-3.7,62.41,62.41,0,0,1,4.641-4.79l6.315-5.5.926-9.582c.341-2.281,1.088-3.6,2.031-4.338a4.2,4.2,0,0,1,3.22-.777c.685-2.442,2.3-3.567,4.422-3.466.753-2.917,2.628-4.3,5.253-3.743,2.812.6,3.635,2.587,3.725,5.562.208,6.871.944,14.219,1.052,21.119a10.122,10.122,0,0,1-1.982,6.48,29.779,29.779,0,0,1-4.8,5.353c-2.8,2.45-6.032,4.24-8.65,6.517a11.02,11.02,0,0,0-2.017,2.192c-.708,1.088-.519,2.837-.524,4.251l2.8.75a3.824,3.824,0,0,1,2.7,4.666l-2.243,8.37a3.823,3.823,0,0,1-4.666,2.695l-21.258-5.7a3.823,3.823,0,0,1-2.695-4.665l2.243-8.371a3.823,3.823,0,0,1,4.665-2.695Z"/><text x="0" y="115" fill="#000000" font-size="5px" font-weight="bold" font-family="'Helvetica Neue', Helvetica, Arial-Unicode, Arial, Sans-serif">Created by c_ART_o</text><text x="0" y="120" fill="#000000" font-size="5px" font-weight="bold" font-family="'Helvetica Neue', Helvetica, Arial-Unicode, Arial, Sans-serif">from the Noun Project</text></svg>