<svg xmlns="http://www.w3.org/2000/svg" xmlns:xlink="http://www.w3.org/1999/xlink" xmlns:serif="http://www.serif.com/" viewBox="0 0 267 333.75" version="1.1" xml:space="preserve" style="" x="0px" y="0px" fill-rule="evenodd" clip-rule="evenodd" stroke-linejoin="round" stroke-miterlimit="2"><g><path d="M87.203,165.119c0.191,0.479 0.297,1.001 0.297,1.548c0,20.71 -16.789,37.5 -37.5,37.5c-20.711,-0 -37.5,-16.79 -37.5,-37.5c-0,-0.547 0.106,-1.069 0.297,-1.548l30.654,-76.634c-1.117,-1.418 -1.784,-3.208 -1.784,-5.152c-0,-4.599 3.734,-8.333 8.333,-8.333c3.082,0 5.775,1.677 7.217,4.167l23.171,-0c0.442,-2.982 1.166,-5.73 2.208,-8.102c0.012,-0.969 0.095,-2.017 0.289,-3.101c0.475,-2.642 1.593,-5.477 3.872,-8.01c0.729,-0.81 4.439,-3.67 8.939,-3.011c0.496,0.072 1.011,0.184 1.538,0.347c0.068,-0.219 0.141,-0.434 0.219,-0.646c1.482,-4.062 4.546,-7.068 8.722,-8.329c1.694,-0.532 3.305,-0.554 4.718,-0.291c0.609,0.114 1.182,0.283 1.712,0.488c0.356,-1.191 0.824,-2.31 1.383,-3.331c2.086,-3.814 5.435,-6.289 9.07,-6.808c1.249,-0.178 6.845,-0.12 11.446,3.055c0.122,0.083 0.242,0.169 0.362,0.257c0.397,-1.048 0.871,-2.072 1.433,-3.036c1.926,-3.306 4.805,-5.933 8.851,-6.952c4.462,-1.123 8.463,-0.054 11.836,2.048c4.08,2.545 7.089,6.714 8.797,9.595c0.379,-0.073 0.755,-0.135 1.124,-0.184c3.705,-0.483 6.926,0.299 9.083,2.453c1.874,1.872 3.72,4.809 5.295,8.074c2.08,4.311 3.738,9.189 4.585,12.403c0.265,1.005 0.461,2.098 0.606,3.245c0.4,3.163 0.359,6.821 0.779,9.836l22.195,-0c1.441,-2.49 4.135,-4.167 7.217,-4.167c4.599,0 8.333,3.734 8.333,8.333c0,1.944 -0.667,3.734 -1.785,5.152l30.654,76.634c0.197,0.493 0.298,1.016 0.298,1.548c0,20.71 -16.79,37.5 -37.5,37.5c-20.711,-0 -37.501,-16.79 -37.501,-37.5c0,-0.532 0.101,-1.055 0.298,-1.548l30.654,-76.634c-0.245,-0.311 -0.469,-0.64 -0.668,-0.985l-23.052,0c-0.051,0.194 -0.103,0.389 -0.157,0.586c-1.016,3.703 -2.509,7.818 -3.632,9.79c-1.582,2.779 -2.077,4.507 -3.088,6.344c-0.759,1.378 -1.743,2.816 -3.422,4.625c-1.241,1.336 -2.313,2.391 -3.264,3.271c-2.01,1.859 -3.446,2.874 -4.86,4.203c-0.738,0.694 -1.466,1.493 -2.304,2.633c-0.548,0.745 -1.135,1.622 -1.792,2.685c-0.044,0.107 -0.093,0.213 -0.147,0.317c-2.026,3.923 -3.417,8.67 -4.363,13.224c-1.162,5.596 -1.642,10.915 -1.685,14.181c-0.112,8.663 1.228,19.306 3.055,29.878c3.326,19.244 8.283,38.254 9.522,45.246c0.401,2.265 -1.111,4.429 -3.376,4.83c-2.264,0.402 -4.428,-1.111 -4.829,-3.375c-1.241,-6.998 -6.2,-26.023 -9.529,-45.281c-1.92,-11.112 -3.294,-22.302 -3.175,-31.406c0.042,-3.225 0.456,-8.251 1.453,-13.693c-1.349,0.571 -2.791,1.009 -4.286,1.333c-4.053,0.878 -8.504,0.918 -12.046,0.918c-2.3,-0 -4.167,-1.867 -4.167,-4.167c-0,-2.3 1.867,-4.167 4.167,-4.167c3.022,0 6.824,0.021 10.282,-0.729c1.859,-0.402 3.623,-1.007 4.956,-2.131c1.79,-1.511 4.784,-6.241 6.129,-8.23c0.408,-0.604 0.714,-1.031 0.863,-1.217c0.155,-0.192 0.305,-0.351 0.444,-0.482c0.886,-1.402 1.672,-2.518 2.401,-3.449c0.962,-1.23 1.838,-2.16 2.72,-2.989c1.428,-1.343 2.877,-2.371 4.908,-4.249c0.821,-0.76 1.746,-1.672 2.817,-2.826c1.084,-1.167 1.737,-2.082 2.227,-2.972c1.028,-1.868 1.538,-3.622 3.148,-6.449c0.615,-1.079 1.33,-3.002 1.991,-5.044c0.887,-2.738 1.67,-5.695 1.799,-7.285c0.002,-0.021 0.003,-0.047 0.005,-0.073c-0.499,-2.898 -0.526,-6.481 -0.824,-9.75c-0.109,-1.21 -0.257,-2.367 -0.527,-3.39c-0.745,-2.826 -2.204,-7.115 -4.033,-10.907c-1.12,-2.322 -2.345,-4.466 -3.678,-5.798c-0.336,-0.335 -0.877,-0.182 -1.434,-0.15c-1.208,0.067 -2.531,0.398 -3.852,0.806c-2.681,0.828 -5.347,1.961 -7.368,2.722c0.079,0.734 0.089,1.554 0.004,2.473c-0.187,2.014 -1.176,4.281 -2.611,5.972c-1.223,1.44 -2.752,2.447 -4.254,2.861c-0.67,0.185 -2.942,1.044 -5.774,0.986c-1.397,-0.029 -2.913,-0.269 -4.459,-0.863c-0.103,-0.04 -0.437,-0.17 -0.912,-0.401c0.453,0.564 0.98,1.088 1.629,1.557c1.252,0.904 2.929,1.586 5.265,2.081c3.083,0.654 6.513,0.352 9.667,-0.778c3.03,-1.085 5.819,-2.941 7.757,-5.548c1.371,-1.845 3.984,-2.23 5.829,-0.858c1.846,1.372 2.231,3.984 0.859,5.829c-1.381,1.859 -3.039,3.479 -4.887,4.843c0.555,1.183 0.904,2.416 1.213,3.744c1.193,5.129 0.169,11.034 -0.492,13.725c-0.174,0.707 -0.323,1.208 -0.4,1.444c-1.927,5.91 -8.939,4.198 -8.175,-1.173c0.073,-0.513 0.403,-1.939 0.482,-2.259c0.25,-1.016 0.603,-2.668 0.757,-4.542c-1.887,1.912 -4.451,3.468 -7.868,4.058c-4.575,0.79 -7.781,-0.872 -9.97,-3.239c-1.051,1.614 -2.443,2.984 -4.154,3.959c-2.224,1.269 -5.25,1.457 -8.278,0.582c-0.81,-0.235 -1.616,-0.543 -2.396,-0.909c-0.655,1.733 -1.753,3.293 -3.437,4.453c-3.281,2.261 -6.357,2.511 -9.125,1.747c-1.308,-0.361 -2.561,-0.988 -3.733,-1.804c-0.649,1.097 -1.539,2.115 -2.746,2.972c-1.603,1.138 -3.614,1.654 -5.525,1.709c-2.729,0.079 -5.148,-0.857 -5.783,-1.284c-2.804,-1.888 -5.543,-4.898 -7.775,-8.335c0.06,2.472 0.283,5.019 0.626,7.551c1.133,8.361 3.665,16.59 6.656,21.593c1.763,2.948 4.941,5.454 7.305,8.341c0.094,0.115 0.187,0.23 0.279,0.346c1.05,0.977 2.999,3.388 6.431,3.947c1.954,0.319 4.359,-0.034 7.333,-1.463c2.073,-0.997 4.565,-0.123 5.561,1.95c0.996,2.072 0.122,4.564 -1.95,5.56c-4.904,2.358 -8.93,2.702 -12.171,2.196c0.674,2.917 1.045,5.724 1.219,8.507c0.445,7.152 -0.483,14.135 -0.822,22.599c-0.101,2.544 -0.13,5.043 -0.115,7.515c0.063,10.377 0.877,20.293 0.504,30.994l-0.97,12.929c-0.033,0.813 0.023,2.841 0.061,4.008c0.155,0.507 0.216,1.052 0.163,1.613c-0.278,2.919 -2.199,3.623 -2.459,3.743c-0.934,0.434 -1.867,0.496 -2.795,0.258c-0.773,-0.198 -1.988,-0.666 -2.746,-2.273c-0.101,-0.213 -0.318,-0.718 -0.411,-1.511c-0.117,-1.007 -0.199,-4.685 -0.14,-6.17l0.969,-12.888c0.369,-10.583 -0.447,-20.39 -0.51,-30.653c-0.015,-2.598 0.016,-5.224 0.123,-7.898c0.325,-8.145 1.26,-14.865 0.83,-21.748c-0.26,-4.184 -1.054,-8.433 -2.879,-13.158c-0.437,-1.129 -1.151,-2.144 -1.953,-3.124c-2.624,-3.205 -6.053,-6.072 -8.009,-9.344c-3.434,-5.742 -6.461,-15.152 -7.762,-24.75c-0.411,-3.038 -0.643,-6.091 -0.669,-9.055l-22.637,0c-0.2,0.345 -0.423,0.674 -0.669,0.985l30.655,76.634Zm-64.382,-2.619l54.358,0l-27.179,-67.948l-27.179,67.948Zm82.551,-96.841c1.609,3.241 3.291,6.724 4.476,10.322c0.27,0.821 0.515,1.647 0.729,2.478c0.177,0.354 0.306,0.739 0.378,1.148c0.09,0.516 0.381,1.246 0.698,1.995c0.489,1.157 1.492,2.953 1.492,2.953c0.822,0.902 1.716,1.743 2.789,2.039c0.672,0.186 1.384,-0.027 2.18,-0.576c0.65,-0.448 0.593,-1.302 0.626,-1.999c0.065,-1.384 -0.178,-2.666 -0.252,-3.299c-0.077,-0.656 -0.227,-1.264 -0.422,-1.845c-0.103,-0.283 -0.213,-0.563 -0.333,-0.837c-0.05,-0.117 -0.096,-0.234 -0.135,-0.352c-0.563,-1.266 -1.26,-2.452 -1.75,-3.785c-0.305,-0.833 -0.564,-1.701 -0.746,-2.626c-0.793,-4.011 -0.949,-7.304 -2.131,-10.332c-0.62,-1.589 -1.589,-3.079 -3.221,-4.602c-0.101,-0.094 -1.13,-0.06 -1.152,-0.053c-1.601,0.48 -2.749,1.657 -3.317,3.213c-0.616,1.687 -0.599,3.745 0.037,5.949c0.02,0.07 0.038,0.139 0.054,0.209Zm15.501,-7.378c1.229,3.347 1.533,6.97 2.404,11.378c0.301,1.525 0.912,2.826 1.53,4.108c0.222,0.279 0.412,0.591 0.562,0.933l1.624,4.108c0.462,0.717 1.374,1.348 2.356,1.858c0.769,0.4 1.601,0.709 2.406,0.838c0.393,0.063 0.776,0.179 1.068,0.012c1.202,-0.685 1.846,-1.987 2.137,-3.345c0.337,-1.574 0.197,-3.29 -0.491,-4.642c-0.431,-0.848 -0.955,-1.625 -1.498,-2.379c-0.35,-0.437 -0.677,-0.888 -0.986,-1.35c-0.684,-0.944 -1.323,-1.895 -1.763,-2.947c-0.629,-1.508 -0.977,-3.159 -0.848,-5.077c0.078,-1.155 0.378,-2.268 0.834,-3.353c0.47,-1.12 1.131,-2.214 1.732,-3.331c0.357,-0.664 0.836,-1.302 0.695,-2.104c-0.404,-2.293 -1.527,-3.779 -2.863,-4.701c-2.245,-1.549 -4.927,-1.751 -5.536,-1.664c-1.626,0.232 -2.789,1.857 -3.483,3.773c-0.737,2.034 -0.849,4.515 -0.057,7.013c0.092,0.289 0.15,0.581 0.177,0.872Zm36.879,-12.353c-1.175,-1.65 -2.963,-3.731 -5.176,-5.111c-1.541,-0.962 -3.352,-1.552 -5.392,-1.039c-2.262,0.57 -3.528,2.457 -4.365,4.437c-0.537,1.27 -0.895,2.615 -1.119,3.884c1.127,-0.307 2.114,-0.493 2.686,-0.561c3.751,-0.445 4.692,0.273 6.997,0.229c0.521,-0.01 1.144,-0.094 1.983,-0.279c1.008,-0.223 2.566,-0.847 4.386,-1.56Zm-9.096,9.858c-0.819,-0.102 -1.804,-0.149 -3.288,0.027c-0.616,0.073 -3.037,0.972 -3.756,1.243c-0.038,0.098 -0.079,0.194 -0.124,0.288c0.789,0.791 1.736,1.143 1.855,1.189c0.741,0.285 1.466,0.337 2.101,0.302c1.272,-0.072 2.283,-0.462 2.758,-0.626c0.105,-0.12 0.898,-1.052 0.951,-1.621c0.017,-0.185 0.013,-0.406 0.004,-0.592c-0.173,-0.059 -0.34,-0.13 -0.501,-0.21Zm95.19,106.714l-27.179,-67.948l-27.179,67.948l54.358,0Zm-90.705,-84.512c-2.224,0.293 -4.457,0.308 -6.608,0.037c0.264,0.562 0.614,1.111 1.058,1.444c0.505,0.378 1.192,0.504 2.068,0.353c1.527,-0.264 2.664,-0.968 3.482,-1.834Zm-75.182,97.012c0.402,-1.35 0.708,-2.742 0.912,-4.167l-57.742,0c0.204,1.425 0.51,2.816 0.912,4.167l55.918,0Zm-51.898,8.333c5.271,7.557 14.028,12.5 23.939,12.5c9.911,0 18.668,-4.944 23.939,-12.5l-47.878,0Zm74.181,-94.266c0.452,0.113 1.599,0.34 2.172,-0.067c0.521,-0.37 0.651,-0.945 0.733,-1.444c0.16,-0.967 0.075,-1.884 0.055,-2.478c-0.073,-2.192 -0.57,-4.366 -1.269,-6.491c-1.177,-3.572 -2.922,-7.007 -4.499,-10.176c-0.695,-1.395 -1.387,-2.336 -2.148,-2.874c-0.998,-0.707 -1.99,-0.183 -2.441,0.122c-0.006,0.004 -0.013,0.009 -0.02,0.014c-1.023,1.196 -1.516,2.529 -1.738,3.765c-0.418,2.329 0.059,4.382 0.202,5.07c0.544,2.62 1.838,5.598 3.516,8.304c1.555,2.509 3.434,4.801 5.437,6.255Zm144.383,85.933c0.402,-1.35 0.709,-2.742 0.913,-4.167l-57.743,0c0.204,1.425 0.511,2.816 0.913,4.167l55.917,0Zm-51.897,8.333c5.27,7.557 14.027,12.5 23.939,12.5c9.911,0 18.668,-4.944 23.938,-12.5l-47.877,0Zm-43.114,-89.311c2.297,-0.11 4.251,1.665 4.361,3.963c0.11,2.297 -1.666,4.251 -3.963,4.361c-1.556,0.074 -3.765,-0.039 -6.274,0.677c-1.544,0.441 -3.213,1.224 -4.917,2.608c-1.902,1.545 -3.21,3.079 -4.113,4.496c-1.655,2.595 -1.98,4.799 -2.297,5.848c-0.664,2.201 -2.991,3.449 -5.193,2.784c-2.201,-0.665 -3.449,-2.992 -2.784,-5.194c0.432,-1.429 0.993,-4.383 3.248,-7.919c1.298,-2.036 3.152,-4.263 5.885,-6.484c2.728,-2.215 5.413,-3.447 7.884,-4.152c3.27,-0.933 6.135,-0.891 8.163,-0.988Z"/></g><text x="0" y="282" fill="#000000" font-size="5px" font-weight="bold" font-family="'Helvetica Neue', Helvetica, Arial-Unicode, Arial, Sans-serif">Created by Rifqi Real</text><text x="0" y="287" fill="#000000" font-size="5px" font-weight="bold" font-family="'Helvetica Neue', Helvetica, Arial-Unicode, Arial, Sans-serif">from the Noun Project</text></svg>