<svg xmlns="http://www.w3.org/2000/svg" xmlns:xlink="http://www.w3.org/1999/xlink" xmlns:serif="http://www.serif.com/" viewBox="0 0 267 333.75" version="1.1" xml:space="preserve" style="" x="0px" y="0px" fill-rule="evenodd" clip-rule="evenodd" stroke-linejoin="round" stroke-miterlimit="2"><g><path d="M124.151,153.125l-107.484,0c-2.3,-0 -4.167,-1.867 -4.167,-4.167c0,-2.299 1.867,-4.166 4.167,-4.166l12.5,-0l-0,-16.675c-0,-18.405 14.92,-33.325 33.325,-33.325l0.008,-0c8.841,-0 17.319,3.512 23.57,9.763c6.251,6.251 9.763,14.729 9.763,23.57l0,16.667l37.5,-0l37.5,-0l0,-16.675c0,-18.405 14.92,-33.325 33.325,-33.325l0.009,-0c8.84,-0 17.319,3.512 23.57,9.763c6.251,6.251 9.763,14.729 9.763,23.57l-0,16.667l12.5,-0c2.3,-0 4.167,1.867 4.167,4.166c-0,2.3 -1.867,4.167 -4.167,4.167l-107.484,0l21.875,25l10.609,0c1.86,0 3.495,1.233 4.006,3.022l3.899,13.645l12.928,-0c1.861,-0 3.496,1.233 4.007,3.022l4.166,14.583c0.36,1.257 0.108,2.61 -0.68,3.654c-0.787,1.044 -2.019,1.657 -3.326,1.657l-133.333,0c-1.308,0 -2.539,-0.613 -3.327,-1.657c-0.787,-1.044 -1.039,-2.397 -0.68,-3.654l4.167,-14.583c0.511,-1.789 2.146,-3.022 4.006,-3.022l12.929,-0l3.898,-13.645c0.511,-1.789 2.146,-3.022 4.007,-3.022l10.609,0l21.875,-25Zm-36.651,-8.333l0,-16.667c0,-6.63 -2.634,-12.989 -7.322,-17.678c-4.689,-4.688 -11.048,-7.322 -17.678,-7.322l-0.008,0c-13.803,0 -24.992,11.189 -24.992,24.992l-0,16.675l50,-0Zm141.667,-0l-0,-16.667c-0,-6.63 -2.634,-12.989 -7.323,-17.678c-4.688,-4.688 -11.047,-7.322 -17.677,-7.322l-0.009,0c-13.802,0 -24.991,11.189 -24.991,24.992l-0,16.675l50,-0Zm-75.849,33.333l-19.985,-22.839c0,-0 -19.984,22.839 -19.984,22.839l39.969,0Zm18.539,8.333c0,0 -77.047,0 -77.047,0l-1.786,6.25l80.619,0l-1.786,-6.25Zm20.833,16.667c0,-0 -118.714,-0 -118.714,0l-1.785,6.25l122.285,-0l-1.786,-6.25Zm-130.19,-154.167c11.498,0 20.833,9.335 20.833,20.834c0,11.498 -9.335,20.833 -20.833,20.833c-11.498,-0 -20.833,-9.335 -20.833,-20.833c-0,-11.499 9.335,-20.834 20.833,-20.834Zm11.788,16.667c-1.718,-4.853 -6.35,-8.333 -11.788,-8.333c-5.438,-0 -10.07,3.48 -11.788,8.333l23.576,-0Zm-23.576,8.333c1.718,4.853 6.35,8.334 11.788,8.334c5.438,-0 10.07,-3.481 11.788,-8.334l-23.576,0Zm153.455,-25c11.498,0 20.833,9.335 20.833,20.834c-0,11.498 -9.335,20.833 -20.833,20.833c-11.499,-0 -20.834,-9.335 -20.834,-20.833c0,-11.499 9.335,-20.834 20.834,-20.834Zm-0,8.334c-6.899,-0 -12.5,5.601 -12.5,12.5c-0,6.899 5.601,12.5 12.5,12.5c6.899,-0 12.5,-5.601 12.5,-12.5c-0,-6.899 -5.601,-12.5 -12.5,-12.5Z"/></g><text x="0" y="282" fill="#000000" font-size="5px" font-weight="bold" font-family="'Helvetica Neue', Helvetica, Arial-Unicode, Arial, Sans-serif">Created by Rifqi Real</text><text x="0" y="287" fill="#000000" font-size="5px" font-weight="bold" font-family="'Helvetica Neue', Helvetica, Arial-Unicode, Arial, Sans-serif">from the Noun Project</text></svg>