<?xml version="1.0" encoding="utf-8"?>
<!-- Generator: Adobe Illustrator 27.0.1, SVG Export Plug-In . SVG Version: 6.00 Build 0)  -->
<svg version="1.1" id="Layer_1" xmlns="http://www.w3.org/2000/svg" xmlns:xlink="http://www.w3.org/1999/xlink" x="0px" y="0px"
	 viewBox="0 0 700 700" style="enable-background:new 0 0 700 700;" xml:space="preserve">
<symbol  id="a" viewBox="-7.7 -8 15.5 16.1">
	<path d="M0.3,0.8c-1,0-1.8,0.2-2.3,0.5c-0.5,0.3-0.8,0.9-0.8,1.5c0,0.6,0.2,1.1,0.6,1.5c0.4,0.3,1,0.5,1.7,0.5c0.9,0,1.7-0.3,2.3-1
		c0.6-0.7,1-1.5,1-2.5V0.8L0.3,0.8z M7.7-1.1v8.7H2.8V5.4C2.2,6.3,1.4,7,0.6,7.4C-0.2,7.8-1.2,8-2.4,8C-4,8-5.3,7.6-6.3,6.7
		c-1-0.9-1.5-2.1-1.5-3.6c0-1.8,0.6-3.1,1.8-3.9c1.2-0.8,3.2-1.3,5.8-1.3h2.9v-0.4c0-0.8-0.3-1.3-0.9-1.7C1.3-4.6,0.3-4.8-1-4.8
		c-1.1,0-2,0.1-2.9,0.3c-0.9,0.2-1.7,0.5-2.5,0.9v-3.7c1-0.2,2.1-0.4,3.1-0.6C-2.2-8-1.1-8-0.1-8c2.8,0,4.8,0.5,6,1.6
		C7.1-5.3,7.7-3.5,7.7-1.1L7.7-1.1z"/>
</symbol>
<symbol  id="b" viewBox="-5.7 -7.8 11.4 15.7">
	<path d="M5.7-3.3C5.2-3.5,4.8-3.6,4.4-3.7C4-3.8,3.6-3.9,3.1-3.9c-1.3,0-2.2,0.4-2.9,1.2c-0.7,0.8-1,2-1,3.5v7.1h-4.9V-7.5h4.9V-5
		c0.6-1,1.3-1.7,2.2-2.2c0.8-0.5,1.8-0.7,2.9-0.7c0.2,0,0.3,0,0.5,0c0.2,0,0.5,0,0.8,0.1L5.7-3.3z"/>
</symbol>
<symbol  id="c" viewBox="-8.4 -8 16.8 16.1">
	<path d="M0-4.5c-1.1,0-1.9,0.4-2.5,1.2C-3-2.6-3.3-1.5-3.3,0S-3,2.6-2.5,3.4C-1.9,4.2-1.1,4.5,0,4.5c1.1,0,1.9-0.4,2.4-1.2
		C3,2.6,3.3,1.5,3.3,0S3-2.6,2.5-3.4C1.9-4.1,1.1-4.5,0-4.5z M0-8c2.6,0,4.7,0.7,6.2,2.1C7.7-4.5,8.4-2.5,8.4,0
		c0,2.5-0.7,4.5-2.2,5.9C4.7,7.3,2.7,8,0,8c-2.6,0-4.7-0.7-6.2-2.1C-7.7,4.5-8.4,2.5-8.4,0c0-2.5,0.7-4.5,2.2-5.9
		C-4.7-7.3-2.6-8,0-8z"/>
</symbol>
<symbol  id="d" viewBox="-6.2 -9.8 12.4 19.7">
	<path d="M1.1-9.8v4.3h5V-2h-5v6.5c0,0.7,0.1,1.2,0.4,1.4s0.8,0.4,1.7,0.4h2.5v3.5H1.6c-1.9,0-3.3-0.4-4.1-1.2
		c-0.8-0.8-1.2-2.2-1.2-4.1V-2h-2.4v-3.5h2.4v-4.3H1.1z"/>
</symbol>
<symbol  id="e" viewBox="-8.2 -8 16.4 16.1">
	<path d="M8.2-0.1v1.4H-3.2c0.1,1.1,0.5,2,1.2,2.6c0.7,0.6,1.7,0.9,3,0.9c1,0,2.1-0.1,3.2-0.5C5.2,4,6.3,3.6,7.5,2.9v3.8
		C6.3,7.1,5.2,7.5,4,7.7C2.9,7.9,1.7,8,0.5,8c-2.8,0-4.9-0.7-6.5-2.1C-7.5,4.5-8.2,2.6-8.2,0c0-2.5,0.8-4.5,2.3-5.9
		C-4.4-7.3-2.4-8,0.3-8C2.7-8,4.6-7.3,6-5.9C7.5-4.4,8.2-2.5,8.2-0.1L8.2-0.1z M3.2-1.7c0-0.9-0.3-1.7-0.8-2.2
		C1.8-4.5,1.1-4.8,0.3-4.8c-0.9,0-1.7,0.3-2.3,0.8s-1,1.3-1.1,2.3H3.2z"/>
</symbol>
<symbol  id="f" viewBox="-6.9 -8 13.9 16.1">
	<path d="M5.9-7.2v3.7c-1-0.4-2.1-0.8-3-1C1.9-4.7,1-4.8,0.1-4.8c-0.9,0-1.6,0.1-2.1,0.3c-0.4,0.2-0.7,0.6-0.7,1.1
		c0,0.4,0.2,0.7,0.5,0.9c0.3,0.2,1,0.4,1.8,0.5l0.9,0.1C3.1-1.5,4.8-1,5.6-0.3c0.9,0.7,1.3,1.9,1.3,3.4c0,1.6-0.6,2.9-1.8,3.7
		C3.9,7.6,2.1,8-0.2,8c-1,0-2.1-0.1-3.2-0.2c-1.1-0.2-2.2-0.4-3.3-0.7V3.4c1,0.5,2,0.8,3,1.1c1,0.2,2.1,0.3,3.1,0.3
		c1,0,1.7-0.1,2.2-0.4C2,4.1,2.3,3.7,2.3,3.2c0-0.4-0.2-0.8-0.5-1c-0.3-0.2-1-0.4-2-0.5l-0.9-0.1c-2.2-0.3-3.7-0.8-4.6-1.5
		c-0.9-0.7-1.3-1.9-1.3-3.4c0-1.6,0.6-2.8,1.7-3.6C-4.2-7.6-2.5-8-0.2-8C0.7-8,1.7-8,2.7-7.8C3.7-7.7,4.7-7.5,5.9-7.2L5.9-7.2z"/>
</symbol>
<symbol  id="g" viewBox="-6.8 -8 13.5 16.1">
	<path d="M6.8-7.2v4c-0.7-0.5-1.3-0.8-2-1C4.1-4.4,3.4-4.5,2.7-4.5c-1.4,0-2.4,0.4-3.2,1.2C-1.3-2.5-1.7-1.4-1.7,0
		c0,1.4,0.4,2.5,1.1,3.3c0.8,0.8,1.8,1.2,3.2,1.2c0.8,0,1.5-0.1,2.2-0.3c0.7-0.2,1.3-0.6,1.9-1v4C6,7.5,5.2,7.7,4.4,7.8
		C3.6,8,2.9,8,2.1,8c-2.8,0-4.9-0.7-6.5-2.1C-6,4.5-6.8,2.5-6.8,0c0-2.5,0.8-4.5,2.3-5.9C-2.9-7.3-0.7-8,2.1-8C2.9-8,3.6-8,4.4-7.8
		C5.2-7.7,6-7.5,6.8-7.2L6.8-7.2z"/>
</symbol>
<symbol  id="h" viewBox="-11.4 -10.2 22.7 20.4">
	<path d="M-11.4-10.2h6.7L0,0.7l4.7-10.9h6.7v20.4h-5V-4.7l-4.7,11h-3.3l-4.7-11v14.9h-5V-10.2z"/>
</symbol>
<symbol  id="i" viewBox="-8.7 -10.7 17.4 21.4">
	<path d="M-8.7-10.7h4.9L0.3-0.3l3.5-10.4h4.9L2.3,6.1C1.6,7.8,0.9,9,0,9.6c-0.9,0.7-2,1-3.4,1h-2.8V7.5h1.5c0.8,0,1.4-0.1,1.8-0.4
		C-2.5,6.8-2.2,6.3-2,5.6l0.1-0.4L-8.7-10.7z"/>
</symbol>
<symbol  id="j" viewBox="-8.2 -10.8 16.4 21.7">
	<path d="M-0.1,7.3c1.1,0,1.9-0.4,2.4-1.1c0.6-0.8,0.8-1.9,0.8-3.3c0-1.5-0.3-2.6-0.8-3.3C1.8-1.3,1-1.7-0.1-1.7
		c-1.1,0-1.9,0.4-2.4,1.2C-3,0.2-3.3,1.4-3.3,2.8c0,1.4,0.3,2.6,0.8,3.3C-1.9,6.9-1.1,7.3-0.1,7.3L-0.1,7.3z M-3.3-2.6
		c0.7-0.9,1.4-1.5,2.2-2C-0.3-5,0.7-5.2,1.7-5.2c1.9,0,3.4,0.8,4.7,2.2c1.2,1.5,1.8,3.4,1.8,5.8c0,2.4-0.6,4.3-1.8,5.8
		c-1.2,1.5-2.8,2.2-4.7,2.2c-1.1,0-2-0.2-2.8-0.6c-0.8-0.4-1.6-1.1-2.2-2v2.2h-4.9v-21.3h4.9V-2.6z"/>
</symbol>
<symbol  id="k" viewBox="-8.2 -10.8 16.4 21.7">
	<path d="M3.3-2.6v-8.2h4.9v21.3H3.3V8.2c-0.7,0.9-1.4,1.6-2.2,2c-0.8,0.4-1.8,0.6-2.8,0.6c-1.9,0-3.4-0.8-4.6-2.2
		c-1.2-1.5-1.8-3.4-1.8-5.8c0-2.4,0.6-4.3,1.8-5.8c1.2-1.5,2.8-2.2,4.6-2.2c1.1,0,2,0.2,2.8,0.6C1.9-4.2,2.6-3.5,3.3-2.6L3.3-2.6z
		 M0.1,7.3c1,0,1.8-0.4,2.4-1.1C3,5.4,3.3,4.3,3.3,2.8c0-1.5-0.3-2.6-0.8-3.3C1.9-1.3,1.1-1.7,0.1-1.7c-1,0-1.8,0.4-2.4,1.2
		c-0.6,0.8-0.8,1.9-0.8,3.3c0,1.5,0.3,2.6,0.8,3.3C-1.8,6.9-1,7.3,0.1,7.3z"/>
</symbol>
<symbol  id="l" viewBox="-4.1 -13.7 8.2 27.3">
	<path d="M-0.8-7.7h4.9v15c0,2.1-0.5,3.6-1.5,4.7c-1,1.1-2.4,1.6-4.3,1.6h-2.4v-3.2h0.9c0.9,0,1.6-0.2,1.9-0.6
		C-1,9.4-0.8,8.6-0.8,7.3L-0.8-7.7z M-0.8-13.7h4.9v4h-4.9L-0.8-13.7z"/>
</symbol>
<symbol  id="m" viewBox="-8.4 -10.2 16.8 20.4">
	<path d="M-8.4-10.2h8.7c2.6,0,4.6,0.6,6,1.7c1.4,1.1,2.1,2.8,2.1,4.9c0,2.1-0.7,3.8-2.1,4.9c-1.4,1.2-3.4,1.7-6,1.7h-3.5v7.1h-5.2
		V-10.2z M-3.1-6.4v5.7h2.9c1,0,1.8-0.2,2.4-0.8C2.7-1.9,3-2.6,3-3.5c0-0.9-0.3-1.6-0.8-2.1C1.6-6.1,0.8-6.4-0.2-6.4L-3.1-6.4z"/>
</symbol>
<symbol  id="n" viewBox="-7.7 -7.8 15.4 15.7">
	<path d="M7.7-1.5v9.3H2.8V0.7c0-1.3,0-2.2-0.1-2.7S2.5-2.9,2.4-3.1C2.2-3.5,1.9-3.7,1.6-3.9C1.3-4.1,0.9-4.1,0.5-4.1
		c-1,0-1.8,0.4-2.4,1.2c-0.6,0.8-0.9,1.9-0.9,3.3v7.5h-4.9V-7.5h4.9v2.2c0.7-0.9,1.5-1.5,2.3-2c0.8-0.4,1.8-0.6,2.8-0.6
		c1.8,0,3.1,0.5,4,1.6C7.2-5.1,7.7-3.5,7.7-1.5L7.7-1.5z"/>
</symbol>
<symbol  id="o" viewBox="-7.7 -7.9 15.4 15.7">
	<path d="M-7.7,1.5v-9.3h4.9v1.5c0,0.8,0,1.9,0,3.1c0,1.3,0,2.1,0,2.5c0,1.2,0,2.1,0.1,2.7c0.1,0.5,0.2,0.9,0.3,1.2
		c0.2,0.3,0.5,0.6,0.8,0.8c0.3,0.2,0.7,0.2,1.1,0.2c1,0,1.8-0.4,2.4-1.2c0.6-0.8,0.9-1.9,0.9-3.3v-7.6h4.9V7.5H2.8V5.2
		c-0.7,0.9-1.5,1.6-2.3,2c-0.8,0.4-1.7,0.6-2.7,0.6c-1.8,0-3.1-0.5-4-1.6C-7.2,5.1-7.7,3.6-7.7,1.5L-7.7,1.5z"/>
</symbol>
<symbol  id="p" viewBox="-9.1 -10.2 18.3 20.4">
	<path d="M-9.1-10.2h5.9l7.4,14v-14h5v20.4H3.3l-7.4-14v14h-5V-10.2z"/>
</symbol>
<symbol  id="q" viewBox="-7.7 -10.6 15.4 21.3">
	<path d="M7.7,1.3v9.3H2.8V3.5c0-1.3,0-2.3-0.1-2.8S2.5-0.1,2.4-0.3C2.2-0.7,1.9-0.9,1.6-1.1C1.3-1.3,0.9-1.3,0.5-1.3
		c-1,0-1.8,0.4-2.4,1.2c-0.6,0.8-0.9,1.9-0.9,3.3v7.5h-4.9v-21.3h4.9v8.2c0.7-0.9,1.5-1.5,2.3-2C0.4-4.8,1.3-5,2.3-5
		c1.8,0,3.1,0.5,4,1.6C7.2-2.3,7.7-0.8,7.7,1.3L7.7,1.3z"/>
</symbol>
<symbol  id="r" viewBox="-12.3 -7.8 24.6 15.7">
	<path d="M1.9-4.9c0.6-0.9,1.3-1.7,2.2-2.2C5-7.6,5.9-7.8,6.9-7.8c1.8,0,3.1,0.5,4,1.6c0.9,1.1,1.4,2.7,1.4,4.7v9.3H7.4v-8v-0.4
		c0-0.1,0-0.3,0-0.6c0-1.1-0.2-1.9-0.5-2.3C6.6-3.9,6.1-4.1,5.4-4.1C4.5-4.1,3.8-3.8,3.2-3C2.7-2.2,2.5-1.1,2.5,0.3v7.5h-4.9v-8
		c0-1.7-0.1-2.8-0.4-3.3c-0.3-0.5-0.8-0.7-1.6-0.7c-0.9,0-1.7,0.4-2.2,1.2c-0.5,0.8-0.8,1.9-0.8,3.3v7.5h-4.9V-7.5h4.9v2.2
		c0.6-0.9,1.3-1.5,2.1-2c0.8-0.4,1.6-0.7,2.6-0.7c1.1,0,2,0.3,2.8,0.8C0.9-6.6,1.5-5.8,1.9-4.9L1.9-4.9z"/>
</symbol>
<symbol  id="s" viewBox="-5.9 -10.6 11.9 21.3">
	<path d="M5.9-10.6v3.2H3.2C2.6-7.4,2.1-7.3,1.8-7C1.5-6.8,1.4-6.4,1.4-5.7v1.1h4.2v3.5H1.4v11.8h-4.9V-1.2h-2.4v-3.5h2.4v-1.1
		c0-1.7,0.5-2.9,1.4-3.7c0.9-0.8,2.4-1.2,4.3-1.2L5.9-10.6z"/>
</symbol>
<symbol  id="t" viewBox="-2.4 -10.6 4.9 21.3">
	<path d="M-2.4-10.6h4.9v21.3h-4.9L-2.4-10.6z"/>
</symbol>
<symbol  id="u" viewBox="-9.8 -10.6 19.5 21.2">
	<path d="M9.8,8.7c-1.3,0.6-2.7,1.1-4.1,1.4c-1.4,0.3-2.9,0.5-4.4,0.5c-3.4,0-6.1-0.9-8.1-2.8c-2-1.9-3-4.5-3-7.7c0-3.3,1-5.9,3-7.8
		c2-1.9,4.8-2.8,8.3-2.8c1.4,0,2.6,0.1,3.9,0.4C6.7-9.9,7.9-9.6,9-9.1v4.2C7.9-5.5,6.7-6,5.6-6.3C4.5-6.6,3.4-6.8,2.2-6.8
		C0.1-6.8-1.5-6.2-2.6-5c-1.1,1.2-1.7,2.8-1.7,5c0,2.2,0.5,3.8,1.6,5C-1.6,6.2,0,6.8,2,6.8c0.5,0,1,0,1.5-0.1C4,6.6,4.4,6.5,4.8,6.4
		v-4H1.6v-3.5h8.2L9.8,8.7z"/>
</symbol>
<symbol  id="v" viewBox="-8.7 -10.6 17.4 21.2">
	<path d="M8.7,9.1c-1,0.5-2,0.9-3,1.1c-1,0.3-2.1,0.4-3.3,0.4c-3.4,0-6.1-0.9-8.1-2.8c-2-1.9-3-4.5-3-7.7c0-3.3,1-5.8,3-7.7
		c2-1.9,4.7-2.9,8.1-2.9c1.1,0,2.2,0.1,3.3,0.4c1.1,0.2,2.1,0.6,3,1.1v4.2C7.7-5.5,6.7-6,5.8-6.3c-0.9-0.3-1.9-0.5-3-0.5
		C0.9-6.8-0.6-6.2-1.6-5c-1.1,1.2-1.6,2.9-1.6,5c0,2.1,0.5,3.8,1.6,5c1.1,1.2,2.5,1.8,4.4,1.8c1.1,0,2.1-0.1,3-0.5
		C6.7,6,7.7,5.5,8.7,4.9V9.1z"/>
</symbol>
<path d="M302.1,326.4c8.4,25.3,42.2,25.3,33.8-16.9c-16.9-50.7-8.4-118.2-42.2-109.8c-25.3,8.4-16.9,25.3-16.9,33.8
	C285.2,267.3,285.2,267.3,302.1,326.4L302.1,326.4z"/>
<path d="M454.1,267.3V98.5c0-33.8,0-59.1-25.3-59.1s-25.3,25.3-25.3,59.1v135.1C403.4,233.5,428.8,250.4,454.1,267.3L454.1,267.3z"
	/>
<path d="M335.9,225.1c8.4,59.1,8.4,84.4,16.9,101.3c8.4,16.9,25.3,16.9,33.8,0c-50.7-33.8-42.2-101.3,0-92.9
	c0-25.3,0-50.7-25.3-50.7C327.4,182.9,335.9,208.2,335.9,225.1z"/>
<path d="M445.6,470c8.4-33.8,25.3-42.2,25.3-84.4c0-59.1,0-84.4-33.8-109.8c-25.3-16.9-50.7-42.2-67.5-25.3
	c-16.9,25.3,16.9,67.5,42.2,76v8.4c-16.9,16.9-42.2,50.7-25.3,109.8h-16.9c-8.4-59.1,0-76,25.3-109.8c0,0-25.3,33.8-50.7,0
	c0,25.3-33.8,25.3-42.2,8.4c-16.9,25.3-50.7,25.3-67.5-42.2c0,25.3,8.4,42.2,16.9,76c8.4,50.7,16.9,76,25.3,92.9
	c16.9,25.3,16.9,33.8,16.9,50.7h143.5C437.2,503.7,437.2,495.3,445.6,470L445.6,470z"/>
<path d="M276.8,343.3c25.3-8.4,8.4-25.3,0-59.1c-8.4-25.3-8.4-59.1-33.8-50.7c-16.9,8.4-16.9,25.3-8.4,42.2S259.9,351.8,276.8,343.3
	L276.8,343.3z"/>
<use xlink:href="#v"  width="17.4" height="21.2" x="-8.7" y="-10.6" transform="matrix(1 0 0 1 80.0786 633.8046)" style="overflow:visible;"/>
<use xlink:href="#b"  width="11.4" height="15.7" x="-5.7" y="-7.8" transform="matrix(1 0 0 1 98.5973 636.1561)" style="overflow:visible;"/>
<use xlink:href="#e"  width="16.4" height="16.1" x="-8.2" y="-8" transform="matrix(1 0 0 1 113.7816 636.3516)" style="overflow:visible;"/>
<use xlink:href="#a"  width="15.5" height="16.1" x="-7.7" y="-8" transform="matrix(1 0 0 1 132.293 636.3515)" style="overflow:visible;"/>
<use xlink:href="#d"  width="12.4" height="19.7" x="-6.2" y="-9.8" transform="matrix(1 0 0 1 148.8047 634.1721)" style="overflow:visible;"/>
<g>
	<defs>
		<rect id="SVGID_1_" x="155.6" y="644" width="700" height="700"/>
	</defs>
	<clipPath id="SVGID_00000031188253002426806660000011934323602660676005_">
		<use xlink:href="#SVGID_1_"  style="overflow:visible;"/>
	</clipPath>
	<g style="clip-path:url(#SVGID_00000031188253002426806660000011934323602660676005_);">
		
			<use xlink:href="#e"  width="16.4" height="16.1" x="-8.2" y="-8" transform="matrix(1 0 0 1 165.0511 636.3516)" style="overflow:visible;"/>
	</g>
</g>
<use xlink:href="#k"  width="16.4" height="21.7" x="-8.2" y="-10.8" transform="matrix(1 0 0 1 184.0941 633.5547)" style="overflow:visible;"/>
<use xlink:href="#j"  width="16.4" height="21.7" x="-8.2" y="-10.8" transform="matrix(1 0 0 1 214.9805 633.5548)" style="overflow:visible;"/>
<use xlink:href="#i"  width="17.4" height="21.4" x="-8.7" y="-10.7" transform="matrix(1 0 0 1 233.5 639.3679)" style="overflow:visible;"/>
<use xlink:href="#h"  width="22.7" height="20.4" x="-11.4" y="-10.2" transform="matrix(1 0 0 1 266.3828 633.797)" style="overflow:visible;"/>
<g>
	<defs>
		<rect id="SVGID_00000063615419469612411120000008521100071571717518_" x="280.3" y="644" width="700" height="700"/>
	</defs>
	<clipPath id="SVGID_00000151529543880743607070000000993520067607950524_">
		<use xlink:href="#SVGID_00000063615419469612411120000008521100071571717518_"  style="overflow:visible;"/>
	</clipPath>
	<g style="clip-path:url(#SVGID_00000151529543880743607070000000993520067607950524_);">
		
			<use xlink:href="#a"  width="15.5" height="16.1" x="-7.7" y="-8" transform="matrix(1 0 0 1 289.2578 636.3515)" style="overflow:visible;"/>
	</g>
</g>
<g>
	<defs>
		<rect id="SVGID_00000128467924697209453800000003499035774075465653_" x="299.2" y="644" width="700" height="700"/>
	</defs>
	<clipPath id="SVGID_00000041265073740829762000000009366253409902044802_">
		<use xlink:href="#SVGID_00000128467924697209453800000003499035774075465653_"  style="overflow:visible;"/>
	</clipPath>
	<g style="clip-path:url(#SVGID_00000041265073740829762000000009366253409902044802_);">
		
			<use xlink:href="#b"  width="11.4" height="15.7" x="-5.7" y="-7.8" transform="matrix(1 0 0 1 307.2575 636.1561)" style="overflow:visible;"/>
	</g>
</g>
<use xlink:href="#g"  width="13.5" height="16.1" x="-6.8" y="-8" transform="matrix(1 0 0 1 320.9768 636.3519)" style="overflow:visible;"/>
<use xlink:href="#c"  width="16.8" height="16.1" x="-8.4" y="-8" transform="matrix(1 0 0 1 339.2344 636.351)" style="overflow:visible;"/>
<use xlink:href="#u"  width="19.5" height="21.2" x="-9.8" y="-10.6" transform="matrix(1 0 0 1 369.7579 633.8047)" style="overflow:visible;"/>
<g>
	<defs>
		<rect id="SVGID_00000000901276588854066540000001326660527771279543_" x="381.6" y="644" width="700" height="700"/>
	</defs>
	<clipPath id="SVGID_00000026883102662698738680000002818390849070748813_">
		<use xlink:href="#SVGID_00000000901276588854066540000001326660527771279543_"  style="overflow:visible;"/>
	</clipPath>
	<g style="clip-path:url(#SVGID_00000026883102662698738680000002818390849070748813_);">
		
			<use xlink:href="#a"  width="15.5" height="16.1" x="-7.7" y="-8" transform="matrix(1 0 0 1 390.5274 636.3515)" style="overflow:visible;"/>
	</g>
</g>
<use xlink:href="#t"  width="4.9" height="21.3" x="-2.4" y="-10.6" transform="matrix(1 0 0 1 405.2812 633.3595)" style="overflow:visible;"/>
<g>
	<defs>
		<rect id="SVGID_00000035528860383629496410000013265485633812464287_" x="410.1" y="644" width="700" height="700"/>
	</defs>
	<clipPath id="SVGID_00000034086357622394585980000009481368959599953805_">
		<use xlink:href="#SVGID_00000035528860383629496410000013265485633812464287_"  style="overflow:visible;"/>
	</clipPath>
	<g style="clip-path:url(#SVGID_00000034086357622394585980000009481368959599953805_);">
		
			<use xlink:href="#d"  width="12.4" height="19.7" x="-6.2" y="-9.8" transform="matrix(1 0 0 1 416.6367 634.1721)" style="overflow:visible;"/>
	</g>
</g>
<g>
	<defs>
		<rect id="SVGID_00000092435417676988183800000008919952882340877741_" x="423.5" y="644" width="700" height="700"/>
	</defs>
	<clipPath id="SVGID_00000148655822002564294030000006024331956961286841_">
		<use xlink:href="#SVGID_00000092435417676988183800000008919952882340877741_"  style="overflow:visible;"/>
	</clipPath>
	<g style="clip-path:url(#SVGID_00000148655822002564294030000006024331956961286841_);">
		
			<use xlink:href="#a"  width="15.5" height="16.1" x="-7.7" y="-8" transform="matrix(1 0 0 1 432.4063 636.3515)" style="overflow:visible;"/>
	</g>
</g>
<g>
	<defs>
		<rect id="SVGID_00000013152000993018947440000004365967186403549599_" x="442.4" y="644" width="700" height="700"/>
	</defs>
	<clipPath id="SVGID_00000041267658563206741430000005848772477932847762_">
		<use xlink:href="#SVGID_00000013152000993018947440000004365967186403549599_"  style="overflow:visible;"/>
	</clipPath>
	<g style="clip-path:url(#SVGID_00000041267658563206741430000005848772477932847762_);">
		
			<use xlink:href="#b"  width="11.4" height="15.7" x="-5.7" y="-7.8" transform="matrix(1 0 0 1 450.3981 636.1561)" style="overflow:visible;"/>
	</g>
</g>
<g>
	<defs>
		<rect id="SVGID_00000003096868264968014970000010283023130697510846_" x="456.2" y="644" width="700" height="700"/>
	</defs>
	<clipPath id="SVGID_00000111892361248908926300000013815963243097884823_">
		<use xlink:href="#SVGID_00000003096868264968014970000010283023130697510846_"  style="overflow:visible;"/>
	</clipPath>
	<g style="clip-path:url(#SVGID_00000111892361248908926300000013815963243097884823_);">
		
			<use xlink:href="#c"  width="16.8" height="16.1" x="-8.4" y="-8" transform="matrix(1 0 0 1 465.7812 636.351)" style="overflow:visible;"/>
	</g>
</g>
<use xlink:href="#f"  width="13.9" height="16.1" x="-6.9" y="-8" transform="matrix(1 0 0 1 483.7965 636.3517)" style="overflow:visible;"/>
<g>
	<defs>
		<rect id="SVGID_00000005984477226784985440000003579904069971682466_" x="492.1" y="644" width="700" height="700"/>
	</defs>
	<clipPath id="SVGID_00000127742954379448091340000007091457862330406847_">
		<use xlink:href="#SVGID_00000005984477226784985440000003579904069971682466_"  style="overflow:visible;"/>
	</clipPath>
	<g style="clip-path:url(#SVGID_00000127742954379448091340000007091457862330406847_);">
		
			<use xlink:href="#f"  width="13.9" height="16.1" x="-6.9" y="-8" transform="matrix(1 0 0 1 500.4606 636.3517)" style="overflow:visible;"/>
	</g>
</g>
<g>
	<defs>
		<rect id="SVGID_00000030447481406455878230000009604553584833530295_" x="508.7" y="644" width="700" height="700"/>
	</defs>
	<clipPath id="SVGID_00000113355558876010195270000001346931616166886285_">
		<use xlink:href="#SVGID_00000030447481406455878230000009604553584833530295_"  style="overflow:visible;"/>
	</clipPath>
	<g style="clip-path:url(#SVGID_00000113355558876010195270000001346931616166886285_);">
		
			<use xlink:href="#a"  width="15.5" height="16.1" x="-7.7" y="-8" transform="matrix(1 0 0 1 517.6758 636.3515)" style="overflow:visible;"/>
	</g>
</g>
<use xlink:href="#s"  width="11.9" height="21.3" x="-5.9" y="-10.6" transform="matrix(1 0 0 1 76.4767 661.3594)" style="overflow:visible;"/>
<g>
	<defs>
		<rect id="SVGID_00000005985235693135862880000007737226724061499313_" x="82.2" y="672" width="700" height="700"/>
	</defs>
	<clipPath id="SVGID_00000028307132050589569980000013995485209455129530_">
		<use xlink:href="#SVGID_00000005985235693135862880000007737226724061499313_"  style="overflow:visible;"/>
	</clipPath>
	<g style="clip-path:url(#SVGID_00000028307132050589569980000013995485209455129530_);">
		
			<use xlink:href="#b"  width="11.4" height="15.7" x="-5.7" y="-7.8" transform="matrix(1 0 0 1 90.2301 664.1561)" style="overflow:visible;"/>
	</g>
</g>
<g>
	<defs>
		<rect id="SVGID_00000013177256950594043820000015654250762417193622_" x="96" y="672" width="700" height="700"/>
	</defs>
	<clipPath id="SVGID_00000173849948347451220540000002596081826243562671_">
		<use xlink:href="#SVGID_00000013177256950594043820000015654250762417193622_"  style="overflow:visible;"/>
	</clipPath>
	<g style="clip-path:url(#SVGID_00000173849948347451220540000002596081826243562671_);">
		
			<use xlink:href="#c"  width="16.8" height="16.1" x="-8.4" y="-8" transform="matrix(1 0 0 1 105.6094 664.351)" style="overflow:visible;"/>
	</g>
</g>
<use xlink:href="#r"  width="24.6" height="15.7" x="-12.3" y="-7.8" transform="matrix(1 0 0 1 129.875 664.1558)" style="overflow:visible;"/>
<g>
	<defs>
		<rect id="SVGID_00000061437859651526566720000011025205157274443946_" x="154.2" y="672" width="700" height="700"/>
	</defs>
	<clipPath id="SVGID_00000055690694657293565050000013126358598339174318_">
		<use xlink:href="#SVGID_00000061437859651526566720000011025205157274443946_"  style="overflow:visible;"/>
	</clipPath>
	<g style="clip-path:url(#SVGID_00000055690694657293565050000013126358598339174318_);">
		
			<use xlink:href="#d"  width="12.4" height="19.7" x="-6.2" y="-9.8" transform="matrix(1 0 0 1 160.7148 662.1721)" style="overflow:visible;"/>
	</g>
</g>
<use xlink:href="#q"  width="15.4" height="21.3" x="-7.7" y="-10.6" transform="matrix(1 0 0 1 177.5899 661.3594)" style="overflow:visible;"/>
<g>
	<defs>
		<rect id="SVGID_00000029022737968978711130000001534378654788292024_" x="187.5" y="672" width="700" height="700"/>
	</defs>
	<clipPath id="SVGID_00000178904898702921368130000004034433779182389661_">
		<use xlink:href="#SVGID_00000029022737968978711130000001534378654788292024_"  style="overflow:visible;"/>
	</clipPath>
	<g style="clip-path:url(#SVGID_00000178904898702921368130000004034433779182389661_);">
		
			<use xlink:href="#e"  width="16.4" height="16.1" x="-8.2" y="-8" transform="matrix(1 0 0 1 196.8909 664.3516)" style="overflow:visible;"/>
	</g>
</g>
<use xlink:href="#p"  width="18.3" height="20.4" x="-9.1" y="-10.2" transform="matrix(1 0 0 1 227.9258 661.797)" style="overflow:visible;"/>
<g>
	<defs>
		<rect id="SVGID_00000116946235933065505250000018272349479733668738_" x="239.6" y="672" width="700" height="700"/>
	</defs>
	<clipPath id="SVGID_00000093892137167155146610000007865636757308342972_">
		<use xlink:href="#SVGID_00000116946235933065505250000018272349479733668738_"  style="overflow:visible;"/>
	</clipPath>
	<g style="clip-path:url(#SVGID_00000093892137167155146610000007865636757308342972_);">
		
			<use xlink:href="#c"  width="16.8" height="16.1" x="-8.4" y="-8" transform="matrix(1 0 0 1 249.2578 664.351)" style="overflow:visible;"/>
	</g>
</g>
<use xlink:href="#o"  width="15.4" height="15.7" x="-7.7" y="-7.9" transform="matrix(1 0 0 1 268.7617 664.5387)" style="overflow:visible;"/>
<use xlink:href="#n"  width="15.4" height="15.7" x="-7.7" y="-7.8" transform="matrix(1 0 0 1 288.8672 664.1564)" style="overflow:visible;"/>
<use xlink:href="#m"  width="16.8" height="20.4" x="-8.4" y="-10.2" transform="matrix(1 0 0 1 319.4688 661.7971)" style="overflow:visible;"/>
<g>
	<defs>
		<rect id="SVGID_00000016759566980719462460000003041065188914439863_" x="329" y="672" width="700" height="700"/>
	</defs>
	<clipPath id="SVGID_00000034052046179940414380000008277124491989566107_">
		<use xlink:href="#SVGID_00000016759566980719462460000003041065188914439863_"  style="overflow:visible;"/>
	</clipPath>
	<g style="clip-path:url(#SVGID_00000034052046179940414380000008277124491989566107_);">
		
			<use xlink:href="#b"  width="11.4" height="15.7" x="-5.7" y="-7.8" transform="matrix(1 0 0 1 337.0622 664.1561)" style="overflow:visible;"/>
	</g>
</g>
<g>
	<defs>
		<rect id="SVGID_00000104696646075206593900000001443780016670666884_" x="342.8" y="672" width="700" height="700"/>
	</defs>
	<clipPath id="SVGID_00000101068993805567609190000013570897327616090040_">
		<use xlink:href="#SVGID_00000104696646075206593900000001443780016670666884_"  style="overflow:visible;"/>
	</clipPath>
	<g style="clip-path:url(#SVGID_00000101068993805567609190000013570897327616090040_);">
		
			<use xlink:href="#c"  width="16.8" height="16.1" x="-8.4" y="-8" transform="matrix(1 0 0 1 352.4375 664.351)" style="overflow:visible;"/>
	</g>
</g>
<use xlink:href="#l"  width="8.2" height="27.3" x="-4.1" y="-13.7" transform="matrix(1 0 0 1 365.2148 664.3832)" style="overflow:visible;"/>
<g>
	<defs>
		<rect id="SVGID_00000111187333557054911760000016171893897195625370_" x="371.7" y="672" width="700" height="700"/>
	</defs>
	<clipPath id="SVGID_00000162339154846059499580000002964587605496444296_">
		<use xlink:href="#SVGID_00000111187333557054911760000016171893897195625370_"  style="overflow:visible;"/>
	</clipPath>
	<g style="clip-path:url(#SVGID_00000162339154846059499580000002964587605496444296_);">
		
			<use xlink:href="#e"  width="16.4" height="16.1" x="-8.2" y="-8" transform="matrix(1 0 0 1 381.0785 664.3516)" style="overflow:visible;"/>
	</g>
</g>
<g>
	<defs>
		<rect id="SVGID_00000177480890567655679610000016788905279245063310_" x="390.6" y="672" width="700" height="700"/>
	</defs>
	<clipPath id="SVGID_00000061467933485611485060000007567643574211498175_">
		<use xlink:href="#SVGID_00000177480890567655679610000016788905279245063310_"  style="overflow:visible;"/>
	</clipPath>
	<g style="clip-path:url(#SVGID_00000061467933485611485060000007567643574211498175_);">
		
			<use xlink:href="#g"  width="13.5" height="16.1" x="-6.8" y="-8" transform="matrix(1 0 0 1 398.6096 664.3519)" style="overflow:visible;"/>
	</g>
</g>
<g>
	<defs>
		<rect id="SVGID_00000156558275709120930510000012549982103806713498_" x="407.2" y="672" width="700" height="700"/>
	</defs>
	<clipPath id="SVGID_00000088853887124530892760000006324495363614314643_">
		<use xlink:href="#SVGID_00000156558275709120930510000012549982103806713498_"  style="overflow:visible;"/>
	</clipPath>
	<g style="clip-path:url(#SVGID_00000088853887124530892760000006324495363614314643_);">
		
			<use xlink:href="#d"  width="12.4" height="19.7" x="-6.2" y="-9.8" transform="matrix(1 0 0 1 413.8047 662.1721)" style="overflow:visible;"/>
	</g>
</g>
</svg>
