<?xml version="1.0" encoding="utf-8"?>
<!-- Generator: Adobe Illustrator 27.0.1, SVG Export Plug-In . SVG Version: 6.00 Build 0)  -->
<svg version="1.1" id="Layer_1" xmlns="http://www.w3.org/2000/svg" xmlns:xlink="http://www.w3.org/1999/xlink" x="0px" y="0px"
	 viewBox="0 0 700 700" style="enable-background:new 0 0 700 700;" xml:space="preserve">
<symbol  id="a" viewBox="-5.7 -7.8 11.4 15.7">
	<path d="M5.7-3.3C5.2-3.5,4.8-3.6,4.4-3.7C4-3.8,3.6-3.9,3.1-3.9c-1.3,0-2.2,0.4-2.9,1.2c-0.7,0.8-1,2-1,3.5v7.1h-4.9V-7.5h4.9V-5
		c0.6-1,1.3-1.7,2.2-2.2c0.8-0.5,1.8-0.7,2.9-0.7c0.2,0,0.3,0,0.5,0c0.2,0,0.5,0,0.8,0.1L5.7-3.3z"/>
</symbol>
<symbol  id="b" viewBox="-6.2 -9.8 12.4 19.7">
	<path d="M1.1-9.8v4.3h5V-2h-5v6.5c0,0.7,0.1,1.2,0.4,1.4s0.8,0.4,1.7,0.4h2.5v3.5H1.6c-1.9,0-3.3-0.4-4.1-1.2
		c-0.8-0.8-1.2-2.2-1.2-4.1V-2h-2.4v-3.5h2.4v-4.3H1.1z"/>
</symbol>
<symbol  id="c" viewBox="-8.2 -8 16.4 16.1">
	<path d="M8.2-0.1v1.4H-3.2c0.1,1.1,0.5,2,1.2,2.6c0.7,0.6,1.7,0.9,3,0.9c1,0,2.1-0.1,3.2-0.5C5.2,4,6.3,3.6,7.5,2.9v3.8
		C6.3,7.1,5.2,7.5,4,7.7C2.9,7.9,1.7,8,0.5,8c-2.8,0-4.9-0.7-6.5-2.1C-7.5,4.5-8.2,2.6-8.2,0c0-2.5,0.8-4.5,2.3-5.9
		C-4.4-7.3-2.4-8,0.3-8C2.7-8,4.6-7.3,6-5.9C7.5-4.4,8.2-2.5,8.2-0.1L8.2-0.1z M3.2-1.7c0-0.9-0.3-1.7-0.8-2.2
		C1.8-4.5,1.1-4.8,0.3-4.8c-0.9,0-1.7,0.3-2.3,0.8s-1,1.3-1.1,2.3H3.2z"/>
</symbol>
<symbol  id="d" viewBox="-8.4 -8 16.8 16.1">
	<path d="M0-4.5c-1.1,0-1.9,0.4-2.5,1.2C-3-2.6-3.3-1.5-3.3,0S-3,2.6-2.5,3.4C-1.9,4.2-1.1,4.5,0,4.5c1.1,0,1.9-0.4,2.4-1.2
		C3,2.6,3.3,1.5,3.3,0S3-2.6,2.5-3.4C1.9-4.1,1.1-4.5,0-4.5z M0-8c2.6,0,4.7,0.7,6.2,2.1C7.7-4.5,8.4-2.5,8.4,0
		c0,2.5-0.7,4.5-2.2,5.9C4.7,7.3,2.7,8,0,8c-2.6,0-4.7-0.7-6.2-2.1C-7.7,4.5-8.4,2.5-8.4,0c0-2.5,0.7-4.5,2.2-5.9
		C-4.7-7.3-2.6-8,0-8z"/>
</symbol>
<symbol  id="e" viewBox="-8.4 -10.2 16.8 20.4">
	<path d="M-8.4-10.2h8.7c2.6,0,4.6,0.6,6,1.7c1.4,1.1,2.1,2.8,2.1,4.9c0,2.1-0.7,3.8-2.1,4.9c-1.4,1.2-3.4,1.7-6,1.7h-3.5v7.1h-5.2
		V-10.2z M-3.1-6.4v5.7h2.9c1,0,1.8-0.2,2.4-0.8C2.7-1.9,3-2.6,3-3.5c0-0.9-0.3-1.6-0.8-2.1C1.6-6.1,0.8-6.4-0.2-6.4L-3.1-6.4z"/>
</symbol>
<symbol  id="f" viewBox="-7.7 -8 15.5 16.1">
	<path d="M0.3,0.8c-1,0-1.8,0.2-2.3,0.5c-0.5,0.3-0.8,0.9-0.8,1.5c0,0.6,0.2,1.1,0.6,1.5c0.4,0.3,1,0.5,1.7,0.5c0.9,0,1.7-0.3,2.3-1
		c0.6-0.7,1-1.5,1-2.5V0.8L0.3,0.8z M7.7-1.1v8.7H2.8V5.4C2.2,6.3,1.4,7,0.6,7.4C-0.2,7.8-1.2,8-2.4,8C-4,8-5.3,7.6-6.3,6.7
		c-1-0.9-1.5-2.1-1.5-3.6c0-1.8,0.6-3.1,1.8-3.9c1.2-0.8,3.2-1.3,5.8-1.3h2.9v-0.4c0-0.8-0.3-1.3-0.9-1.7C1.3-4.6,0.3-4.8-1-4.8
		c-1.1,0-2,0.1-2.9,0.3c-0.9,0.2-1.7,0.5-2.5,0.9v-3.7c1-0.2,2.1-0.4,3.1-0.6C-2.2-8-1.1-8-0.1-8c2.8,0,4.8,0.5,6,1.6
		C7.1-5.3,7.7-3.5,7.7-1.1L7.7-1.1z"/>
</symbol>
<symbol  id="g" viewBox="-7.7 -7.9 15.4 15.7">
	<path d="M-7.7,1.5v-9.3h4.9v1.5c0,0.8,0,1.9,0,3.1c0,1.3,0,2.1,0,2.5c0,1.2,0,2.1,0.1,2.7c0.1,0.5,0.2,0.9,0.3,1.2
		c0.2,0.3,0.5,0.6,0.8,0.8c0.3,0.2,0.7,0.2,1.1,0.2c1,0,1.8-0.4,2.4-1.2c0.6-0.8,0.9-1.9,0.9-3.3v-7.6h4.9V7.5H2.8V5.2
		c-0.7,0.9-1.5,1.6-2.3,2c-0.8,0.4-1.7,0.6-2.7,0.6c-1.8,0-3.1-0.5-4-1.6C-7.2,5.1-7.7,3.6-7.7,1.5L-7.7,1.5z"/>
</symbol>
<symbol  id="h" viewBox="-6.8 -8 13.5 16.1">
	<path d="M6.8-7.2v4c-0.7-0.5-1.3-0.8-2-1C4.1-4.4,3.4-4.5,2.7-4.5c-1.4,0-2.4,0.4-3.2,1.2C-1.3-2.5-1.7-1.4-1.7,0
		c0,1.4,0.4,2.5,1.1,3.3c0.8,0.8,1.8,1.2,3.2,1.2c0.8,0,1.5-0.1,2.2-0.3c0.7-0.2,1.3-0.6,1.9-1v4C6,7.5,5.2,7.7,4.4,7.8
		C3.6,8,2.9,8,2.1,8c-2.8,0-4.9-0.7-6.5-2.1C-6,4.5-6.8,2.5-6.8,0c0-2.5,0.8-4.5,2.3-5.9C-2.9-7.3-0.7-8,2.1-8C2.9-8,3.6-8,4.4-7.8
		C5.2-7.7,6-7.5,6.8-7.2L6.8-7.2z"/>
</symbol>
<symbol  id="i" viewBox="-8.7 -10.7 17.4 21.4">
	<path d="M-8.7-10.7h4.9L0.3-0.3l3.5-10.4h4.9L2.3,6.1C1.6,7.8,0.9,9,0,9.6c-0.9,0.7-2,1-3.4,1h-2.8V7.5h1.5c0.8,0,1.4-0.1,1.8-0.4
		C-2.5,6.8-2.2,6.3-2,5.6l0.1-0.4L-8.7-10.7z"/>
</symbol>
<symbol  id="j" viewBox="-8.2 -10.8 16.4 21.7">
	<path d="M-0.1,7.3c1.1,0,1.9-0.4,2.4-1.1c0.6-0.8,0.8-1.9,0.8-3.3c0-1.5-0.3-2.6-0.8-3.3C1.8-1.3,1-1.7-0.1-1.7
		c-1.1,0-1.9,0.4-2.4,1.2C-3,0.2-3.3,1.4-3.3,2.8c0,1.4,0.3,2.6,0.8,3.3C-1.9,6.9-1.1,7.3-0.1,7.3L-0.1,7.3z M-3.3-2.6
		c0.7-0.9,1.4-1.5,2.2-2C-0.3-5,0.7-5.2,1.7-5.2c1.9,0,3.4,0.8,4.7,2.2c1.2,1.5,1.8,3.4,1.8,5.8c0,2.4-0.6,4.3-1.8,5.8
		c-1.2,1.5-2.8,2.2-4.7,2.2c-1.1,0-2-0.2-2.8-0.6c-0.8-0.4-1.6-1.1-2.2-2v2.2h-4.9v-21.3h4.9V-2.6z"/>
</symbol>
<symbol  id="k" viewBox="-8.2 -10.8 16.4 21.7">
	<path d="M3.3-2.6v-8.2h4.9v21.3H3.3V8.2c-0.7,0.9-1.4,1.6-2.2,2c-0.8,0.4-1.8,0.6-2.8,0.6c-1.9,0-3.4-0.8-4.6-2.2
		c-1.2-1.5-1.8-3.4-1.8-5.8c0-2.4,0.6-4.3,1.8-5.8c1.2-1.5,2.8-2.2,4.6-2.2c1.1,0,2,0.2,2.8,0.6C1.9-4.2,2.6-3.5,3.3-2.6L3.3-2.6z
		 M0.1,7.3c1,0,1.8-0.4,2.4-1.1C3,5.4,3.3,4.3,3.3,2.8c0-1.5-0.3-2.6-0.8-3.3C1.9-1.3,1.1-1.7,0.1-1.7c-1,0-1.8,0.4-2.4,1.2
		c-0.6,0.8-0.8,1.9-0.8,3.3c0,1.5,0.3,2.6,0.8,3.3C-1.8,6.9-1,7.3,0.1,7.3z"/>
</symbol>
<symbol  id="l" viewBox="-4.1 -13.7 8.2 27.3">
	<path d="M-0.8-7.7h4.9v15c0,2.1-0.5,3.6-1.5,4.7c-1,1.1-2.4,1.6-4.3,1.6h-2.4v-3.2h0.9c0.9,0,1.6-0.2,1.9-0.6
		C-1,9.4-0.8,8.6-0.8,7.3L-0.8-7.7z M-0.8-13.7h4.9v4h-4.9L-0.8-13.7z"/>
</symbol>
<symbol  id="m" viewBox="-7.7 -7.8 15.4 15.7">
	<path d="M7.7-1.5v9.3H2.8V0.7c0-1.3,0-2.2-0.1-2.7S2.5-2.9,2.4-3.1C2.2-3.5,1.9-3.7,1.6-3.9C1.3-4.1,0.9-4.1,0.5-4.1
		c-1,0-1.8,0.4-2.4,1.2c-0.6,0.8-0.9,1.9-0.9,3.3v7.5h-4.9V-7.5h4.9v2.2c0.7-0.9,1.5-1.5,2.3-2c0.8-0.4,1.8-0.6,2.8-0.6
		c1.8,0,3.1,0.5,4,1.6C7.2-5.1,7.7-3.5,7.7-1.5L7.7-1.5z"/>
</symbol>
<symbol  id="n" viewBox="-9.1 -10.2 18.3 20.4">
	<path d="M-9.1-10.2h5.9l7.4,14v-14h5v20.4H3.3l-7.4-14v14h-5V-10.2z"/>
</symbol>
<symbol  id="o" viewBox="-7.7 -10.6 15.4 21.3">
	<path d="M7.7,1.3v9.3H2.8V3.5c0-1.3,0-2.3-0.1-2.8S2.5-0.1,2.4-0.3C2.2-0.7,1.9-0.9,1.6-1.1C1.3-1.3,0.9-1.3,0.5-1.3
		c-1,0-1.8,0.4-2.4,1.2c-0.6,0.8-0.9,1.9-0.9,3.3v7.5h-4.9v-21.3h4.9v8.2c0.7-0.9,1.5-1.5,2.3-2C0.4-4.8,1.3-5,2.3-5
		c1.8,0,3.1,0.5,4,1.6C7.2-2.3,7.7-0.8,7.7,1.3L7.7,1.3z"/>
</symbol>
<symbol  id="p" viewBox="-12.3 -7.8 24.6 15.7">
	<path d="M1.9-4.9c0.6-0.9,1.3-1.7,2.2-2.2C5-7.6,5.9-7.8,6.9-7.8c1.8,0,3.1,0.5,4,1.6c0.9,1.1,1.4,2.7,1.4,4.7v9.3H7.4v-8v-0.4
		c0-0.1,0-0.3,0-0.6c0-1.1-0.2-1.9-0.5-2.3C6.6-3.9,6.1-4.1,5.4-4.1C4.5-4.1,3.8-3.8,3.2-3C2.7-2.2,2.5-1.1,2.5,0.3v7.5h-4.9v-8
		c0-1.7-0.1-2.8-0.4-3.3c-0.3-0.5-0.8-0.7-1.6-0.7c-0.9,0-1.7,0.4-2.2,1.2c-0.5,0.8-0.8,1.9-0.8,3.3v7.5h-4.9V-7.5h4.9v2.2
		c0.6-0.9,1.3-1.5,2.1-2c0.8-0.4,1.6-0.7,2.6-0.7c1.1,0,2,0.3,2.8,0.8C0.9-6.6,1.5-5.8,1.9-4.9L1.9-4.9z"/>
</symbol>
<symbol  id="q" viewBox="-5.9 -10.6 11.9 21.3">
	<path d="M5.9-10.6v3.2H3.2C2.6-7.4,2.1-7.3,1.8-7C1.5-6.8,1.4-6.4,1.4-5.7v1.1h4.2v3.5H1.4v11.8h-4.9V-1.2h-2.4v-3.5h2.4v-1.1
		c0-1.7,0.5-2.9,1.4-3.7c0.9-0.8,2.4-1.2,4.3-1.2L5.9-10.6z"/>
</symbol>
<symbol  id="r" viewBox="-8.2 -11.4 16.4 22.8">
	<path d="M8.2,3.3v1.4H-3.2c0.1,1.1,0.5,2,1.2,2.6c0.7,0.6,1.7,0.9,3,0.9c1,0,2.1-0.1,3.2-0.5c1.1-0.3,2.2-0.8,3.3-1.4v3.8
		c-1.2,0.4-2.3,0.8-3.5,1c-1.2,0.2-2.3,0.3-3.5,0.3c-2.8,0-4.9-0.7-6.5-2.1c-1.5-1.4-2.3-3.4-2.3-5.9c0-2.5,0.8-4.5,2.3-5.9
		C-4.4-4-2.4-4.7,0.3-4.7C2.7-4.7,4.6-4,6-2.5C7.5-1.1,8.2,0.9,8.2,3.3L8.2,3.3z M3.2,1.7c0-0.9-0.3-1.7-0.8-2.2
		C1.8-1.1,1.1-1.4,0.3-1.4c-0.9,0-1.7,0.3-2.3,0.8s-1,1.3-1.1,2.3H3.2z M2.4-11.4h3.9l-5,5.1h-2.7L2.4-11.4z"/>
</symbol>
<symbol  id="s" viewBox="-8.7 -7.7 17.4 15.3">
	<path d="M-8.7-7.7h4.9L0,2.9L3.8-7.7h4.9l-6,15.3h-5.4L-8.7-7.7z"/>
</symbol>
<symbol  id="t" viewBox="-9.4 -10.2 18.8 20.4">
	<path d="M-9.4-10.2H9.4v4H2.6v16.4h-5.3V-6.2h-6.8L-9.4-10.2z"/>
</symbol>
<symbol  id="u" viewBox="-8.4 -10.6 16.8 21.3">
	<path d="M-8.4-10.6h4.9V1l5.6-5.6h5.7l-7.5,7l8.1,8.3H2.5l-6-6.4v6.4h-4.9L-8.4-10.6z"/>
</symbol>
<symbol  id="v" viewBox="-2.4 -10.6 4.9 21.3">
	<path d="M-2.4-4.7h4.9v15.3h-4.9L-2.4-4.7z M-2.4-10.6h4.9v4h-4.9L-2.4-10.6z"/>
</symbol>
<symbol  id="w" viewBox="-8.7 -10.6 17.4 21.2">
	<path d="M8.7,9.1c-1,0.5-2,0.9-3,1.1c-1,0.3-2.1,0.4-3.3,0.4c-3.4,0-6.1-0.9-8.1-2.8c-2-1.9-3-4.5-3-7.7c0-3.3,1-5.8,3-7.7
		c2-1.9,4.7-2.9,8.1-2.9c1.1,0,2.2,0.1,3.3,0.4c1.1,0.2,2.1,0.6,3,1.1v4.2C7.7-5.5,6.7-6,5.8-6.3c-0.9-0.3-1.9-0.5-3-0.5
		C0.9-6.8-0.6-6.2-1.6-5c-1.1,1.2-1.6,2.9-1.6,5c0,2.1,0.5,3.8,1.6,5c1.1,1.2,2.5,1.8,4.4,1.8c1.1,0,2.1-0.1,3-0.5
		C6.7,6,7.7,5.5,8.7,4.9V9.1z"/>
</symbol>
<path d="M430.6,198.4c0.2-1,0.6-1.9,0.6-2.9l1-140.2c-0.7-18.6-15.8-32.7-34.3-32.7l-1.4,0c-18.9,0.7-33.8,16.3-33.1,34.6l0.5,129.2
	l-5-10.2c-7.5-16.7-28.1-24.2-45.8-16.2c-10.4,4.7-17.7,13.7-20.1,24.1c-7.6-4.2-17-4.9-25.6-1c-7.3,3.3-12.9,9.2-15.8,16.7
	c-1.3,3.5-2,7.1-2,10.7c0,4.2,0.9,8.3,2.6,12.3l8.8,19.7c-6.5-1.5-13.5-1-20,2c-8.9,4.1-15.2,11.9-17.3,21.3
	c-0.2,0.9-0.3,1.9-0.3,2.8v0.1l0.6,90.1c0,2,0.5,3.9,1.4,5.7l33,64.7c0.2,14.6,0,78.9,0,79.6c0,3.4,1.9,6.6,4.3,9
	c3.8,3.8,3.8,4.4,29.2,4h108c3.5-0.1,6.8-0.8,9.2-3.4c2.2-2.4,3-5.5,3-8.7c0-0.3,0-0.5,0-0.8c0-0.4,0-39.2,0-70.7
	c0-31.5-0.7-39.8,0-41.6c1.5-4,8-10.3,12.4-15.3c2.8-3.2,5.5-6.3,7.8-9.3c12.8-17.5,25.7-34.9,38.5-52.5c6.4-7.2,9.9-16.7,9.9-26.9
	v-0.6C480.5,279,458.5,213.7,430.6,198.4L430.6,198.4z M397.1,36.3c0.3,0,0.6,0,0.8,0c11,0,20.2,8.3,20.6,18.9l-1,140l-5.3,0.1
	l-24.7,0.3l-9.9,0l-0.5-138.8C376.8,45.9,385.7,36.7,397.1,36.3L397.1,36.3z M318.4,171.6c11.2-5,24.2-0.5,29,10.2l6.9,14.1
	l-21.2,0.3c-6.4,0.1-11.8,5.1-12.6,11.5c0,0-0.1,0.9-0.1,2.5c0,4.8,1.2,17.2,12,27.9c9.5,9.4,23.9,14.7,42.5,15.9l11.2,22.8
	c-11.9,3.1-24.9,8.9-35.7,18l-43.7-95.3c-1.2-2.7-1.8-5.4-1.8-8.2C305,183.1,310,175.4,318.4,171.6L318.4,171.6z M263.6,204.3
	c1.6-4.3,4.9-7.7,9.1-9.6c8.4-3.8,17.2-0.5,21.4,8c0.1,0.3,0.4,0.5,0.6,0.8c0.1,0.4,0.2,0.8,0.4,1.2l44.8,97.7
	c0.3,0.7,0.9,1.2,1.3,1.9c-4.5,5.7-8.3,12.3-10.8,20.1c-0.9-0.3-1.9-0.7-3-1.1c-5.3-2-10.4-1.1-15.7,1.1v-0.2c0-4-0.9-8-2.7-11.9
	c-15.8-33.1-22.7-46.7-26.1-52.7L264,217.5C262.1,213.3,262,208.6,263.6,204.3L263.6,204.3z M460.8,311.3
	c-13,17.7-25.9,35.3-38.9,53c-5.8,7.9-17.4,18.6-20.8,27.8c-2.8,7.5-2.5,26-2.5,46v71.4c0,0-127.4-1-127.4-1.1V426l-34.3-67.3
	l-0.6-90.1c1.2-5.3,4.8-10,10.2-12.5c8.7-4,19-0.6,23.8,7.6c2.1,2,27,54.1,27,54.1c1,2.3,1.5,4.4,1.5,6.5c0,5.2-3.1,9.4-7.8,11.6
	c-6.6,3.1-14.1,1-17.7-7l-12.6-27.1l-7.9,6c12.2,38,28.2,46.1,43.5,38.9c12.2-5.7,21.8-13.2,26.6-11.4c12.8,4.7,17.1,6.5,17.1,6.5
	c3.6-52.2,66.3-55.4,66.3-55.4l-21.6-44.9c-48.7,0.6-51.5-25.4-51.5-31.3c0-0.7,0-1.2,0-1.2l40.6-0.5c1.2,0.4,2.5,0.8,3.8,0.8h0.1
	l39.9-0.2c1.3,0,2.4-0.4,3.6-0.7c20.1,4.4,46.5,70.6,46.6,83.7c0,0.1,0,0.3,0,0.4C467.8,299.9,465.1,306.6,460.8,311.3L460.8,311.3z
	"/>
<path d="M319,373.1l-21.8,19.2c-0.9,0.8-1.4,2-1.4,3.1c0,1,0.3,2,1,2.7c1.5,1.7,4.1,1.9,5.9,0.4l21.8-19.2c1.7-1.5,1.9-4.1,0.4-5.9
	C323.4,371.8,320.8,371.6,319,373.1L319,373.1z"/>
<use xlink:href="#w"  width="17.4" height="21.2" x="-8.7" y="-10.6" transform="matrix(1 0 0 1 80.0786 633.8046)" style="overflow:visible;"/>
<use xlink:href="#a"  width="11.4" height="15.7" x="-5.7" y="-7.8" transform="matrix(1 0 0 1 98.5973 636.1561)" style="overflow:visible;"/>
<use xlink:href="#c"  width="16.4" height="16.1" x="-8.2" y="-8" transform="matrix(1 0 0 1 113.7816 636.3516)" style="overflow:visible;"/>
<use xlink:href="#f"  width="15.5" height="16.1" x="-7.7" y="-8" transform="matrix(1 0 0 1 132.293 636.3515)" style="overflow:visible;"/>
<use xlink:href="#b"  width="12.4" height="19.7" x="-6.2" y="-9.8" transform="matrix(1 0 0 1 148.8047 634.1721)" style="overflow:visible;"/>
<g>
	<defs>
		<rect id="SVGID_1_" x="155.6" y="644" width="700" height="700"/>
	</defs>
	<clipPath id="SVGID_00000036967211613054051140000011956893273889951926_">
		<use xlink:href="#SVGID_1_"  style="overflow:visible;"/>
	</clipPath>
	<g style="clip-path:url(#SVGID_00000036967211613054051140000011956893273889951926_);">
		
			<use xlink:href="#c"  width="16.4" height="16.1" x="-8.2" y="-8" transform="matrix(1 0 0 1 165.0511 636.3516)" style="overflow:visible;"/>
	</g>
</g>
<use xlink:href="#k"  width="16.4" height="21.7" x="-8.2" y="-10.8" transform="matrix(1 0 0 1 184.0941 633.5547)" style="overflow:visible;"/>
<use xlink:href="#j"  width="16.4" height="21.7" x="-8.2" y="-10.8" transform="matrix(1 0 0 1 214.9805 633.5548)" style="overflow:visible;"/>
<use xlink:href="#i"  width="17.4" height="21.4" x="-8.7" y="-10.7" transform="matrix(1 0 0 1 233.5 639.3679)" style="overflow:visible;"/>
<use xlink:href="#e"  width="16.8" height="20.4" x="-8.4" y="-10.2" transform="matrix(1 0 0 1 263.4297 633.7971)" style="overflow:visible;"/>
<g>
	<defs>
		<rect id="SVGID_00000011738635522747060360000009501164060370782396_" x="273" y="644" width="700" height="700"/>
	</defs>
	<clipPath id="SVGID_00000120535903805493928590000008103499674694002841_">
		<use xlink:href="#SVGID_00000011738635522747060360000009501164060370782396_"  style="overflow:visible;"/>
	</clipPath>
	<g style="clip-path:url(#SVGID_00000120535903805493928590000008103499674694002841_);">
		
			<use xlink:href="#f"  width="15.5" height="16.1" x="-7.7" y="-8" transform="matrix(1 0 0 1 281.918 636.3515)" style="overflow:visible;"/>
	</g>
</g>
<g>
	<defs>
		<rect id="SVGID_00000080185014526646127210000014942584956956918408_" x="291.9" y="644" width="700" height="700"/>
	</defs>
	<clipPath id="SVGID_00000016043421551705809890000003148839907345594503_">
		<use xlink:href="#SVGID_00000080185014526646127210000014942584956956918408_"  style="overflow:visible;"/>
	</clipPath>
	<g style="clip-path:url(#SVGID_00000016043421551705809890000003148839907345594503_);">
		
			<use xlink:href="#b"  width="12.4" height="19.7" x="-6.2" y="-9.8" transform="matrix(1 0 0 1 298.4297 634.1721)" style="overflow:visible;"/>
	</g>
</g>
<g>
	<defs>
		<rect id="SVGID_00000026163219663009251250000002046017908251451055_" x="305.2" y="644" width="700" height="700"/>
	</defs>
	<clipPath id="SVGID_00000155133632986741958540000004978212961327114116_">
		<use xlink:href="#SVGID_00000026163219663009251250000002046017908251451055_"  style="overflow:visible;"/>
	</clipPath>
	<g style="clip-path:url(#SVGID_00000155133632986741958540000004978212961327114116_);">
		
			<use xlink:href="#a"  width="11.4" height="15.7" x="-5.7" y="-7.8" transform="matrix(1 0 0 1 313.2965 636.1561)" style="overflow:visible;"/>
	</g>
</g>
<use xlink:href="#v"  width="4.9" height="21.3" x="-2.4" y="-10.6" transform="matrix(1 0 0 1 323.8672 633.3596)" style="overflow:visible;"/>
<use xlink:href="#h"  width="13.5" height="16.1" x="-6.8" y="-8" transform="matrix(1 0 0 1 336.6175 636.3519)" style="overflow:visible;"/>
<use xlink:href="#u"  width="16.8" height="21.3" x="-8.4" y="-10.6" transform="matrix(1 0 0 1 356.0156 633.3597)" style="overflow:visible;"/>
<use xlink:href="#t"  width="18.8" height="20.4" x="-9.4" y="-10.2" transform="matrix(1 0 0 1 383.1714 633.7974)" style="overflow:visible;"/>
<g>
	<defs>
		<rect id="SVGID_00000049934740952293119170000005591949612192749483_" x="392.7" y="644" width="700" height="700"/>
	</defs>
	<clipPath id="SVGID_00000105416677695251269080000008574473230988794507_">
		<use xlink:href="#SVGID_00000049934740952293119170000005591949612192749483_"  style="overflow:visible;"/>
	</clipPath>
	<g style="clip-path:url(#SVGID_00000105416677695251269080000008574473230988794507_);">
		
			<use xlink:href="#a"  width="11.4" height="15.7" x="-5.7" y="-7.8" transform="matrix(1 0 0 1 400.7731 636.1561)" style="overflow:visible;"/>
	</g>
</g>
<use xlink:href="#d"  width="16.8" height="16.1" x="-8.4" y="-8" transform="matrix(1 0 0 1 416.1484 636.351)" style="overflow:visible;"/>
<use xlink:href="#g"  width="15.4" height="15.7" x="-7.7" y="-7.9" transform="matrix(1 0 0 1 435.6523 636.5387)" style="overflow:visible;"/>
<use xlink:href="#s"  width="17.4" height="15.3" x="-8.7" y="-7.7" transform="matrix(1 0 0 1 454.8359 636.344)" style="overflow:visible;"/>
<use xlink:href="#r"  width="16.4" height="22.8" x="-8.2" y="-11.4" transform="matrix(1 0 0 1 473.3753 633.0002)" style="overflow:visible;"/>
<use xlink:href="#q"  width="11.9" height="21.3" x="-5.9" y="-10.6" transform="matrix(1 0 0 1 76.4767 661.3594)" style="overflow:visible;"/>
<g>
	<defs>
		<rect id="SVGID_00000133526633039406742250000017964576249743496379_" x="82.2" y="672" width="700" height="700"/>
	</defs>
	<clipPath id="SVGID_00000143598546767424390820000007987047359679473312_">
		<use xlink:href="#SVGID_00000133526633039406742250000017964576249743496379_"  style="overflow:visible;"/>
	</clipPath>
	<g style="clip-path:url(#SVGID_00000143598546767424390820000007987047359679473312_);">
		
			<use xlink:href="#a"  width="11.4" height="15.7" x="-5.7" y="-7.8" transform="matrix(1 0 0 1 90.2301 664.1561)" style="overflow:visible;"/>
	</g>
</g>
<g>
	<defs>
		<rect id="SVGID_00000114058547138931573040000011027499244366662276_" x="96" y="672" width="700" height="700"/>
	</defs>
	<clipPath id="SVGID_00000025409895540698062010000011095737928845587622_">
		<use xlink:href="#SVGID_00000114058547138931573040000011027499244366662276_"  style="overflow:visible;"/>
	</clipPath>
	<g style="clip-path:url(#SVGID_00000025409895540698062010000011095737928845587622_);">
		
			<use xlink:href="#d"  width="16.8" height="16.1" x="-8.4" y="-8" transform="matrix(1 0 0 1 105.6094 664.351)" style="overflow:visible;"/>
	</g>
</g>
<use xlink:href="#p"  width="24.6" height="15.7" x="-12.3" y="-7.8" transform="matrix(1 0 0 1 129.875 664.1558)" style="overflow:visible;"/>
<g>
	<defs>
		<rect id="SVGID_00000041981909187278357290000010092062285334891136_" x="154.2" y="672" width="700" height="700"/>
	</defs>
	<clipPath id="SVGID_00000013151888574032025530000016902684678857547695_">
		<use xlink:href="#SVGID_00000041981909187278357290000010092062285334891136_"  style="overflow:visible;"/>
	</clipPath>
	<g style="clip-path:url(#SVGID_00000013151888574032025530000016902684678857547695_);">
		
			<use xlink:href="#b"  width="12.4" height="19.7" x="-6.2" y="-9.8" transform="matrix(1 0 0 1 160.7148 662.1721)" style="overflow:visible;"/>
	</g>
</g>
<use xlink:href="#o"  width="15.4" height="21.3" x="-7.7" y="-10.6" transform="matrix(1 0 0 1 177.5899 661.3594)" style="overflow:visible;"/>
<g>
	<defs>
		<rect id="SVGID_00000149375149283517643140000017976440798350433679_" x="187.5" y="672" width="700" height="700"/>
	</defs>
	<clipPath id="SVGID_00000029033354162971958870000002640165748601783740_">
		<use xlink:href="#SVGID_00000149375149283517643140000017976440798350433679_"  style="overflow:visible;"/>
	</clipPath>
	<g style="clip-path:url(#SVGID_00000029033354162971958870000002640165748601783740_);">
		
			<use xlink:href="#c"  width="16.4" height="16.1" x="-8.2" y="-8" transform="matrix(1 0 0 1 196.8909 664.3516)" style="overflow:visible;"/>
	</g>
</g>
<use xlink:href="#n"  width="18.3" height="20.4" x="-9.1" y="-10.2" transform="matrix(1 0 0 1 227.9258 661.797)" style="overflow:visible;"/>
<g>
	<defs>
		<rect id="SVGID_00000095332986817193230460000017273471851497548459_" x="239.6" y="672" width="700" height="700"/>
	</defs>
	<clipPath id="SVGID_00000127016005267164937260000004180214346671513249_">
		<use xlink:href="#SVGID_00000095332986817193230460000017273471851497548459_"  style="overflow:visible;"/>
	</clipPath>
	<g style="clip-path:url(#SVGID_00000127016005267164937260000004180214346671513249_);">
		
			<use xlink:href="#d"  width="16.8" height="16.1" x="-8.4" y="-8" transform="matrix(1 0 0 1 249.2578 664.351)" style="overflow:visible;"/>
	</g>
</g>
<g>
	<defs>
		<rect id="SVGID_00000083811031764192187760000014649277771728865411_" x="258.9" y="672" width="700" height="700"/>
	</defs>
	<clipPath id="SVGID_00000095309537713041666610000009379168458513898894_">
		<use xlink:href="#SVGID_00000083811031764192187760000014649277771728865411_"  style="overflow:visible;"/>
	</clipPath>
	<g style="clip-path:url(#SVGID_00000095309537713041666610000009379168458513898894_);">
		
			<use xlink:href="#g"  width="15.4" height="15.7" x="-7.7" y="-7.9" transform="matrix(1 0 0 1 268.7617 664.5387)" style="overflow:visible;"/>
	</g>
</g>
<use xlink:href="#m"  width="15.4" height="15.7" x="-7.7" y="-7.8" transform="matrix(1 0 0 1 288.8672 664.1564)" style="overflow:visible;"/>
<g>
	<defs>
		<rect id="SVGID_00000145747363600662474230000005877406995646379447_" x="308.5" y="672" width="700" height="700"/>
	</defs>
	<clipPath id="SVGID_00000060729086438932433060000013550686810063259292_">
		<use xlink:href="#SVGID_00000145747363600662474230000005877406995646379447_"  style="overflow:visible;"/>
	</clipPath>
	<g style="clip-path:url(#SVGID_00000060729086438932433060000013550686810063259292_);">
		
			<use xlink:href="#e"  width="16.8" height="20.4" x="-8.4" y="-10.2" transform="matrix(1 0 0 1 319.4688 661.7971)" style="overflow:visible;"/>
	</g>
</g>
<g>
	<defs>
		<rect id="SVGID_00000146472781775565859310000003664835446565892485_" x="329" y="672" width="700" height="700"/>
	</defs>
	<clipPath id="SVGID_00000036945375697764800910000009986519087950898063_">
		<use xlink:href="#SVGID_00000146472781775565859310000003664835446565892485_"  style="overflow:visible;"/>
	</clipPath>
	<g style="clip-path:url(#SVGID_00000036945375697764800910000009986519087950898063_);">
		
			<use xlink:href="#a"  width="11.4" height="15.7" x="-5.7" y="-7.8" transform="matrix(1 0 0 1 337.0622 664.1561)" style="overflow:visible;"/>
	</g>
</g>
<g>
	<defs>
		<rect id="SVGID_00000137829396789274511250000005528653687359398846_" x="342.8" y="672" width="700" height="700"/>
	</defs>
	<clipPath id="SVGID_00000036930521586660501760000013761080316769997739_">
		<use xlink:href="#SVGID_00000137829396789274511250000005528653687359398846_"  style="overflow:visible;"/>
	</clipPath>
	<g style="clip-path:url(#SVGID_00000036930521586660501760000013761080316769997739_);">
		
			<use xlink:href="#d"  width="16.8" height="16.1" x="-8.4" y="-8" transform="matrix(1 0 0 1 352.4375 664.351)" style="overflow:visible;"/>
	</g>
</g>
<use xlink:href="#l"  width="8.2" height="27.3" x="-4.1" y="-13.7" transform="matrix(1 0 0 1 365.2148 664.3832)" style="overflow:visible;"/>
<g>
	<defs>
		<rect id="SVGID_00000091006634112744938210000005147526724660413083_" x="371.7" y="672" width="700" height="700"/>
	</defs>
	<clipPath id="SVGID_00000175288597874132772110000017132757554961017771_">
		<use xlink:href="#SVGID_00000091006634112744938210000005147526724660413083_"  style="overflow:visible;"/>
	</clipPath>
	<g style="clip-path:url(#SVGID_00000175288597874132772110000017132757554961017771_);">
		
			<use xlink:href="#c"  width="16.4" height="16.1" x="-8.2" y="-8" transform="matrix(1 0 0 1 381.0785 664.3516)" style="overflow:visible;"/>
	</g>
</g>
<g>
	<defs>
		<rect id="SVGID_00000155121602508503241170000000490892209460327858_" x="390.6" y="672" width="700" height="700"/>
	</defs>
	<clipPath id="SVGID_00000005232983262655170140000014316657064630178751_">
		<use xlink:href="#SVGID_00000155121602508503241170000000490892209460327858_"  style="overflow:visible;"/>
	</clipPath>
	<g style="clip-path:url(#SVGID_00000005232983262655170140000014316657064630178751_);">
		
			<use xlink:href="#h"  width="13.5" height="16.1" x="-6.8" y="-8" transform="matrix(1 0 0 1 398.6096 664.3519)" style="overflow:visible;"/>
	</g>
</g>
<g>
	<defs>
		<rect id="SVGID_00000071559504836638525190000016120165951152229529_" x="407.2" y="672" width="700" height="700"/>
	</defs>
	<clipPath id="SVGID_00000026849892036855255730000008880467128273101993_">
		<use xlink:href="#SVGID_00000071559504836638525190000016120165951152229529_"  style="overflow:visible;"/>
	</clipPath>
	<g style="clip-path:url(#SVGID_00000026849892036855255730000008880467128273101993_);">
		
			<use xlink:href="#b"  width="12.4" height="19.7" x="-6.2" y="-9.8" transform="matrix(1 0 0 1 413.8047 662.1721)" style="overflow:visible;"/>
	</g>
</g>
</svg>
