<?xml version="1.0" encoding="UTF-8"?>
<svg width="700pt" height="700pt" version="1.1" viewBox="0 0 700 700" xmlns="http://www.w3.org/2000/svg">
 <g fill-rule="evenodd">
  <path d="m116.67 478.33h466.66v23.336h-466.66z"/>
  <path d="m298.12 59.566c2.6562-1.332 5.7227-1.5938 8.5664-0.74219l233.07 69.922 46.402 11.602-5.6562 22.637-32.172-8.043v335.06c0 6.4414-5.2227 11.668-11.664 11.668h-373.34c-6.4414 0-11.668-5.2266-11.668-11.668v-331.12l-29.781 14.891-10.434-20.871zm-123.12 87.645v331.12h350v-329.65l-220.59-66.176z"/>
  <path d="m297.8 130.07c3.4375 2.1289 5.5312 5.8828 5.5312 9.9258v140c0 6.4414-5.2227 11.668-11.664 11.668h-70c-6.4453 0-11.668-5.2266-11.668-11.668v-105c0-4.418 2.4961-8.457 6.4492-10.434l70-35c3.6172-1.8086 7.9102-1.6172 11.352 0.50781zm-64.469 52.137v86.121h46.668v-109.45z"/>
  <path d="m343.18 130.54c-3.0391 2.1914-4.8438 5.7148-4.8438 9.4648v140c0 6.4414 5.2266 11.668 11.668 11.668h105c6.4414 0 11.668-5.2266 11.668-11.668v-105c0-5.0234-3.2148-9.4805-7.9805-11.066l-105-35c-3.5586-1.1875-7.4688-0.58984-10.512 1.6016zm100.16 52.875v84.922h-81.664v-112.14z"/>
  <path d="m210 338.33c0-6.4414 5.2227-11.664 11.668-11.664h70c6.4414 0 11.664 5.2227 11.664 11.664v93.336c0 6.4414-5.2227 11.664-11.664 11.664h-70c-6.4453 0-11.668-5.2227-11.668-11.664zm23.332 11.668v70h46.668v-70z"/>
  <path d="m466.67 338.33c0-6.4414-5.2266-11.664-11.668-11.664h-105c-6.4414 0-11.668 5.2227-11.668 11.664v93.336c0 6.4414 5.2266 11.664 11.668 11.664h105c6.4414 0 11.668-5.2227 11.668-11.664zm-23.336 11.668v70h-81.664v-70z"/>
 </g>
</svg>
