<?xml version="1.0" encoding="UTF-8"?>
<svg width="700pt" height="700pt" version="1.1" viewBox="0 0 700 700" xmlns="http://www.w3.org/2000/svg">
 <path d="m443.33 210c12.887 0 23.336 10.445 23.336 23.332v186.67c0 12.887-10.449 23.332-23.336 23.332h-280c-12.887 0-23.332-10.445-23.332-23.332v-186.67c0-12.887 10.445-23.332 23.332-23.332zm-23.332 46.668h-233.33v140h233.33zm140 46.664v46.668h-46.668v-46.668zm0-93.332v46.668h-46.668v-46.668zm-93.332-93.332v46.664h-46.668v-46.664zm-93.336 0v46.664h-46.664v-46.664zm-93.332 0v46.664h-46.668v-46.664zm280 0v46.664h-46.668v-46.664z" fill-rule="evenodd"/>
</svg>
