<?xml version="1.0" encoding="utf-8"?>
<!-- Generator: Adobe Illustrator 27.0.1, SVG Export Plug-In . SVG Version: 6.00 Build 0)  -->
<svg version="1.1" id="Layer_1" xmlns="http://www.w3.org/2000/svg" xmlns:xlink="http://www.w3.org/1999/xlink" x="0px" y="0px"
	 viewBox="0 0 700 700" style="enable-background:new 0 0 700 700;" xml:space="preserve">
<symbol  id="a" viewBox="-8.2 -8 16.4 16.1">
	<path d="M8.2-0.1v1.4H-3.2c0.1,1.1,0.5,2,1.2,2.6c0.7,0.6,1.7,0.9,3,0.9c1,0,2.1-0.1,3.2-0.5C5.2,4,6.3,3.6,7.5,2.9v3.8
		C6.3,7.1,5.2,7.5,4,7.7C2.9,7.9,1.7,8,0.5,8c-2.8,0-4.9-0.7-6.5-2.1C-7.5,4.5-8.2,2.6-8.2,0c0-2.5,0.8-4.5,2.3-5.9
		C-4.4-7.3-2.4-8,0.3-8C2.7-8,4.6-7.3,6-5.9C7.5-4.4,8.2-2.5,8.2-0.1L8.2-0.1z M3.2-1.7c0-0.9-0.3-1.7-0.8-2.2
		C1.8-4.5,1.1-4.8,0.3-4.8c-0.9,0-1.7,0.3-2.3,0.8s-1,1.3-1.1,2.3H3.2z"/>
</symbol>
<symbol  id="b" viewBox="-5.7 -7.8 11.4 15.7">
	<path d="M5.7-3.3C5.2-3.5,4.8-3.6,4.4-3.7C4-3.8,3.6-3.9,3.1-3.9c-1.3,0-2.2,0.4-2.9,1.2c-0.7,0.8-1,2-1,3.5v7.1h-4.9V-7.5h4.9V-5
		c0.6-1,1.3-1.7,2.2-2.2c0.8-0.5,1.8-0.7,2.9-0.7c0.2,0,0.3,0,0.5,0c0.2,0,0.5,0,0.8,0.1L5.7-3.3z"/>
</symbol>
<symbol  id="c" viewBox="-6.2 -9.8 12.4 19.7">
	<path d="M1.1-9.8v4.3h5V-2h-5v6.5c0,0.7,0.1,1.2,0.4,1.4s0.8,0.4,1.7,0.4h2.5v3.5H1.6c-1.9,0-3.3-0.4-4.1-1.2
		c-0.8-0.8-1.2-2.2-1.2-4.1V-2h-2.4v-3.5h2.4v-4.3H1.1z"/>
</symbol>
<symbol  id="d" viewBox="-8.4 -8 16.8 16.1">
	<path d="M0-4.5c-1.1,0-1.9,0.4-2.5,1.2C-3-2.6-3.3-1.5-3.3,0S-3,2.6-2.5,3.4C-1.9,4.2-1.1,4.5,0,4.5c1.1,0,1.9-0.4,2.4-1.2
		C3,2.6,3.3,1.5,3.3,0S3-2.6,2.5-3.4C1.9-4.1,1.1-4.5,0-4.5z M0-8c2.6,0,4.7,0.7,6.2,2.1C7.7-4.5,8.4-2.5,8.4,0
		c0,2.5-0.7,4.5-2.2,5.9C4.7,7.3,2.7,8,0,8c-2.6,0-4.7-0.7-6.2-2.1C-7.7,4.5-8.4,2.5-8.4,0c0-2.5,0.7-4.5,2.2-5.9
		C-4.7-7.3-2.6-8,0-8z"/>
</symbol>
<symbol  id="e" viewBox="-8.7 -10.7 17.4 21.4">
	<path d="M-8.7-10.7h4.9L0.3-0.3l3.5-10.4h4.9L2.3,6.1C1.6,7.8,0.9,9,0,9.6c-0.9,0.7-2,1-3.4,1h-2.8V7.5h1.5c0.8,0,1.4-0.1,1.8-0.4
		C-2.5,6.8-2.2,6.3-2,5.6l0.1-0.4L-8.7-10.7z"/>
</symbol>
<symbol  id="f" viewBox="-7.7 -8 15.5 16.1">
	<path d="M0.3,0.8c-1,0-1.8,0.2-2.3,0.5c-0.5,0.3-0.8,0.9-0.8,1.5c0,0.6,0.2,1.1,0.6,1.5c0.4,0.3,1,0.5,1.7,0.5c0.9,0,1.7-0.3,2.3-1
		c0.6-0.7,1-1.5,1-2.5V0.8L0.3,0.8z M7.7-1.1v8.7H2.8V5.4C2.2,6.3,1.4,7,0.6,7.4C-0.2,7.8-1.2,8-2.4,8C-4,8-5.3,7.6-6.3,6.7
		c-1-0.9-1.5-2.1-1.5-3.6c0-1.8,0.6-3.1,1.8-3.9c1.2-0.8,3.2-1.3,5.8-1.3h2.9v-0.4c0-0.8-0.3-1.3-0.9-1.7C1.3-4.6,0.3-4.8-1-4.8
		c-1.1,0-2,0.1-2.9,0.3c-0.9,0.2-1.7,0.5-2.5,0.9v-3.7c1-0.2,2.1-0.4,3.1-0.6C-2.2-8-1.1-8-0.1-8c2.8,0,4.8,0.5,6,1.6
		C7.1-5.3,7.7-3.5,7.7-1.1L7.7-1.1z"/>
</symbol>
<symbol  id="g" viewBox="-12.3 -7.8 24.6 15.7">
	<path d="M1.9-4.9c0.6-0.9,1.3-1.7,2.2-2.2C5-7.6,5.9-7.8,6.9-7.8c1.8,0,3.1,0.5,4,1.6c0.9,1.1,1.4,2.7,1.4,4.7v9.3H7.4v-8v-0.4
		c0-0.1,0-0.3,0-0.6c0-1.1-0.2-1.9-0.5-2.3C6.6-3.9,6.1-4.1,5.4-4.1C4.5-4.1,3.8-3.8,3.2-3C2.7-2.2,2.5-1.1,2.5,0.3v7.5h-4.9v-8
		c0-1.7-0.1-2.8-0.4-3.3c-0.3-0.5-0.8-0.7-1.6-0.7c-0.9,0-1.7,0.4-2.2,1.2c-0.5,0.8-0.8,1.9-0.8,3.3v7.5h-4.9V-7.5h4.9v2.2
		c0.6-0.9,1.3-1.5,2.1-2c0.8-0.4,1.6-0.7,2.6-0.7c1.1,0,2,0.3,2.8,0.8C0.9-6.6,1.5-5.8,1.9-4.9L1.9-4.9z"/>
</symbol>
<symbol  id="h" viewBox="-4.7 -13 9.4 26">
	<path d="M-0.5-13h5.3V5.4C4.7,8,4,9.9,2.6,11.1C1.2,12.4-0.8,13-3.6,13h-1.1V9h0.8C-2.8,9-2,8.7-1.4,8.1c0.6-0.6,0.8-1.5,0.8-2.7
		L-0.5-13z"/>
</symbol>
<symbol  id="i" viewBox="-8.2 -10.8 16.4 21.7">
	<path d="M-0.1,7.3c1.1,0,1.9-0.4,2.4-1.1c0.6-0.8,0.8-1.9,0.8-3.3c0-1.5-0.3-2.6-0.8-3.3C1.8-1.3,1-1.7-0.1-1.7
		c-1.1,0-1.9,0.4-2.4,1.2C-3,0.2-3.3,1.4-3.3,2.8c0,1.4,0.3,2.6,0.8,3.3C-1.9,6.9-1.1,7.3-0.1,7.3L-0.1,7.3z M-3.3-2.6
		c0.7-0.9,1.4-1.5,2.2-2C-0.3-5,0.7-5.2,1.7-5.2c1.9,0,3.4,0.8,4.7,2.2c1.2,1.5,1.8,3.4,1.8,5.8c0,2.4-0.6,4.3-1.8,5.8
		c-1.2,1.5-2.8,2.2-4.7,2.2c-1.1,0-2-0.2-2.8-0.6c-0.8-0.4-1.6-1.1-2.2-2v2.2h-4.9v-21.3h4.9V-2.6z"/>
</symbol>
<symbol  id="j" viewBox="-8.2 -10.8 16.4 21.7">
	<path d="M3.3-2.6v-8.2h4.9v21.3H3.3V8.2c-0.7,0.9-1.4,1.6-2.2,2c-0.8,0.4-1.8,0.6-2.8,0.6c-1.9,0-3.4-0.8-4.6-2.2
		c-1.2-1.5-1.8-3.4-1.8-5.8c0-2.4,0.6-4.3,1.8-5.8c1.2-1.5,2.8-2.2,4.6-2.2c1.1,0,2,0.2,2.8,0.6C1.9-4.2,2.6-3.5,3.3-2.6L3.3-2.6z
		 M0.1,7.3c1,0,1.8-0.4,2.4-1.1C3,5.4,3.3,4.3,3.3,2.8c0-1.5-0.3-2.6-0.8-3.3C1.9-1.3,1.1-1.7,0.1-1.7c-1,0-1.8,0.4-2.4,1.2
		c-0.6,0.8-0.8,1.9-0.8,3.3c0,1.5,0.3,2.6,0.8,3.3C-1.8,6.9-1,7.3,0.1,7.3z"/>
</symbol>
<symbol  id="k" viewBox="-6.8 -8 13.5 16.1">
	<path d="M6.8-7.2v4c-0.7-0.5-1.3-0.8-2-1C4.1-4.4,3.4-4.5,2.7-4.5c-1.4,0-2.4,0.4-3.2,1.2C-1.3-2.5-1.7-1.4-1.7,0
		c0,1.4,0.4,2.5,1.1,3.3c0.8,0.8,1.8,1.2,3.2,1.2c0.8,0,1.5-0.1,2.2-0.3c0.7-0.2,1.3-0.6,1.9-1v4C6,7.5,5.2,7.7,4.4,7.8
		C3.6,8,2.9,8,2.1,8c-2.8,0-4.9-0.7-6.5-2.1C-6,4.5-6.8,2.5-6.8,0c0-2.5,0.8-4.5,2.3-5.9C-2.9-7.3-0.7-8,2.1-8C2.9-8,3.6-8,4.4-7.8
		C5.2-7.7,6-7.5,6.8-7.2L6.8-7.2z"/>
</symbol>
<symbol  id="l" viewBox="-4.1 -13.7 8.2 27.3">
	<path d="M-0.8-7.7h4.9v15c0,2.1-0.5,3.6-1.5,4.7c-1,1.1-2.4,1.6-4.3,1.6h-2.4v-3.2h0.9c0.9,0,1.6-0.2,1.9-0.6
		C-1,9.4-0.8,8.6-0.8,7.3L-0.8-7.7z M-0.8-13.7h4.9v4h-4.9L-0.8-13.7z"/>
</symbol>
<symbol  id="m" viewBox="-8.4 -10.2 16.8 20.4">
	<path d="M-8.4-10.2h8.7c2.6,0,4.6,0.6,6,1.7c1.4,1.1,2.1,2.8,2.1,4.9c0,2.1-0.7,3.8-2.1,4.9c-1.4,1.2-3.4,1.7-6,1.7h-3.5v7.1h-5.2
		V-10.2z M-3.1-6.4v5.7h2.9c1,0,1.8-0.2,2.4-0.8C2.7-1.9,3-2.6,3-3.5c0-0.9-0.3-1.6-0.8-2.1C1.6-6.1,0.8-6.4-0.2-6.4L-3.1-6.4z"/>
</symbol>
<symbol  id="n" viewBox="-7.7 -7.8 15.4 15.7">
	<path d="M7.7-1.5v9.3H2.8V0.7c0-1.3,0-2.2-0.1-2.7S2.5-2.9,2.4-3.1C2.2-3.5,1.9-3.7,1.6-3.9C1.3-4.1,0.9-4.1,0.5-4.1
		c-1,0-1.8,0.4-2.4,1.2c-0.6,0.8-0.9,1.9-0.9,3.3v7.5h-4.9V-7.5h4.9v2.2c0.7-0.9,1.5-1.5,2.3-2c0.8-0.4,1.8-0.6,2.8-0.6
		c1.8,0,3.1,0.5,4,1.6C7.2-5.1,7.7-3.5,7.7-1.5L7.7-1.5z"/>
</symbol>
<symbol  id="o" viewBox="-7.7 -7.9 15.4 15.7">
	<path d="M-7.7,1.5v-9.3h4.9v1.5c0,0.8,0,1.9,0,3.1c0,1.3,0,2.1,0,2.5c0,1.2,0,2.1,0.1,2.7c0.1,0.5,0.2,0.9,0.3,1.2
		c0.2,0.3,0.5,0.6,0.8,0.8c0.3,0.2,0.7,0.2,1.1,0.2c1,0,1.8-0.4,2.4-1.2c0.6-0.8,0.9-1.9,0.9-3.3v-7.6h4.9V7.5H2.8V5.2
		c-0.7,0.9-1.5,1.6-2.3,2c-0.8,0.4-1.7,0.6-2.7,0.6c-1.8,0-3.1-0.5-4-1.6C-7.2,5.1-7.7,3.6-7.7,1.5L-7.7,1.5z"/>
</symbol>
<symbol  id="p" viewBox="-9.1 -10.2 18.3 20.4">
	<path d="M-9.1-10.2h5.9l7.4,14v-14h5v20.4H3.3l-7.4-14v14h-5V-10.2z"/>
</symbol>
<symbol  id="q" viewBox="-7.7 -10.6 15.4 21.3">
	<path d="M7.7,1.3v9.3H2.8V3.5c0-1.3,0-2.3-0.1-2.8S2.5-0.1,2.4-0.3C2.2-0.7,1.9-0.9,1.6-1.1C1.3-1.3,0.9-1.3,0.5-1.3
		c-1,0-1.8,0.4-2.4,1.2c-0.6,0.8-0.9,1.9-0.9,3.3v7.5h-4.9v-21.3h4.9v8.2c0.7-0.9,1.5-1.5,2.3-2C0.4-4.8,1.3-5,2.3-5
		c1.8,0,3.1,0.5,4,1.6C7.2-2.3,7.7-0.8,7.7,1.3L7.7,1.3z"/>
</symbol>
<symbol  id="r" viewBox="-5.9 -10.6 11.9 21.3">
	<path d="M5.9-10.6v3.2H3.2C2.6-7.4,2.1-7.3,1.8-7C1.5-6.8,1.4-6.4,1.4-5.7v1.1h4.2v3.5H1.4v11.8h-4.9V-1.2h-2.4v-3.5h2.4v-1.1
		c0-1.7,0.5-2.9,1.4-3.7c0.9-0.8,2.4-1.2,4.3-1.2L5.9-10.6z"/>
</symbol>
<symbol  id="s" viewBox="-7.1 -10.2 14.2 20.4">
	<path d="M-7.1-10.2H7.1v4h-9v3.8h8.4v4h-8.4v8.7h-5.2L-7.1-10.2z"/>
</symbol>
<symbol  id="t" viewBox="-8.7 -10.6 17.4 21.2">
	<path d="M8.7,9.1c-1,0.5-2,0.9-3,1.1c-1,0.3-2.1,0.4-3.3,0.4c-3.4,0-6.1-0.9-8.1-2.8c-2-1.9-3-4.5-3-7.7c0-3.3,1-5.8,3-7.7
		c2-1.9,4.7-2.9,8.1-2.9c1.1,0,2.2,0.1,3.3,0.4c1.1,0.2,2.1,0.6,3,1.1v4.2C7.7-5.5,6.7-6,5.8-6.3c-0.9-0.3-1.9-0.5-3-0.5
		C0.9-6.8-0.6-6.2-1.6-5c-1.1,1.2-1.6,2.9-1.6,5c0,2.1,0.5,3.8,1.6,5c1.1,1.2,2.5,1.8,4.4,1.8c1.1,0,2.1-0.1,3-0.5
		C6.7,6,7.7,5.5,8.7,4.9V9.1z"/>
</symbol>
<path d="M452.5,355.6l-7.3,27.4c0,0-1.7,5-6.7,10.6c-4.5,5.6-7.8,10.6-7.8,10.6s-5,10.1-10.1,12.9s-5,39.8-5,39.8l0,52.6
	c0,0-1.7,10.1-2.2,15.7c-0.6,2.8-0.6,6.2-0.6,9c0,3.4-2.8,6.7-6.2,6.7h-145c0,0-4.5-3.4-3.4-18.5c1.7-15.1,10.6-73.4,14-98.6
	l1.7-8.4c0,0,0-1.7-1.7-5c-1.7-3.9-28.6-39.2-41.4-61c-12.9-21.8-43.1-59.9-43.1-59.9s-9-11.8-6.2-21.3c2.8-9.5,33-69.4,59.4-94.1
	c0,0,6.7-9.5,22.4-2.8c15.7,6.7,44.8,16.8,82.3,35.3c0,0,7.3,1.7,6.2,11.2c-1.7,10.1-1.1,19-10.6,23c-10.1,4.5-23,11.8-39.8,10.6
	c0,0-2.8,1.7-7.3-2.8c-3.4-3.4-12.3-14-19-19c-1.7-1.7-4.5,0-3.9,2.2c1.1,9,1.1,25.8-17.9,30.2c0,0,1.1,4.5,7.3,5
	c6.7,1.1,11.2,2.8,16.8,6.7c0,0,12.3,2.8,16.2,4.5c4.5,1.7,7.3,7.3,7.3,7.3l64.4,95.2c0,0,1.7,9-26.3,21.3c-1.1,0.6-1.1,1.7,0.6,1.7
	c2.8,0.6,7.3,1.1,12.9,1.1c2.8,0,5.6,1.7,6.2,5c2.2,11.2,7.3,37.5,6.7,46.5c-1.1,11.2,1.7,15.7,1.7,15.7l1.7,27.4
	c0,1.7,2.2,1.7,2.2,0c0-7.3,0-14-0.6-17.4c-1.7-7.8-1.7-61.6-1.7-61.6s-1.7-5,6.2-9c2.8-1.7,5.6-2.8,7.8-4.5c2.2-1.7,2.2-5-0.6-6.2
	c-2.2-1.1-4.5-1.7-5.6-3.4c-3.4-3.4-9.5-22.4-9.5-22.4L355,341.6l-39.2-48.2c-1.1-1.7,0-3.4,1.7-2.8l62.2,12.9l30.2,29.1
	c2.8,2.2,6.7,3.4,10.1,1.7l0.6-0.6l48.2-44.8L452.5,355.6z"/>
<path d="M349.4,248.1l-24.6,30.8c-1.7,2.2-4.5,2.8-7.3,1.7c-9-4.5-28-15.1-33.6-20.7c-7.3-7.3,4.5-12.9,7.8-8.4
	c3.9,4.5,3.4,10.6,18.5,7.3C324.2,255.9,349.4,248.1,349.4,248.1L349.4,248.1z"/>
<path d="M472.6,244.2L485,257c2.8,2.8,2.8,7.3,0,10.1L421.7,327c-3.4,3.4-9,3.4-12.9,0l-15.7-15.1c-3.4-3.4-3.4-6.2,0-10.1
	l57.7-68.3c2.8-2.8,7.3-3.4,10.1-0.6L472.6,244.2z"/>
<path d="M445.2,229.6l-54.9,67.2c-3.9,4.5-10.1,5.6-14.6,2.8l-27.4-14c-6.7-3.4-8.4-11.8-4.5-17.4l56-77.8
	c4.5-6.2,12.9-6.7,17.9-1.7l25.8,24.6C448,217.8,448.6,225.1,445.2,229.6L445.2,229.6z"/>
<path d="M336,198.8l-10.1-4.5c-3.4-1.7-4.5-6.2-2.8-9.5c5.6-8.4,15.1-23.5,18.5-28.6c1.7-2.8,4.5-7.8,6.7-12.9
	c3.9-7.3,12.9-9.5,19-5.6l27.4,16.2c9,5,9.5,16.8,3.9,25.2c-5.6,8.4-10.1,19-15.1,25.2c-8.4,11.8-21.3,27.4-27.4,33.6
	c-1.1,1.1-2.8,0.6-2.8-1.1c-0.6-4.5-1.1-12.9,1.7-22.4c0,0,3.9-5.6-3.4-9.5C345,201.6,336,198.8,336,198.8L336,198.8z"/>
<path d="M387.5,51.5c-3.9,11.8-10.6,26.3-20.7,45.4c-6.7,12.3-14.6,26.9-23.5,43.7l-24.6,39.8c-2.2,3.4-6.7,5-10.6,3.4l-40.3-16.2
	c-3.4-1.1-4.5-5.6-2.2-8.4c3.9-6.2,9.5-14,11.8-19.6c2.2-5,8.4-16.2,13.4-25.2c34.2-61,47.6-85.1,58.8-97.4c5-5.6,13.4-5.6,19-1.1
	l12.3,10.6C388.1,33,390.9,42.6,387.5,51.5L387.5,51.5z"/>
<use xlink:href="#t"  width="17.4" height="21.2" x="-8.7" y="-10.6" transform="matrix(1 0 0 1 80.0786 633.8046)" style="overflow:visible;"/>
<use xlink:href="#b"  width="11.4" height="15.7" x="-5.7" y="-7.8" transform="matrix(1 0 0 1 98.5973 636.1561)" style="overflow:visible;"/>
<use xlink:href="#a"  width="16.4" height="16.1" x="-8.2" y="-8" transform="matrix(1 0 0 1 113.7816 636.3516)" style="overflow:visible;"/>
<use xlink:href="#f"  width="15.5" height="16.1" x="-7.7" y="-8" transform="matrix(1 0 0 1 132.293 636.3515)" style="overflow:visible;"/>
<use xlink:href="#c"  width="12.4" height="19.7" x="-6.2" y="-9.8" transform="matrix(1 0 0 1 148.8047 634.1721)" style="overflow:visible;"/>
<g>
	<defs>
		<rect id="SVGID_1_" x="155.6" y="644" width="700" height="700"/>
	</defs>
	<clipPath id="SVGID_00000126325533926872706620000014219542092105077896_">
		<use xlink:href="#SVGID_1_"  style="overflow:visible;"/>
	</clipPath>
	<g style="clip-path:url(#SVGID_00000126325533926872706620000014219542092105077896_);">
		
			<use xlink:href="#a"  width="16.4" height="16.1" x="-8.2" y="-8" transform="matrix(1 0 0 1 165.0511 636.3516)" style="overflow:visible;"/>
	</g>
</g>
<use xlink:href="#j"  width="16.4" height="21.7" x="-8.2" y="-10.8" transform="matrix(1 0 0 1 184.0941 633.5547)" style="overflow:visible;"/>
<use xlink:href="#i"  width="16.4" height="21.7" x="-8.2" y="-10.8" transform="matrix(1 0 0 1 214.9805 633.5548)" style="overflow:visible;"/>
<use xlink:href="#e"  width="17.4" height="21.4" x="-8.7" y="-10.7" transform="matrix(1 0 0 1 233.5 639.3679)" style="overflow:visible;"/>
<use xlink:href="#h"  width="9.4" height="26" x="-4.7" y="-13" transform="matrix(1 0 0 1 255.5781 636.6019)" style="overflow:visible;"/>
<g>
	<defs>
		<rect id="SVGID_00000168103299729045458450000002386182292114119859_" x="262.9" y="644" width="700" height="700"/>
	</defs>
	<clipPath id="SVGID_00000121237273598141684440000008090854732930090368_">
		<use xlink:href="#SVGID_00000168103299729045458450000002386182292114119859_"  style="overflow:visible;"/>
	</clipPath>
	<g style="clip-path:url(#SVGID_00000121237273598141684440000008090854732930090368_);">
		
			<use xlink:href="#f"  width="15.5" height="16.1" x="-7.7" y="-8" transform="matrix(1 0 0 1 271.8164 636.3515)" style="overflow:visible;"/>
	</g>
</g>
<g>
	<defs>
		<rect id="SVGID_00000141418415479955687010000008293884291468599210_" x="281.8" y="644" width="700" height="700"/>
	</defs>
	<clipPath id="SVGID_00000092416189143983594160000016956211622001534100_">
		<use xlink:href="#SVGID_00000141418415479955687010000008293884291468599210_"  style="overflow:visible;"/>
	</clipPath>
	<g style="clip-path:url(#SVGID_00000092416189143983594160000016956211622001534100_);">
		
			<use xlink:href="#b"  width="11.4" height="15.7" x="-5.7" y="-7.8" transform="matrix(1 0 0 1 289.8122 636.1561)" style="overflow:visible;"/>
	</g>
</g>
<g>
	<defs>
		<rect id="SVGID_00000081617211831778223390000005440979038184447901_" x="295.6" y="644" width="700" height="700"/>
	</defs>
	<clipPath id="SVGID_00000143586105227747992660000017927693431124936583_">
		<use xlink:href="#SVGID_00000081617211831778223390000005440979038184447901_"  style="overflow:visible;"/>
	</clipPath>
	<g style="clip-path:url(#SVGID_00000143586105227747992660000017927693431124936583_);">
		
			<use xlink:href="#a"  width="16.4" height="16.1" x="-8.2" y="-8" transform="matrix(1 0 0 1 304.9964 636.3516)" style="overflow:visible;"/>
	</g>
</g>
<use xlink:href="#g"  width="24.6" height="15.7" x="-12.3" y="-7.8" transform="matrix(1 0 0 1 329.211 636.1558)" style="overflow:visible;"/>
<use xlink:href="#s"  width="14.2" height="20.4" x="-7.1" y="-10.2" transform="matrix(1 0 0 1 363.1639 633.7971)" style="overflow:visible;"/>
<g>
	<defs>
		<rect id="SVGID_00000062180712180972807130000008471453932203126701_" x="372.6" y="644" width="700" height="700"/>
	</defs>
	<clipPath id="SVGID_00000047756002806768704860000011266579836575738041_">
		<use xlink:href="#SVGID_00000062180712180972807130000008471453932203126701_"  style="overflow:visible;"/>
	</clipPath>
	<g style="clip-path:url(#SVGID_00000047756002806768704860000011266579836575738041_);">
		
			<use xlink:href="#b"  width="11.4" height="15.7" x="-5.7" y="-7.8" transform="matrix(1 0 0 1 380.6598 636.1561)" style="overflow:visible;"/>
	</g>
</g>
<g>
	<defs>
		<rect id="SVGID_00000068651138894175566790000000995330714968691638_" x="386.4" y="644" width="700" height="700"/>
	</defs>
	<clipPath id="SVGID_00000095301036935694321320000013282548223550508417_">
		<use xlink:href="#SVGID_00000068651138894175566790000000995330714968691638_"  style="overflow:visible;"/>
	</clipPath>
	<g style="clip-path:url(#SVGID_00000095301036935694321320000013282548223550508417_);">
		
			<use xlink:href="#e"  width="17.4" height="21.4" x="-8.7" y="-10.7" transform="matrix(1 0 0 1 395.4687 639.3679)" style="overflow:visible;"/>
	</g>
</g>
<g>
	<defs>
		<rect id="SVGID_00000137821721016711888300000005930279320510200746_" x="404.7" y="644" width="700" height="700"/>
	</defs>
	<clipPath id="SVGID_00000150070944336288225100000014926770710015486341_">
		<use xlink:href="#SVGID_00000137821721016711888300000005930279320510200746_"  style="overflow:visible;"/>
	</clipPath>
	<g style="clip-path:url(#SVGID_00000150070944336288225100000014926770710015486341_);">
		
			<use xlink:href="#a"  width="16.4" height="16.1" x="-8.2" y="-8" transform="matrix(1 0 0 1 414.0941 636.3516)" style="overflow:visible;"/>
	</g>
</g>
<use xlink:href="#r"  width="11.9" height="21.3" x="-5.9" y="-10.6" transform="matrix(1 0 0 1 76.4767 661.3594)" style="overflow:visible;"/>
<g>
	<defs>
		<rect id="SVGID_00000070800306235274264320000011309652240156168834_" x="82.2" y="672" width="700" height="700"/>
	</defs>
	<clipPath id="SVGID_00000092439030047755908210000004475604929455290281_">
		<use xlink:href="#SVGID_00000070800306235274264320000011309652240156168834_"  style="overflow:visible;"/>
	</clipPath>
	<g style="clip-path:url(#SVGID_00000092439030047755908210000004475604929455290281_);">
		
			<use xlink:href="#b"  width="11.4" height="15.7" x="-5.7" y="-7.8" transform="matrix(1 0 0 1 90.2301 664.1561)" style="overflow:visible;"/>
	</g>
</g>
<use xlink:href="#d"  width="16.8" height="16.1" x="-8.4" y="-8" transform="matrix(1 0 0 1 105.6094 664.351)" style="overflow:visible;"/>
<g>
	<defs>
		<rect id="SVGID_00000181773289820966624420000006536608443645738644_" x="115.2" y="672" width="700" height="700"/>
	</defs>
	<clipPath id="SVGID_00000137105199513969432270000003059836133241142717_">
		<use xlink:href="#SVGID_00000181773289820966624420000006536608443645738644_"  style="overflow:visible;"/>
	</clipPath>
	<g style="clip-path:url(#SVGID_00000137105199513969432270000003059836133241142717_);">
		
			<use xlink:href="#g"  width="24.6" height="15.7" x="-12.3" y="-7.8" transform="matrix(1 0 0 1 129.875 664.1558)" style="overflow:visible;"/>
	</g>
</g>
<g>
	<defs>
		<rect id="SVGID_00000012442311858326448980000001077520956951286462_" x="154.2" y="672" width="700" height="700"/>
	</defs>
	<clipPath id="SVGID_00000164476903172964092320000011420852500115298476_">
		<use xlink:href="#SVGID_00000012442311858326448980000001077520956951286462_"  style="overflow:visible;"/>
	</clipPath>
	<g style="clip-path:url(#SVGID_00000164476903172964092320000011420852500115298476_);">
		
			<use xlink:href="#c"  width="12.4" height="19.7" x="-6.2" y="-9.8" transform="matrix(1 0 0 1 160.7148 662.1721)" style="overflow:visible;"/>
	</g>
</g>
<use xlink:href="#q"  width="15.4" height="21.3" x="-7.7" y="-10.6" transform="matrix(1 0 0 1 177.5899 661.3594)" style="overflow:visible;"/>
<g>
	<defs>
		<rect id="SVGID_00000092420379494159752600000018188800933795725999_" x="187.5" y="672" width="700" height="700"/>
	</defs>
	<clipPath id="SVGID_00000149349772107869019290000016554186304184796606_">
		<use xlink:href="#SVGID_00000092420379494159752600000018188800933795725999_"  style="overflow:visible;"/>
	</clipPath>
	<g style="clip-path:url(#SVGID_00000149349772107869019290000016554186304184796606_);">
		
			<use xlink:href="#a"  width="16.4" height="16.1" x="-8.2" y="-8" transform="matrix(1 0 0 1 196.8909 664.3516)" style="overflow:visible;"/>
	</g>
</g>
<use xlink:href="#p"  width="18.3" height="20.4" x="-9.1" y="-10.2" transform="matrix(1 0 0 1 227.9258 661.797)" style="overflow:visible;"/>
<g>
	<defs>
		<rect id="SVGID_00000175322651309282185400000002362041517687629740_" x="239.6" y="672" width="700" height="700"/>
	</defs>
	<clipPath id="SVGID_00000169519921810736620870000005729358417761344150_">
		<use xlink:href="#SVGID_00000175322651309282185400000002362041517687629740_"  style="overflow:visible;"/>
	</clipPath>
	<g style="clip-path:url(#SVGID_00000169519921810736620870000005729358417761344150_);">
		
			<use xlink:href="#d"  width="16.8" height="16.1" x="-8.4" y="-8" transform="matrix(1 0 0 1 249.2578 664.351)" style="overflow:visible;"/>
	</g>
</g>
<use xlink:href="#o"  width="15.4" height="15.7" x="-7.7" y="-7.9" transform="matrix(1 0 0 1 268.7617 664.5387)" style="overflow:visible;"/>
<use xlink:href="#n"  width="15.4" height="15.7" x="-7.7" y="-7.8" transform="matrix(1 0 0 1 288.8672 664.1564)" style="overflow:visible;"/>
<use xlink:href="#m"  width="16.8" height="20.4" x="-8.4" y="-10.2" transform="matrix(1 0 0 1 319.4688 661.7971)" style="overflow:visible;"/>
<g>
	<defs>
		<rect id="SVGID_00000091009924681647493980000014160867787496163211_" x="329" y="672" width="700" height="700"/>
	</defs>
	<clipPath id="SVGID_00000075156509615505373500000011712631535291528082_">
		<use xlink:href="#SVGID_00000091009924681647493980000014160867787496163211_"  style="overflow:visible;"/>
	</clipPath>
	<g style="clip-path:url(#SVGID_00000075156509615505373500000011712631535291528082_);">
		
			<use xlink:href="#b"  width="11.4" height="15.7" x="-5.7" y="-7.8" transform="matrix(1 0 0 1 337.0622 664.1561)" style="overflow:visible;"/>
	</g>
</g>
<g>
	<defs>
		<rect id="SVGID_00000097494395526570499630000017274177471755298694_" x="342.8" y="672" width="700" height="700"/>
	</defs>
	<clipPath id="SVGID_00000060019741279421279070000004381740106955661231_">
		<use xlink:href="#SVGID_00000097494395526570499630000017274177471755298694_"  style="overflow:visible;"/>
	</clipPath>
	<g style="clip-path:url(#SVGID_00000060019741279421279070000004381740106955661231_);">
		
			<use xlink:href="#d"  width="16.8" height="16.1" x="-8.4" y="-8" transform="matrix(1 0 0 1 352.4375 664.351)" style="overflow:visible;"/>
	</g>
</g>
<use xlink:href="#l"  width="8.2" height="27.3" x="-4.1" y="-13.7" transform="matrix(1 0 0 1 365.2148 664.3832)" style="overflow:visible;"/>
<g>
	<defs>
		<rect id="SVGID_00000158014507206100041860000015744318537453339326_" x="371.7" y="672" width="700" height="700"/>
	</defs>
	<clipPath id="SVGID_00000124847990686809140520000003966259878847842230_">
		<use xlink:href="#SVGID_00000158014507206100041860000015744318537453339326_"  style="overflow:visible;"/>
	</clipPath>
	<g style="clip-path:url(#SVGID_00000124847990686809140520000003966259878847842230_);">
		
			<use xlink:href="#a"  width="16.4" height="16.1" x="-8.2" y="-8" transform="matrix(1 0 0 1 381.0785 664.3516)" style="overflow:visible;"/>
	</g>
</g>
<use xlink:href="#k"  width="13.5" height="16.1" x="-6.8" y="-8" transform="matrix(1 0 0 1 398.6096 664.3519)" style="overflow:visible;"/>
<g>
	<defs>
		<rect id="SVGID_00000039843498614123274390000006350865360115188133_" x="407.2" y="672" width="700" height="700"/>
	</defs>
	<clipPath id="SVGID_00000165912708343068610840000003898744446496617095_">
		<use xlink:href="#SVGID_00000039843498614123274390000006350865360115188133_"  style="overflow:visible;"/>
	</clipPath>
	<g style="clip-path:url(#SVGID_00000165912708343068610840000003898744446496617095_);">
		
			<use xlink:href="#c"  width="12.4" height="19.7" x="-6.2" y="-9.8" transform="matrix(1 0 0 1 413.8047 662.1721)" style="overflow:visible;"/>
	</g>
</g>
</svg>
