<svg xmlns="http://www.w3.org/2000/svg" data-name="Layer 59" viewBox="0 0 100 125" x="0px" y="0px"><path d="M29.21,33.48A10.53,10.53,0,1,0,18.68,23,10.54,10.54,0,0,0,29.21,33.48Zm0-18.56a8,8,0,1,1-8,8A8,8,0,0,1,29.21,14.92Z"/><path d="M16.61,47.52,18,88.64a1.25,1.25,0,0,0,1.25,1.21h5a1.25,1.25,0,0,0,1.23-1l3.75-19,3.74,19a1.25,1.25,0,0,0,1.23,1h5a1.25,1.25,0,0,0,1.25-1.21L41.8,47.52l8.43-14.13,9.29,14L54.74,73.92a1.26,1.26,0,0,0,.59,1.3,20,20,0,0,0,4.26,1.64V88.6a1.25,1.25,0,0,0,1.25,1.25h5a1.25,1.25,0,0,0,1.23-1l2.09-10.61q.8,0,1.65,0c.57,0,1.12,0,1.66,0l2.09,10.61a1.25,1.25,0,0,0,1.23,1h5A1.25,1.25,0,0,0,82,88.6V76.86a19.48,19.48,0,0,0,4.25-1.64,1.25,1.25,0,0,0,.6-1.3L82.07,47.43,94.52,28.62a4.24,4.24,0,0,0-6.58-5.29L75.7,36H65.89L53.65,23.33A4.21,4.21,0,0,0,50,22.1a4.22,4.22,0,0,0-3.65,1.23L34.11,36H24.3L12.1,23.38a4.3,4.3,0,0,0-6.79,5.2ZM64.79,87.35h-2.7V77.46a41.9,41.9,0,0,0,4.53.63Zm14.71,0H76.8L75,78.09a41.9,41.9,0,0,0,4.53-.63ZM89.73,25.07a1.74,1.74,0,0,1,2.7,2.17L81,44.59l-3.23-7.13ZM66.17,38.45h9.25l4.13,9.09,4.67,25.89a23.18,23.18,0,0,1-3.77,1.26c-.68.16-1.4.31-2.12.44a39.75,39.75,0,0,1-4.92.56c-1.66.08-3.6.08-5.22,0-.68,0-1.35-.09-2-.16a36.53,36.53,0,0,1-5-.84h0a23.18,23.18,0,0,1-3.77-1.26L62,47.54ZM49.54,24.91a1.72,1.72,0,0,1,1.07-.37,1.75,1.75,0,0,1,1.25.53l12,12.39-3.23,7.13L49.16,27.24A1.74,1.74,0,0,1,49.54,24.91ZM7.9,25a1.8,1.8,0,0,1,2.41.17l12.56,13a1.27,1.27,0,0,0,.9.38H34.64a1.27,1.27,0,0,0,.9-.38L46.43,26.84a4.09,4.09,0,0,0,.65,1.78l1.62,2.46L39.49,46.52a1.27,1.27,0,0,0-.18.6L38,87.35H35.21L30.44,63.12a1.25,1.25,0,0,0-2.46,0L23.2,87.35H20.46L19.1,47.12a1.27,1.27,0,0,0-.18-.6L7.46,27.3A1.8,1.8,0,0,1,7.9,25Z"/><path d="M51.73,20.5a16.44,16.44,0,0,0,7.37,2.16,9.64,9.64,0,0,0,1.19-.08c0,.12,0,.24,0,.37a10.53,10.53,0,1,0,21,0c0-.13,0-.25,0-.37a9.64,9.64,0,0,0,1.19.08,16.44,16.44,0,0,0,7.37-2.16,1.35,1.35,0,0,0,.61-1.65A1.11,1.11,0,0,0,89,18.19c-.39,0-1.68-.6-2.75-3.71A6.13,6.13,0,0,0,83,10.58a5.94,5.94,0,0,0-4.49.05h0a6.22,6.22,0,0,0-3,2.92,10.4,10.4,0,0,0-9.43,0,6.22,6.22,0,0,0-3-2.92h0a5.92,5.92,0,0,0-4.48-.05,6.1,6.1,0,0,0-3.25,3.9c-1.07,3.1-2.3,3.74-2.67,3.72a1.18,1.18,0,0,0-1.48.66A1.33,1.33,0,0,0,51.73,20.5Zm27.84-7.59a3.44,3.44,0,0,1,2.49,0,3.74,3.74,0,0,1,1.86,2.41,10.55,10.55,0,0,0,2.35,4.12,9,9,0,0,1-5.39.53,10.58,10.58,0,0,0-3.27-5A3.82,3.82,0,0,1,79.57,12.91Zm-8.78,2a8,8,0,1,1-8,8A8,8,0,0,1,70.79,14.92Zm-13.13.37a3.78,3.78,0,0,1,1.87-2.41,3.4,3.4,0,0,1,2.48,0,3.81,3.81,0,0,1,2,2,10.58,10.58,0,0,0-3.27,5,9,9,0,0,1-5.39-.53A10.55,10.55,0,0,0,57.66,15.29Z"/><text x="0" y="115" fill="#000000" font-size="5px" font-weight="bold" font-family="'Helvetica Neue', Helvetica, Arial-Unicode, Arial, Sans-serif">Created by Lars Meiertoberens</text><text x="0" y="120" fill="#000000" font-size="5px" font-weight="bold" font-family="'Helvetica Neue', Helvetica, Arial-Unicode, Arial, Sans-serif">from the Noun Project</text></svg>