<svg xmlns="http://www.w3.org/2000/svg" xmlns:xlink="http://www.w3.org/1999/xlink" version="1.1" x="0px" y="0px" viewBox="0 0 100 125" style="enable-background:new 0 0 100 100;" xml:space="preserve"><g><path d="M33.3033905,78.038208h23.1162109c3.1904297,0,6.2294922-1.2001953,8.5585938-3.3779297l7.34375-6.8710938   c2.5224609-2.359375,3.96875-5.6933594,3.96875-9.1474609V38.897583c0-5.9453125-4.8369141-10.7822266-10.7822266-10.7822266   h-3.1533203v-2.3994141c0-1.1044922-0.8955078-2-2-2s-2,0.8955078-2,2v2.3994141H40.4567108v-2.3994141   c0-1.1044922-0.8955078-2-2-2s-2,0.8955078-2,2v2.3994141h-3.1533203c-5.9453144,0-10.7822285,4.8369141-10.7822285,10.7822266   v28.3583984C22.521162,73.2012939,27.3580761,78.038208,33.3033905,78.038208z M26.521162,67.2559814V45.0802002h45.7695312   v12.8388672h-6.2900391c-5.8369141,0-10.5849609,4.7480469-10.5849609,10.5849609v5.5341797H33.3033905   C29.5641308,74.038208,26.521162,70.9952393,26.521162,67.2559814z M62.2457733,71.7384033   c-0.8286133,0.7754517-1.7912598,1.3634033-2.8300781,1.7529907v-4.9873657c0-3.6308594,2.9541016-6.5849609,6.5849609-6.5849609   h5.6264648c-0.4611816,1.1065674-1.1486816,2.117981-2.0375977,2.9492188L62.2457733,71.7384033z M33.3033905,32.1153564h3.1533203   v3.2226562c0,1.1044922,0.8955078,2,2,2s2-0.8955078,2-2v-3.2226562h17.8984375v3.2226562c0,1.1044922,0.8955078,2,2,2   s2-0.8955078,2-2v-3.2226562h3.1533203c3.7392578,0,6.7822266,3.0429688,6.7822266,6.7822266v2.1826172H26.521162V38.897583   C26.521162,35.1583252,29.5641308,32.1153564,33.3033905,32.1153564z"/><path d="M37.9772186,51.4210205h-2.9853516c-1.1044922,0-2,0.8955078-2,2s0.8955078,2,2,2h2.9853516c1.1044922,0,2-0.8955078,2-2   S39.0817108,51.4210205,37.9772186,51.4210205z"/><path d="M50.5856171,51.4210205h-2.9863281c-1.1044922,0-2,0.8955078-2,2s0.8955078,2,2,2h2.9863281c1.1044922,0,2-0.8955078,2-2   S51.6901093,51.4210205,50.5856171,51.4210205z"/><path d="M37.9772186,61.5958252h-2.9853516c-1.1044922,0-2,0.8955078-2,2s0.8955078,2,2,2h2.9853516c1.1044922,0,2-0.8955078,2-2   S39.0817108,61.5958252,37.9772186,61.5958252z"/></g><text x="0" y="115" fill="#000000" font-size="5px" font-weight="bold" font-family="'Helvetica Neue', Helvetica, Arial-Unicode, Arial, Sans-serif">Created by Nook Fulloption</text><text x="0" y="120" fill="#000000" font-size="5px" font-weight="bold" font-family="'Helvetica Neue', Helvetica, Arial-Unicode, Arial, Sans-serif">from the Noun Project</text></svg>