<svg xmlns="http://www.w3.org/2000/svg" data-name="Layer 1" viewBox="0 0 100 125" x="0px" y="0px"><title>117</title><path d="M86.91211,6.85433H42.30371a8.09648,8.09648,0,0,0-8.08691,8.08789v8.74023H13.08789A8.09648,8.09648,0,0,0,5,31.76937v37.457a8.09746,8.09746,0,0,0,7.94336,8.08691L12.044,90.47445a2.49974,2.49974,0,0,0,4.25781,1.94238l15.1748-15.10254H57.69629A8.09648,8.09648,0,0,0,65.7832,69.2264V60.48616h2.74024l15.1748,15.10352a2.49972,2.49972,0,0,0,4.25781-1.94238l-.89941-13.16211A8.09661,8.09661,0,0,0,95,52.39925v-37.457A8.09669,8.09669,0,0,0,86.91211,6.85433ZM60.7832,69.2264a3.09059,3.09059,0,0,1-3.08691,3.08789H30.44434a2.49869,2.49869,0,0,0-1.76368.72852L17.48535,84.18441l.62891-9.19922a2.50038,2.50038,0,0,0-2.49414-2.6709H13.08789A3.09081,3.09081,0,0,1,10,69.2264v-37.457a3.0906,3.0906,0,0,1,3.08789-3.08692H34.2168v23.7168a8.09626,8.09626,0,0,0,8.08691,8.08691H60.7832ZM90,52.39925a3.09059,3.09059,0,0,1-3.08789,3.08691H84.37988a2.50038,2.50038,0,0,0-2.49414,2.6709l.62891,9.2002L71.31934,56.21468a2.49869,2.49869,0,0,0-1.76368-.72852H42.30371a3.09038,3.09038,0,0,1-3.08691-3.08691v-37.457a3.09059,3.09059,0,0,1,3.08691-3.08789h44.6084A3.0908,3.0908,0,0,1,90,14.94222ZM80.60254,26.58382a2.49981,2.49981,0,0,1-2.5,2.5H51.11426a2.5,2.5,0,0,1,0-5H78.10254A2.49981,2.49981,0,0,1,80.60254,26.58382Zm0,14.17383a2.49981,2.49981,0,0,1-2.5,2.5H51.11426a2.5,2.5,0,0,1,0-5H78.10254A2.49981,2.49981,0,0,1,80.60254,40.75765Z"/><text x="0" y="115" fill="#000000" font-size="5px" font-weight="bold" font-family="'Helvetica Neue', Helvetica, Arial-Unicode, Arial, Sans-serif">Created by TTHNga</text><text x="0" y="120" fill="#000000" font-size="5px" font-weight="bold" font-family="'Helvetica Neue', Helvetica, Arial-Unicode, Arial, Sans-serif">from the Noun Project</text></svg>