<svg xmlns="http://www.w3.org/2000/svg" xmlns:xlink="http://www.w3.org/1999/xlink" version="1.1" x="0px" y="0px" viewBox="0 0 100 125" enable-background="new 0 0 100 100" xml:space="preserve"><g><path d="M54.411,50.014l-3.597-4.466l0.118-0.155l5.489-7.272c-2.964-4.046-2.11-11.15,2.068-16.992   c3.455-4.835,8.379-7.839,12.851-7.839c1.773,0,3.342,0.478,4.663,1.42c4.722,3.384,4.55,11.754-0.384,18.659   c-3.45,4.831-8.373,7.833-12.848,7.833c-0.876,0-1.714-0.12-2.495-0.356c-0.813,1.253-1.872,2.913-3.115,4.861   c-0.786,1.233-1.646,2.582-2.563,4.015L54.411,50.014z M51.449,45.538l2.915,3.62c0.848-1.323,1.644-2.572,2.377-3.721   c1.297-2.033,2.395-3.754,3.22-5.024l0.105-0.162l0.183,0.061c0.783,0.259,1.632,0.39,2.523,0.39c4.251,0,9.134-2.992,12.441-7.624   c4.772-6.681,4.997-14.738,0.499-17.962c-1.233-0.88-2.705-1.326-4.372-1.326c-4.247,0-9.132,2.995-12.444,7.63   c-4.106,5.741-4.933,12.701-1.964,16.549l0.116,0.15L51.449,45.538z"/></g><g><path d="M26.568,89.001C26.567,89.001,26.567,89.001,26.568,89.001c-1.471,0-2.755-0.784-3.437-2.096   c-0.862-1.66-0.572-3.728,0.795-5.674l23.778-31.547l0.197,0.283c0.664,0.953,1.437,2.069,2.29,3.304l1.13,1.633l-2.003,3.146   c-7.387,11.604-15.76,24.758-18.086,28.051C29.915,87.971,28.258,89.001,26.568,89.001z M47.689,50.536L24.33,81.525   c-1.251,1.781-1.527,3.66-0.754,5.149c0.594,1.144,1.712,1.826,2.991,1.826c0,0,0,0,0.001,0c1.522,0,3.034-0.954,4.257-2.688   c2.319-3.282,10.688-16.43,18.072-28.03l1.825-2.866l-0.941-1.36C49.012,52.442,48.308,51.425,47.689,50.536z"/></g><g><path d="M73.519,30.203c-0.088,0-0.177-0.022-0.257-0.071c-0.237-0.142-0.314-0.448-0.172-0.686   c1.157-1.935,1.542-2.778,1.86-4.641c0.561-3.274-0.408-5.285-0.418-5.305c-0.122-0.247-0.022-0.547,0.225-0.67   c0.246-0.124,0.547-0.025,0.669,0.222c0.047,0.092,1.13,2.3,0.511,5.921c-0.344,2.008-0.776,2.96-1.989,4.986   C73.854,30.116,73.688,30.203,73.519,30.203z"/></g><g><path d="M76.958,89.006c-1.543,0-2.987-0.883-4.294-2.623c-2.36-3.157-14.358-20.467-21.848-31.331l-1.035-1.496   c-0.854-1.233-1.625-2.35-2.289-3.303c-1.207-1.756-2.053-2.982-2.365-3.436c-0.544,0.313-2.074,1.093-3.831,1.093   c-0.001,0-0.001,0-0.001,0c-0.921,0-1.771-0.217-2.524-0.646c-2.507-1.429-5.872-6.154-9.136-11.048   c-5.926-8.889-9.032-14.52-9.063-14.575l-0.104-0.189l1.31-0.983l0.15,0.197l16.711,21.866l1.44-1.084L23.716,19.014l1.454-1.096   l0.151,0.193l16.848,21.58l1.441-1.084L27.259,16.351l1.485-1.11l16.981,21.907l1.393-1.102L30.667,13.785l1.383-1.041l0.154,0.162   c0.065,0.069,6.694,7.051,12.496,13.904l0.896,1.054c3.112,3.652,6.052,7.103,6.323,10.303c0.093,1.13-0.267,2.263-1.131,3.568   c-0.086,0.133-0.174,0.284-0.267,0.444c-0.229,0.394-0.483,0.833-0.819,1.189l30.254,37.519c0.067,0.076,1.807,2.082,1.577,4.264   c-0.112,1.067-0.677,1.986-1.677,2.73C79.832,87.909,78.663,89.006,76.958,89.006z M45.267,46.139l0.139,0.201   c0,0,0.952,1.38,2.498,3.629c0.664,0.952,1.436,2.068,2.289,3.303l1.035,1.496c7.487,10.861,19.48,28.164,21.837,31.315   c1.207,1.607,2.517,2.423,3.894,2.423c1.5,0,2.567-0.995,2.578-1.005c0.905-0.677,1.403-1.478,1.5-2.399   c0.208-1.963-1.444-3.873-1.461-3.892L49.022,43.322l0.177-0.158c0.363-0.327,0.644-0.81,0.892-1.235   c0.097-0.168,0.189-0.326,0.28-0.467c0.801-1.209,1.134-2.242,1.051-3.253c-0.258-3.04-3.147-6.431-6.206-10.021l-0.896-1.056   c-5.303-6.262-11.297-12.634-12.325-13.721l-0.63,0.475l16.443,22.251l-2.168,1.715L28.65,15.936l-0.694,0.519l16.35,22.255   l-2.229,1.678l-0.151-0.193l-16.848-21.58l-0.669,0.504l16.363,22.435l-2.229,1.678l-0.15-0.197L21.682,21.166l-0.566,0.425   c0.589,1.049,3.628,6.388,8.936,14.349c2.173,3.259,6.218,9.323,8.968,10.891c0.677,0.385,1.443,0.58,2.276,0.58c0,0,0,0,0.001,0   c2.005,0,3.749-1.127,3.767-1.138L45.267,46.139z"/></g><text x="0" y="115" fill="#000000" font-size="5px" font-weight="bold" font-family="'Helvetica Neue', Helvetica, Arial-Unicode, Arial, Sans-serif">Created by Zona desain</text><text x="0" y="120" fill="#000000" font-size="5px" font-weight="bold" font-family="'Helvetica Neue', Helvetica, Arial-Unicode, Arial, Sans-serif">from the Noun Project</text></svg>