<?xml version="1.0" encoding="utf-8"?>
<!-- Generator: Adobe Illustrator 27.0.1, SVG Export Plug-In . SVG Version: 6.00 Build 0)  -->
<svg version="1.1" id="Layer_1" xmlns="http://www.w3.org/2000/svg" xmlns:xlink="http://www.w3.org/1999/xlink" x="0px" y="0px"
	 viewBox="0 0 700 700" style="enable-background:new 0 0 700 700;" xml:space="preserve">
<symbol  id="a" viewBox="-8.2 -8 16.4 16.1">
	<path d="M8.2-0.1v1.4H-3.2c0.1,1.1,0.5,2,1.2,2.6c0.7,0.6,1.7,0.9,3,0.9c1,0,2.1-0.1,3.2-0.5C5.2,4,6.3,3.6,7.5,2.9v3.8
		C6.3,7.1,5.2,7.5,4,7.7C2.9,7.9,1.7,8,0.5,8c-2.8,0-4.9-0.7-6.5-2.1C-7.5,4.5-8.2,2.6-8.2,0c0-2.5,0.8-4.5,2.3-5.9
		C-4.4-7.3-2.4-8,0.3-8C2.7-8,4.6-7.3,6-5.9C7.5-4.4,8.2-2.5,8.2-0.1L8.2-0.1z M3.2-1.7c0-0.9-0.3-1.7-0.8-2.2
		C1.8-4.5,1.1-4.8,0.3-4.8c-0.9,0-1.7,0.3-2.3,0.8s-1,1.3-1.1,2.3H3.2z"/>
</symbol>
<symbol  id="b" viewBox="-6.2 -9.8 12.4 19.7">
	<path d="M1.1-9.8v4.3h5V-2h-5v6.5c0,0.7,0.1,1.2,0.4,1.4s0.8,0.4,1.7,0.4h2.5v3.5H1.6c-1.9,0-3.3-0.4-4.1-1.2
		c-0.8-0.8-1.2-2.2-1.2-4.1V-2h-2.4v-3.5h2.4v-4.3H1.1z"/>
</symbol>
<symbol  id="c" viewBox="-5.7 -7.8 11.4 15.7">
	<path d="M5.7-3.3C5.2-3.5,4.8-3.6,4.4-3.7C4-3.8,3.6-3.9,3.1-3.9c-1.3,0-2.2,0.4-2.9,1.2c-0.7,0.8-1,2-1,3.5v7.1h-4.9V-7.5h4.9V-5
		c0.6-1,1.3-1.7,2.2-2.2c0.8-0.5,1.8-0.7,2.9-0.7c0.2,0,0.3,0,0.5,0c0.2,0,0.5,0,0.8,0.1L5.7-3.3z"/>
</symbol>
<symbol  id="d" viewBox="-8.4 -8 16.8 16.1">
	<path d="M0-4.5c-1.1,0-1.9,0.4-2.5,1.2C-3-2.6-3.3-1.5-3.3,0S-3,2.6-2.5,3.4C-1.9,4.2-1.1,4.5,0,4.5c1.1,0,1.9-0.4,2.4-1.2
		C3,2.6,3.3,1.5,3.3,0S3-2.6,2.5-3.4C1.9-4.1,1.1-4.5,0-4.5z M0-8c2.6,0,4.7,0.7,6.2,2.1C7.7-4.5,8.4-2.5,8.4,0
		c0,2.5-0.7,4.5-2.2,5.9C4.7,7.3,2.7,8,0,8c-2.6,0-4.7-0.7-6.2-2.1C-7.7,4.5-8.4,2.5-8.4,0c0-2.5,0.7-4.5,2.2-5.9
		C-4.7-7.3-2.6-8,0-8z"/>
</symbol>
<symbol  id="e" viewBox="-6.8 -8 13.5 16.1">
	<path d="M6.8-7.2v4c-0.7-0.5-1.3-0.8-2-1C4.1-4.4,3.4-4.5,2.7-4.5c-1.4,0-2.4,0.4-3.2,1.2C-1.3-2.5-1.7-1.4-1.7,0
		c0,1.4,0.4,2.5,1.1,3.3c0.8,0.8,1.8,1.2,3.2,1.2c0.8,0,1.5-0.1,2.2-0.3c0.7-0.2,1.3-0.6,1.9-1v4C6,7.5,5.2,7.7,4.4,7.8
		C3.6,8,2.9,8,2.1,8c-2.8,0-4.9-0.7-6.5-2.1C-6,4.5-6.8,2.5-6.8,0c0-2.5,0.8-4.5,2.3-5.9C-2.9-7.3-0.7-8,2.1-8C2.9-8,3.6-8,4.4-7.8
		C5.2-7.7,6-7.5,6.8-7.2L6.8-7.2z"/>
</symbol>
<symbol  id="f" viewBox="-4.1 -13.7 8.2 27.3">
	<path d="M-0.8-7.7h4.9v15c0,2.1-0.5,3.6-1.5,4.7c-1,1.1-2.4,1.6-4.3,1.6h-2.4v-3.2h0.9c0.9,0,1.6-0.2,1.9-0.6
		C-1,9.4-0.8,8.6-0.8,7.3L-0.8-7.7z M-0.8-13.7h4.9v4h-4.9L-0.8-13.7z"/>
</symbol>
<symbol  id="g" viewBox="-8.4 -10.2 16.8 20.4">
	<path d="M-8.4-10.2h8.7c2.6,0,4.6,0.6,6,1.7c1.4,1.1,2.1,2.8,2.1,4.9c0,2.1-0.7,3.8-2.1,4.9c-1.4,1.2-3.4,1.7-6,1.7h-3.5v7.1h-5.2
		V-10.2z M-3.1-6.4v5.7h2.9c1,0,1.8-0.2,2.4-0.8C2.7-1.9,3-2.6,3-3.5c0-0.9-0.3-1.6-0.8-2.1C1.6-6.1,0.8-6.4-0.2-6.4L-3.1-6.4z"/>
</symbol>
<symbol  id="h" viewBox="-7.7 -10.6 15.4 21.3">
	<path d="M7.7,1.3v9.3H2.8V3.5c0-1.3,0-2.3-0.1-2.8S2.5-0.1,2.4-0.3C2.2-0.7,1.9-0.9,1.6-1.1C1.3-1.3,0.9-1.3,0.5-1.3
		c-1,0-1.8,0.4-2.4,1.2c-0.6,0.8-0.9,1.9-0.9,3.3v7.5h-4.9v-21.3h4.9v8.2c0.7-0.9,1.5-1.5,2.3-2C0.4-4.8,1.3-5,2.3-5
		c1.8,0,3.1,0.5,4,1.6C7.2-2.3,7.7-0.8,7.7,1.3L7.7,1.3z"/>
</symbol>
<symbol  id="i" viewBox="-7.7 -7.8 15.4 15.7">
	<path d="M7.7-1.5v9.3H2.8V0.7c0-1.3,0-2.2-0.1-2.7S2.5-2.9,2.4-3.1C2.2-3.5,1.9-3.7,1.6-3.9C1.3-4.1,0.9-4.1,0.5-4.1
		c-1,0-1.8,0.4-2.4,1.2c-0.6,0.8-0.9,1.9-0.9,3.3v7.5h-4.9V-7.5h4.9v2.2c0.7-0.9,1.5-1.5,2.3-2c0.8-0.4,1.8-0.6,2.8-0.6
		c1.8,0,3.1,0.5,4,1.6C7.2-5.1,7.7-3.5,7.7-1.5L7.7-1.5z"/>
</symbol>
<symbol  id="j" viewBox="-7.7 -7.9 15.4 15.7">
	<path d="M-7.7,1.5v-9.3h4.9v1.5c0,0.8,0,1.9,0,3.1c0,1.3,0,2.1,0,2.5c0,1.2,0,2.1,0.1,2.7c0.1,0.5,0.2,0.9,0.3,1.2
		c0.2,0.3,0.5,0.6,0.8,0.8c0.3,0.2,0.7,0.2,1.1,0.2c1,0,1.8-0.4,2.4-1.2c0.6-0.8,0.9-1.9,0.9-3.3v-7.6h4.9V7.5H2.8V5.2
		c-0.7,0.9-1.5,1.6-2.3,2c-0.8,0.4-1.7,0.6-2.7,0.6c-1.8,0-3.1-0.5-4-1.6C-7.2,5.1-7.7,3.6-7.7,1.5L-7.7,1.5z"/>
</symbol>
<symbol  id="k" viewBox="-8 -10.6 16.1 21.2">
	<path d="M6.7-9.6v4.3C5.6-5.8,4.5-6.1,3.4-6.4c-1.1-0.3-2.1-0.4-3-0.4c-1.2,0-2.2,0.2-2.8,0.5C-3-5.9-3.3-5.4-3.3-4.6
		c0,0.5,0.2,1,0.6,1.3C-2.3-3-1.5-2.8-0.5-2.6l2.2,0.5C4.1-1.7,5.7-1,6.6,0c1,0.9,1.4,2.2,1.4,4c0,2.2-0.7,3.9-2,5
		c-1.3,1.1-3.4,1.6-6.1,1.6c-1.3,0-2.6-0.1-3.9-0.4C-5.3,10-6.6,9.6-7.9,9.1V4.7c1.3,0.7,2.6,1.2,3.8,1.6c1.2,0.3,2.4,0.5,3.5,0.5
		c1.2,0,2-0.2,2.6-0.6C2.7,5.8,3,5.3,3,4.6c0-0.6-0.2-1.1-0.6-1.5C1.9,2.7,1.1,2.4-0.1,2.1l-2-0.4c-2-0.4-3.5-1.1-4.5-2.1
		C-7.6-1.3-8-2.6-8-4.3c0-2,0.7-3.6,2-4.7s3.2-1.6,5.7-1.6c1.1,0,2.3,0.1,3.5,0.2C4.2-10.2,5.4-9.9,6.7-9.6L6.7-9.6z"/>
</symbol>
<symbol  id="l" viewBox="-8.7 -10.7 17.4 21.4">
	<path d="M-8.7-10.7h4.9L0.3-0.3l3.5-10.4h4.9L2.3,6.1C1.6,7.8,0.9,9,0,9.6c-0.9,0.7-2,1-3.4,1h-2.8V7.5h1.5c0.8,0,1.4-0.1,1.8-0.4
		C-2.5,6.8-2.2,6.3-2,5.6l0.1-0.4L-8.7-10.7z"/>
</symbol>
<symbol  id="m" viewBox="-8.2 -10.8 16.4 21.7">
	<path d="M-0.1,7.3c1.1,0,1.9-0.4,2.4-1.1c0.6-0.8,0.8-1.9,0.8-3.3c0-1.5-0.3-2.6-0.8-3.3C1.8-1.3,1-1.7-0.1-1.7
		c-1.1,0-1.9,0.4-2.4,1.2C-3,0.2-3.3,1.4-3.3,2.8c0,1.4,0.3,2.6,0.8,3.3C-1.9,6.9-1.1,7.3-0.1,7.3L-0.1,7.3z M-3.3-2.6
		c0.7-0.9,1.4-1.5,2.2-2C-0.3-5,0.7-5.2,1.7-5.2c1.9,0,3.4,0.8,4.7,2.2c1.2,1.5,1.8,3.4,1.8,5.8c0,2.4-0.6,4.3-1.8,5.8
		c-1.2,1.5-2.8,2.2-4.7,2.2c-1.1,0-2-0.2-2.8-0.6c-0.8-0.4-1.6-1.1-2.2-2v2.2h-4.9v-21.3h4.9V-2.6z"/>
</symbol>
<symbol  id="n" viewBox="-8.2 -10.8 16.4 21.7">
	<path d="M3.3-2.6v-8.2h4.9v21.3H3.3V8.2c-0.7,0.9-1.4,1.6-2.2,2c-0.8,0.4-1.8,0.6-2.8,0.6c-1.9,0-3.4-0.8-4.6-2.2
		c-1.2-1.5-1.8-3.4-1.8-5.8c0-2.4,0.6-4.3,1.8-5.8c1.2-1.5,2.8-2.2,4.6-2.2c1.1,0,2,0.2,2.8,0.6C1.9-4.2,2.6-3.5,3.3-2.6L3.3-2.6z
		 M0.1,7.3c1,0,1.8-0.4,2.4-1.1C3,5.4,3.3,4.3,3.3,2.8c0-1.5-0.3-2.6-0.8-3.3C1.9-1.3,1.1-1.7,0.1-1.7c-1,0-1.8,0.4-2.4,1.2
		c-0.6,0.8-0.8,1.9-0.8,3.3c0,1.5,0.3,2.6,0.8,3.3C-1.8,6.9-1,7.3,0.1,7.3z"/>
</symbol>
<symbol  id="o" viewBox="-7.7 -8 15.5 16.1">
	<path d="M0.3,0.8c-1,0-1.8,0.2-2.3,0.5c-0.5,0.3-0.8,0.9-0.8,1.5c0,0.6,0.2,1.1,0.6,1.5c0.4,0.3,1,0.5,1.7,0.5c0.9,0,1.7-0.3,2.3-1
		c0.6-0.7,1-1.5,1-2.5V0.8L0.3,0.8z M7.7-1.1v8.7H2.8V5.4C2.2,6.3,1.4,7,0.6,7.4C-0.2,7.8-1.2,8-2.4,8C-4,8-5.3,7.6-6.3,6.7
		c-1-0.9-1.5-2.1-1.5-3.6c0-1.8,0.6-3.1,1.8-3.9c1.2-0.8,3.2-1.3,5.8-1.3h2.9v-0.4c0-0.8-0.3-1.3-0.9-1.7C1.3-4.6,0.3-4.8-1-4.8
		c-1.1,0-2,0.1-2.9,0.3c-0.9,0.2-1.7,0.5-2.5,0.9v-3.7c1-0.2,2.1-0.4,3.1-0.6C-2.2-8-1.1-8-0.1-8c2.8,0,4.8,0.5,6,1.6
		C7.1-5.3,7.7-3.5,7.7-1.1L7.7-1.1z"/>
</symbol>
<symbol  id="p" viewBox="-9.1 -10.2 18.3 20.4">
	<path d="M-9.1-10.2h5.9l7.4,14v-14h5v20.4H3.3l-7.4-14v14h-5V-10.2z"/>
</symbol>
<symbol  id="q" viewBox="-12.3 -7.8 24.6 15.7">
	<path d="M1.9-4.9c0.6-0.9,1.3-1.7,2.2-2.2C5-7.6,5.9-7.8,6.9-7.8c1.8,0,3.1,0.5,4,1.6c0.9,1.1,1.4,2.7,1.4,4.7v9.3H7.4v-8v-0.4
		c0-0.1,0-0.3,0-0.6c0-1.1-0.2-1.9-0.5-2.3C6.6-3.9,6.1-4.1,5.4-4.1C4.5-4.1,3.8-3.8,3.2-3C2.7-2.2,2.5-1.1,2.5,0.3v7.5h-4.9v-8
		c0-1.7-0.1-2.8-0.4-3.3c-0.3-0.5-0.8-0.7-1.6-0.7c-0.9,0-1.7,0.4-2.2,1.2c-0.5,0.8-0.8,1.9-0.8,3.3v7.5h-4.9V-7.5h4.9v2.2
		c0.6-0.9,1.3-1.5,2.1-2c0.8-0.4,1.6-0.7,2.6-0.7c1.1,0,2,0.3,2.8,0.8C0.9-6.6,1.5-5.8,1.9-4.9L1.9-4.9z"/>
</symbol>
<symbol  id="r" viewBox="-5.9 -10.6 11.9 21.3">
	<path d="M5.9-10.6v3.2H3.2C2.6-7.4,2.1-7.3,1.8-7C1.5-6.8,1.4-6.4,1.4-5.7v1.1h4.2v3.5H1.4v11.8h-4.9V-1.2h-2.4v-3.5h2.4v-1.1
		c0-1.7,0.5-2.9,1.4-3.7c0.9-0.8,2.4-1.2,4.3-1.2L5.9-10.6z"/>
</symbol>
<symbol  id="s" viewBox="-2.4 -10.6 4.9 21.3">
	<path d="M-2.4-4.7h4.9v15.3h-4.9L-2.4-4.7z M-2.4-10.6h4.9v4h-4.9L-2.4-10.6z"/>
</symbol>
<symbol  id="t" viewBox="-2.4 -10.6 4.9 21.3">
	<path d="M-2.4-10.6h4.9v21.3h-4.9L-2.4-10.6z"/>
</symbol>
<symbol  id="u" viewBox="-8.7 -10.6 17.4 21.2">
	<path d="M8.7,9.1c-1,0.5-2,0.9-3,1.1c-1,0.3-2.1,0.4-3.3,0.4c-3.4,0-6.1-0.9-8.1-2.8c-2-1.9-3-4.5-3-7.7c0-3.3,1-5.8,3-7.7
		c2-1.9,4.7-2.9,8.1-2.9c1.1,0,2.2,0.1,3.3,0.4c1.1,0.2,2.1,0.6,3,1.1v4.2C7.7-5.5,6.7-6,5.8-6.3c-0.9-0.3-1.9-0.5-3-0.5
		C0.9-6.8-0.6-6.2-1.6-5c-1.1,1.2-1.6,2.9-1.6,5c0,2.1,0.5,3.8,1.6,5c1.1,1.2,2.5,1.8,4.4,1.8c1.1,0,2.1-0.1,3-0.5
		C6.7,6,7.7,5.5,8.7,4.9V9.1z"/>
</symbol>
<path d="M408.5,284.5c-1.6-1.3-3.6-1.9-5.6-1.8h-1.2c-2.2,0.4-4.3,1.6-5.6,3.5l-22,29.7c-1.3,1.8-1.8,4-1.4,6.1
	c0.6,3.1,3,5.6,6.1,6.2c3.1,0.7,6.3-0.6,8.1-3.2l22.8-30.1v0c1.2-1.5,1.7-3.5,1.5-5.4c-0.2-1.9-1.3-3.6-2.8-4.8L408.5,284.5z"/>
<path d="M302.9,277.3l12.2-6.1c2.9-1.5,6.3-1.7,9.4-0.6c2.2,0.6,4.1,1.9,5.6,3.6l17.7-23.2h0c3.3-4.1,2.7-10.1-1.4-13.4
	c-4.1-3.3-10.1-2.7-13.4,1.4l-27.8,32.3c-1.4,1.7-2.3,3.8-2.5,6.1L302.9,277.3z"/>
<path d="M380.5,336c-2.9-0.1-5.7-1-8.1-2.6c-3.3-2.1-5.6-5.4-6.6-9.2c-2.3,1.2-4.9,1.8-7.6,1.8c-3.1,0-6.2-0.9-8.8-2.5
	c-0.6-0.4-1.2-0.8-1.7-1.3c1.5,6.6,2,13.5,1.5,20.3c-0.2,1.9-1.8,3.3-3.7,3.4h-0.4c-2-0.2-3.5-2-3.4-4.1c1-9.9-1-19.9-5.6-28.7h-0.4
	c-3.8,0-7.4-1.2-10.4-3.4c-0.8-0.6-1.6-1.3-2.4-2.1l-4.4,4.6c-3.2,3.6-7.6,6.1-12.3,7.1c-1.9,0.2-3.7-1-4.1-2.9
	c-0.4-1.9,0.6-3.8,2.4-4.4c3.1-0.7,5.9-2.3,8.1-4.6l11.2-11.9c3.2-3.5,4-8.6,2-12.9l-1.2-2.6c-1.2-2.4-4.1-3.4-6.4-2.2L287.9,293
	c-3.6,1.8-5.4,5.9-4.3,9.7l8.3,29.6c1.4,5,4.3,9.4,8.2,12.8l26.7,23.1c0.8,0.7,1.3,1.7,1.3,2.8v27.6l63.3,0v-30.4
	c0-0.7,0.2-1.4,0.6-2c5.5-8.5,9.1-18,10.6-28l5.3-28.3l-15,19.4C390.2,333.4,385.5,336,380.5,336L380.5,336z"/>
<path d="M333.5,281.5c1,3.2,1.2,6.7,0.5,10c-0.7,3.3-2.4,6.3-4.7,8.8l-1.6,1.7c0.5,0.6,1.1,1.1,1.7,1.6c4.4,3.3,10.7,2.4,14-2
	l0.4-0.6v0c0.4-0.6,0.7-1.2,1.2-1.8l24.8-31.9c3.2-4.5,2.1-10.7-2.3-13.9c-2.1-1.6-4.8-2.3-7.4-1.9s-5,1.8-6.6,3.9L333.5,281.5z"/>
<path d="M349.1,311c0.4,2.5,1.9,4.8,4.1,6.1c4,2.6,9.4,1.6,12.2-2.2l24.9-33.6l0,0c2.7-3.8,1.9-9.1-1.9-11.9c-3.7-2.8-9-2.2-12,1.4
	l-0.8,1l-0.3,0.4L350,305.2c-0.9,1.7-1.2,3.7-0.9,5.6L349.1,311z"/>
<path d="M350,215.8c2.1,0,3.7-1.6,3.8-3.7v-47c0.1-1.1-0.2-2.1-0.9-2.9c-0.7-0.8-1.7-1.3-2.8-1.3s-2.1,0.5-2.8,1.3
	c-0.7,0.8-1,1.9-0.9,2.9v47C346.3,214.2,348,215.8,350,215.8L350,215.8z"/>
<path d="M302.6,229.2c1.3,0,2.6-0.7,3.3-1.8c0.7-1.2,0.7-2.6,0-3.8l-23.1-40.8c-0.5-0.9-1.3-1.5-2.2-1.8c-0.9-0.3-2-0.2-2.8,0.3
	c-1.8,1-2.4,3.3-1.4,5.1l23.2,40.9c0.7,1.1,1.9,1.9,3.2,1.8L302.6,229.2z"/>
<path d="M270.6,256.5l-40.2-24.3c-0.8-0.5-1.9-0.7-2.8-0.4c-1,0.2-1.8,0.9-2.3,1.7c-0.5,0.8-0.7,1.8-0.4,2.8c0.2,1,0.8,1.8,1.7,2.3
	l40.2,24.3h0c0.6,0.3,1.2,0.5,1.9,0.5c1.3,0,2.5-0.7,3.2-1.8c0.5-0.8,0.7-1.8,0.4-2.8C272.1,257.8,271.5,257,270.6,256.5
	L270.6,256.5z"/>
<path d="M260.4,306.4c0-1-0.4-1.9-1.1-2.6c-0.7-0.7-1.7-1.1-2.7-1l-47,1.1c-2,0.1-3.6,1.8-3.6,3.8c0,1,0.4,1.9,1.1,2.6
	c0.7,0.7,1.6,1.1,2.6,1l46.9-1.1c2.1-0.1,3.7-1.8,3.6-3.8L260.4,306.4z"/>
<path d="M266.7,348.9l-39.9,24.6c-0.8,0.5-1.4,1.3-1.7,2.3c-0.2,1,0,2,0.5,2.8c0.7,1.1,1.8,1.8,3.1,1.8c0.7,0,1.4-0.2,2-0.6l40-24.6
	h0c0.8-0.5,1.4-1.3,1.7-2.3c0.2-1,0-2-0.5-2.8c-0.5-0.8-1.3-1.4-2.3-1.7c-1-0.2-2-0.1-2.8,0.4H266.7z"/>
<path d="M422.3,181.3c-0.9-0.5-1.9-0.6-2.8-0.3c-0.9,0.3-1.7,0.9-2.2,1.8l-23.1,40.9c-0.5,1.7,0.2,3.4,1.7,4.3
	c1.5,0.9,3.4,0.6,4.6-0.6l23.1-40.9l0,0c1-1.8,0.4-4.1-1.4-5.1L422.3,181.3z"/>
<path d="M431.3,263.2c0.7,0,1.3-0.2,1.9-0.5l40-24.1c0.8-0.5,1.4-1.3,1.7-2.3s0.1-2-0.4-2.8c-0.5-0.9-1.3-1.5-2.3-1.7
	c-1-0.2-2-0.1-2.8,0.4l-40,24.3c-0.8,0.5-1.4,1.3-1.7,2.3c-0.2,1-0.1,2,0.4,2.8c0.7,1.1,1.9,1.8,3.2,1.8L431.3,263.2z"/>
<path d="M490,303.9l-47-1.1c-1.1-0.1-2.1,0.2-2.9,0.9c-0.8,0.7-1.3,1.7-1.3,2.8s0.5,2.1,1.3,2.8c0.8,0.7,1.9,1,2.9,0.9l46.9,1.1
	c1,0,1.9-0.4,2.6-1c0.7-0.7,1.1-1.6,1.1-2.6C493.7,305.6,492.1,303.9,490,303.9L490,303.9z"/>
<path d="M473.2,373.5l-40-24.6c-0.8-0.5-1.8-0.7-2.8-0.4c-1,0.2-1.8,0.8-2.3,1.7c-0.5,0.8-0.7,1.8-0.5,2.8c0.2,1,0.8,1.8,1.7,2.3
	l40,24.6h0c0.6,0.3,1.3,0.5,2,0.6c1.3,0,2.5-0.7,3.1-1.8c0.5-0.8,0.7-1.8,0.5-2.8C474.6,374.9,474,374,473.2,373.5L473.2,373.5z"/>
<use xlink:href="#u"  width="17.4" height="21.2" x="-8.7" y="-10.6" transform="matrix(1 0 0 1 80.0786 633.8046)" style="overflow:visible;"/>
<use xlink:href="#c"  width="11.4" height="15.7" x="-5.7" y="-7.8" transform="matrix(1 0 0 1 98.5973 636.1561)" style="overflow:visible;"/>
<use xlink:href="#a"  width="16.4" height="16.1" x="-8.2" y="-8" transform="matrix(1 0 0 1 113.7816 636.3516)" style="overflow:visible;"/>
<use xlink:href="#o"  width="15.5" height="16.1" x="-7.7" y="-8" transform="matrix(1 0 0 1 132.293 636.3515)" style="overflow:visible;"/>
<use xlink:href="#b"  width="12.4" height="19.7" x="-6.2" y="-9.8" transform="matrix(1 0 0 1 148.8047 634.1721)" style="overflow:visible;"/>
<g>
	<defs>
		<rect id="SVGID_1_" x="155.6" y="644" width="700" height="700"/>
	</defs>
	<clipPath id="SVGID_00000070112607116680453940000018274718138544574393_">
		<use xlink:href="#SVGID_1_"  style="overflow:visible;"/>
	</clipPath>
	<g style="clip-path:url(#SVGID_00000070112607116680453940000018274718138544574393_);">
		
			<use xlink:href="#a"  width="16.4" height="16.1" x="-8.2" y="-8" transform="matrix(1 0 0 1 165.0511 636.3516)" style="overflow:visible;"/>
	</g>
</g>
<use xlink:href="#n"  width="16.4" height="21.7" x="-8.2" y="-10.8" transform="matrix(1 0 0 1 184.0941 633.5547)" style="overflow:visible;"/>
<use xlink:href="#m"  width="16.4" height="21.7" x="-8.2" y="-10.8" transform="matrix(1 0 0 1 214.9805 633.5548)" style="overflow:visible;"/>
<use xlink:href="#l"  width="17.4" height="21.4" x="-8.7" y="-10.7" transform="matrix(1 0 0 1 233.5 639.3679)" style="overflow:visible;"/>
<use xlink:href="#k"  width="16.1" height="21.2" x="-8" y="-10.6" transform="matrix(1 0 0 1 262.5154 633.8041)" style="overflow:visible;"/>
<use xlink:href="#j"  width="15.4" height="15.7" x="-7.7" y="-7.9" transform="matrix(1 0 0 1 282.5 636.5387)" style="overflow:visible;"/>
<use xlink:href="#i"  width="15.4" height="15.7" x="-7.7" y="-7.8" transform="matrix(1 0 0 1 302.6055 636.1564)" style="overflow:visible;"/>
<use xlink:href="#e"  width="13.5" height="16.1" x="-6.8" y="-8" transform="matrix(1 0 0 1 320.4456 636.3519)" style="overflow:visible;"/>
<use xlink:href="#h"  width="15.4" height="21.3" x="-7.7" y="-10.6" transform="matrix(1 0 0 1 339.1367 633.3594)" style="overflow:visible;"/>
<g>
	<defs>
		<rect id="SVGID_00000096051213175161407450000001444482940345795236_" x="349" y="644" width="700" height="700"/>
	</defs>
	<clipPath id="SVGID_00000071542542286970722940000011612184790875612810_">
		<use xlink:href="#SVGID_00000096051213175161407450000001444482940345795236_"  style="overflow:visible;"/>
	</clipPath>
	<g style="clip-path:url(#SVGID_00000071542542286970722940000011612184790875612810_);">
		
			<use xlink:href="#a"  width="16.4" height="16.1" x="-8.2" y="-8" transform="matrix(1 0 0 1 358.4378 636.3516)" style="overflow:visible;"/>
	</g>
</g>
<use xlink:href="#t"  width="4.9" height="21.3" x="-2.4" y="-10.6" transform="matrix(1 0 0 1 372.8125 633.3595)" style="overflow:visible;"/>
<use xlink:href="#s"  width="4.9" height="21.3" x="-2.4" y="-10.6" transform="matrix(1 0 0 1 382.4062 633.3596)" style="overflow:visible;"/>
<use xlink:href="#g"  width="16.8" height="20.4" x="-8.4" y="-10.2" transform="matrix(1 0 0 1 407.9258 633.7971)" style="overflow:visible;"/>
<g>
	<defs>
		<rect id="SVGID_00000086688806594641584140000003214627801267955883_" x="417.5" y="644" width="700" height="700"/>
	</defs>
	<clipPath id="SVGID_00000083770293877115360650000008510426699475929271_">
		<use xlink:href="#SVGID_00000086688806594641584140000003214627801267955883_"  style="overflow:visible;"/>
	</clipPath>
	<g style="clip-path:url(#SVGID_00000083770293877115360650000008510426699475929271_);">
		
			<use xlink:href="#c"  width="11.4" height="15.7" x="-5.7" y="-7.8" transform="matrix(1 0 0 1 425.5153 636.1561)" style="overflow:visible;"/>
	</g>
</g>
<use xlink:href="#d"  width="16.8" height="16.1" x="-8.4" y="-8" transform="matrix(1 0 0 1 440.8984 636.351)" style="overflow:visible;"/>
<use xlink:href="#f"  width="8.2" height="27.3" x="-4.1" y="-13.7" transform="matrix(1 0 0 1 453.6719 636.3832)" style="overflow:visible;"/>
<g>
	<defs>
		<rect id="SVGID_00000136380539902266310940000004057194943507801769_" x="460.1" y="644" width="700" height="700"/>
	</defs>
	<clipPath id="SVGID_00000067228748725723228760000018033288081771282592_">
		<use xlink:href="#SVGID_00000136380539902266310940000004057194943507801769_"  style="overflow:visible;"/>
	</clipPath>
	<g style="clip-path:url(#SVGID_00000067228748725723228760000018033288081771282592_);">
		
			<use xlink:href="#a"  width="16.4" height="16.1" x="-8.2" y="-8" transform="matrix(1 0 0 1 469.5355 636.3516)" style="overflow:visible;"/>
	</g>
</g>
<g>
	<defs>
		<rect id="SVGID_00000176020180062824769500000018052874422544534429_" x="479.1" y="644" width="700" height="700"/>
	</defs>
	<clipPath id="SVGID_00000117649256700210411010000011741584136278596747_">
		<use xlink:href="#SVGID_00000176020180062824769500000018052874422544534429_"  style="overflow:visible;"/>
	</clipPath>
	<g style="clip-path:url(#SVGID_00000117649256700210411010000011741584136278596747_);">
		
			<use xlink:href="#e"  width="13.5" height="16.1" x="-6.8" y="-8" transform="matrix(1 0 0 1 487.0628 636.3519)" style="overflow:visible;"/>
	</g>
</g>
<g>
	<defs>
		<rect id="SVGID_00000070811098155670922410000000539139461195355273_" x="495.7" y="644" width="700" height="700"/>
	</defs>
	<clipPath id="SVGID_00000110436958136539864350000005858667671731354761_">
		<use xlink:href="#SVGID_00000070811098155670922410000000539139461195355273_"  style="overflow:visible;"/>
	</clipPath>
	<g style="clip-path:url(#SVGID_00000110436958136539864350000005858667671731354761_);">
		
			<use xlink:href="#b"  width="12.4" height="19.7" x="-6.2" y="-9.8" transform="matrix(1 0 0 1 502.2656 634.1721)" style="overflow:visible;"/>
	</g>
</g>
<use xlink:href="#r"  width="11.9" height="21.3" x="-5.9" y="-10.6" transform="matrix(1 0 0 1 76.4767 661.3594)" style="overflow:visible;"/>
<g>
	<defs>
		<rect id="SVGID_00000166636476681576544980000018327899883325297043_" x="82.2" y="672" width="700" height="700"/>
	</defs>
	<clipPath id="SVGID_00000159440555854485522490000010358213860706355853_">
		<use xlink:href="#SVGID_00000166636476681576544980000018327899883325297043_"  style="overflow:visible;"/>
	</clipPath>
	<g style="clip-path:url(#SVGID_00000159440555854485522490000010358213860706355853_);">
		
			<use xlink:href="#c"  width="11.4" height="15.7" x="-5.7" y="-7.8" transform="matrix(1 0 0 1 90.2301 664.1561)" style="overflow:visible;"/>
	</g>
</g>
<g>
	<defs>
		<rect id="SVGID_00000064340878563835297870000016194600823747262359_" x="96" y="672" width="700" height="700"/>
	</defs>
	<clipPath id="SVGID_00000070080068196061226800000017834646060372988317_">
		<use xlink:href="#SVGID_00000064340878563835297870000016194600823747262359_"  style="overflow:visible;"/>
	</clipPath>
	<g style="clip-path:url(#SVGID_00000070080068196061226800000017834646060372988317_);">
		
			<use xlink:href="#d"  width="16.8" height="16.1" x="-8.4" y="-8" transform="matrix(1 0 0 1 105.6094 664.351)" style="overflow:visible;"/>
	</g>
</g>
<use xlink:href="#q"  width="24.6" height="15.7" x="-12.3" y="-7.8" transform="matrix(1 0 0 1 129.875 664.1558)" style="overflow:visible;"/>
<g>
	<defs>
		<rect id="SVGID_00000111905784753775130490000010579071248032166554_" x="154.2" y="672" width="700" height="700"/>
	</defs>
	<clipPath id="SVGID_00000128458999635875546400000008396849838233191553_">
		<use xlink:href="#SVGID_00000111905784753775130490000010579071248032166554_"  style="overflow:visible;"/>
	</clipPath>
	<g style="clip-path:url(#SVGID_00000128458999635875546400000008396849838233191553_);">
		
			<use xlink:href="#b"  width="12.4" height="19.7" x="-6.2" y="-9.8" transform="matrix(1 0 0 1 160.7148 662.1721)" style="overflow:visible;"/>
	</g>
</g>
<g>
	<defs>
		<rect id="SVGID_00000139288842577118172080000015042434743543545246_" x="167.5" y="672" width="700" height="700"/>
	</defs>
	<clipPath id="SVGID_00000099620462848638785530000005504331364397533865_">
		<use xlink:href="#SVGID_00000139288842577118172080000015042434743543545246_"  style="overflow:visible;"/>
	</clipPath>
	<g style="clip-path:url(#SVGID_00000099620462848638785530000005504331364397533865_);">
		
			<use xlink:href="#h"  width="15.4" height="21.3" x="-7.7" y="-10.6" transform="matrix(1 0 0 1 177.5899 661.3594)" style="overflow:visible;"/>
	</g>
</g>
<g>
	<defs>
		<rect id="SVGID_00000136385532370831506640000005083059123931518867_" x="187.5" y="672" width="700" height="700"/>
	</defs>
	<clipPath id="SVGID_00000027598273834758971570000005846928690896811710_">
		<use xlink:href="#SVGID_00000136385532370831506640000005083059123931518867_"  style="overflow:visible;"/>
	</clipPath>
	<g style="clip-path:url(#SVGID_00000027598273834758971570000005846928690896811710_);">
		
			<use xlink:href="#a"  width="16.4" height="16.1" x="-8.2" y="-8" transform="matrix(1 0 0 1 196.8909 664.3516)" style="overflow:visible;"/>
	</g>
</g>
<use xlink:href="#p"  width="18.3" height="20.4" x="-9.1" y="-10.2" transform="matrix(1 0 0 1 227.9258 661.797)" style="overflow:visible;"/>
<g>
	<defs>
		<rect id="SVGID_00000116930023864317818110000005471343253438261411_" x="239.6" y="672" width="700" height="700"/>
	</defs>
	<clipPath id="SVGID_00000078764208586134725400000003281523118738709124_">
		<use xlink:href="#SVGID_00000116930023864317818110000005471343253438261411_"  style="overflow:visible;"/>
	</clipPath>
	<g style="clip-path:url(#SVGID_00000078764208586134725400000003281523118738709124_);">
		
			<use xlink:href="#d"  width="16.8" height="16.1" x="-8.4" y="-8" transform="matrix(1 0 0 1 249.2578 664.351)" style="overflow:visible;"/>
	</g>
</g>
<g>
	<defs>
		<rect id="SVGID_00000051361819969732832280000006232424068139992745_" x="258.9" y="672" width="700" height="700"/>
	</defs>
	<clipPath id="SVGID_00000023983368382573110370000011380822715244836251_">
		<use xlink:href="#SVGID_00000051361819969732832280000006232424068139992745_"  style="overflow:visible;"/>
	</clipPath>
	<g style="clip-path:url(#SVGID_00000023983368382573110370000011380822715244836251_);">
		
			<use xlink:href="#j"  width="15.4" height="15.7" x="-7.7" y="-7.9" transform="matrix(1 0 0 1 268.7617 664.5387)" style="overflow:visible;"/>
	</g>
</g>
<g>
	<defs>
		<rect id="SVGID_00000161614562880971588220000006802569026811216771_" x="278.8" y="672" width="700" height="700"/>
	</defs>
	<clipPath id="SVGID_00000175292083394830933280000011351746757963568286_">
		<use xlink:href="#SVGID_00000161614562880971588220000006802569026811216771_"  style="overflow:visible;"/>
	</clipPath>
	<g style="clip-path:url(#SVGID_00000175292083394830933280000011351746757963568286_);">
		
			<use xlink:href="#i"  width="15.4" height="15.7" x="-7.7" y="-7.8" transform="matrix(1 0 0 1 288.8672 664.1564)" style="overflow:visible;"/>
	</g>
</g>
<g>
	<defs>
		<rect id="SVGID_00000041282414342104364130000004904623303774539669_" x="308.5" y="672" width="700" height="700"/>
	</defs>
	<clipPath id="SVGID_00000037663228222747247920000013750287613621106105_">
		<use xlink:href="#SVGID_00000041282414342104364130000004904623303774539669_"  style="overflow:visible;"/>
	</clipPath>
	<g style="clip-path:url(#SVGID_00000037663228222747247920000013750287613621106105_);">
		
			<use xlink:href="#g"  width="16.8" height="20.4" x="-8.4" y="-10.2" transform="matrix(1 0 0 1 319.4688 661.7971)" style="overflow:visible;"/>
	</g>
</g>
<g>
	<defs>
		<rect id="SVGID_00000168112358228915688680000002228458456639256712_" x="329" y="672" width="700" height="700"/>
	</defs>
	<clipPath id="SVGID_00000158016120103703792620000011434318439279462814_">
		<use xlink:href="#SVGID_00000168112358228915688680000002228458456639256712_"  style="overflow:visible;"/>
	</clipPath>
	<g style="clip-path:url(#SVGID_00000158016120103703792620000011434318439279462814_);">
		
			<use xlink:href="#c"  width="11.4" height="15.7" x="-5.7" y="-7.8" transform="matrix(1 0 0 1 337.0622 664.1561)" style="overflow:visible;"/>
	</g>
</g>
<g>
	<defs>
		<rect id="SVGID_00000036212724093384765690000015952840260737105537_" x="342.8" y="672" width="700" height="700"/>
	</defs>
	<clipPath id="SVGID_00000018196606090540796740000017603985964057146502_">
		<use xlink:href="#SVGID_00000036212724093384765690000015952840260737105537_"  style="overflow:visible;"/>
	</clipPath>
	<g style="clip-path:url(#SVGID_00000018196606090540796740000017603985964057146502_);">
		
			<use xlink:href="#d"  width="16.8" height="16.1" x="-8.4" y="-8" transform="matrix(1 0 0 1 352.4375 664.351)" style="overflow:visible;"/>
	</g>
</g>
<g>
	<defs>
		<rect id="SVGID_00000067206341215113341990000008161330580179977611_" x="362.1" y="672" width="700" height="700"/>
	</defs>
	<clipPath id="SVGID_00000178194554687935149720000006593957346690152359_">
		<use xlink:href="#SVGID_00000067206341215113341990000008161330580179977611_"  style="overflow:visible;"/>
	</clipPath>
	<g style="clip-path:url(#SVGID_00000178194554687935149720000006593957346690152359_);">
		
			<use xlink:href="#f"  width="8.2" height="27.3" x="-4.1" y="-13.7" transform="matrix(1 0 0 1 365.2148 664.3832)" style="overflow:visible;"/>
	</g>
</g>
<g>
	<defs>
		<rect id="SVGID_00000109027067732849663570000014312831727845967541_" x="371.7" y="672" width="700" height="700"/>
	</defs>
	<clipPath id="SVGID_00000157283596716685430670000015713397741953854604_">
		<use xlink:href="#SVGID_00000109027067732849663570000014312831727845967541_"  style="overflow:visible;"/>
	</clipPath>
	<g style="clip-path:url(#SVGID_00000157283596716685430670000015713397741953854604_);">
		
			<use xlink:href="#a"  width="16.4" height="16.1" x="-8.2" y="-8" transform="matrix(1 0 0 1 381.0785 664.3516)" style="overflow:visible;"/>
	</g>
</g>
<g>
	<defs>
		<rect id="SVGID_00000165913662983464169090000009117484474087674285_" x="390.6" y="672" width="700" height="700"/>
	</defs>
	<clipPath id="SVGID_00000011709722682478106890000002591177124596140711_">
		<use xlink:href="#SVGID_00000165913662983464169090000009117484474087674285_"  style="overflow:visible;"/>
	</clipPath>
	<g style="clip-path:url(#SVGID_00000011709722682478106890000002591177124596140711_);">
		
			<use xlink:href="#e"  width="13.5" height="16.1" x="-6.8" y="-8" transform="matrix(1 0 0 1 398.6096 664.3519)" style="overflow:visible;"/>
	</g>
</g>
<g>
	<defs>
		<rect id="SVGID_00000178187251774072066070000011469270667750098867_" x="407.2" y="672" width="700" height="700"/>
	</defs>
	<clipPath id="SVGID_00000072269027296878322810000010763600251480874368_">
		<use xlink:href="#SVGID_00000178187251774072066070000011469270667750098867_"  style="overflow:visible;"/>
	</clipPath>
	<g style="clip-path:url(#SVGID_00000072269027296878322810000010763600251480874368_);">
		
			<use xlink:href="#b"  width="12.4" height="19.7" x="-6.2" y="-9.8" transform="matrix(1 0 0 1 413.8047 662.1721)" style="overflow:visible;"/>
	</g>
</g>
</svg>
