<?xml version="1.0" encoding="UTF-8"?>
<svg width="700pt" height="700pt" version="1.1" viewBox="0 0 700 700" xmlns="http://www.w3.org/2000/svg" xmlns:xlink="http://www.w3.org/1999/xlink">
 <defs>
  <symbol id="e" overflow="visible">
   <path d="m36.641-2.1875c-1.8867 0.98047-3.8555 1.7188-5.9062 2.2188-2.043 0.5-4.1797 0.75-6.4062 0.75-6.6484 0-11.914-1.8516-15.797-5.5625-3.875-3.7188-5.8125-8.7539-5.8125-15.109 0-6.375 1.9375-11.414 5.8125-15.125 3.8828-3.7188 9.1484-5.5781 15.797-5.5781 2.2266 0 4.3633 0.25 6.4062 0.75 2.0508 0.5 4.0195 1.2422 5.9062 2.2188v8.25c-1.9062-1.3008-3.7891-2.2539-5.6406-2.8594-1.8555-0.60156-3.8047-0.90625-5.8438-0.90625-3.668 0-6.5547 1.1797-8.6562 3.5312-2.1055 2.3438-3.1562 5.5859-3.1562 9.7188 0 4.1172 1.0508 7.3516 3.1562 9.7031 2.1016 2.3438 4.9883 3.5156 8.6562 3.5156 2.0391 0 3.9883-0.30078 5.8438-0.90625 1.8516-0.60156 3.7344-1.5547 5.6406-2.8594z"/>
  </symbol>
  <symbol id="d" overflow="visible">
   <path d="m26.812-21.766c-0.84375-0.38281-1.6797-0.67188-2.5-0.85938-0.82422-0.1875-1.6562-0.28125-2.5-0.28125-2.4609 0-4.3516 0.78906-5.6719 2.3594-1.3242 1.5742-1.9844 3.8281-1.9844 6.7656v13.781h-9.5625v-29.906h9.5625v4.9062c1.2266-1.957 2.6406-3.3828 4.2344-4.2812 1.5938-0.89453 3.5-1.3438 5.7188-1.3438 0.32031 0 0.67188 0.015625 1.0469 0.046875 0.375 0.023437 0.91406 0.074219 1.625 0.15625z"/>
  </symbol>
  <symbol id="a" overflow="visible">
   <path d="m34.453-15.031v2.7188h-22.359c0.22656 2.2422 1.0352 3.9219 2.4219 5.0469 1.3945 1.125 3.3359 1.6875 5.8281 1.6875 2.0078 0 4.0664-0.29688 6.1719-0.89062 2.1133-0.60156 4.2852-1.5078 6.5156-2.7188v7.375c-2.2617 0.85547-4.5234 1.5-6.7812 1.9375-2.2617 0.4375-4.5234 0.65625-6.7812 0.65625-5.418 0-9.625-1.375-12.625-4.125-3-2.7578-4.5-6.6172-4.5-11.578 0-4.8828 1.4727-8.7227 4.4219-11.516 2.9453-2.7891 7.0039-4.1875 12.172-4.1875 4.6953 0 8.457 1.418 11.281 4.25 2.8203 2.8242 4.2344 6.6055 4.2344 11.344zm-9.8281-3.1875c0-1.8125-0.53125-3.2695-1.5938-4.375-1.0625-1.1133-2.4492-1.6719-4.1562-1.6719-1.8438 0-3.3516 0.52344-4.5156 1.5625-1.1562 1.0312-1.875 2.5273-2.1562 4.4844z"/>
  </symbol>
  <symbol id="c" overflow="visible">
   <path d="m18-13.453c-2 0-3.5078 0.33984-4.5156 1.0156-1 0.67969-1.5 1.6719-1.5 2.9844 0 1.2109 0.40625 2.1562 1.2188 2.8438s1.9375 1.0312 3.375 1.0312c1.8008 0 3.3164-0.64453 4.5469-1.9375 1.2266-1.2891 1.8438-2.9062 1.8438-4.8438v-1.0938zm14.609-3.6094v17.062h-9.6406v-4.4375c-1.2812 1.8242-2.7266 3.1523-4.3281 3.9844-1.6055 0.82031-3.5547 1.2344-5.8438 1.2344-3.1055 0-5.625-0.89844-7.5625-2.7031-1.9297-1.8125-2.8906-4.1602-2.8906-7.0469 0-3.5078 1.207-6.082 3.625-7.7188 2.4141-1.6328 6.2031-2.4531 11.359-2.4531h5.6406v-0.75c0-1.5078-0.60156-2.6133-1.7969-3.3125-1.1875-0.70703-3.0469-1.0625-5.5781-1.0625-2.043 0-3.9492 0.20312-5.7188 0.60938-1.7617 0.40625-3.3984 1.0234-4.9062 1.8438v-7.2969c2.0391-0.5 4.0938-0.875 6.1562-1.125 2.0703-0.25781 4.1406-0.39062 6.2031-0.39062 5.3945 0 9.2891 1.0625 11.688 3.1875 2.3945 2.125 3.5938 5.5859 3.5938 10.375z"/>
  </symbol>
  <symbol id="b" overflow="visible">
   <path d="m15.031-38.406v8.5h9.8594v6.8281h-9.8594v12.688c0 1.3984 0.27344 2.3398 0.82812 2.8281 0.55078 0.48047 1.6445 0.71875 3.2812 0.71875h4.9219v6.8438h-8.2031c-3.7734 0-6.4492-0.78516-8.0312-2.3594-1.5742-1.5703-2.3594-4.25-2.3594-8.0312v-12.688h-4.75v-6.8281h4.75v-8.5z"/>
  </symbol>
  <symbol id="i" overflow="visible">
   <path d="m24.938-25.531v-16.016h9.6094v41.547h-9.6094v-4.3281c-1.3125 1.7617-2.7617 3.0547-4.3438 3.875-1.5859 0.82031-3.418 1.2344-5.5 1.2344-3.6875 0-6.7188-1.4609-9.0938-4.3906-2.3672-2.9375-3.5469-6.707-3.5469-11.312 0-4.6133 1.1797-8.3828 3.5469-11.312 2.375-2.9258 5.4062-4.3906 9.0938-4.3906 2.0625 0 3.8906 0.41797 5.4844 1.25 1.5938 0.82422 3.0469 2.1055 4.3594 3.8438zm-6.2969 19.359c2.0391 0 3.5977-0.74219 4.6719-2.2344 1.082-1.5 1.625-3.6719 1.625-6.5156 0-2.8516-0.54297-5.0234-1.625-6.5156-1.0742-1.5-2.6328-2.25-4.6719-2.25-2.0312 0-3.5898 0.75-4.6719 2.25-1.0742 1.4922-1.6094 3.6641-1.6094 6.5156 0 2.8438 0.53516 5.0156 1.6094 6.5156 1.082 1.4922 2.6406 2.2344 4.6719 2.2344z"/>
  </symbol>
  <symbol id="h" overflow="visible">
   <path d="m20.516-6.1719c2.0391 0 3.5977-0.74219 4.6719-2.2344 1.082-1.5 1.625-3.6719 1.625-6.5156 0-2.8516-0.54297-5.0234-1.625-6.5156-1.0742-1.5-2.6328-2.25-4.6719-2.25-2.0547 0-3.625 0.75781-4.7188 2.2656-1.0938 1.5-1.6406 3.668-1.6406 6.5 0 2.8242 0.54688 4.9922 1.6406 6.5 1.0938 1.5 2.6641 2.25 4.7188 2.25zm-6.3594-19.359c1.3125-1.7383 2.7695-3.0195 4.375-3.8438 1.6016-0.83203 3.4453-1.25 5.5312-1.25 3.6875 0 6.7109 1.4648 9.0781 4.3906 2.3633 2.9297 3.5469 6.6992 3.5469 11.312 0 4.6055-1.1836 8.375-3.5469 11.312-2.3672 2.9297-5.3906 4.3906-9.0781 4.3906-2.0859 0-3.9297-0.41406-5.5312-1.2344-1.6055-0.83203-3.0625-2.125-4.375-3.875v4.3281h-9.5625v-41.547h9.5625z"/>
  </symbol>
  <symbol id="g" overflow="visible">
   <path d="m0.67188-29.906h9.5625l8.0312 20.297 6.8281-20.297h9.5625l-12.578 32.734c-1.2617 3.332-2.7344 5.6602-4.4219 6.9844-1.6797 1.3203-3.8984 1.9844-6.6562 1.9844h-5.5312v-6.2656h3c1.6133 0 2.7891-0.26172 3.5312-0.78125 0.73828-0.51172 1.3125-1.4375 1.7188-2.7812l0.28125-0.82812z"/>
  </symbol>
  <symbol id="f" overflow="visible">
   <path d="m4.5938-29.906h9.5625v29.906h-9.5625zm0-11.641h9.5625v7.7969h-9.5625z"/>
  </symbol>
  <symbol id="l" overflow="visible">
   <path d="m0.82812-29.906h9.5625l7.4531 20.672 7.4219-20.672h9.5781l-11.766 29.906h-10.5z"/>
  </symbol>
  <symbol id="k" overflow="visible">
   <path d="m32.766-38.609v8.4375c-2.1875-0.97656-4.3242-1.7188-6.4062-2.2188-2.0859-0.5-4.0547-0.75-5.9062-0.75-2.4609 0-4.2773 0.33984-5.4531 1.0156-1.168 0.67969-1.75 1.7305-1.75 3.1562 0 1.0625 0.39453 1.8984 1.1875 2.5 0.78906 0.59375 2.2266 1.1055 4.3125 1.5312l4.375 0.875c4.4375 0.89844 7.5859 2.25 9.4531 4.0625 1.8633 1.8125 2.7969 4.3984 2.7969 7.75 0 4.3984-1.3047 7.668-3.9062 9.8125-2.6055 2.1484-6.5898 3.2188-11.953 3.2188-2.5234 0-5.0586-0.24609-7.6094-0.73438-2.543-0.47656-5.0898-1.1875-7.6406-2.125v-8.6875c2.5508 1.3555 5.0156 2.375 7.3906 3.0625s4.6641 1.0312 6.875 1.0312c2.2383 0 3.9531-0.375 5.1406-1.125 1.1953-0.75 1.7969-1.8164 1.7969-3.2031 0-1.25-0.40625-2.2109-1.2188-2.8906-0.80469-0.67578-2.418-1.2812-4.8438-1.8125l-3.9688-0.875c-3.9922-0.85156-6.9062-2.2109-8.75-4.0781-1.8438-1.875-2.7656-4.3945-2.7656-7.5625 0-3.9766 1.2812-7.0352 3.8438-9.1719 2.5625-2.1328 6.25-3.2031 11.062-3.2031 2.1875 0 4.4375 0.16797 6.75 0.5 2.3125 0.33594 4.707 0.82812 7.1875 1.4844z"/>
  </symbol>
  <symbol id="j" overflow="visible">
   <path d="m14.156-4.3281v15.703h-9.5625v-41.281h9.5625v4.375c1.3125-1.7383 2.7695-3.0195 4.375-3.8438 1.6016-0.83203 3.4453-1.25 5.5312-1.25 3.6875 0 6.7109 1.4648 9.0781 4.3906 2.3633 2.9297 3.5469 6.6992 3.5469 11.312 0 4.6055-1.1836 8.375-3.5469 11.312-2.3672 2.9297-5.3906 4.3906-9.0781 4.3906-2.0859 0-3.9297-0.41406-5.5312-1.2344-1.6055-0.83203-3.0625-2.125-4.375-3.875zm6.3594-19.359c-2.0547 0-3.625 0.75781-4.7188 2.2656-1.0938 1.5-1.6406 3.668-1.6406 6.5 0 2.8242 0.54688 4.9922 1.6406 6.5 1.0938 1.5 2.6641 2.25 4.7188 2.25 2.0391 0 3.5977-0.74219 4.6719-2.2344 1.082-1.5 1.625-3.6719 1.625-6.5156 0-2.8516-0.54297-5.0234-1.625-6.5156-1.0742-1.5-2.6328-2.25-4.6719-2.25z"/>
  </symbol>
 </defs>
 <g>
  <path d="m700 57.078h-700v393.75h62.016l-43.203 54.688c-3.0078 3.8008-3.5898 8.9844-1.4961 13.355s6.4922 7.168 11.34 7.207h21.875c3.2578 0 6.3906-1.25 8.75-3.5l74.594-71.75h432.69l74.922 71.422c2.3516 2.2578 5.4883 3.5117 8.75 3.5h21.875c4.8438 0.015625 9.2695-2.7539 11.371-7.1211 2.1016-4.3672 1.5078-9.5508-1.5273-13.332l-43.203-54.688 61.25 0.003906zm-653.19 447.45 42.219-53.703h14.109zm607.14 0-56.547-53.703h14zm24.828-74.922h-657.56v-351.31h657.56z"/>
  <path d="m580.34 119.09h54.688v120.32c-0.82031 3.2656-0.085938 6.7305 1.9883 9.3867 2.0703 2.6562 5.25 4.207 8.6211 4.207s6.5508-1.5508 8.6211-4.207c2.0742-2.6562 2.8086-6.1211 1.9883-9.3867v-127.64c0-7.3672-5.9727-13.344-13.344-13.344h-62.562c-4.8672 1.2227-8.2773 5.5938-8.2773 10.609 0 5.0195 3.4102 9.3906 8.2773 10.609z"/>
  <path d="m539.33 119.09h14.547c4.8672-1.2188 8.2773-5.5898 8.2773-10.609 0-5.0156-3.4102-9.3867-8.2773-10.609h-14.547c-4.8672 1.2227-8.2773 5.5938-8.2773 10.609 0 5.0195 3.4102 9.3906 8.2773 10.609z"/>
  <path d="m103.03 407.62h137.59c3.2695 0.82031 6.7305 0.089844 9.3867-1.9844s4.2109-5.2539 4.2109-8.625c0-3.3672-1.5547-6.5469-4.2109-8.6211s-6.1172-2.8047-9.3867-1.9883h-137.59c-4.8672 1.2227-8.2773 5.5938-8.2773 10.609 0 5.0195 3.4102 9.3906 8.2773 10.609z"/>
  <path d="m58.844 407.62h15.531c3.2695 0.82031 6.7305 0.089844 9.3867-1.9844s4.2109-5.2539 4.2109-8.625c0-3.3672-1.5547-6.5469-4.2109-8.6211s-6.1172-2.8047-9.3867-1.9883h-15.531c-3.2695-0.81641-6.7305-0.085938-9.3867 1.9883s-4.2109 5.2539-4.2109 8.6211c0 3.3711 1.5547 6.5508 4.2109 8.625s6.1172 2.8047 9.3867 1.9844z"/>
  <use y="689.8125" xlink:href="#e"/>
  <use x="40.132812" y="689.8125" xlink:href="#d"/>
  <use x="67.105469" y="689.8125" xlink:href="#a"/>
  <use x="104.195312" y="689.8125" xlink:href="#c"/>
  <use x="141.097656" y="689.8125" xlink:href="#b"/>
  <use x="167.238281" y="689.8125" xlink:href="#a"/>
  <use x="204.332031" y="689.8125" xlink:href="#i"/>
  <use x="262.515625" y="689.8125" xlink:href="#h"/>
  <use x="301.664062" y="689.8125" xlink:href="#g"/>
  <use x="356.351562" y="689.8125" xlink:href="#e"/>
  <use x="396.484375" y="689.8125" xlink:href="#d"/>
  <use x="423.453125" y="689.8125" xlink:href="#a"/>
  <use x="460.542969" y="689.8125" xlink:href="#c"/>
  <use x="497.449219" y="689.8125" xlink:href="#b"/>
  <use x="523.589844" y="689.8125" xlink:href="#f"/>
  <use x="542.335938" y="689.8125" xlink:href="#l"/>
  <use x="577.984375" y="689.8125" xlink:href="#a"/>
  <use x="634.113281" y="689.8125" xlink:href="#k"/>
  <use x="673.5" y="689.8125" xlink:href="#j"/>
 </g>
</svg>
