<?xml version="1.0" encoding="UTF-8"?>
<svg width="700pt" height="700pt" version="1.1" viewBox="0 0 700 700" xmlns="http://www.w3.org/2000/svg">
 <g>
  <path d="m290.24 439.88c-121.1 0-219.61-98.535-219.61-219.64 0-121.1 98.512-219.61 219.61-219.61 121.1 0 219.64 98.512 219.64 219.61 0 121.1-98.535 219.64-219.64 219.64zm0-408.91c-104.37 0-189.28 84.91-189.28 189.28s84.91 189.28 189.28 189.28c104.37 0 189.28-84.91 189.28-189.28s-84.91-189.28-189.28-189.28z"/>
  <path d="m186.43 336.89c-3.9414 0-7.8633-1.5156-10.852-4.5742-29.445-30.145-45.66-69.93-45.66-112.05 0-42.84 16.684-83.113 46.969-113.38 5.9258-5.9258 15.516-5.9258 21.441 0s5.9258 15.516 0 21.441c-24.57 24.547-38.078 57.191-38.078 91.934 0 34.137 13.16 66.406 37.031 90.859 5.8555 5.9961 5.7383 15.586-0.25781 21.441-2.9414 2.8984-6.7656 4.3203-10.594 4.3203z"/>
  <path d="m614.2 559.39c-3.875 0-7.7695-1.4688-10.734-4.4336l-140.56-140.56c-5.9258-5.9258-5.9258-15.539 0-21.465 5.9258-5.9258 15.539-5.9258 21.465 0l140.56 140.56c5.9258 5.9258 5.9258 15.539 0 21.465-2.9609 2.9375-6.8555 4.4336-10.73 4.4336z"/>
 </g>
</svg>
