<svg xmlns="http://www.w3.org/2000/svg" viewBox="0 0 64 80" x="0px" y="0px"><title>medical report</title><path d="M35,24H29a1,1,0,0,0-1,1v5H23a1,1,0,0,0-1,1v6a1,1,0,0,0,1,1h5v5a1,1,0,0,0,1,1h6a1,1,0,0,0,1-1V38h5a1,1,0,0,0,1-1V31a1,1,0,0,0-1-1H36V25A1,1,0,0,0,35,24Zm5,8v4H35a1,1,0,0,0-1,1v5H30V37a1,1,0,0,0-1-1H24V32h5a1,1,0,0,0,1-1V26h4v5a1,1,0,0,0,1,1Z"/><path d="M12,27a1,1,0,0,0,1-1V9h6a1,1,0,0,0,0-2H12a1,1,0,0,0-1,1V26A1,1,0,0,0,12,27Z"/><path d="M11,60a1,1,0,0,0,1,1H40a1,1,0,0,0,0-2H13V32a1,1,0,0,0-2,0Z"/><path d="M39,3H25a1,1,0,0,0-1,1v8a1,1,0,0,0,1,1H39a1,1,0,0,0,1-1V9H51V59H46a1,1,0,0,0,0,2h6a1,1,0,0,0,1-1V8a1,1,0,0,0-1-1H40V4A1,1,0,0,0,39,3Zm-1,8H26V5H38Z"/><text x="0" y="79" fill="#000000" font-size="5px" font-weight="bold" font-family="'Helvetica Neue', Helvetica, Arial-Unicode, Arial, Sans-serif">Created by Kemal Moe</text><text x="0" y="84" fill="#000000" font-size="5px" font-weight="bold" font-family="'Helvetica Neue', Helvetica, Arial-Unicode, Arial, Sans-serif">from the Noun Project</text></svg>