<svg xmlns="http://www.w3.org/2000/svg" xmlns:xlink="http://www.w3.org/1999/xlink" version="1.1" x="0px" y="0px" viewBox="0 0 100 125" enable-background="new 0 0 100 100" xml:space="preserve"><path d="M49.454,46.589c-1.155,0-2.227-0.392-2.969-0.886l-0.495,1.381c0.721,0.516,1.958,0.887,3.154,0.908v2.081h1.299V47.93  c2.124-0.351,3.258-1.876,3.258-3.505c0-1.835-1.072-2.907-3.196-3.774c-1.794-0.741-2.557-1.277-2.557-2.35  c0-0.824,0.598-1.772,2.187-1.772c1.318,0,2.164,0.453,2.597,0.701l0.516-1.36c-0.598-0.352-1.443-0.682-2.681-0.723v-2H49.29v2.082  c-1.898,0.31-3.114,1.607-3.114,3.32c0,1.793,1.299,2.742,3.402,3.566c1.525,0.618,2.33,1.319,2.33,2.453  C51.907,45.744,50.917,46.589,49.454,46.589z"/><path d="M38.188,60.574c1.104,0.382,2.226,0.521,3.354,0.521c1.614,0,3.239-0.287,4.831-0.569c1.499-0.266,3.049-0.541,4.533-0.558  c1.273-0.019,2.596,0.142,3.879,0.294c2.811,0.332,5.718,0.675,8.368-0.711c4.562-2.385,7.626-7.842,7.626-13.579  c0-5.334-1.979-11.164-5.432-15.994c-1.897-2.653-4.453-4.715-7.373-6.063c0.174-0.238,0.279-0.524,0.279-0.838  c0-0.568-0.335-1.078-0.854-1.297c-0.735-0.311-1.487-0.568-2.249-0.786c0.484-0.714,1.305-1.933,2.118-3.179l0,0  c0.715-1.079,1.603-1.421,2.631-1.818c1.175-0.453,2.505-0.966,3.478-2.718c0.589-1.063,0.491-2.158-0.275-3.082  c-1.332-1.605-4.494-2.419-6.636-1.707c-2.454,0.815-5.547,3.748-6.442,4.633c-0.958-0.363-1.909-0.83-2.714-1.226  c-0.342-0.168-0.662-0.325-0.949-0.459c-1.542-0.717-3.406-0.472-4.429,0.583c-0.763,0.785-0.889,1.854-0.347,2.931  c0.932,1.856,1.028,5.554,1.035,6.704c-0.193,0.076-0.386,0.152-0.577,0.236c-0.507,0.223-0.834,0.729-0.834,1.289v0.005  c0,0.308,0.108,0.597,0.288,0.835c-2.853,1.367-5.351,3.421-7.205,6.033c-3.417,4.813-5.376,10.615-5.376,15.916  C28.914,51.455,32.458,58.595,38.188,60.574z M56.81,9.531c1.706-0.567,4.406,0.109,5.447,1.367  c0.479,0.577,0.532,1.183,0.161,1.852c-0.778,1.404-1.768,1.785-2.914,2.228c-0.216,0.083-0.439,0.172-0.665,0.268  c0.528-1.273,0.074-2.382-0.655-2.929c-0.889-0.664-2.435-0.722-3.73,0.718c-0.736,0.817-1.945,0.817-3.251,0.475  C52.367,12.403,54.878,10.173,56.81,9.531z M42.562,14.461c-0.33-0.652-0.276-1.233,0.155-1.676  c0.601-0.621,1.956-0.921,3.181-0.353c0.281,0.131,0.593,0.285,0.928,0.449c2.548,1.254,6.401,3.15,8.441,0.884  c0.841-0.934,1.741-0.96,2.259-0.573c0.425,0.317,0.708,1.031,0.112,1.999c-1.192,1.94-3.011,4.625-3.62,5.52  c-1.408-0.311-2.851-0.467-4.316-0.453c-2.059,0.016-4.067,0.352-5.993,0.996C43.684,19.732,43.515,16.357,42.562,14.461z   M42.303,23.184c0-0.124,0.072-0.239,0.18-0.287c2.285-1.006,4.716-1.525,7.227-1.544c0.049,0,0.095,0,0.142,0  c2.467,0,4.86,0.483,7.121,1.438c0.11,0.046,0.184,0.162,0.184,0.305c0,0.141-0.083,0.219-0.133,0.252  c-0.04,0.027-0.149,0.086-0.287,0.035c-1.51-0.574-3.073-0.945-4.671-1.127c-0.033-0.004-0.067-0.007-0.101-0.012  c-0.113-0.012-0.225-0.025-0.338-0.037c0,0-0.001-0.001-0.002-0.002l-0.004,0.002c-0.208-0.019-0.417-0.031-0.626-0.044  c-0.066-0.003-0.132-0.009-0.198-0.012c-0.363-0.019-0.729-0.028-1.094-0.027c-0.354,0.002-0.705,0.018-1.055,0.038  c-0.094,0.006-0.187,0.016-0.279,0.021c-0.271,0.021-0.542,0.047-0.811,0.078c-0.084,0.011-0.17,0.021-0.254,0.033  c-0.322,0.041-0.642,0.09-0.961,0.148c-0.021,0.004-0.042,0.008-0.064,0.011c-0.714,0.134-1.418,0.309-2.115,0.522  c-0.051,0.016-0.103,0.032-0.155,0.049c-0.292,0.092-0.585,0.192-0.874,0.299c-0.052,0.02-0.104,0.038-0.155,0.057  c-0.084,0.032-0.168,0.061-0.253,0.094c-0.139,0.055-0.25-0.005-0.291-0.032c-0.05-0.034-0.134-0.112-0.134-0.254V23.184z   M35.183,30.69c2.042-2.878,4.911-5.044,8.183-6.284c0.053-0.021,0.105-0.039,0.158-0.059c0.269-0.1,0.539-0.191,0.812-0.277  c0.052-0.018,0.104-0.033,0.156-0.05c0.651-0.198,1.313-0.364,1.987-0.49c0.024-0.005,0.048-0.007,0.07-0.011  c0.279-0.051,0.56-0.094,0.842-0.131c-0.121,0.541-0.282,1.093-0.471,1.618c-0.275,0.755-0.62,1.488-1.052,2.17  c-0.442,0.673-0.976,1.286-1.607,1.8c-0.639,0.51-1.394,0.854-2.19,1.09c0.814-0.146,1.627-0.41,2.348-0.865  c0.711-0.459,1.348-1.043,1.894-1.703c0.533-0.668,0.983-1.4,1.363-2.168c0.322-0.664,0.595-1.333,0.813-2.057  c0.075-0.006,0.15-0.013,0.227-0.018c0.331-0.021,0.662-0.034,0.994-0.037c0.303-0.002,0.604,0.008,0.903,0.02  c0.133,0.005,0.265,0.016,0.397,0.023c0.368,0.541,0.769,1.03,1.201,1.511c0.578,0.632,1.216,1.21,1.916,1.704  c0.708,0.48,1.481,0.865,2.294,1.108c0.82,0.237,1.674,0.265,2.497,0.179c-0.832-0.006-1.653-0.126-2.408-0.438  c-0.75-0.318-1.435-0.76-2.048-1.283c-0.605-0.535-1.141-1.143-1.616-1.791c-0.204-0.281-0.398-0.574-0.582-0.871  c1.109,0.146,2.2,0.391,3.265,0.736c0.013,0.005,0.026,0.01,0.041,0.014c0.261,0.086,0.52,0.177,0.778,0.275  c0.003,0,0.006,0,0.008,0.002c3.235,1.229,6.067,3.363,8.099,6.207c3.323,4.648,5.229,10.246,5.229,15.357  c0,5.341-2.828,10.407-7.039,12.608c-2.35,1.229-4.964,0.92-7.732,0.593c-0.123-0.015-0.249-0.028-0.374-0.043  c0.152-0.074,0.304-0.147,0.449-0.228c0.222-0.157,0.435-0.326,0.645-0.488c0.103-0.086,0.209-0.165,0.305-0.257  c0.089-0.1,0.18-0.197,0.264-0.3c0.173-0.202,0.336-0.407,0.491-0.612c-0.236,0.123-0.464,0.247-0.682,0.375  c-0.11,0.062-0.215,0.13-0.322,0.193c-0.111,0.057-0.231,0.099-0.346,0.147c-0.229,0.099-0.447,0.206-0.672,0.298  c-0.237,0.063-0.466,0.139-0.695,0.207c-0.931,0.237-1.877,0.322-2.835,0.261c-0.957-0.075-1.916-0.255-2.872-0.518  c-0.955-0.27-1.909-0.593-2.883-0.964c0.73,0.754,1.632,1.321,2.591,1.764c0.081,0.036,0.167,0.064,0.25,0.101  c-0.688,0.1-1.371,0.217-2.044,0.337c-2.685,0.477-5.221,0.927-7.636,0.093c-5.272-1.822-8.536-8.461-8.536-13.567  C30.009,40.894,31.895,35.322,35.183,30.69z"/><path d="M94.589,62.624c-0.709-1.088-2.085-1.313-2.537-1.388c-3.26-0.534-6.292,0.837-8.97,2.046l-0.557,0.251  c-3.111,1.393-6.25,2.865-9.327,4.378c-1.534,0.754-3.055,1.518-4.534,2.276c0.449-1.594-0.074-3.414-1.368-4.486  c-1.384-1.148-3.23-1.246-4.854-1.246H62.43c-1.834,0-3.696,0.055-5.496,0.105c-3.925,0.112-7.985,0.229-11.919-0.201  c-2.683-0.292-5.419-0.849-8.066-1.387c-5.201-1.058-10.579-2.148-15.956-1.355l-0.777,0.115l0.016,23.111l27.351,6.152  c1.634,0.366,3.438,0.772,5.272,0.772c0.51,0,1.021-0.031,1.532-0.104c2.964-0.417,5.491-2.113,7.722-3.612l30.274-20.344  c0.696-0.468,1.486-0.999,2.039-1.822C95.126,64.829,95.193,63.549,94.589,62.624z M92.91,64.874  c-0.352,0.525-0.957,0.932-1.543,1.325L61.094,86.543c-2.068,1.39-4.411,2.962-6.962,3.322c-2.024,0.283-4.122-0.187-6.151-0.644  l-25.933-5.833l-0.014-20.074c4.798-0.543,9.543,0.421,14.553,1.439c2.687,0.547,5.464,1.111,8.23,1.413  c4.059,0.442,8.182,0.325,12.168,0.211c1.787-0.051,3.636-0.104,5.445-0.105h0.012c1.366,0,2.774,0.066,3.693,0.828  c0.831,0.688,1.109,2.032,0.622,2.995c-0.34,0.671-0.821,0.998-1.468,1.149c-0.324,0.018-0.672,0.028-1.048,0.04l-0.753,0.025  l0.002,0.041c-0.145-0.004-0.294-0.009-0.448-0.015c-0.343-0.015-0.684-0.027-1.015-0.027H47.07l-0.172,0.018  c-0.205,0.04-5.042,0.996-7.467,3.294l1.25,1.319c1.886-1.787,5.866-2.682,6.482-2.813h14.866c0.309,0,0.625,0.013,0.944,0.025  c0.812,0.031,1.71,0.066,2.565-0.102c1.043-0.063,1.94-0.201,2.776-0.638c1.837-0.954,3.749-1.92,5.686-2.872  c3.058-1.502,6.177-2.966,9.269-4.35l0.563-0.253c2.562-1.158,5.212-2.354,7.927-1.908c0.688,0.113,1.129,0.311,1.309,0.585  C93.289,63.957,93.154,64.506,92.91,64.874z"/><path d="M17.12,56.26H7.71C6.215,56.26,5,57.475,5,58.969v26.698c0,1.495,1.215,2.71,2.71,2.71h9.41c1.495,0,2.71-1.215,2.71-2.71  V58.969C19.83,57.475,18.614,56.26,17.12,56.26z M18.012,85.667c0,0.491-0.4,0.892-0.892,0.892H7.71c-0.492,0-0.892-0.4-0.892-0.892  V58.969c0-0.49,0.4-0.891,0.892-0.891h9.41c0.492,0,0.892,0.4,0.892,0.891V85.667z"/><text x="0" y="115" fill="#000000" font-size="5px" font-weight="bold" font-family="'Helvetica Neue', Helvetica, Arial-Unicode, Arial, Sans-serif">Created by Rob Olsaen</text><text x="0" y="120" fill="#000000" font-size="5px" font-weight="bold" font-family="'Helvetica Neue', Helvetica, Arial-Unicode, Arial, Sans-serif">from the Noun Project</text></svg>