<svg xmlns="http://www.w3.org/2000/svg" viewBox="0 0 128 160" x="0px" y="0px"><title>14</title><g data-name="1"><path d="M120.41083,71.52145a2.257,2.257,0,0,1-2.25641,2.25641H101.60724A6.77855,6.77855,0,0,1,94.838,67.00858V54.97427a2.25644,2.25644,0,0,0-4.51288,0V85.0806a6.72362,6.72362,0,0,1-1.992,4.79785,6.38359,6.38359,0,0,1-4.80963,1.97143,6.78507,6.78507,0,0,1-6.737-6.76928V33.91422a2.25641,2.25641,0,1,0-4.51282,0V94.08578a6.76932,6.76932,0,0,1-13.53863,0V39.93143a2.25644,2.25644,0,1,0-4.51288,0V82.05148a6.76929,6.76929,0,1,1-13.53858,0V54.97427a2.25644,2.25644,0,0,0-4.51288,0V67.00858a6.77855,6.77855,0,0,1-6.76928,6.76928H24.88849a2.25641,2.25641,0,1,1,0-4.51281h4.51288a2.26081,2.26081,0,0,0,2.25641-2.25647V54.97427a6.76932,6.76932,0,0,1,13.53863,0V82.05148a2.25644,2.25644,0,0,0,4.51288,0v-42.12a6.76929,6.76929,0,1,1,13.53857,0V94.08578a2.25644,2.25644,0,0,0,4.51288,0V33.91422a6.76929,6.76929,0,0,1,13.53858,0V85.0806a2.26279,2.26279,0,0,0,2.24762,2.25647h.00885a2.252,2.252,0,0,0,2.2564-2.25647V54.97427a6.76929,6.76929,0,0,1,13.53858,0V67.00858a2.26086,2.26086,0,0,0,2.25647,2.25647h16.54718A2.257,2.257,0,0,1,120.41083,71.52145Zm-104.548-2.2564H9.84564a2.25641,2.25641,0,1,0,0,4.51281h6.01715a2.25641,2.25641,0,1,0,0-4.51281Z"/></g><text x="0" y="143" fill="#000000" font-size="5px" font-weight="bold" font-family="'Helvetica Neue', Helvetica, Arial-Unicode, Arial, Sans-serif">Created by Elzira Yuni</text><text x="0" y="148" fill="#000000" font-size="5px" font-weight="bold" font-family="'Helvetica Neue', Helvetica, Arial-Unicode, Arial, Sans-serif">from the Noun Project</text></svg>