<?xml version="1.0" encoding="UTF-8"?>
<svg width="700pt" height="700pt" version="1.1" viewBox="0 0 700 700" xmlns="http://www.w3.org/2000/svg">
 <g>
  <path d="m280 157.5h-2.5c-5.1094 0-9.9609 2.2305-13.285 6.1094l-120 140c-4.4492 5.1914-5.4688 12.496-2.6133 18.703 2.8555 6.2109 9.0625 10.188 15.898 10.188h280c6.832 0 13.043-3.9766 15.898-10.188 2.8555-6.207 1.8359-13.512-2.6094-18.703l-120-140c-3.3242-3.8789-8.1758-6.1094-13.285-6.1094h-2.5v-17.5c0-57.988 47.012-105 105-105s105 47.012 105 105v402.5c0 9.6641 7.8359 17.5 17.5 17.5s17.5-7.8359 17.5-17.5v-402.5c0-77.32-62.68-140-140-140s-140 62.68-140 140z"/>
  <path d="m245 367.5c0-9.6641-7.8359-17.5-17.5-17.5s-17.5 7.8359-17.5 17.5v35c0 9.6641 7.8359 17.5 17.5 17.5s17.5-7.8359 17.5-17.5z"/>
  <path d="m297.5 350c9.6641 0 17.5 7.8359 17.5 17.5v35c0 9.6641-7.8359 17.5-17.5 17.5s-17.5-7.8359-17.5-17.5v-35c0-9.6641 7.8359-17.5 17.5-17.5z"/>
  <path d="m385 367.5c0-9.6641-7.8359-17.5-17.5-17.5s-17.5 7.8359-17.5 17.5v35c0 9.6641 7.8359 17.5 17.5 17.5s17.5-7.8359 17.5-17.5z"/>
  <path d="m227.5 455c9.6641 0 17.5 7.8359 17.5 17.5v35c0 9.6641-7.8359 17.5-17.5 17.5s-17.5-7.8359-17.5-17.5v-35c0-9.6641 7.8359-17.5 17.5-17.5z"/>
  <path d="m315 472.5c0-9.6641-7.8359-17.5-17.5-17.5s-17.5 7.8359-17.5 17.5v35c0 9.6641 7.8359 17.5 17.5 17.5s17.5-7.8359 17.5-17.5z"/>
  <path d="m367.5 455c9.6641 0 17.5 7.8359 17.5 17.5v35c0 9.6641-7.8359 17.5-17.5 17.5s-17.5-7.8359-17.5-17.5v-35c0-9.6641 7.8359-17.5 17.5-17.5z"/>
 </g>
</svg>
