<?xml version="1.0" encoding="UTF-8"?>
<svg width="700pt" height="700pt" version="1.1" viewBox="0 0 700 700" xmlns="http://www.w3.org/2000/svg">
 <path d="m224.88 437.5h55.125c0 25.008 13.344 48.117 35 60.621s48.344 12.504 70 0 35-35.613 35-60.621h55.125c15.195-0.015625 29.559-6.9492 39.023-18.84 9.4648-11.887 13-27.441 9.6094-42.254-3.3906-14.812-13.344-27.273-27.039-33.859-4.6914-2.3594-7.7969-7.0117-8.1719-12.25l-8.0508-104.53v-0.003906c-1.9375-23.582-10.207-46.207-23.934-65.484-13.73-19.273-32.406-34.484-54.062-44.027v-11.254c0-18.758-10.008-36.09-26.25-45.465-16.242-9.3789-36.258-9.3789-52.5 0-16.242 9.375-26.25 26.707-26.25 45.465v11.254c-21.668 9.5469-40.352 24.773-54.082 44.066-13.73 19.293-21.992 41.934-23.914 65.535l-8.0508 104.53c-0.24609 2.6836-1.1953 5.2578-2.7578 7.4531-1.5625 2.1992-3.6758 3.9453-6.1328 5.0586-13.504 6.7617-23.227 19.273-26.441 34.031-3.2148 14.758 0.42188 30.18 9.8945 41.945 9.4688 11.766 23.754 18.613 38.859 18.629zm125.12 35c-9.2812 0-18.184-3.6875-24.75-10.25-6.5625-6.5664-10.25-15.469-10.25-24.75h70c0 9.2812-3.6875 18.184-10.25 24.75-6.5664 6.5625-15.469 10.25-24.75 10.25zm-17.5-367.5c0-6.2539 3.3359-12.031 8.75-15.156s12.086-3.125 17.5 0 8.75 8.9023 8.75 15.156v1.3281c-11.598-1.7695-23.402-1.7695-35 0zm-113.56 268.85c15.629-7.8828 26.016-23.344 27.406-40.793l8.0508-104.53c2.4805-32.418 21.227-61.371 49.793-76.906 28.562-15.535 63.055-15.535 91.617 0 28.566 15.535 47.312 44.488 49.793 76.906l8.0508 104.53c1.4727 17.711 12.156 33.34 28.121 41.145 4.0312 2.0273 6.9297 5.7656 7.8906 10.172 0.96094 4.4062-0.12109 9.0117-2.9453 12.531-2.8203 3.5195-7.082 5.5742-11.594 5.5938h-250.25c-3.9609-0.007812-7.7539-1.5938-10.547-4.4023-2.7891-2.8125-4.3477-6.6172-4.3281-10.578 0.027344-2.8945 0.88281-5.7227 2.4688-8.1445 1.582-2.4219 3.832-4.3398 6.4727-5.5234z"/>
</svg>
