<svg xmlns="http://www.w3.org/2000/svg" data-name="Layer 1" viewBox="0 0 95 118.75" x="0px" y="0px"><path d="m71.3,68.26l-6.68,3.52c-3.03-4.86-7.97-8.14-13.54-9.1v-9.31l4.09-4.92c1.86.36,3.61.55,5.23.55,3.88,0,7.03-1.03,9.4-3.08,3.63-3.14,5.23-8.42,4.74-15.69-.03-.44-.27-.83-.65-1.04-.38-.22-.84-.23-1.23-.03-4.72,2.4-8.43,3.62-11.15,4.51-6.71,2.2-8.87,3.41-8.18,12.94l-3.55,4.27-3.55-4.27c.69-9.54-1.47-10.74-8.18-12.94-2.71-.89-6.43-2.11-11.15-4.51-.39-.2-.85-.19-1.23.03-.38.22-.62.61-.65,1.04-.48,7.27,1.11,12.55,4.75,15.69,2.38,2.06,5.53,3.09,9.4,3.09,1.61,0,3.36-.19,5.22-.55l4.09,4.92v9.03c-.27-.01-.54-.03-.81-.03-4.53,0-8.91,1.56-12.44,4.38l-2.9-.97c-1.56-.53-2.89-.18-4,.19l-6.3,2.09h-2.69v-1.91c0-.72-.58-1.3-1.3-1.3H5.01c-.72,0-1.3.58-1.3,1.3v23.67c0,.72.58,1.3,1.3,1.3h13.04c.72,0,1.3-.58,1.3-1.3v-1.91h2.91l16.94,5.99c1.38.47,2.88.9,4.28.9.87,0,1.7-.16,2.45-.57l12.2-6.68,17.73-10.03c2.4-1.36,2.35-4.56,1.08-6.88-1.34-2.45-3.65-3.43-5.63-2.4Zm-8.98-32.13c2.44-.8,5.67-1.86,9.7-3.77.04,5.34-1.3,9.32-3.92,11.59-2.44,2.11-6.04,2.85-10.69,2.23,1.77-1.47,3.86-2.64,5.9-3.79,1.08-.61,2.1-1.18,3.08-1.8.61-.38.79-1.18.41-1.79-.38-.61-1.18-.79-1.79-.41-.93.58-1.92,1.14-2.98,1.73-2.13,1.2-4.31,2.43-6.25,4.03-.2-5.8,1.17-6.27,6.53-8.03Zm-30.86,7.82c-2.63-2.27-3.97-6.26-3.93-11.59,4.04,1.91,7.27,2.97,9.7,3.77,5.36,1.76,6.74,2.23,6.53,8.03-1.93-1.6-4.13-2.84-6.27-4.04-1.04-.59-2.03-1.14-2.96-1.72-.61-.38-1.41-.2-1.79.41-.38.61-.2,1.41.41,1.79.98.61,2.04,1.21,3.06,1.78,2.05,1.15,4.15,2.33,5.92,3.8-4.65.61-8.25-.13-10.69-2.23Zm16.21,21.03c5.96,0,11.46,3.04,14.64,8.02l-4.1,2.16c-.18-2.53-1.81-4.95-4.79-4.95h-7.94l-7.23-2.43c2.79-1.81,6.06-2.8,9.42-2.8Zm-30.92,23.56H6.31v-21.07h10.44v21.07Zm57.82-13.26l-17.71,10.02-12.18,6.67c-1.22.67-3.62-.15-4.63-.5l-17.14-6.06c-.14-.05-.29-.07-.43-.07h-3.13v-14.66h2.9c.14,0,.28-.02.41-.07l6.49-2.16c.96-.32,1.63-.44,2.36-.19l13.35,4.49c.13.04.27.07.41.07h8.15c1.74,0,2.21,1.77,2.21,2.81,0,.78-.22,1.51-.61,2.02-.39.51-.92.76-1.6.76h-15.51c-.72,0-1.3.58-1.3,1.3s.58,1.3,1.3,1.3h15.51c1.48,0,2.79-.63,3.66-1.79.18-.24.35-.51.49-.78l14.93-7.87c1.08-.57,2.09,1.26,2.14,1.34.67,1.23.83,2.87-.08,3.38Zm-59.6-4.49c0,.72-.58,1.3-1.3,1.3h-4.29c-.72,0-1.3-.58-1.3-1.3s.58-1.3,1.3-1.3h4.29c.72,0,1.3.58,1.3,1.3ZM48.48,11.58V1.48c0-.72.58-1.3,1.3-1.3s1.3.58,1.3,1.3v10.1c0,.72-.58,1.3-1.3,1.3s-1.3-.58-1.3-1.3Zm21.66,9.71c-.51-.51-.51-1.33,0-1.84l7.15-7.14c.51-.51,1.33-.51,1.84,0,.51.51.51,1.33,0,1.84l-7.15,7.14c-.25.25-.59.38-.92.38s-.67-.13-.92-.38Zm21.15,20.31c0,.72-.58,1.3-1.3,1.3h-10.13c-.72,0-1.3-.58-1.3-1.3s.58-1.3,1.3-1.3h10.13c.72,0,1.3.58,1.3,1.3Zm-83.01,0c0-.72.58-1.3,1.3-1.3h10.12c.72,0,1.3.58,1.3,1.3s-.58,1.3-1.3,1.3h-10.12c-.72,0-1.3-.58-1.3-1.3Zm12.15-27.45c-.51-.51-.51-1.33,0-1.84.51-.51,1.33-.51,1.84,0l7.15,7.14c.51.51.51,1.33,0,1.84-.25.25-.59.38-.92.38s-.66-.13-.92-.38l-7.15-7.14Z"/><text x="0" y="110" fill="#000000" font-size="5px" font-weight="bold" font-family="'Helvetica Neue', Helvetica, Arial-Unicode, Arial, Sans-serif">Created by Rusma Ratri Handini</text><text x="0" y="115" fill="#000000" font-size="5px" font-weight="bold" font-family="'Helvetica Neue', Helvetica, Arial-Unicode, Arial, Sans-serif">from the Noun Project</text></svg>