<svg xmlns="http://www.w3.org/2000/svg" xmlns:xlink="http://www.w3.org/1999/xlink" version="1.1" x="0px" y="0px" viewBox="0 0 100 125" style="enable-background:new 0 0 100 100;" xml:space="preserve"><g><path d="M87.0561523,47.0610352l1.0083008-1.0083008c1.2456055-1.2451172,1.2456055-3.2719727,0-4.5170898   c-0.3212891-0.3217773-0.6948242-0.5600586-1.09375-0.715332c0.762207-1.2314453,0.609375-2.8720703-0.4580078-3.9394531   c-1.0664063-1.0668945-2.7080078-1.2192383-3.9389648-0.4580078c-0.1552734-0.3984375-0.394043-0.7719727-0.715332-1.0932617   c-1.2441406-1.2446289-3.2709961-1.2446289-4.5170898,0l-2.3959961,2.3959961l-3.7497559-3.7497559l0.8444824-0.8444824   c0.2050781-0.2050781,0.3110352-0.4887695,0.2905273-0.777832s-0.1655273-0.5551758-0.3974609-0.7290039l-6.2060547-4.6547852   c-0.3319092-0.2493286-0.767395-0.2501221-1.1090088-0.0443115c-2.0994263-3.8390503-4.7219238-7.3525391-7.821167-10.4512939   l-4.5380859-4.5385742c-1.2070313-1.2070313-3.3110352-1.2070313-4.5170898,0   c-0.2983398,0.2983398-0.5253906,0.6416016-0.6806641,1.0083008l-1.0083008-1.0083008   c-1.2446289-1.2441406-3.2714844-1.2451172-4.5170898,0c-0.3217773,0.3212891-0.5600586,0.6948242-0.715332,1.09375   c-1.2329102-0.762207-2.8730469-0.6083984-3.9394531,0.4580078c-1.0673828,1.0668945-1.2197266,2.7075195-0.4580078,3.9389648   c-0.3984375,0.1552734-0.7719727,0.394043-1.0932617,0.715332c-1.2456055,1.2451172-1.2456055,3.2719727,0,4.5170898   l2.3959961,2.3959961l-3.7497559,3.7497559l-0.8444824-0.8444824c-0.2045898-0.2055664-0.4921875-0.3120117-0.777832-0.2905273   c-0.2890625,0.0205078-0.5551758,0.1655273-0.7290039,0.3974609l-4.6547852,6.2060547   c-0.2489624,0.3319092-0.2498779,0.7672119-0.0441284,1.1089478c-3.8390503,2.0994873-7.3526611,4.7219849-10.4514771,7.821228   l-4.5385742,4.5380859C11.3320313,48.3447266,11,49.1464844,11,50s0.3320313,1.6552734,0.9355469,2.2583008   c0.2983398,0.2983398,0.6416016,0.5253906,1.0083008,0.6806641l-1.0083008,1.0083008   c-1.2456055,1.2451172-1.2456055,3.2719727,0,4.5170898c0.3212891,0.3217773,0.6948242,0.5600586,1.09375,0.715332   c-0.762207,1.2314453-0.609375,2.8720703,0.4580078,3.9394531c1.0668945,1.0678711,2.7084961,1.2211914,3.9389648,0.4580078   c0.1552734,0.3984375,0.394043,0.7719727,0.715332,1.0932617c0.6225586,0.6225586,1.4404297,0.934082,2.2587891,0.934082   c0.8178711,0,1.6357422-0.3115234,2.2583008-0.934082l2.3959961-2.3959961l3.7497559,3.7497559l-0.8444824,0.8444824   c-0.2050781,0.2050781-0.3110352,0.4887695-0.2905273,0.777832s0.1655273,0.5551758,0.3974609,0.7290039l6.2060547,4.6547852   c0.1787109,0.1342773,0.3896484,0.2001953,0.5996094,0.2001953c0.1795654,0,0.3499146-0.0651855,0.5072632-0.1598511   c2.0997925,3.8405762,4.7230225,7.3554077,7.8233032,10.4552612l4.5380859,4.5385742C48.3447266,88.6679688,49.1464844,89,50,89   s1.6552734-0.3320313,2.2583008-0.9355469c0.2983398-0.2983398,0.5253906-0.6416016,0.6806641-1.0083008l1.0083008,1.0083008   c1.2451172,1.2456055,3.2719727,1.2456055,4.5170898,0c0.3217773-0.3212891,0.5600586-0.6948242,0.715332-1.09375   c1.2329102,0.762207,2.8735352,0.6083984,3.9394531-0.4580078c1.0673828-1.0668945,1.2197266-2.7075195,0.4580078-3.9389648   c0.3984375-0.1552734,0.7719727-0.394043,1.0932617-0.715332c1.2456055-1.2451172,1.2456055-3.2719727,0-4.5170898   l-2.3959961-2.3959961l3.7497559-3.7497559l0.8444824,0.8444824c0.1879883,0.1884766,0.4428711,0.2929688,0.7070313,0.2929688   c0.0234375,0,0.0473633-0.0009766,0.0708008-0.0024414c0.2890625-0.0205078,0.5551758-0.1655273,0.7290039-0.3974609   l4.6547852-6.2060547c0.2489624-0.3319092,0.2498779-0.7672119,0.0441284-1.1089478   c3.8390503-2.0994873,7.3526611-4.7219849,10.4514771-7.821228l4.5385742-4.5380859C88.6679688,51.6552734,89,50.8535156,89,50   s-0.3320313-1.6552734-0.9355469-2.2583008C87.7661133,47.4433594,87.4228516,47.2163086,87.0561523,47.0610352z    M73.53125,39.1396484l-0.2998047,0.2998047c-0.1582031-0.371582-0.3876953-0.7128906-0.6816406-1.0068359   c-1.2070313-1.2070313-3.3110352-1.2070313-4.5170898,0l-2.9208984,2.9204102   c-1.4169312,1.416626-2.565918,3.0506592-3.4317017,4.8278198l-1.3449097-1.3446655l9.4462891-9.4462891L73.53125,39.1396484z    M52.9052734,58.0766602l0.8444824,0.8444824l-1.9296265,1.9296265c-0.6912231-0.2384644-1.3956909-0.444519-2.1174927-0.5983276   l-1.4349365-0.3058472c0.0328369-0.2512207-0.0211792-0.5122681-0.1832275-0.7283325l-4.6542969-6.2060547   c-0.1738281-0.2319336-0.4399414-0.3769531-0.7290039-0.3974609c-0.2851563-0.0131836-0.5732422,0.0854492-0.777832,0.2905273   l-0.8444824,0.8444824l-1.9296265-1.9296265c0.2384644-0.6912231,0.444519-1.3956909,0.5983276-2.1174927l0.3075562-1.4428101   c0.0429688,0.0055542,0.0836792,0.0248413,0.1270142,0.0248413c0.2099609,0,0.4208984-0.065918,0.5996094-0.2001953   l6.2060547-4.6542969c0.2319336-0.1738281,0.3769531-0.4399414,0.3974609-0.7290039s-0.0854492-0.5727539-0.2905273-0.777832   l-0.8444824-0.8444824l1.9296265-1.9296265c0.6912231,0.2384644,1.3956909,0.444519,2.1174927,0.5983276l1.4349365,0.3058472   c-0.0328369,0.2512207,0.0211792,0.5122681,0.1832275,0.7283325l4.6542969,6.2060547   c0.1738281,0.2319336,0.4399414,0.3769531,0.7290039,0.3974609c0.0234375,0.0014648,0.0473633,0.0024414,0.0708008,0.0024414   c0.2641602,0,0.519043-0.1044922,0.7070313-0.2929688l0.8445435-0.8445435l1.9296875,1.9293823   c-0.2385254,0.6913452-0.4446411,1.3959351-0.5984497,2.1177979l-0.3057861,1.4346313   c-0.2514038-0.03302-0.5125122,0.0209351-0.7283936,0.1835327l-6.2060547,4.6542969   c-0.2319336,0.1738281-0.3769531,0.4399414-0.3974609,0.7290039S52.7001953,57.871582,52.9052734,58.0766602z    M69.8105469,32.5327148l-0.7348633,0.7348633c-0.0004272,0.0004272-0.0010376,0.0005493-0.0014648,0.0009766   L58.2138672,44.1289063c-0.0004272,0.0004272-0.0005493,0.0010376-0.0009766,0.0014648l-0.7348633,0.7348633l-3.4423828-4.5898438   l11.1850586-11.1855469L69.8105469,32.5327148z M36.7436523,19.5556641c0.465332-0.465332,1.2226563-0.4663086,1.6889648,0   l7.7573242,7.7573242c0.390625,0.390625,1.0234375,0.390625,1.4140625,0   c0.1953125-0.1953125,0.2929688-0.4511719,0.2929688-0.7070313s-0.0976563-0.5117188-0.2929688-0.7070313l-7.7573242-7.7573242   c-0.0014648-0.0014648-0.0029297-0.0029297-0.0043945-0.0043945l-1.5473633-1.5473633   c-0.465332-0.465332-0.465332-1.2231445,0-1.6884766c0.4658203-0.4658203,1.2231445-0.4658203,1.6889648,0l9.309082,9.3085938   c0.390625,0.390625,1.0234375,0.390625,1.4140625,0s0.390625-1.0234375,0-1.4140625l-7.7573242-7.7573242   c-0.465332-0.4658203-0.465332-1.2231445,0-1.6889648c0.465332-0.465332,1.2226563-0.4663086,1.6889648,0l7.7573242,7.7573242   c0.390625,0.390625,1.0234375,0.390625,1.4140625,0c0.1953125-0.1953125,0.2929688-0.4511719,0.2929688-0.7070313   s-0.0976563-0.5117188-0.2929688-0.7070313l-4.6557617-4.65625c-0.4638672-0.4658203-0.4633789-1.2216797,0.0019531-1.6870117   c0.4501953-0.4511719,1.2368164-0.4511719,1.6879883,0l4.5385742,4.5385742   c3.0917358,3.0922241,5.687439,6.6159668,7.7366943,10.4747925l-9.9512329,9.9515991l-2.4539185-0.5230713   c-3.0175781-0.6430664-5.765625-2.1357422-7.9472656-4.3173828l-2.9204102-2.9213867   c-0.2255859-0.2250977-0.3496094-0.5249023-0.3496094-0.84375s0.1240234-0.6186523,0.3496094-0.8442383   c0.465332-0.465332,1.2226563-0.4663086,1.6889648,0l3.878418,3.878418c0.390625,0.390625,1.0234375,0.390625,1.4140625,0   c0.1953125-0.1953125,0.2929688-0.4511719,0.2929688-0.7070313s-0.0976563-0.5117188-0.2929688-0.7070313l-3.878418-3.878418   c-0.0009766-0.0009766-0.0014648-0.0019531-0.0024414-0.0024414l-6.2036133-6.2036133   C36.2783203,20.7788086,36.2783203,20.0214844,36.7436523,19.5556641z M39.1396484,26.46875l0.2998047,0.2998047   c-0.371582,0.1582031-0.7128906,0.3876953-1.0068359,0.6816406c-0.6035156,0.6035156-0.9355469,1.4052734-0.9355469,2.2587891   s0.3320313,1.6552734,0.9355469,2.2583008l2.9204102,2.9208984c1.416687,1.4169312,3.0507813,2.565979,4.8280029,3.4317627   l-1.3448486,1.3448486l-9.4462891-9.4462891L39.1396484,26.46875z M32.5327148,30.1894531l0.7348633,0.7348633   c0.0004272,0.0004272,0.0005493,0.0010376,0.0009766,0.0014648l10.8603516,10.8603516   c0.0004272,0.0004272,0.0010376,0.0005493,0.0014648,0.0009766l0.7348633,0.7348633l-4.5898438,3.4423828L29.0898438,34.7792969   L32.5327148,30.1894531z M21.2446289,63.2563477c-0.465332,0.465332-1.2226563,0.4663086-1.6889648,0   c-0.465332-0.4658203-0.465332-1.2231445,0-1.6889648l7.7573242-7.7573242   c0.1953125-0.1953125,0.2929688-0.4511719,0.2929688-0.7070313s-0.0976563-0.5117188-0.2929688-0.7070313   c-0.390625-0.390625-1.0234375-0.390625-1.4140625,0l-7.7573242,7.7573242   c-0.0014648,0.0014648-0.0029297,0.0029297-0.0043945,0.0043945l-1.5473633,1.5473633   c-0.4658203,0.4648438-1.2226563,0.4648438-1.6884766,0c-0.465332-0.4658203-0.465332-1.2231445,0-1.6889648l9.3085938-9.309082   c0.390625-0.390625,0.390625-1.0234375,0-1.4140625s-1.0234375-0.390625-1.4140625,0l-7.7573242,7.7573242   c-0.4663086,0.4663086-1.2236328,0.465332-1.6889648,0c-0.465332-0.4658203-0.465332-1.2231445,0-1.6889648l7.7573242-7.7573242   c0.1953125-0.1953125,0.2929688-0.4511719,0.2929688-0.7070313s-0.0976563-0.5117188-0.2929688-0.7070313   c-0.390625-0.390625-1.0234375-0.390625-1.4140625,0l-4.65625,4.6557617   c-0.4658203,0.465332-1.222168,0.4628906-1.6870117-0.0019531C13.1240234,50.6186523,13,50.3188477,13,50   s0.1240234-0.6186523,0.3496094-0.8442383l4.5385742-4.5385742c3.0922241-3.0917358,6.6159668-5.687439,10.4747925-7.7366943   l9.9515991,9.9512329l-0.5230713,2.4539185c-0.6430664,3.0175781-2.1357422,5.765625-4.3173828,7.9472656l-2.9213867,2.9204102   c-0.4501953,0.4511719-1.2368164,0.4511719-1.6879883,0c-0.465332-0.4658203-0.465332-1.2231445,0-1.6889648l3.878418-3.878418   c0.1953125-0.1953125,0.2929688-0.4511719,0.2929688-0.7070313s-0.0976563-0.5117188-0.2929688-0.7070313   c-0.390625-0.390625-1.0234375-0.390625-1.4140625,0l-3.878418,3.878418   c-0.0009766,0.0009766-0.0019531,0.0014648-0.0024414,0.0024414l-3.088501,3.088501   c-0.0043335,0.0042114-0.0102539,0.0053711-0.0145264,0.0096436s-0.0054321,0.0101929-0.0096436,0.0145264L21.2446289,63.2563477z    M26.46875,60.8603516l0.2998047-0.2998047c0.1582031,0.371582,0.3876953,0.7128906,0.6816406,1.0068359   c1.2070313,1.2070313,3.3110352,1.2070313,4.5170898,0l2.9208984-2.9204102   c1.4169312-1.416687,2.565979-3.0507813,3.4317627-4.8280029l1.3448486,1.3448486l-9.4462891,9.4462891L26.46875,60.8603516z    M30.1894531,67.4672852l0.7348633-0.7348633c0.0004272-0.0004272,0.0010376-0.0005493,0.0014648-0.0009766l10.8603516-10.8603516   c0.0004272-0.0004272,0.0005493-0.0010376,0.0009766-0.0014648l0.7348633-0.7348633l3.4423828,4.5898438L34.7792969,70.9101563   L30.1894531,67.4672852z M63.2563477,80.4443359c-0.465332,0.465332-1.2226563,0.4663086-1.6889648,0l-7.7573242-7.7573242   c-0.390625-0.390625-1.0234375-0.390625-1.4140625,0c-0.1953125,0.1953125-0.2929688,0.4511719-0.2929688,0.7070313   s0.0976563,0.5117188,0.2929688,0.7070313l7.7573242,7.7573242c0.0014648,0.0014648,0.0029297,0.0029297,0.0043945,0.0043945   l1.5473633,1.5473633c0.465332,0.465332,0.465332,1.2231445,0,1.6884766c-0.4663086,0.4663086-1.2236328,0.465332-1.6889648,0   l-9.309082-9.3085938c-0.390625-0.390625-1.0234375-0.390625-1.4140625,0s-0.390625,1.0234375,0,1.4140625l7.7573242,7.7573242   c0.465332,0.4658203,0.465332,1.2231445,0,1.6889648c-0.4658203,0.4658203-1.2231445,0.4658203-1.6889648,0l-7.7573242-7.7573242   c-0.390625-0.390625-1.0234375-0.390625-1.4140625,0c-0.1953125,0.1953125-0.2929688,0.4511719-0.2929688,0.7070313   s0.0976563,0.5117188,0.2929688,0.7070313l4.6557617,4.65625c0.4638672,0.4658203,0.4633789,1.2216797-0.0019531,1.6870117   c-0.4501953,0.4511719-1.2368164,0.4511719-1.6879883,0l-4.5385742-4.5385742   c-3.0917358-3.0922241-5.687439-6.6159668-7.7366943-10.4747925l9.9512329-9.9515991l2.4539185,0.5230713   c3.0175781,0.6430664,5.765625,2.1357422,7.9472656,4.3173828l2.9204102,2.9213867   c0.2255859,0.2250977,0.3496094,0.5249023,0.3496094,0.84375s-0.1240234,0.6186523-0.3496094,0.8442383   c-0.4658203,0.465332-1.2231445,0.4663086-1.6889648,0l-3.878418-3.878418c-0.390625-0.390625-1.0234375-0.390625-1.4140625,0   c-0.1953125,0.1953125-0.2929688,0.4511719-0.2929688,0.7070313s0.0976563,0.5117188,0.2929688,0.7070313l3.878418,3.878418   c0.0009766,0.0009766,0.0014648,0.0019531,0.0024414,0.0024414l6.2036133,6.2036133   C63.7216797,79.2211914,63.7216797,79.9785156,63.2563477,80.4443359z M60.8603516,73.53125l-0.2998047-0.2998047   c0.371582-0.1582031,0.7128906-0.3876953,1.0068359-0.6816406c0.6035156-0.6035156,0.9355469-1.4052734,0.9355469-2.2587891   s-0.3320313-1.6552734-0.9355469-2.2583008l-2.9204102-2.9208984c-1.416687-1.4169312-3.0507813-2.565979-4.8280029-3.4317627   l1.3448486-1.3448486l9.4462891,9.4462891L60.8603516,73.53125z M67.4672852,69.8105469l-0.7348633-0.7348633   c-0.0004272-0.0004272-0.0005493-0.0010376-0.0009766-0.0014648L55.8710938,58.2138672   c-0.0004272-0.0004272-0.0010376-0.0005493-0.0014648-0.0009766l-0.7348633-0.7348633l4.5898438-3.4423828l11.1855469,11.1850586   L67.4672852,69.8105469z M86.6503906,50.8442383l-4.5385742,4.5385742   c-3.0922241,3.0917358-6.6159668,5.687439-10.4747925,7.7366943l-9.9515991-9.9512329l0.5230713-2.4539185   c0.6430664-3.0175781,2.1357422-5.765625,4.3173828-7.9472656l2.9213867-2.9204102   c0.4501953-0.4511719,1.2368164-0.4511719,1.6879883,0c0.465332,0.4658203,0.465332,1.2231445,0,1.6889648l-3.878418,3.878418   c-0.1953125,0.1953125-0.2929688,0.4511719-0.2929688,0.7070313s0.0976563,0.5117188,0.2929688,0.7070313   c0.390625,0.390625,1.0234375,0.390625,1.4140625,0l3.878418-3.878418   c0.0009766-0.0009766,0.0019531-0.0014648,0.0024414-0.0024414l6.2036133-6.2036133   c0.465332-0.465332,1.2226563-0.4663086,1.6889648,0c0.465332,0.4658203,0.465332,1.2231445,0,1.6889648l-7.7573242,7.7573242   c-0.1953125,0.1953125-0.2929688,0.4511719-0.2929688,0.7070313s0.0976563,0.5117188,0.2929688,0.7070313   c0.390625,0.390625,1.0234375,0.390625,1.4140625,0l7.7573242-7.7573242   c0.0014648-0.0014648,0.0029297-0.0029297,0.0043945-0.0043945l1.5473633-1.5473633   c0.4658203-0.4648438,1.2226563-0.4648438,1.6884766,0c0.465332,0.4658203,0.465332,1.2231445,0,1.6889648l-9.3085938,9.309082   c-0.390625,0.390625-0.390625,1.0234375,0,1.4140625s1.0234375,0.390625,1.4140625,0l7.7573242-7.7573242   c0.4663086-0.4663086,1.2236328-0.465332,1.6889648,0c0.465332,0.4658203,0.465332,1.2231445,0,1.6889648l-7.7573242,7.7573242   c-0.1953125,0.1953125-0.2929688,0.4511719-0.2929688,0.7070313s0.0976563,0.5117188,0.2929688,0.7070313   c0.390625,0.390625,1.0234375,0.390625,1.4140625,0l4.65625-4.6557617   c0.4663086-0.4643555,1.2226563-0.4624023,1.6870117,0.0019531C86.8759766,49.3813477,87,49.6811523,87,50   S86.8759766,50.6186523,86.6503906,50.8442383z"/></g><text x="0" y="115" fill="#000000" font-size="5px" font-weight="bold" font-family="'Helvetica Neue', Helvetica, Arial-Unicode, Arial, Sans-serif">Created by Path Lord</text><text x="0" y="120" fill="#000000" font-size="5px" font-weight="bold" font-family="'Helvetica Neue', Helvetica, Arial-Unicode, Arial, Sans-serif">from the Noun Project</text></svg>