<svg xmlns="http://www.w3.org/2000/svg" xmlns:xlink="http://www.w3.org/1999/xlink" version="1.1" x="0px" y="0px" viewBox="0 0 128 160" enable-background="new 0 0 128 128" xml:space="preserve"><path d="M31,44c-0.552,0-1-0.448-1-1V31c0-0.552,0.448-1,1-1h11c0.552,0,1,0.448,1,1s-0.448,1-1,1H32v11C32,43.552,31.552,44,31,44z  "/><path d="M42,98H31c-0.552,0-1-0.447-1-1V86c0-0.553,0.448-1,1-1s1,0.447,1,1v10h10c0.552,0,1,0.447,1,1S42.552,98,42,98z"/><path d="M97,98H85c-0.553,0-1-0.447-1-1s0.447-1,1-1h11V86c0-0.553,0.447-1,1-1s1,0.447,1,1v11C98,97.553,97.553,98,97,98z"/><path d="M97,44c-0.553,0-1-0.448-1-1V32H85c-0.553,0-1-0.448-1-1s0.447-1,1-1h12c0.553,0,1,0.448,1,1v12C98,43.552,97.553,44,97,44z  "/><path d="M88,89H40c-0.552,0-1-0.447-1-1V40c0-0.552,0.448-1,1-1h48c0.553,0,1,0.448,1,1v48C89,88.553,88.553,89,88,89z M41,87h46V41  H41V87z"/><text x="0" y="143" fill="#000000" font-size="5px" font-weight="bold" font-family="'Helvetica Neue', Helvetica, Arial-Unicode, Arial, Sans-serif">Created by Souvik Bhattacharjee</text><text x="0" y="148" fill="#000000" font-size="5px" font-weight="bold" font-family="'Helvetica Neue', Helvetica, Arial-Unicode, Arial, Sans-serif">from the Noun Project</text></svg>