<svg xmlns="http://www.w3.org/2000/svg" xmlns:xlink="http://www.w3.org/1999/xlink" version="1.1" x="0px" y="0px" viewBox="0 0 90 112.5" style="enable-background:new 0 0 90 90;" xml:space="preserve"><path d="M82.1,24.1H34.6c-1.3,0-2.3-1-2.3-2.3v0c0-1.3,1-2.3,2.3-2.3h47.5c1.3,0,2.3,1,2.3,2.3v0C84.4,23.1,83.4,24.1,82.1,24.1z   M58,45.7L58,45.7c0-1.3-1-2.3-2.3-2.3H8.2c-1.3,0-2.3,1-2.3,2.3v0c0,1.3,1,2.3,2.3,2.3h47.5C56.9,48,58,47,58,45.7z M84.4,69.5  L84.4,69.5c0-1.3-1-2.3-2.3-2.3H34.6c-1.3,0-2.3,1-2.3,2.3l0,0c0,1.3,1,2.3,2.3,2.3h47.5C83.4,71.8,84.4,70.8,84.4,69.5z M24.5,21.8  c0-5.1-4.2-9.3-9.3-9.3s-9.3,4.2-9.3,9.3s4.2,9.3,9.3,9.3S24.5,26.9,24.5,21.8z M19.9,21.8c0,2.6-2.1,4.7-4.7,4.7s-4.7-2.1-4.7-4.7  s2.1-4.7,4.7-4.7S19.9,19.2,19.9,21.8z M84.5,45.7c0-5.1-4.2-9.3-9.3-9.3c-5.1,0-9.3,4.2-9.3,9.3s4.2,9.3,9.3,9.3  C80.4,55,84.5,50.8,84.5,45.7z M79.9,45.7c0,2.6-2.1,4.7-4.7,4.7s-4.7-2.1-4.7-4.7c0-2.6,2.1-4.7,4.7-4.7S79.9,43.1,79.9,45.7z   M24.5,69.5c0-5.1-4.2-9.3-9.3-9.3s-9.3,4.2-9.3,9.3s4.2,9.3,9.3,9.3S24.5,74.7,24.5,69.5z M19.9,69.5c0,2.6-2.1,4.7-4.7,4.7  s-4.7-2.1-4.7-4.7s2.1-4.7,4.7-4.7S19.9,66.9,19.9,69.5z"/><text x="0" y="105" fill="#000000" font-size="5px" font-weight="bold" font-family="'Helvetica Neue', Helvetica, Arial-Unicode, Arial, Sans-serif">Created by Michelle Fosse</text><text x="0" y="110" fill="#000000" font-size="5px" font-weight="bold" font-family="'Helvetica Neue', Helvetica, Arial-Unicode, Arial, Sans-serif">from the Noun Project</text></svg>