<svg xmlns="http://www.w3.org/2000/svg" xmlns:xlink="http://www.w3.org/1999/xlink" version="1.1" x="0px" y="0px" viewBox="0 0 36 45" style="enable-background:new 0 0 36 36;" xml:space="preserve"><g><path d="M14.11,18.75C14.11,18.75,14.11,18.75,14.11,18.75C14.11,18.75,14.11,18.76,14.11,18.75c0,0.01,0,0.01,0,0.01c0,0,0,0,0,0   c0.01,0.07,0.04,0.15,0.07,0.25c0,0,0,0.01,0,0.01l0,0c0.01,0.03,0.01,0.05,0.02,0.08c0,0.01,0.02,0.02,0.02,0.03   c0,0.02,0,0.04,0,0.06c0.03,0.11,0.06,0.21,0.1,0.31c0,0,0,0,0,0c0,0,0,0,0,0c0,0,0,0,0,0v0c0.03,0.08,0.08,0.16,0.14,0.28   c0,0,0,0.01,0.01,0.01l0,0c0.02,0.03,0.03,0.05,0.05,0.08c0.01,0.01,0.02,0.02,0.03,0.03c0.01,0.02,0.01,0.04,0.02,0.06   c0.02,0.04,0.04,0.08,0.06,0.11c0.02,0.04,0.04,0.08,0.06,0.11c0,0,0,0,0,0c0,0,0,0,0,0c0.04,0.06,0.09,0.1,0.13,0.16l-4.09,4.09   c-1.53-1.11-3.8-1-5.16,0.36c-0.75,0.75-1.16,1.74-1.16,2.8c0,1.06,0.41,2.05,1.16,2.8c0.75,0.75,1.74,1.16,2.8,1.16   s2.06-0.41,2.8-1.16c0.75-0.75,1.16-1.74,1.16-2.8c0-0.87-0.29-1.68-0.8-2.36l4.08-4.08c0.06,0.04,0.1,0.09,0.16,0.13c0,0,0,0,0,0   c0,0,0,0,0,0c0.05,0.03,0.12,0.07,0.2,0.11c0.01,0,0.02,0.01,0.03,0.01l0,0c0.03,0.01,0.04,0.02,0.08,0.04   c0.01,0.01,0.03,0,0.04,0.01c0.02,0.01,0.03,0.03,0.04,0.04c0.1,0.05,0.19,0.11,0.29,0.15c0,0,0,0,0,0c0,0,0,0,0,0c0,0,0,0,0,0   s0,0,0,0c0.08,0.03,0.17,0.06,0.3,0.1c0,0,0.01,0,0.01,0l0,0c0.03,0.01,0.05,0.02,0.08,0.02l0.01-0.02   c0.03,0.01,0.05,0.03,0.08,0.04c0.04,0.01,0.09,0.02,0.13,0.04c0.04,0.01,0.08,0.03,0.12,0.03c0,0,0,0,0,0c0,0,0,0,0,0c0,0,0,0,0,0   c0.02,0,0.05,0.01,0.07,0.01c0.05,0.01,0.09,0.01,0.13,0.01l-3.34-3.34C14.1,18.61,14.1,18.68,14.11,18.75z"/><path d="M8.39,12.33c0.87,0,1.68-0.29,2.36-0.8l4.08,4.08c-0.04,0.06-0.09,0.1-0.13,0.16c0,0,0,0,0,0c0,0,0,0,0,0c0,0,0,0,0,0   c0,0,0,0,0,0c0,0,0,0,0,0c-0.05,0.07-0.09,0.15-0.17,0.3c-0.01,0.01-0.01,0.03-0.01,0.04c-0.01,0.01-0.02,0.02-0.03,0.03   c0,0.01-0.01,0.01-0.01,0.02c-0.05,0.09-0.1,0.18-0.14,0.28c0,0,0,0,0,0c-0.03,0.08-0.06,0.17-0.1,0.29c0,0.01-0.01,0.02-0.01,0.02   l0,0c-0.01,0.03-0.01,0.05-0.02,0.08l0.02,0c-0.01,0.03-0.03,0.05-0.04,0.08c-0.01,0.04-0.02,0.09-0.04,0.13   c-0.01,0.04-0.03,0.08-0.03,0.12c0,0,0,0,0,0c0,0,0,0,0,0c0,0,0,0,0,0c0,0,0,0,0,0v0c0,0,0,0,0,0c-0.01,0.07-0.01,0.13-0.02,0.2   l3.34-3.34c-0.07,0.01-0.14,0.01-0.21,0.02c0,0,0,0,0,0c0,0,0,0,0,0c-0.09,0.02-0.17,0.04-0.33,0.1c-0.01,0-0.02,0.01-0.04,0.02   c-0.01,0-0.03,0-0.04,0c0,0-0.01,0-0.01,0c0,0,0,0,0,0c-0.04,0.01-0.08,0.03-0.11,0.04c-0.07,0.02-0.14,0.04-0.2,0.07   c-0.08,0.03-0.17,0.08-0.29,0.15c0,0-0.01,0-0.01,0.01l0,0c-0.03,0.01-0.04,0.02-0.08,0.04l0.01,0.02   c-0.03,0.01-0.06,0.01-0.09,0.02c-0.08,0.04-0.15,0.08-0.23,0.13c0,0,0,0,0,0c0,0,0,0,0,0c0,0,0,0,0,0   c-0.06,0.04-0.11,0.09-0.16,0.13l-4.08-4.08c0.51-0.68,0.8-1.5,0.8-2.36c0-1.06-0.41-2.05-1.16-2.8c-1.5-1.5-4.11-1.5-5.61,0   c-0.75,0.75-1.16,1.74-1.16,2.8c0,1.06,0.41,2.05,1.16,2.8C6.33,11.92,7.33,12.33,8.39,12.33z"/><path d="M21.89,17.21C21.89,17.21,21.89,17.21,21.89,17.21L21.89,17.21C21.89,17.21,21.89,17.21,21.89,17.21   C21.89,17.21,21.89,17.21,21.89,17.21c0-0.01,0-0.01,0-0.01c0,0,0,0,0,0c0,0,0,0,0-0.01c-0.01-0.07-0.04-0.14-0.07-0.24   c0,0,0,0,0,0h0c-0.01-0.03-0.01-0.05-0.03-0.08c0-0.01-0.02-0.03-0.02-0.04c0,0,0-0.01,0-0.01c0-0.01,0-0.02,0-0.03   c-0.02-0.07-0.04-0.14-0.07-0.21c-0.01-0.04-0.02-0.07-0.03-0.11c0,0,0,0,0-0.01c0-0.01-0.01-0.01-0.01-0.02   c-0.04-0.1-0.09-0.2-0.19-0.36l-0.02,0.01c-0.01-0.03-0.01-0.06-0.02-0.09c-0.03-0.05-0.06-0.1-0.09-0.15   c-0.01-0.02-0.03-0.05-0.04-0.08c0,0,0,0,0,0c0,0,0,0,0,0c0,0,0,0,0,0c0,0,0,0,0,0c-0.04-0.06-0.09-0.11-0.13-0.16l4.08-4.08   c0.68,0.51,1.5,0.8,2.36,0.8c1.06,0,2.06-0.41,2.8-1.16c0.75-0.75,1.16-1.74,1.16-2.8c0-1.06-0.41-2.05-1.16-2.8   c-1.5-1.5-4.11-1.5-5.61,0c-0.75,0.75-1.16,1.74-1.16,2.8c0,0.87,0.29,1.68,0.8,2.36l-4.08,4.08c-0.06-0.04-0.1-0.09-0.16-0.13   c0,0,0,0,0,0c0,0,0,0,0,0c0,0,0,0,0,0c-0.06-0.04-0.13-0.07-0.22-0.12c0,0-0.01,0-0.01-0.01l0,0c-0.03-0.01-0.04-0.02-0.08-0.04   c-0.01-0.01-0.03-0.01-0.04-0.01c-0.01-0.01-0.02-0.02-0.04-0.03c-0.1-0.05-0.19-0.11-0.3-0.15c0,0,0,0,0,0h0c0,0,0,0,0,0   c-0.08-0.03-0.18-0.06-0.3-0.1c-0.01,0-0.01,0-0.02,0l0,0c-0.03-0.01-0.05-0.02-0.09-0.03l0,0.02c-0.03-0.01-0.05-0.03-0.07-0.04   c-0.08-0.03-0.17-0.05-0.25-0.07c0,0,0,0,0,0c0,0,0,0,0,0c-0.07-0.01-0.14-0.01-0.21-0.02l3.34,3.34   C21.9,17.35,21.9,17.28,21.89,17.21z"/><path d="M25.25,24.43l-4.09-4.09c0.04-0.06,0.09-0.1,0.13-0.16c0,0,0,0,0,0c0,0,0,0,0,0c0,0,0-0.01,0.01-0.01   c0.03-0.05,0.07-0.12,0.12-0.2c0,0,0-0.01,0-0.01l0,0c0.01-0.03,0.02-0.04,0.04-0.08c0.01-0.02,0.01-0.04,0.02-0.06   c0.01-0.01,0.02-0.02,0.03-0.03c0.05-0.09,0.1-0.19,0.15-0.29v0c0,0,0,0,0,0c0,0,0,0,0,0c0,0,0,0,0,0c0-0.01,0-0.02,0.01-0.02   c0.03-0.07,0.06-0.16,0.09-0.27c0-0.01,0-0.01,0.01-0.02l0,0c0.01-0.03,0.01-0.05,0.02-0.09l-0.01,0c0.01-0.02,0.03-0.05,0.04-0.07   c0.03-0.08,0.05-0.17,0.07-0.26c0,0,0,0,0,0c0,0,0,0,0,0c0,0,0,0,0,0c0,0,0,0,0,0c0.01-0.07,0.01-0.13,0.02-0.2l-3.34,3.34   c0.05-0.01,0.09-0.01,0.13-0.01c0.02,0,0.05,0,0.07-0.01c0,0,0,0,0,0c0,0,0,0,0,0c0,0,0,0,0,0c0,0,0,0,0,0   c0.07-0.01,0.14-0.04,0.25-0.07c0,0,0,0,0,0c0.03-0.01,0.05-0.01,0.08-0.03c0.01,0,0.02-0.01,0.03-0.02c0.02,0,0.04,0,0.06-0.01   c0.11-0.03,0.21-0.06,0.31-0.1c0,0,0,0,0.01,0c0,0,0,0,0,0c0,0,0,0,0,0c0,0,0,0,0,0c0,0,0.01,0,0.01-0.01   c0.07-0.03,0.16-0.07,0.26-0.13c0.01,0,0.01-0.01,0.02-0.01l0,0c0.03-0.02,0.05-0.03,0.08-0.04l-0.01-0.02   c0.03-0.01,0.07-0.01,0.1-0.02c0.04-0.02,0.08-0.05,0.13-0.07c0.03-0.02,0.07-0.03,0.1-0.05c0,0,0,0,0,0c0,0,0,0,0,0   c0.06-0.04,0.11-0.09,0.16-0.13l4.08,4.08c-0.51,0.68-0.8,1.5-0.8,2.36c0,1.06,0.41,2.05,1.16,2.8c0.75,0.75,1.74,1.16,2.8,1.16   s2.06-0.41,2.8-1.16c0.75-0.75,1.16-1.74,1.16-2.8c0-1.06-0.41-2.06-1.16-2.8C29.05,23.43,26.78,23.32,25.25,24.43z"/><path d="M18.79,20.68C18.79,20.68,18.79,20.68,18.79,20.68c0,0,0.1-0.03,0.1-0.03c0.06-0.02,0.13-0.03,0.19-0.06c0,0,0,0,0,0   c0.06-0.02,0.11-0.06,0.17-0.09l0.01,0.02c0.03-0.02,0.04-0.05,0.08-0.07c0.01,0,0.11-0.06,0.12-0.06   c0.04-0.02,0.07-0.04,0.11-0.06c0.15-0.1,0.3-0.22,0.43-0.35c0.03-0.03,0.05-0.07,0.08-0.1c0.1-0.11,0.19-0.22,0.27-0.34   c0,0,0,0,0,0c0.02-0.03,0.04-0.07,0.06-0.1c0-0.01,0.05-0.09,0.06-0.11c0,0,0,0,0,0c0,0,0.05-0.1,0.06-0.1   c0.03-0.06,0.06-0.11,0.09-0.17c0.02-0.06,0.04-0.12,0.06-0.18l0.02,0c0-0.04,0-0.07,0.01-0.11c0,0,0.01-0.03,0.02-0.06   c0.01-0.02,0.01-0.04,0.01-0.05c0.01-0.04,0.03-0.08,0.04-0.13c0,0,0,0,0,0c0.04-0.18,0.06-0.37,0.06-0.55c0,0,0,0,0,0s0,0,0,0   c0-0.19-0.02-0.37-0.06-0.55c0,0,0,0,0,0c0,0,0,0,0,0c0,0,0,0,0,0c-0.01-0.03-0.02-0.06-0.03-0.09c0-0.01-0.01-0.02-0.01-0.03   c0-0.01-0.04-0.11-0.04-0.12c0,0,0,0,0,0c0-0.01-0.03-0.09-0.03-0.09c-0.02-0.07-0.04-0.13-0.06-0.19c0,0,0,0,0,0   c-0.02-0.04-0.04-0.08-0.07-0.13c-0.01-0.01-0.02-0.03-0.02-0.05l0.02-0.02c-0.02-0.03-0.05-0.04-0.07-0.07c0,0,0,0,0,0   c0,0,0,0,0,0c0,0-0.02-0.04-0.04-0.07c-0.01-0.02-0.02-0.04-0.02-0.04c-0.02-0.04-0.04-0.07-0.06-0.11   c-0.1-0.16-0.22-0.3-0.35-0.43c0,0,0,0,0,0c-0.13-0.13-0.28-0.25-0.43-0.35c-0.04-0.02-0.07-0.04-0.11-0.06   c-0.01,0-0.11-0.06-0.11-0.06c0,0,0,0,0,0c0,0-0.09-0.05-0.09-0.05c-0.06-0.03-0.11-0.07-0.17-0.09c-0.06-0.03-0.13-0.04-0.2-0.06   l0-0.01c-0.03,0-0.06,0-0.1-0.01c-0.01,0-0.11-0.04-0.12-0.04c-0.02-0.01-0.04-0.01-0.06-0.02c-0.02-0.01-0.04-0.01-0.06-0.02   c-0.18-0.04-0.37-0.06-0.56-0.06s-0.38,0.02-0.56,0.06c-0.02,0-0.04,0.01-0.06,0.02c-0.02,0.01-0.04,0.01-0.06,0.02   c-0.01,0-0.11,0.04-0.12,0.04c0,0,0,0,0,0c0,0-0.01,0-0.01,0c-0.02,0.01-0.08,0.02-0.08,0.02c-0.07,0.02-0.13,0.03-0.2,0.06   c-0.06,0.02-0.12,0.06-0.17,0.09l-0.01-0.02c-0.03,0.02-0.04,0.05-0.08,0.06c-0.01,0-0.11,0.06-0.11,0.06   c-0.04,0.02-0.08,0.04-0.11,0.06c-0.15,0.1-0.3,0.22-0.43,0.35c0,0,0,0,0,0c-0.13,0.13-0.25,0.28-0.35,0.43   c-0.02,0.03-0.04,0.07-0.06,0.11c0,0-0.01,0.02-0.02,0.04c-0.02,0.03-0.03,0.06-0.04,0.07c0,0,0,0,0,0c0,0-0.05,0.09-0.05,0.09   c-0.03,0.05-0.06,0.1-0.08,0.16c0,0-0.01,0.01-0.01,0.01c0,0,0,0,0,0c-0.01,0.02-0.01,0.05-0.02,0.07   c-0.01,0.04-0.03,0.08-0.04,0.12l0,0c0,0,0,0,0,0l-0.02,0c0,0.03,0,0.06-0.01,0.1c0,0.01-0.04,0.11-0.04,0.12   c0,0.01-0.01,0.02-0.01,0.03c-0.01,0.03-0.02,0.06-0.03,0.09c0,0,0,0,0,0c0,0,0,0,0,0c0,0,0,0,0,0c-0.04,0.18-0.06,0.37-0.06,0.55   c0,0,0,0,0,0s0,0,0,0c0,0.19,0.02,0.37,0.06,0.55c0,0,0,0,0,0c0.01,0.04,0.02,0.09,0.04,0.13l0,0c0,0.01,0.03,0.1,0.03,0.11   c0,0,0,0,0,0c0.01,0.05,0.02,0.08,0.03,0.11c0.01,0.05,0.03,0.1,0.05,0.15c0,0.01,0.01,0.02,0.01,0.03   c0.03,0.06,0.06,0.11,0.09,0.17c0,0,0.06,0.1,0.06,0.1c0,0,0,0,0,0c0.01,0.02,0.05,0.1,0.06,0.11c0.02,0.03,0.03,0.07,0.06,0.1   c0,0,0,0,0,0c0.08,0.12,0.18,0.23,0.27,0.34c0.03,0.03,0.05,0.07,0.08,0.1c0.13,0.13,0.28,0.25,0.43,0.35   c0.03,0.02,0.07,0.04,0.11,0.06c0.01,0,0.09,0.05,0.11,0.06c0,0,0,0,0,0c0,0,0.09,0.05,0.1,0.05c0.05,0.03,0.1,0.06,0.16,0.08   c0,0,0.01,0,0.01,0.01c0,0,0,0,0,0c0.06,0.03,0.13,0.04,0.19,0.06l0,0.02c0.03,0,0.06,0,0.1,0.01c0.01,0,0.12,0.04,0.12,0.04   c0.04,0.01,0.08,0.03,0.12,0.03c0,0,0,0,0,0c0,0,0,0,0,0c0.18,0.04,0.37,0.06,0.55,0.06s0.37-0.02,0.55-0.06c0,0,0,0,0,0   c0,0,0,0,0,0c0.04-0.01,0.08-0.02,0.12-0.03C18.68,20.72,18.78,20.69,18.79,20.68z"/></g><text x="0" y="51" fill="#000000" font-size="5px" font-weight="bold" font-family="'Helvetica Neue', Helvetica, Arial-Unicode, Arial, Sans-serif">Created by worker</text><text x="0" y="56" fill="#000000" font-size="5px" font-weight="bold" font-family="'Helvetica Neue', Helvetica, Arial-Unicode, Arial, Sans-serif">from the Noun Project</text></svg>