<svg xmlns="http://www.w3.org/2000/svg" xmlns:xlink="http://www.w3.org/1999/xlink" viewBox="0 0 95 117.5" version="1.1" x="0px" y="0px"><title>Group 18 Copy 3</title><desc>Created with Sketch.</desc><g stroke="none" stroke-width="1" fill="none" fill-rule="evenodd"><g transform="translate(0.500000, 0.000000)" fill="#000000"><path d="M87.2229979,78.7066481 C87.2609988,80.0758143 88.3846189,81.1818182 89.765164,81.1818182 L91.4568407,81.1818182 C92.8502055,81.1818182 94,80.0441218 94,78.6407022 L94,2.54111601 C94,1.1476117 92.8625365,0 91.4594042,0 L16.0901453,0 C14.6868224,0 13.5495495,1.14177019 13.5495495,2.55021509 L13.5495495,4.29851711 C13.5495495,5.64802703 14.603061,6.75953733 15.9339109,6.84362371 C15.9851763,6.83881921 16.0370533,6.83636364 16.0894304,6.83636364 L85.5321912,6.83636364 C86.4672281,6.83636364 87.2252252,7.58766718 87.2252252,8.54478886 L87.2252252,78.6188475 C87.2252252,78.6482943 87.2244766,78.6775671 87.2229979,78.7066481 Z"/><path d="M0,16.2159502 C0,14.3394146 1.51756638,12.8181818 3.40546986,12.8181818 L77.0449806,12.8181818 C78.9257697,12.8181818 80.4504505,14.3317804 80.4504505,16.2159502 L80.4504505,90.6022316 C80.4504505,92.4787673 78.9328841,94 77.0449806,94 L3.40546986,94 C1.52468079,94 0,92.4864015 0,90.6022316 L0,16.2159502 Z M6.77477477,21.3570828 L6.77477477,85.461099 C6.77477477,86.4054776 7.53770194,87.1636364 8.47882029,87.1636364 L71.9716302,87.1636364 C72.9243472,87.1636364 73.6756757,86.4013844 73.6756757,85.461099 L73.6756757,21.3570828 C73.6756757,20.4127042 72.9127485,19.6545455 71.9716302,19.6545455 L8.47882029,19.6545455 C7.52610325,19.6545455 6.77477477,20.4167974 6.77477477,21.3570828 Z"/></g></g><text x="0" y="109" fill="#000000" font-size="5px" font-weight="bold" font-family="'Helvetica Neue', Helvetica, Arial-Unicode, Arial, Sans-serif">Created by Carly Sanker</text><text x="0" y="114" fill="#000000" font-size="5px" font-weight="bold" font-family="'Helvetica Neue', Helvetica, Arial-Unicode, Arial, Sans-serif">from the Noun Project</text></svg>