<svg xmlns="http://www.w3.org/2000/svg" xmlns:xlink="http://www.w3.org/1999/xlink" version="1.1" x="0px" y="0px" viewBox="0 0 100 125" style="enable-background:new 0 0 100 100;" xml:space="preserve"><path d="M5,24.9V9c0-2.2,1.8-4,4-4h15.9c1.1,0,2,0.9,2,2s-0.9,2-2,2H9v15.9c0,1.1-0.9,2-2,2S5,26,5,24.9z M25,91H9V74.9  c0-1.1-0.9-2-2-2s-2,0.9-2,2V91c0,2.2,1.8,4,4,4h16c1.1,0,2-0.9,2-2S26.1,91,25,91z M93,73c-1.1,0-2,0.9-2,2v16H75c-1.1,0-2,0.9-2,2  s0.9,2,2,2h16c2.2,0,4-1.8,4-4V75C95,73.9,94.1,73,93,73z M91,5H74.9c-1.1,0-2,0.9-2,2s0.9,2,2,2H91v15.9c0,1.1,0.9,2,2,2s2-0.9,2-2  V9C95,6.8,93.2,5,91,5z M62,42v16c0,2.2-1.8,4-4,4H42c-2.2,0-4-1.8-4-4V42c0-2.2,1.8-4,4-4h16C60.2,38,62,39.8,62,42z M58,42H42v16  h16L58,42z"/><text x="0" y="115" fill="#000000" font-size="5px" font-weight="bold" font-family="'Helvetica Neue', Helvetica, Arial-Unicode, Arial, Sans-serif">Created by IconMark</text><text x="0" y="120" fill="#000000" font-size="5px" font-weight="bold" font-family="'Helvetica Neue', Helvetica, Arial-Unicode, Arial, Sans-serif">from the Noun Project</text></svg>