<svg xmlns="http://www.w3.org/2000/svg" xmlns:xlink="http://www.w3.org/1999/xlink" viewBox="0 0 100 125" version="1.1" x="0px" y="0px"><title>Star 4.3</title><desc>Created with Sketch.</desc><g stroke="none" stroke-width="1" fill="none" fill-rule="evenodd"><g fill-rule="nonzero" fill="#000000"><path d="M40.6391572,70.3180858 C37.5874566,71.9224597 35.0179322,70.0577721 35.6010878,66.6577141 L37.3521165,56.4484334 C37.3635214,56.3819373 37.2798105,56.125576 37.2321043,56.079074 L29.8146277,48.8488212 C27.3457501,46.4422604 28.3251467,43.4222772 31.738999,42.9262154 L41.9896995,41.4367015 C42.0564654,41.4269998 42.2744114,41.268166 42.3038955,41.2084247 L46.8881481,31.9197143 C48.4139984,28.828004 51.5888232,28.8262394 53.1155444,31.9197143 L57.699797,41.2084247 C57.7296556,41.2689249 57.9480646,41.4271215 58.013993,41.4367015 L68.2646935,42.9262154 C71.6765984,43.4219942 72.6593515,46.4408868 70.1890648,48.8488212 L62.7715882,56.079074 C62.7232759,56.1261668 62.6403141,56.3827715 62.651576,56.4484334 L64.4026047,66.6577141 C64.9854277,70.0558326 62.4179776,71.9233754 59.3645353,70.3180858 L50.19603,65.4979173 C50.1363128,65.4665221 49.8666306,65.4669159 49.8076625,65.4979173 L40.6391572,70.3180858 Z M51.5920534,62.8425231 L60.7605587,67.6626915 C61.6122463,68.1104502 61.6084381,68.1132203 61.4457797,67.1648493 L59.694751,56.9555686 C59.5168515,55.9183346 59.9210061,54.6682659 60.6775531,53.9308149 L68.0950297,46.7005622 C68.7840595,46.0289241 68.7855172,46.0334019 67.8332985,45.8950365 L57.582598,44.4055225 C56.5411559,44.2541921 55.4771605,43.4835257 55.0095888,42.5361219 L50.4253362,33.2474115 C49.9994923,32.3845577 50.0042014,32.384555 49.5783563,33.2474115 L44.9941037,42.5361219 C44.5283566,43.4798285 43.4666167,44.2535992 42.4210945,44.4055225 L32.1703939,45.8950365 C31.2181782,46.0334015 31.2196309,46.0289221 31.9086628,46.7005622 L39.3261394,53.9308149 C40.079734,54.6653881 40.487538,55.914271 40.3089414,56.9555686 L38.5579127,67.1648493 C38.3952549,68.1132174 38.3914436,68.1104516 39.2431338,67.6626915 L48.4116391,62.8425231 C49.3431332,62.3528076 50.6569099,62.350889 51.5920534,62.8425231 Z"/></g></g><text x="0" y="115" fill="#000000" font-size="5px" font-weight="bold" font-family="'Helvetica Neue', Helvetica, Arial-Unicode, Arial, Sans-serif">Created by Landan Lloyd</text><text x="0" y="120" fill="#000000" font-size="5px" font-weight="bold" font-family="'Helvetica Neue', Helvetica, Arial-Unicode, Arial, Sans-serif">from the Noun Project</text></svg>