<svg xmlns="http://www.w3.org/2000/svg" xmlns:xlink="http://www.w3.org/1999/xlink" version="1.1" x="0px" y="0px" viewBox="0 0 100 125" style="enable-background:new 0 0 100 100;" xml:space="preserve"><rect x="47.4" y="1.7" width="5.1" height="5.1"/><rect x="47.4" y="93.2" width="5.1" height="5.1"/><rect x="13.9" y="78.5" width="5.1" height="5.1"/><rect x="79.5" y="78.5" width="5.1" height="5.1"/><rect x="13.9" y="15.7" width="5.1" height="5.1"/><rect x="79.5" y="15.7" width="5.1" height="5.1"/><rect x="1.1" y="47" width="5.1" height="5.1"/><rect x="93.8" y="47" width="5.1" height="5.1"/><path d="M10.4,24.3c-3.8,5.8-6.2,12.2-7.1,19.1L3.2,44h3l0.1-0.5c1-6.7,3.5-13.1,7.3-18.7l0.6-0.8h-3.5L10.4,24.3z"/><path d="M6.1,55.6L6,55.1H3.1l0.1,0.6c0.9,7.1,3.2,13.6,7,19.6l0.2,0.2h3.5l-0.6-0.8C9.5,69,7,62.4,6.1,55.6z"/><path d="M93.7,43.6l0.1,0.5h3l-0.1-0.6c-1-6.9-3.4-13.3-7.1-19.1l-0.2-0.2h-3.5l0.6,0.8  C90.2,30.5,92.7,36.9,93.7,43.6z"/><path d="M93.9,55.1l-0.1,0.5c-0.9,6.8-3.4,13.5-7.2,19.1L86,75.6h3.5l0.2-0.2c3.8-5.9,6.2-12.5,7-19.6l0.1-0.6  L93.9,55.1L93.9,55.1z"/><path d="M74.1,13l0.1,0.1h5l-1.3-1C71.6,7.3,64,4.2,56.1,3.2l-0.6-0.1v3L56,6.2C62.5,7.1,68.6,9.3,74.1,13z"/><path d="M21.9,12.1l-1.3,1h5l0.1-0.1C31.3,9.3,37.4,7.1,44,6.2l0.5-0.1v-3l-0.6,0.1C35.9,4.2,28.3,7.3,21.9,12.1z"/><path d="M74.6,86.8c-5.6,3.7-12,6.2-18.7,7.1l-0.5,0.1v3l0.6-0.1c8.1-1.1,15.8-4.2,22.3-9.2l1.3-1L74.6,86.8  L74.6,86.8z"/><path d="M25.3,86.8l-0.2-0.1h-4.9l1.3,1c6.5,5,14.3,8.1,22.4,9.2l0.6,0.1v-3L44,93.8C37.3,92.9,30.8,90.4,25.3,86.8  z"/><path d="M71.2,36.8l-3.9,1.5c-1.4-2.1-3.2-3.9-5.3-5.4l1.9-4.5c0.1-0.3,0.1-0.7,0-1c-0.1-0.3-0.4-0.6-0.7-0.7l-6-2.6  c-0.7-0.3-1.4,0-1.7,0.7l-2,4.6C51.3,29,49,29,46.7,29.3l-1.7-4.2c-0.3-0.7-1-1-1.7-0.7l-6.1,2.4c-0.7,0.3-1,1-0.7,1.7l1.6,4.1  c-2,1.3-3.7,3-5.1,4.9l-4.9-2.1c-0.7-0.3-1.4,0-1.7,0.7l-2.6,6c-0.1,0.3-0.1,0.7,0,1s0.4,0.6,0.7,0.7l4.7,2  c-0.5,2.5-0.6,5.1-0.2,7.7l-3.9,1.5c-0.7,0.3-1,1-0.7,1.7l2.4,6.1c0.3,0.7,1,1,1.7,0.7l3.9-1.5c1.3,1.9,3,3.6,4.8,5l-1.9,4.3  c-0.1,0.3-0.1,0.7,0,1c0.1,0.3,0.4,0.6,0.7,0.7l6,2.6c0.3,0.1,0.7,0.1,1,0s0.6-0.4,0.7-0.7l1.8-4.2c2.5,0.5,5.2,0.6,7.8,0.1l1.4,3.5  c0.3,0.7,1,1,1.7,0.7l6.1-2.4c0.7-0.3,1-1,0.7-1.7l-1.4-3.6c2.1-1.5,3.9-3.2,5.3-5.3l3.6,1.5c0.3,0.1,0.7,0.1,1,0  c0.3-0.1,0.6-0.4,0.7-0.7l2.6-6c0.1-0.3,0.1-0.7,0-1c-0.1-0.3-0.4-0.6-0.7-0.7l-3.7-1.6c0.4-2.3,0.4-4.6,0-7l3.9-1.5  c0.7-0.3,1-1,0.7-1.7l-2.4-6C72.6,36.8,71.9,36.5,71.2,36.8z M54.7,62.2c-6.6,2.6-14.2-0.6-16.8-7.2s0.6-14.2,7.2-16.8  c6.6-2.6,14.2,0.6,16.8,7.2C64.6,52,61.3,59.5,54.7,62.2z"/><text x="0" y="115" fill="#000000" font-size="5px" font-weight="bold" font-family="'Helvetica Neue', Helvetica, Arial-Unicode, Arial, Sans-serif">Created by Aneeque Ahmed</text><text x="0" y="120" fill="#000000" font-size="5px" font-weight="bold" font-family="'Helvetica Neue', Helvetica, Arial-Unicode, Arial, Sans-serif">from the Noun Project</text></svg>