<svg xmlns="http://www.w3.org/2000/svg" xmlns:xlink="http://www.w3.org/1999/xlink" version="1.1" x="0px" y="0px" viewBox="0 0 66 82.5" enable-background="new 0 0 66 66" xml:space="preserve"><g><g><path d="M3.5,17.7c0,6.6,3.8,12.6,9.9,15.3v29c0,1.7,1.3,3,3,3c34.2,0,32.5,0.2,32.9-0.3c13.9-14,13-12.9,13.1-13.3    c0-0.1,0.1-0.3,0.1-0.3V12.8c0-1.7-1.3-3-3-3H34.9C32.1,4.5,26.5,1,20.2,1C11,1,3.5,8.5,3.5,17.7L3.5,17.7L3.5,17.7L3.5,17.7z     M6.5,16.7H5.5c0.2-3.3,1.5-6.3,3.6-8.7l0.7,0.7c0.4,0.4,1,0.4,1.4,0c0.4-0.4,0.4-1,0-1.4l-0.7-0.7c2.4-2.1,5.4-3.4,8.7-3.6V4    c0,0.6,0.4,1,1,1s1-0.4,1-1V3c3.3,0.2,6.3,1.5,8.7,3.6l-0.7,0.7c-0.4,0.4-0.4,1,0,1.4c0.4,0.4,1,0.4,1.4,0l0.7-0.7    c2.1,2.4,3.4,5.4,3.6,8.7h-0.9c-0.6,0-1,0.4-1,1c0,0.6,0.4,1,1,1h0.9c-0.2,3.3-1.5,6.3-3.6,8.7l-0.7-0.7c-0.4-0.4-1-0.4-1.4,0    c-0.4,0.4-0.4,1,0,1.4l0.7,0.7c-2.4,2.1-5.4,3.4-8.7,3.6v-0.9c0-0.6-0.4-1-1-1s-1,0.4-1,1v0.9c-3.3-0.2-6.3-1.5-8.7-3.6l0.7-0.7    c0.4-0.4,0.4-1,0-1.4c-0.4-0.4-1-0.4-1.4,0l-0.7,0.7c-2.1-2.4-3.4-5.4-3.6-8.7h0.9c0.6,0,1-0.4,1-1C7.5,17.2,7,16.7,6.5,16.7z     M49.6,61.6v-9.5h9.5L49.6,61.6z M59.5,11.8c0.6,0,1,0.4,1,1v37.3H48.6c-0.6,0-1,0.4-1,1V63H16.4c-0.6,0-1-0.4-1-1V33.8    c1.5,0.5,3.1,0.7,4.8,0.7c9.2,0,16.7-7.5,16.7-16.7c0,0,0,0,0,0c0,0,0,0,0,0c0-2.1-0.4-4.1-1.1-5.9H59.5z"/></g><g><path d="M15.7,28.4c0.5,0.2,1.1,0,1.3-0.5l3.8-9.1h8.2c0.6,0,1-0.4,1-1c0-0.6-0.4-1-1-1h-8.9c-0.4,0-0.8,0.2-0.9,0.6l-4.1,9.7    C15,27.6,15.2,28.2,15.7,28.4z"/></g><g><path d="M41.2,50.1H22.6c-0.6,0-1,0.4-1,1c0,0.6,0.4,1,1,1h18.7c0.6,0,1-0.4,1-1C42.2,50.5,41.8,50.1,41.2,50.1z"/></g><g><path d="M55.1,41H22.6c-0.6,0-1,0.4-1,1c0,0.6,0.4,1,1,1h32.5c0.6,0,1-0.4,1-1C56.1,41.4,55.6,41,55.1,41z"/></g><g><path d="M36.6,32.8c0,0.6,0.4,1,1,1h17.5c0.6,0,1-0.4,1-1c0-0.6-0.4-1-1-1H37.6C37,31.8,36.6,32.3,36.6,32.8z"/></g><g><path d="M42.6,24.7h12.5c0.6,0,1-0.4,1-1c0-0.6-0.4-1-1-1H42.6c-0.6,0-1,0.4-1,1C41.6,24.3,42,24.7,42.6,24.7z"/></g></g><text x="0" y="81" fill="#000000" font-size="5px" font-weight="bold" font-family="'Helvetica Neue', Helvetica, Arial-Unicode, Arial, Sans-serif">Created by ProSymbols</text><text x="0" y="86" fill="#000000" font-size="5px" font-weight="bold" font-family="'Helvetica Neue', Helvetica, Arial-Unicode, Arial, Sans-serif">from the Noun Project</text></svg>