<?xml version="1.0" encoding="UTF-8"?>
<svg width="700pt" height="700pt" version="1.1" viewBox="0 0 700 700" xmlns="http://www.w3.org/2000/svg" xmlns:xlink="http://www.w3.org/1999/xlink">
 <defs>
  <symbol id="e" overflow="visible">
   <path d="m39.078-2.3281c-2.0117 1.043-4.1094 1.8281-6.2969 2.3594s-4.4648 0.79688-6.8281 0.79688c-7.0859 0-12.699-1.9766-16.844-5.9375-4.1367-3.957-6.2031-9.3281-6.2031-16.109 0-6.7891 2.0664-12.164 6.2031-16.125 4.1445-3.9688 9.7578-5.9531 16.844-5.9531 2.3633 0 4.6406 0.26562 6.8281 0.79688s4.2852 1.3242 6.2969 2.375v8.7969c-2.0312-1.3828-4.0391-2.3984-6.0156-3.0469-1.9688-0.64453-4.0469-0.96875-6.2344-0.96875-3.9062 0-6.9844 1.2578-9.2344 3.7656-2.2422 2.5-3.3594 5.9531-3.3594 10.359 0 4.3867 1.1172 7.8359 3.3594 10.344 2.25 2.5 5.3281 3.75 9.2344 3.75 2.1875 0 4.2656-0.32031 6.2344-0.96875 1.9766-0.64453 3.9844-1.6602 6.0156-3.0469z"/>
  </symbol>
  <symbol id="a" overflow="visible">
   <path d="m16.031-40.953v9.0625h10.516v7.2812h-10.516v13.531c0 1.4805 0.28906 2.4805 0.875 3 0.59375 0.52344 1.7656 0.78125 3.5156 0.78125h5.2344v7.2969h-8.7344c-4.0312 0-6.8867-0.83594-8.5625-2.5156-1.6797-1.6875-2.5156-4.5391-2.5156-8.5625v-13.531h-5.0781v-7.2812h5.0781v-9.0625z"/>
  </symbol>
  <symbol id="d" overflow="visible">
   <path d="m26.594-27.234v-17.078h10.266v44.312h-10.266v-4.6094c-1.3984 1.875-2.9453 3.25-4.6406 4.125-1.6875 0.875-3.6406 1.3125-5.8594 1.3125-3.9297 0-7.1562-1.5625-9.6875-4.6875-2.5234-3.125-3.7812-7.1445-3.7812-12.062 0-4.9141 1.2578-8.9375 3.7812-12.062 2.5312-3.125 5.7578-4.6875 9.6875-4.6875 2.1953 0 4.1445 0.44531 5.8438 1.3281 1.707 0.88672 3.2578 2.2578 4.6562 4.1094zm-6.7188 20.656c2.1875 0 3.8516-0.79688 5-2.3906 1.1445-1.5938 1.7188-3.9102 1.7188-6.9531 0-3.0391-0.57422-5.3594-1.7188-6.9531-1.1484-1.5938-2.8125-2.3906-5-2.3906-2.168 0-3.8242 0.79688-4.9688 2.3906-1.1484 1.5938-1.7188 3.9141-1.7188 6.9531 0 3.043 0.57031 5.3594 1.7188 6.9531 1.1445 1.5938 2.8008 2.3906 4.9688 2.3906z"/>
  </symbol>
  <symbol id="c" overflow="visible">
   <path d="m21.875-6.5781c2.1758 0 3.8359-0.79688 4.9844-2.3906 1.1562-1.5938 1.7344-3.9102 1.7344-6.9531 0-3.0391-0.57812-5.3594-1.7344-6.9531-1.1484-1.5938-2.8086-2.3906-4.9844-2.3906-2.1875 0-3.8672 0.80469-5.0312 2.4062-1.168 1.6055-1.75 3.918-1.75 6.9375 0 3.0234 0.58203 5.3359 1.75 6.9375 1.1641 1.6055 2.8438 2.4062 5.0312 2.4062zm-6.7812-20.656c1.4062-1.8516 2.9609-3.2227 4.6719-4.1094 1.707-0.88281 3.6719-1.3281 5.8906-1.3281 3.9375 0 7.1641 1.5625 9.6875 4.6875 2.5195 3.125 3.7812 7.1484 3.7812 12.062 0 4.918-1.2617 8.9375-3.7812 12.062-2.5234 3.125-5.75 4.6875-9.6875 4.6875-2.2188 0-4.1836-0.44531-5.8906-1.3281-1.7109-0.88281-3.2656-2.2539-4.6719-4.1094v4.6094h-10.188v-44.312h10.188z"/>
  </symbol>
  <symbol id="b" overflow="visible">
   <path d="m5.3594-42.516h10.953v42.516h-10.953z"/>
  </symbol>
 </defs>
 <g>
  <path d="m571.67 466.67h-221.67v-23.336h221.67c9.2812 0 18.184-3.6875 24.746-10.25 6.5664-6.5625 10.254-15.465 10.254-24.75v-93.332h23.332v93.332c-0.019531 15.465-6.1719 30.293-17.105 41.23-10.938 10.934-25.762 17.086-41.227 17.105z"/>
  <path d="m221.67 548.33h-23.336c-0.75781-13.633 3.6094-27.059 12.242-37.637 8.6367-10.578 20.914-17.543 34.426-19.527v-24.5h-116.67c-15.465-0.019531-30.289-6.1719-41.227-17.105-10.934-10.938-17.086-25.766-17.105-41.23v-256.66c0.019531-15.465 6.1719-30.293 17.105-41.23 10.938-10.934 25.762-17.086 41.227-17.105h105v23.332l-105 0.003907c-9.2812 0-18.184 3.6875-24.746 10.25-6.5664 6.5625-10.254 15.465-10.254 24.75v256.66c0 9.2852 3.6875 18.188 10.254 24.75 6.5625 6.5625 15.465 10.25 24.746 10.25h128.34c3.0938 0 6.0586 1.2305 8.25 3.418 2.1875 2.1875 3.4141 5.1562 3.4141 8.25v46.668c0 3.0938-1.2266 6.0586-3.4141 8.25-2.1914 2.1875-5.1562 3.4141-8.25 3.4141-9.4297-0.50391-18.629 3.0234-25.305 9.6992s-10.199 15.875-9.6953 25.301z"/>
  <path d="m501.67 548.33h-23.336c0.5-9.4258-3.0273-18.621-9.6992-25.297-6.6758-6.6758-15.871-10.203-25.301-9.7031-6.4414 0-11.664-5.2227-11.664-11.664v-46.668h23.332v36.168c13.512 1.9844 25.789 8.9492 34.426 19.527 8.6328 10.578 13 24.004 12.242 37.637z"/>
  <path d="m175 536.67h350v23.332h-350z"/>
  <path d="m256.67 490h93.332v23.332h-93.332z"/>
  <path d="m513.33 396.67h-256.66c-9.2852 0-18.188-3.6875-24.75-10.254-6.5625-6.5625-10.25-15.465-10.25-24.746v-254.68c0.18359-6.2227-1.9844-12.285-6.0742-16.98-4.0898-4.6914-9.8008-7.6719-15.988-8.3359-6.4062-0.35156-12.672 1.9531-17.328 6.3672-4.6562 4.4141-7.2852 10.551-7.2773 16.965h-23.332c0.03125-12.789 5.2891-25.012 14.547-33.832 9.2734-8.8555 21.801-13.469 34.602-12.742 12.184 0.89844 23.555 6.4375 31.773 15.473 8.2188 9.0312 12.66 20.875 12.41 33.086v254.68c0 3.0938 1.2305 6.0586 3.418 8.25 2.1875 2.1875 5.1562 3.4141 8.25 3.4141h256.66c3.0938 0 6.0625-1.2266 8.25-3.4141 2.1875-2.1914 3.418-5.1562 3.418-8.25v-46.668c0-9.2812 3.6875-18.184 10.25-24.75 6.5664-6.5625 15.469-10.25 24.75-10.25h35c3.0938 0 6.0625-1.2305 8.25-3.418s3.418-5.1562 3.418-8.25v-233.33c0-3.0938-1.2305-6.0625-3.418-8.25s-5.1562-3.418-8.25-3.418h-233.33c-6.4453 0-11.668 5.2266-11.668 11.668v233.33c0 3.0938 1.2305 6.0625 3.418 8.25s5.1562 3.418 8.25 3.418h140v23.332h-140c-9.2852 0-18.188-3.6875-24.75-10.25s-10.25-15.465-10.25-24.75v-233.33c0-9.2812 3.6875-18.184 10.25-24.75 6.5625-6.5625 15.465-10.25 24.75-10.25h233.33c9.2812 0 18.184 3.6875 24.75 10.25 6.5625 6.5664 10.25 15.469 10.25 24.75v233.33c0 9.2852-3.6875 18.188-10.25 24.75-6.5664 6.5625-15.469 10.25-24.75 10.25h-35c-6.4414 0-11.668 5.2266-11.668 11.668v46.668c0 9.2812-3.6875 18.184-10.25 24.746-6.5625 6.5664-15.465 10.254-24.75 10.254z"/>
  <path d="m198.33 58.332h105v23.332h-105z"/>
  <path d="m455 116.67h-58.332c-6.4453 0-11.668-5.2266-11.668-11.668v-93.332h23.332v81.664h35v-81.664h23.332l0.003907 93.332c0 3.0938-1.2305 6.0625-3.418 8.25s-5.1562 3.418-8.25 3.418z"/>
  <path d="m81.668 361.67h116.67v23.332h-116.67z"/>
  <path d="m140 198.33h-23.332v-23.332c0-9.2812 3.6875-18.184 10.25-24.75 6.5625-6.5625 15.465-10.25 24.75-10.25h23.332v23.332h-23.332c-6.4453 0-11.668 5.2266-11.668 11.668z"/>
  <path d="m268.33 326.67h186.67v23.332h-186.67z"/>
  <path d="m478.33 326.67h23.332v23.332h-23.332z"/>
  <path d="m268.33 280h46.668v23.332h-46.668z"/>
  <path d="m268.33 233.33h46.668v23.332h-46.668z"/>
  <path d="m268.33 186.67h46.668v23.332h-46.668z"/>
  <path d="m268.33 140h46.668v23.332h-46.668z"/>
  <use x="70" y="735" xlink:href="#e"/>
  <use x="220.503906" y="735" xlink:href="#a"/>
  <use x="287.953125" y="735" xlink:href="#d"/>
  <use x="350.015625" y="735" xlink:href="#c"/>
  <use x="450.105469" y="735" xlink:href="#b"/>
  <use x="622.714844" y="735" xlink:href="#a"/>
 </g>
</svg>
