<svg xmlns="http://www.w3.org/2000/svg" xmlns:xlink="http://www.w3.org/1999/xlink" version="1.1" x="0px" y="0px" viewBox="206 206 100 125" enable-background="new 206 206 100 100" xml:space="preserve"><path d="M288.506,217.874c-0.017-0.509-0.435-0.914-0.944-0.914h-10.784v-2.715c0-0.522-0.424-0.945-0.946-0.945h-19.846H236.14  c-0.522,0-0.945,0.423-0.945,0.945v2.715h-10.757c-0.51,0-0.928,0.405-0.944,0.915c-0.009,0.268-0.192,6.656,1.86,13.61  c2.721,9.218,8.123,14.971,15.634,16.667c4.318,5.972,9.486,8.948,11.185,9.816v8.329h-5.021c-0.521,0-0.945,0.423-0.945,0.946  v2.953h-4.791c-0.521,0-0.945,0.424-0.945,0.945v2.957h-4.332c-0.522,0-0.945,0.423-0.945,0.945v16.03h-1.121  c-0.522,0-0.945,0.423-0.945,0.945v5.736c0,0.521,0.423,0.944,0.945,0.944h43.821c0.522,0,0.945-0.423,0.945-0.944v-5.736  c0-0.522-0.423-0.945-0.945-0.945h-1.118v-16.03c0-0.522-0.424-0.945-0.946-0.945H271.5v-2.957c0-0.521-0.423-0.945-0.944-0.945  h-4.791v-2.953c0-0.523-0.423-0.946-0.944-0.946h-5.021v-8.329c1.698-0.867,6.862-3.841,11.182-9.809  c7.527-1.688,12.941-7.443,15.666-16.674C288.699,224.531,288.515,218.142,288.506,217.874z M241.215,286.945v-6.828h29.543v6.828  H241.215z M227.18,230.993c-1.535-5.177-1.771-10.15-1.798-12.144h9.814v15.354c0,0.055,0.004,0.109,0.014,0.164  c0.719,4.099,2.126,7.911,4.188,11.366C233.583,243.691,229.478,238.745,227.18,230.993z M284.822,230.993  c-2.304,7.767-6.42,12.716-12.253,14.752c2.064-3.459,3.474-7.275,4.194-11.377c0.009-0.054,0.015-0.108,0.015-0.164V218.85h9.842  C286.592,220.843,286.356,225.816,284.822,230.993z"/><text x="206" y="321" fill="#000000" font-size="5px" font-weight="bold" font-family="'Helvetica Neue', Helvetica, Arial-Unicode, Arial, Sans-serif">Created by Iconika</text><text x="206" y="326" fill="#000000" font-size="5px" font-weight="bold" font-family="'Helvetica Neue', Helvetica, Arial-Unicode, Arial, Sans-serif">from the Noun Project</text></svg>