<svg xmlns="http://www.w3.org/2000/svg" xmlns:xlink="http://www.w3.org/1999/xlink" version="1.1" x="0px" y="0px" viewBox="0 0 100 125" style="enable-background:new 0 0 100 100;" xml:space="preserve"><path d="M26,77.9c-4.5,0-8.1,3.6-8.1,8.1s3.6,8.1,8.1,8.1s8.1-3.6,8.1-8.1C34.2,81.5,30.5,77.9,26,77.9z"/><path d="M54.5,68.8L50,73.2l-4.4-4.4c-0.8-0.8-2.1-0.8-2.9,0s-0.8,2.1,0,2.9l4.4,4.4l-4.4,4.4  c-0.8,0.8-0.8,2.1,0,2.9s2.1,0.8,2.9,0L50,79l4.4,4.4c0.8,0.8,2.1,0.8,2.9,0s0.8-2.1,0-2.9l-4.4-4.4l4.4-4.4c0.8-0.8,0.8-2.1,0-2.9  S55.2,68,54.5,68.8z"/><path d="M70.2,44.7c-0.3,0.7-0.7,1.3-1.2,1.9c-1.1,1.4-2.6,2.5-4.2,3.2c-1.1,0.5-2.5,1-2.9,2.2  c-0.3,1,0.3,2.2,1.3,2.5c1,0.3,2-0.2,3-0.6c3.6-1.6,6.7-4.5,8.3-8.1c1.6-3.6,1.6-7.6,1.7-11.5c1.2,1,2.4,2,3.6,3  c0.4,0.3,0.9,0.7,1.4,0.7c0.6,0,1.1-0.4,1.5-0.8c0.3-0.3,0.6-0.6,0.7-1.1c0.1-0.8-0.4-1.5-1-2c-2.2-2.3-4.4-4.6-6.7-6.7  c-0.5-0.5-1.1-0.9-1.7-1c-0.8,0-1.4,0.6-2,1.1c-1.5,1.5-2.9,3-4.4,4.4c-0.7,0.7-1.5,1.5-2.2,2.2c-0.6,0.6-1,1.3-0.8,2.1  c0.1,0.5,0.5,0.9,0.9,1.3c0.4,0.3,0.9,0.5,1.4,0.4c0.4-0.1,0.7-0.3,1.1-0.6c1.2-1,2.4-2,3.6-3c0,2.1,0.1,4.3-0.2,6.4  C71.2,42.1,70.8,43.5,70.2,44.7z"/><path d="M54.7,27l-4.4,4.4L45.9,27c-0.8-0.8-2.1-0.8-2.9,0s-0.8,2.1,0,2.9l4.4,4.4L43,38.7c-0.8,0.8-0.8,2.1,0,2.9  s2.1,0.8,2.9,0l4.4-4.4l4.4,4.4c0.8,0.8,2.1,0.8,2.9,0s0.8-2.1,0-2.9l-4.4-4.4l4.4-4.4c0.8-0.8,0.8-2.1,0-2.9S55.5,26.2,54.7,27z"/><path d="M78.6,58.6L74.1,63l-4.4-4.4c-0.8-0.8-2.1-0.8-2.9,0s-0.8,2.1,0,2.9l4.4,4.4l-4.4,4.4c-0.8,0.8-0.8,2.1,0,2.9  s2.1,0.8,2.9,0l4.4-4.4l4.4,4.4c0.8,0.8,2.1,0.8,2.9,0s0.8-2.1,0-2.9L77,65.9l4.4-4.4c0.8-0.8,0.8-2.1,0-2.9S79.4,57.8,78.6,58.6z"/><path d="M73.9,6.8c-4.5,0-8.1,3.6-8.1,8.1s3.6,8.1,8.1,8.1s8.1-3.6,8.1-8.1S78.4,6.8,73.9,6.8z"/><circle cx="26" cy="72" r="2.5"/><circle cx="26" cy="63.5" r="2.5"/><circle cx="31.4" cy="57.1" r="2.5"/><circle cx="39" cy="53.5" r="2.5"/><circle cx="47.5" cy="53.3" r="2.5"/><circle cx="56" cy="53.3" r="2.5"/><text x="0" y="115" fill="#000000" font-size="5px" font-weight="bold" font-family="'Helvetica Neue', Helvetica, Arial-Unicode, Arial, Sans-serif">Created by Ale Em</text><text x="0" y="120" fill="#000000" font-size="5px" font-weight="bold" font-family="'Helvetica Neue', Helvetica, Arial-Unicode, Arial, Sans-serif">from the Noun Project</text></svg>