<svg xmlns="http://www.w3.org/2000/svg" xmlns:xlink="http://www.w3.org/1999/xlink" version="1.1" x="0px" y="0px" viewBox="0 0 16 20" style="enable-background:new 0 0 16 16;" xml:space="preserve"><g><path d="M4.477,4.477C5.399,3.555,6.656,3,8,3c2.282,0,4.273,1.542,4.842,3.749l1.938-0.499C13.982,3.159,11.194,1,8,1   C6.118,1,4.358,1.777,3.067,3.067L1,1v6h6L4.477,4.477z"/><path d="M15,9H9l2.522,2.522C10.601,12.444,9.344,13,8,13c-2.281,0-4.272-1.542-4.842-3.749l-1.937,0.5C2.019,12.842,4.807,15,8,15   c1.882,0,3.642-0.777,4.933-2.067L15,15V9z"/></g><text x="0" y="31" fill="#000000" font-size="5px" font-weight="bold" font-family="'Helvetica Neue', Helvetica, Arial-Unicode, Arial, Sans-serif">Created by Rflor</text><text x="0" y="36" fill="#000000" font-size="5px" font-weight="bold" font-family="'Helvetica Neue', Helvetica, Arial-Unicode, Arial, Sans-serif">from the Noun Project</text></svg>