<svg xmlns="http://www.w3.org/2000/svg" data-name="Layer 1" viewBox="0 0 64 80" x="0px" y="0px"><title>sea-shell-vector-animal-beach-beautiful-pearl</title><path d="M53.7,20.865c-.11,0-.227.009-.343.016a54.5,54.5,0,0,1-19.017,34.09l-.219.182A28,28,0,0,0,59.948,27.271v-.163A6.251,6.251,0,0,0,53.7,20.865Z"/><path d="M31.974,57.244a29.867,29.867,0,0,1-8.821-1.326l-3.3,4.124H44.142L40.191,56.09A29.891,29.891,0,0,1,31.974,57.244Z"/><path d="M51.5,19.868v-.016A6.234,6.234,0,0,0,40.142,16.3L33.479,53.071A52.622,52.622,0,0,0,51.5,19.868Z"/><path d="M29.656,54.971a54.528,54.528,0,0,1-19.069-34.09c-.116-.007-.233-.016-.343-.016A6.251,6.251,0,0,0,4,27.108v.163A28.006,28.006,0,0,0,29.88,55.158Z"/><path d="M38.192,15.848a6.23,6.23,0,0,0-12.436,0L32,50.034Z"/><path d="M30.517,53.067,23.806,16.3a6.234,6.234,0,0,0-11.355,3.563A52.641,52.641,0,0,0,30.517,53.067Z"/><text x="0" y="79" fill="#000000" font-size="5px" font-weight="bold" font-family="'Helvetica Neue', Helvetica, Arial-Unicode, Arial, Sans-serif">Created by Turkkub</text><text x="0" y="84" fill="#000000" font-size="5px" font-weight="bold" font-family="'Helvetica Neue', Helvetica, Arial-Unicode, Arial, Sans-serif">from the Noun Project</text></svg>