<svg xmlns="http://www.w3.org/2000/svg" xmlns:xlink="http://www.w3.org/1999/xlink" version="1.1" x="0px" y="0px" viewBox="0 0 48 60" style="enable-background:new 0 0 48 48;" xml:space="preserve"><path d="M33,21.5H22c-0.6,0-1,0.4-1,1v3c0,0.6,0.4,1,1,1h11c0.6,0,1-0.4,1-1v-3C34,22,33.6,21.5,33,21.5z"/><path d="M33,29h-4c-0.6,0-1,0.4-1,1v3c0,0.6,0.4,1,1,1h4c0.6,0,1-0.4,1-1v-3C34,29.4,33.6,29,33,29z"/><path d="M33,14H15c-0.6,0-1,0.4-1,1v3c0,0.6,0.4,1,1,1h18c0.6,0,1-0.4,1-1v-3C34,14.4,33.6,14,33,14z"/><text x="0" y="63" fill="#000000" font-size="5px" font-weight="bold" font-family="'Helvetica Neue', Helvetica, Arial-Unicode, Arial, Sans-serif">Created by Max Burnside</text><text x="0" y="68" fill="#000000" font-size="5px" font-weight="bold" font-family="'Helvetica Neue', Helvetica, Arial-Unicode, Arial, Sans-serif">from the Noun Project</text></svg>