<svg xmlns="http://www.w3.org/2000/svg" xmlns:xlink="http://www.w3.org/1999/xlink" version="1.1" x="0px" y="0px" viewBox="0 0 100 125" enable-background="new 0 0 100 100" xml:space="preserve"><path fill="#000000" d="M84.6,34.2H13.4c-4.1,0-7.5-3.3-7.5-7.5l0,0c0-4.1,3.3-7.5,7.5-7.5h71.2  c4.1,0,7.5,3.3,7.5,7.5l0,0C92.1,30.8,88.8,34.2,84.6,34.2z"/><path fill="#000000" d="M72.3,58.4H13.4c-4.1,0-7.5-3.3-7.5-7.5l0,0c0-4.1,3.3-7.5,7.5-7.5h58.9  c4.1,0,7.5,3.3,7.5,7.5l0,0C79.8,55,76.4,58.4,72.3,58.4z"/><path fill="#000000" d="M84.6,82.6H13.4c-4.1,0-7.5-3.3-7.5-7.5l0,0c0-4.1,3.3-7.5,7.5-7.5h71.2  c4.1,0,7.5,3.3,7.5,7.5l0,0C92.1,79.2,88.8,82.6,84.6,82.6z"/><text x="0" y="115" fill="#000000" font-size="5px" font-weight="bold" font-family="'Helvetica Neue', Helvetica, Arial-Unicode, Arial, Sans-serif">Created by Giselle Pereira</text><text x="0" y="120" fill="#000000" font-size="5px" font-weight="bold" font-family="'Helvetica Neue', Helvetica, Arial-Unicode, Arial, Sans-serif">from the Noun Project</text></svg>