<svg xmlns="http://www.w3.org/2000/svg" xmlns:xlink="http://www.w3.org/1999/xlink" version="1.1" x="0px" y="0px" viewBox="0 0 100 125" enable-background="new 0 0 100 100" xml:space="preserve"><path d="M61,43H26.38C22.856,43,20,46.477,20,50s2.856,7,6.38,7H61c3.523,0,6.38-3.477,6.38-7S64.523,43,61,43z M50.62,63H26.38  C22.856,63,20,66.477,20,70s2.856,7,6.38,7h24.24c3.523,0,6.38-3.477,6.38-7S54.144,63,50.62,63z M71.62,23H26.38  C22.856,23,20,26.477,20,30s2.856,7,6.38,7h45.24c3.523,0,6.38-3.477,6.38-7S75.144,23,71.62,23z"/><text x="0" y="115" fill="#000000" font-size="5px" font-weight="bold" font-family="'Helvetica Neue', Helvetica, Arial-Unicode, Arial, Sans-serif">Created by DewDrops</text><text x="0" y="120" fill="#000000" font-size="5px" font-weight="bold" font-family="'Helvetica Neue', Helvetica, Arial-Unicode, Arial, Sans-serif">from the Noun Project</text></svg>