<svg xmlns="http://www.w3.org/2000/svg" xmlns:xlink="http://www.w3.org/1999/xlink" version="1.1" x="0px" y="0px" viewBox="0 0 65 81.25" enable-background="new 0 0 65 65" xml:space="preserve"><g><path d="M39.9,18.4h-36v12h36V18.4z M19.3,24.4L5.4,28.7v-8.5L19.3,24.4z M9.7,19.9h24.4l-12.2,3.7L9.7,19.9z M21.9,25.2l12.2,3.7   H9.7L21.9,25.2z M24.5,24.4l13.9-4.3v8.5L24.5,24.4z"/><path d="M39.9,33.2h-36v12h36V33.2z M38.4,43.7h-33v-9h33V43.7z"/><path d="M65.3,3.3c0-1.8-1.5-3.3-3.3-3.3H11.6c-1.8,0-3.3,1.5-3.3,3.3v10.1h-8.6v51.5H44V53.1h21.2V3.3z M11.6,1.6H62   c1,0,1.8,0.8,1.8,1.8v3.4H9.8V3.3C9.8,2.4,10.6,1.6,11.6,1.6z M42.5,63.4H1.3V15h41.3V63.4z M44,51.6V13.5H9.8V8.2h53.9v43.4H44z"/><rect x="51.1" y="3.4" width="1.5" height="1.5"/><rect x="54.6" y="3.4" width="1.5" height="1.5"/><rect x="58.1" y="3.4" width="1.5" height="1.5"/><rect x="14.4" y="3.4" width="32.3" height="1.5"/><path d="M23.3,60h16.6v-12H23.3V60z M24.8,49.4h13.6v9H24.8V49.4z"/><path d="M20.5,47.9H3.9v12h16.6V47.9z M19,58.5H5.4v-9H19V58.5z"/><rect x="45.7" y="17.2" width="13.2" height="1.5"/><rect x="45.7" y="23.2" width="13.2" height="1.5"/><rect x="45.7" y="29.1" width="13.2" height="1.5"/><rect x="45.7" y="35" width="13.2" height="1.5"/><rect x="45.7" y="41" width="13.2" height="1.5"/></g><text x="0" y="80" fill="#000000" font-size="5px" font-weight="bold" font-family="'Helvetica Neue', Helvetica, Arial-Unicode, Arial, Sans-serif">Created by Creative Stall</text><text x="0" y="85" fill="#000000" font-size="5px" font-weight="bold" font-family="'Helvetica Neue', Helvetica, Arial-Unicode, Arial, Sans-serif">from the Noun Project</text></svg>