<svg xmlns:x="http://ns.adobe.com/Extensibility/1.0/" xmlns:i="http://ns.adobe.com/AdobeIllustrator/10.0/" xmlns:graph="http://ns.adobe.com/Graphs/1.0/" xmlns="http://www.w3.org/2000/svg" xmlns:xlink="http://www.w3.org/1999/xlink" xmlns:a="http://ns.adobe.com/AdobeSVGViewerExtensions/3.0/" version="1.1" x="0px" y="0px" viewBox="0 0 100 125" enable-background="new 0 0 100 100" xml:space="preserve"><g><path d="M61.1,35.8c-1.8-0.5-3.7-0.8-5.7-0.8c-10.1,0-18.3,9.2-18.3,20.5c0,6,3.4,9.8,8.8,9.8c6.9,0,13.2-8.2,14.5-15.6l2.2-11.6   C62.7,37.1,62.1,36.1,61.1,35.8z M56.4,49c-1,5.7-5.8,12.3-10.6,12.3c-4.2,0-4.8-3.6-4.8-5.8c0-8.9,6.6-16.5,14.3-16.5   c1,0,1.9,0.1,2.8,0.2L56.4,49z"/><path d="M47.9,89.3c7.5,0,13.3-0.2,19.2-3.3c0.8-0.4,1.2-1.4,1-2.3l-1.6-6.4c-0.2-0.6-0.6-1.1-1.2-1.3c-0.6-0.2-1.2-0.2-1.8,0.1   c-3.8,2.2-9,3.3-14.5,3.3c-15,0-25.4-10.6-25.4-25.7c0-20.4,15-31.1,29.8-31.1c14.3,0,22.9,8.4,22.9,22.6c0,11-5.2,16.8-9,16.8   c-0.6,0-0.9-0.2-1.1-0.5c-0.4-0.5-1.3-2.5-0.1-8.7l3.5-18.6c0.2-0.9-0.3-1.8-1.1-2.2l-0.4-0.2c-2.7-1.3-6.8-3.1-11.4-3.1   c-14.5,0-26.4,11.8-26.4,26.4c0,9.2,6,16.9,13.1,16.9h0.1c5,0,9.8,0,13.7-3.9c1.8,3.7,5.9,4.4,8.4,4.8c0.5,0.1,1,0.1,1.6,0.1   c0,0,0,0,0,0c9.1,0,20.1-12.7,20.1-28.6c0-18.9-14.5-33.7-32.9-33.7c-24.8,0-41.5,22.5-41.5,43.5C12.8,75.9,31,89.3,47.9,89.3z    M54.3,14.7c16.2,0,28.9,13,28.9,29.7c0,14-9.7,24.6-16.1,24.6c0,0,0,0,0,0c-0.3,0-0.6,0-0.9-0.1c-4.2-0.7-6.2-1.6-5.9-6   c0-1-0.6-1.8-1.6-2.1c-0.9-0.2-1.9,0.3-2.3,1.2L56.1,63c-3,4.9-6.6,4.9-12.6,4.9v2l-0.1-2c-4.8,0-9.1-6.1-9.1-12.9   c0-12.3,10-22.4,22.4-22.4c3.3,0,6.3,1.2,8.7,2.3l-3.2,17c-1.2,5.9-0.9,9.7,0.9,11.9c1,1.2,2.4,1.9,4.1,2l0.2,0   c6.4,0,13-7.8,13-20.8c0-16.4-10.3-26.6-26.9-26.6c-16.8,0-33.8,12.1-33.8,35.1c0,17.5,12.1,29.7,29.4,29.7   c5.3,0,10.1-0.9,14.2-2.7l0.6,2.4c-4.6,2-9.4,2.2-15.9,2.2c-15,0-31.1-11.9-31.1-31.1C16.8,35.1,31.9,14.7,54.3,14.7z"/></g><text x="0" y="115" fill="#000000" font-size="5px" font-weight="bold" font-family="'Helvetica Neue', Helvetica, Arial-Unicode, Arial, Sans-serif">Created by Wira</text><text x="0" y="120" fill="#000000" font-size="5px" font-weight="bold" font-family="'Helvetica Neue', Helvetica, Arial-Unicode, Arial, Sans-serif">from the Noun Project</text></svg>