<svg xmlns="http://www.w3.org/2000/svg" xmlns:xlink="http://www.w3.org/1999/xlink" version="1.1" x="0px" y="0px" viewBox="0 0 100 125" style="enable-background:new 0 0 100 100;" xml:space="preserve"><path d="M95.856102,45.1024208L81.4771957,22.3270321c-0.2138672-0.3378906-0.5527344-0.5766602-0.9423828-0.6635742  c-0.390625-0.0859375-0.7978516-0.0141602-1.1357422,0.2011719l-10.0839844,6.4614258  c-0.6943359,0.4448242-0.8994141,1.3666992-0.4589844,2.0639648l0.8604736,1.362915l-2.085083,0.8402081  c-0.2011719,0.0820312-0.421875,0.1020508-0.6337891,0.0566406l-6.4404259-1.3525372  c-3.7119141-0.7802734-7.4863281-0.8237305-11.2197266-0.1308594l-6.0576172,1.1259747  c-1.6586914,0.3084717-3.1754761,1.0841675-4.3938599,2.2183838l-5.6373901-0.8956299  c-0.1181641-0.0185547-0.2304688-0.0556641-0.3339844-0.109375l-2.5663471-1.3323975l0.7245483-1.1475811  c0.2119141-0.3364258,0.2822266-0.7431641,0.1943359-1.1313477s-0.3261719-0.7255859-0.6621094-0.9379883l-10.0136719-6.3217773  c-0.6992188-0.440918-1.6269531-0.2333984-2.0693359,0.4677734L4.1432142,45.8773232  c-0.2119141,0.3364258-0.2822266,0.7431641-0.1943359,1.1313477s0.3261719,0.7255859,0.6621094,0.9379883l10.0136719,6.3217773  c0.2490234,0.1567383,0.5253906,0.2314453,0.7998047,0.2314453c0.4970703,0,0.984374-0.2475586,1.2695303-0.6992188  l0.682251-1.0806885l4.6914673,6.1859741l-1.5895386,2.272644c-1.5097656,2.1591797-0.9921875,5.1586952,1.1523438,6.6845741  l0.0839844,0.0600586c0.8065186,0.5737305,1.7445679,0.8744507,2.7106323,0.8893433  c-0.0002441,1.5386963,0.7177734,3.0579224,2.0628052,4.0046997c0.8310547,0.5849609,1.7988281,0.8896484,2.7929688,0.8896484  c0.2919922,0,0.5869141-0.0263672,0.8808594-0.0795898c0.2719727-0.0493774,0.531189-0.1323242,0.7859497-0.223999  c0.4161377,1.0807495,1.1851826,1.9984741,2.2179585,2.5545654c0.734375,0.3950195,1.5273438,0.5844727,2.3105469,0.5844727  c0.7411499,0,1.4713745-0.1745605,2.1365967-0.4996338c0.4790039,0.8934937,1.2459106,1.6029053,2.2052002,1.9991455  c0.5410156,0.2231445,1.1083984,0.3300781,1.671875,0.3300781c1.3450317,0,2.6560669-0.6177368,3.5083008-1.7131958  l7.2807617,1.1135864c0.4931641,0.0751953,0.9853516,0.1123047,1.4736328,0.1123047  c2.5119019,0,4.9053345-0.9898071,6.7075195-2.772522c0.171814,0.0163574,0.343689,0.0298462,0.5151367,0.0298462  c1.7880859,0,3.5214806-0.8842773,4.5615196-2.4794922c0.553894-0.7653809,0.831543-1.6893311,0.8197021-2.6236572  c0.0220337,0.0002441,0.0440674,0.0040283,0.06604,0.0040283c1.875,0,3.7148438-0.9150391,4.8007812-2.565918  c0.4390869-0.6668701,0.6644897-1.420166,0.7089233-2.192688c0.1218262,0.0084229,0.2437134,0.024231,0.3652954,0.024231  c1.7285156,0,3.4150391-0.8447266,4.4365234-2.3916054c0.7871094-1.1918945,1.0585938-2.6181641,0.7666016-4.0166016  c-0.0394897-0.1884155-0.1121826-0.3624878-0.1704712-0.5430298l5.7510376-5.4354248l0.1538086,0.2435913  c0.2138672,0.3378906,0.5527344,0.5766602,0.9423828,0.6635742c0.1083984,0.0239258,0.2177734,0.0356445,0.3261719,0.0356445  c0.2841797,0,0.5654297-0.0810547,0.8095703-0.2368164l10.0839844-6.4614258  C96.0914536,46.7215614,96.2965317,45.7996864,95.856102,45.1024208z M14.9576674,50.9305458L7.4811049,46.210331  l12.7773428-20.2377911l7.4765625,4.7202148L14.9576674,50.9305458z M23.3717289,65.4202957  c-0.8095703-0.5761719-1.0048828-1.7075233-0.4345703-2.5219765l2.8564453-4.0839844  c0.3486328-0.4985352,0.9052734-0.7709961,1.4833984-0.7709961c0.3359375,0,0.6796875,0.0922852,0.9931641,0.2856445  c0.4267578,0.2636719,0.7197266,0.6782227,0.8242188,1.1679688c0.0958862,0.4470825,0.0147095,0.8982544-0.2145386,1.2891235  l-3.001709,4.3947182c-0.270874,0.3162842-0.6334229,0.5340576-1.0493774,0.6081543  c-0.4824219,0.0849609-0.9726562-0.0239258-1.3720703-0.3085938L23.3717289,65.4202957z M29.6266117,70.6756668  c-0.4990234,0.0898438-0.9980469-0.0205078-1.4179688-0.3154297c-0.8320312-0.5859375-1.0429688-1.746582-0.46875-2.5869141  l0.6121216-0.8961182c0.0410156-0.0548706,0.0921021-0.0991821,0.1310425-0.1561279  c0.8867188-1.2954102,1.9345703-2.8364296,2.8212891-4.1435585c0.0233154-0.0343628,0.0360107-0.072937,0.0583496-0.1077271  l2.3996601-3.5128784c0.359375-0.5273438,0.9511719-0.8129883,1.5517578-0.8129883  c0.3496094,0,0.703125,0.097168,1.0146484,0.300293c0.4257812,0.2768555,0.7148438,0.703125,0.8144531,1.2006836  c0.0996094,0.4980469-0.0029297,1.003418-0.2890625,1.4228516l-0.8275757,1.213623  c-0.0166016,0.0232544-0.0390015,0.0411377-0.0552368,0.0646973l-4.5126972,6.5581093  c-0.0808105,0.1173096-0.131958,0.2485962-0.2015991,0.371582l-0.4175415,0.6123047  C30.5543461,70.3055496,30.123682,70.5853348,29.6266117,70.6756668z M34.5846214,73.314827  c-0.4746094-0.2553711-0.8056641-0.6845703-0.9326172-1.2089844c-0.0934448-0.3885498-0.0620117-0.7819214,0.0840454-1.1403809  l4.7661743-6.9893837c0.2987671-0.3912354,0.7229614-0.6496582,1.2142334-0.7208252  c0.0917969-0.0131836,0.1835938-0.0200195,0.2753906-0.0200195c0.4248047,0,0.8330078,0.144043,1.1708984,0.4174805  c0.7548828,0.6113319,0.9150391,1.7168007,0.3652344,2.5170937l-1.3560791,1.9725952  c-0.0316772,0.0422363-0.0726929,0.0757446-0.1029053,0.1192017l-2.1972656,3.1542969  c-0.0751343,0.1079712-0.1203613,0.2287598-0.1850586,0.3415527l-0.6674805,0.9709473  C36.4752464,73.5169754,35.4303246,73.7703934,34.5846214,73.314827z M42.679348,74.7650223  c-0.3798828,0.5458984-1.1005859,0.7587891-1.7167969,0.503418c-0.4023438-0.1660156-0.7041016-0.5009766-0.8261719-0.9189453  c-0.090271-0.3062134-0.0733032-0.6265869,0.0388794-0.916748l2.4614258-3.5799561  c0.2253418-0.2573242,0.5258789-0.4282837,0.8707886-0.4759521c0.0673828-0.0092773,0.1337891-0.0136719,0.2001953-0.0136719  c0.3291016,0,0.6435547,0.1123047,0.9023438,0.3256836c0.0078125,0.0058594,0.0146484,0.0117188,0.0224609,0.0175781  c0.5546875,0.4731445,0.6640625,1.3046875,0.2451172,1.9052734l-2.1982422,3.152832V74.7650223z M74.2301254,61.2640419  c-0.6855469,1.0375977-2.0595703,1.3486328-3.1230469,0.7119141l-1.3210449-0.7905884  c-0.0004272-0.0002441-0.0007935-0.0006714-0.0012207-0.0009155l-1.2294922-0.7358398  c-0.0005493-0.0003052-0.0010986-0.0004883-0.0016479-0.0007935l-10.2112389-6.1110229  c-0.7089844-0.425293-1.6308594-0.1943359-2.0576172,0.5166016c-0.4257812,0.7109375-0.1943359,1.6323242,0.5166016,2.0576172  l11.4429283,6.8482056c0.34729,0.2076416,0.5874023,0.5387611,0.6781616,0.9330482  c0.0898438,0.3945312,0.0166016,0.7978516-0.2050781,1.1357422c-0.7714844,1.1713867-2.3408203,1.5620117-3.5712891,0.8925781  L55.1676292,61.28162c-0.7255859-0.3979492-1.6386719-0.1293945-2.0351562,0.5991211  c-0.3964844,0.7270508-0.1279297,1.6381836,0.5996094,2.034668l7.2067261,3.9285316l1.7717896,1.0817261  c0.3330078,0.2036133,0.5576172,0.5268555,0.6318359,0.9101562c0.0751953,0.3833008-0.0126953,0.7670898-0.2460938,1.0805664  c-0.0205078,0.0283203-0.0410156,0.0576172-0.0595703,0.0874023c-0.6826172,1.0683594-2.0478516,1.4423828-3.1816406,0.8671875  l-7.7255859-3.9228516c-0.7353516-0.3745117-1.6416016-0.0805664-2.0166016,0.6582031s-0.0800781,1.6416016,0.6591797,2.0166016  l6.4272461,3.2636108c-1.3148804,0.8180542-2.8847656,1.1629028-4.4672852,0.9199829l-5.8056641-0.8880005l0.4121094-0.5910034  c1.3125-1.8823242,0.9521484-4.4980469-0.8212891-5.9550781c-0.0117188-0.0097656-0.0224609-0.019043-0.0341797-0.027832  c-0.5404663-0.4360352-1.1774292-0.7169189-1.8457642-0.8621216c0.5350952-1.8394165-0.03125-3.9019814-1.586853-5.1613197  c-0.8242798-0.6671753-1.8442383-1.0325317-2.8915405-1.0704346c0.0187378-0.3960571,0.0057983-0.7952271-0.0742798-1.1947021  c-0.2587891-1.2954102-1.0117188-2.4057617-2.1191406-3.1259766c-2.1871948-1.4250488-5.1514893-0.8393555-6.64258,1.2896118  c-0.3837891-0.5767822-0.8856201-1.0784302-1.5097656-1.4639282c-1.9064331-1.1760864-4.3285522-0.8656006-5.8825073,0.6418457  l-4.8438721-6.3868408l9.6544189-15.291748l2.7907104,1.4488525c0.3896484,0.2026367,0.8076191,0.340332,1.2451191,0.4101562  l3.8858643,0.6172485l-3.9268799,5.1098022c-0.6708984,0.8720703-0.9599628,1.9526367-0.8134785,3.0424805  c0.1474628,1.0898438,0.7109394,2.0556641,1.586916,2.7182617c1.2568359,0.9521484,2.9716797,1.09375,4.3691406,0.3642578  l10.9716797-5.7353516c0.3476562-0.1826172,0.7705078-0.1621094,1.1025391,0.0517578l23.6035118,15.2983398  c0.5224609,0.3383789,0.8798828,0.8608398,1.0078125,1.4702148C74.6910629,60.1239052,74.5728989,60.7449989,74.2301254,61.2640419z   M75.6046982,55.8598061c-0.1391602-0.111145-0.2660522-0.234436-0.4175415-0.3325806L51.5836449,40.2288857  c-1.2373047-0.8032227-2.8183594-0.875-4.1240234-0.1928711l-10.9716797,5.7353516  c-0.3710938,0.1948242-0.8291016,0.1577148-1.1679688-0.0976562c-0.234375-0.1772461-0.3847656-0.4355469-0.4238281-0.7265625  s0.0380859-0.5795898,0.2177734-0.8134766l5.1621094-6.7163086c0.8759766-1.1401367,2.1376953-1.9125977,3.5527344-2.1757812  l6.0576172-1.1259766c3.3417969-0.6206055,6.7265625-0.581543,10.0537109,0.1171875l6.4414024,1.3530273  c0.7978516,0.1674805,1.6191406,0.0947266,2.3720703-0.2104492l2.5906372-1.0443115l10.1047363,16.0053101L75.6046982,55.8598061z   M84.965477,50.2869911L72.1881332,30.0482235l7.5585938-4.8427734l12.7773438,20.2387676L84.965477,50.2869911z"/><text x="0" y="115" fill="#000000" font-size="5px" font-weight="bold" font-family="'Helvetica Neue', Helvetica, Arial-Unicode, Arial, Sans-serif">Created by Artem  Kovyazin</text><text x="0" y="120" fill="#000000" font-size="5px" font-weight="bold" font-family="'Helvetica Neue', Helvetica, Arial-Unicode, Arial, Sans-serif">from the Noun Project</text></svg>