<?xml version="1.0" encoding="utf-8"?>
<!-- Generator: Adobe Illustrator 21.1.0, SVG Export Plug-In . SVG Version: 6.00 Build 0)  -->
<svg version="1.1" id="Layer_1" xmlns="http://www.w3.org/2000/svg" xmlns:xlink="http://www.w3.org/1999/xlink" x="0px" y="0px"
	 viewBox="0 0 64 64" style="enable-background:new 0 0 64 64;" xml:space="preserve">
<title>20</title>
<desc>Created with Sketch.</desc>
<g>
	<path d="M32,64C14.3,64,0,49.7,0,32S14.3,0,32,0s32,14.3,32,32S49.7,64,32,64z M32,61c14.9,0,29-14.1,29-29S46.9,3,32,3
		S3,17.1,3,32S17.1,61,32,61z"/>
	<path d="M44.5,44.5h-25v-25h11.1v2.8h-8.3v19.4h19.4v-8.3h2.8V44.5z M38.9,22.3l-2.8-2.8h8.3v8.3l-2.8-2.8L30.6,36.2l-2.8-2.8
		L38.9,22.3z"/>
</g>
</svg>
