<svg xmlns="http://www.w3.org/2000/svg" data-name="Layer 1" viewBox="0 0 100 125" x="0px" y="0px"><title>web</title><path d="M46.67,0h6.67c0.84,0.09,2,.23,3.36.44,0.89,0.14,3.4.49,5.77,1.09A48.59,48.59,0,0,1,72.68,5.44a50.65,50.65,0,0,1,23.7,25.91A52.26,52.26,0,0,1,99.93,47a44.42,44.42,0,0,1-.16,7.08,48.92,48.92,0,0,1-3.07,13.64,49.89,49.89,0,0,1-9,15,50.55,50.55,0,0,1-9.28,8.35,48.41,48.41,0,0,1-11.07,5.75A49.79,49.79,0,0,1,51.14,100a40.7,40.7,0,0,1-6.43-.32A67.53,67.53,0,0,1,36.27,98,47.24,47.24,0,0,1,20.59,90.4a50.34,50.34,0,0,1-9-8.43,49.38,49.38,0,0,1-11-24.4Q0.29,55.46,0,53.34V46.63A4.68,4.68,0,0,0,.15,46a52.66,52.66,0,0,1,1.79-9.79A49.51,49.51,0,0,1,9.58,20.58a50.55,50.55,0,0,1,8.42-9,48.92,48.92,0,0,1,10.43-6.7A52.64,52.64,0,0,1,42.31.61C44.11,0.3,45.61.13,46.67,0ZM46.6,33.34H30.67a4.26,4.26,0,0,0-2.16.17c-0.41.29-.35,1.27-0.5,1.94,0,0,0,.05,0,0.08L26.51,46.58H46.6V33.34Zm-19.81,20a0.68,0.68,0,0,0-.09.2,86.54,86.54,0,0,0,1.53,12.18,0.9,0.9,0,0,0,1.07.89c5.48,0,11,0,16.45,0,0.28,0,.56,0,0.83,0V53.39H26.79ZM53.36,66.64h16c0.69,0,1.58.21,2-.13s0.37-1.25.53-1.92c0-.05,0-0.1,0-0.15a74.14,74.14,0,0,0,1.29-11H53.36V66.64Zm0-20H73.17a0.63,0.63,0,0,0,.09-0.19,86.78,86.78,0,0,0-1.52-12.17,0.9,0.9,0,0,0-1.06-.9c-5.48,0-11,0-16.45,0H53.36V46.59ZM46.57,92.85V73.39H30.39a4.13,4.13,0,0,0,.14.46c1.23,2.67,2.32,5.41,3.72,8a24.48,24.48,0,0,0,7.87,8.95A13.88,13.88,0,0,0,46.57,92.85Zm0-85.67a1.53,1.53,0,0,0-.32,0c-0.26.07-.51,0.15-0.76,0.24A18.13,18.13,0,0,0,38.72,12a33.35,33.35,0,0,0-6.06,9c-0.84,1.79-1.56,3.63-2.39,5.57H46.61V7.19Zm6.76-.1c0,0.27,0,.42,0,0.58,0,6.09,0,12.18,0,18.27,0,0.64.24,0.74,0.8,0.74,4.92,0,9.84,0,14.76,0,0.22,0,.44,0,0.81-0.09-0.75-1.78-1.4-3.46-2.16-5.09a31.64,31.64,0,0,0-8-11.07A16.51,16.51,0,0,0,53.37,7.09ZM69.69,73.38H53.37V92.87c0.36-.1.67-0.17,1-0.28a16.79,16.79,0,0,0,5.25-3.11,32,32,0,0,0,7.91-11C68.26,76.87,68.93,75.17,69.69,73.38Zm-63-26.78H19.88l1.63-13.21a0.38,0.38,0,0,0-.18,0c-3.65,0-7.29,0-10.94,0a0.81,0.81,0,0,0-.61.44c-0.71,2.22-1.48,4.43-2,6.7C7.26,42.47,7,44.51,6.69,46.59ZM78.45,33.37l1.62,13.2H93.15c-0.1-1-.15-1.88-0.28-2.77A45.19,45.19,0,0,0,90.29,34a0.9,0.9,0,0,0-1-.71c-3.41,0-6.81,0-10.22,0C78.82,33.34,78.59,33.36,78.45,33.37Zm-71.64,20c0.1,1,.15,1.92.29,2.83A45.31,45.31,0,0,0,9.69,66a0.86,0.86,0,0,0,1,.68c3.43,0,6.87,0,10.3,0,0.23,0,.46,0,0.56,0L19.88,53.37H6.81Zm86.46,0H80.08L78.46,66.58c-0.05,0,0,0,.09,0,3.7,0,7.4,0,11.1,0a0.75,0.75,0,0,0,.53-0.43c0.71-2.25,1.49-4.49,2.05-6.78C92.71,57.46,92.92,55.44,93.26,53.38ZM30.94,11.23A42,42,0,0,0,13.52,26.56a2.91,2.91,0,0,0,.47.1c3,0,6,0,8.94,0A0.71,0.71,0,0,0,23.67,26a57.89,57.89,0,0,1,4.78-10.76C29.26,13.9,30.11,12.57,30.94,11.23ZM86.46,73.39a4.16,4.16,0,0,0-.51-0.08c-3,0-5.91,0-8.86,0a0.71,0.71,0,0,0-.77.61,57.56,57.56,0,0,1-6.25,13.21c-0.35.54-.72,1.06-1.08,1.59A41.7,41.7,0,0,0,86.46,73.39Zm-73,0a42.51,42.51,0,0,0,17.42,15.4,3.43,3.43,0,0,0-.47-0.9C30.25,87.6,30,87.32,29.85,87A56.14,56.14,0,0,1,23.7,74a0.88,0.88,0,0,0-1-.73c-2.79,0-5.59,0-8.38,0C14.09,73.31,13.86,73.35,13.5,73.38Zm73-46.71A42.53,42.53,0,0,0,69,11.19a17,17,0,0,0,1.05,1.7,56.16,56.16,0,0,1,6.15,13,1,1,0,0,0,1.14.78c2.71,0,5.43,0,8.14,0h1Z"/><text x="0" y="115" fill="#000000" font-size="5px" font-weight="bold" font-family="'Helvetica Neue', Helvetica, Arial-Unicode, Arial, Sans-serif">Created by i cons</text><text x="0" y="120" fill="#000000" font-size="5px" font-weight="bold" font-family="'Helvetica Neue', Helvetica, Arial-Unicode, Arial, Sans-serif">from the Noun Project</text></svg>