<svg xmlns="http://www.w3.org/2000/svg" xmlns:xlink="http://www.w3.org/1999/xlink" version="1.1" x="0px" y="0px" viewBox="0 0 100 125" enable-background="new 0 0 100 100" xml:space="preserve"><g><polygon points="31.646,69.901 28.646,69.901 28.646,74.571 23.977,74.571 23.977,77.571 28.646,77.571 28.646,82.241    31.646,82.241 31.646,77.571 36.314,77.571 36.314,74.571 31.646,74.571  "/><polygon points="70.6,39.634 65.178,45.057 67.299,47.178 70.6,43.877 73.902,47.179 76.023,45.058  "/><polygon points="68.244,30.098 71.244,30.098 71.244,25.429 75.913,25.429 75.913,22.429 71.244,22.429 71.244,17.759    68.244,17.759 68.244,22.429 63.574,22.429 63.574,25.429 68.244,25.429  "/><path d="M49.945,56.141c3.387,0,6.141-2.755,6.141-6.142s-2.754-6.142-6.141-6.142S43.803,46.613,43.803,50   S46.559,56.141,49.945,56.141z M49.945,46.858c1.732,0,3.141,1.409,3.141,3.142s-1.408,3.142-3.141,3.142S46.803,51.732,46.803,50   S48.213,46.858,49.945,46.858z"/><path d="M30.146,56.141c3.387,0,6.142-2.755,6.142-6.142s-2.755-6.142-6.142-6.142S24.004,46.613,24.004,50   S26.759,56.141,30.146,56.141z M30.146,46.858c1.732,0,3.142,1.409,3.142,3.142s-1.409,3.142-3.142,3.142S27.004,51.732,27.004,50   S28.413,46.858,30.146,46.858z"/><path d="M62.134,67.667c-7.761,7.465-19.319,7.102-19.435,7.1l-0.105,2.611c0.055,0.003,0.244,0.009,0.55,0.009   c2.544,0,13.121-0.464,20.784-7.818c5.295-5.082,7.98-12.299,7.98-21.449h-2.615C69.293,56.52,66.885,63.097,62.134,67.667z"/></g><text x="0" y="115" fill="#000000" font-size="5px" font-weight="bold" font-family="'Helvetica Neue', Helvetica, Arial-Unicode, Arial, Sans-serif">Created by DANT</text><text x="0" y="120" fill="#000000" font-size="5px" font-weight="bold" font-family="'Helvetica Neue', Helvetica, Arial-Unicode, Arial, Sans-serif">from the Noun Project</text></svg>