<?xml version="1.0" encoding="utf-8"?>
<!-- Generator: Adobe Illustrator 23.0.1, SVG Export Plug-In . SVG Version: 6.00 Build 0)  -->
<svg version="1.1" id="Layer_1" xmlns="http://www.w3.org/2000/svg" xmlns:xlink="http://www.w3.org/1999/xlink" x="0px" y="0px"
	 viewBox="0 0 100 125" style="enable-background:new 0 0 100 125;" xml:space="preserve">
<style type="text/css">
	.st0{fill-rule:evenodd;clip-rule:evenodd;}
</style>
<title>Upload s1.3</title>
<desc>Created with Sketch.</desc>
<g>
	<g>
		<path class="st0" d="M51.7,17.3c-1-1-2.6-1-3.5,0L32.6,33.1c-1.9,1.9,0.9,4.7,2.8,2.8l11.8-11.9c0.4-0.4,0.7-0.3,0.7,0.3v36.2
			c0,1.1,0.9,2,2,2c1.1,0,2-0.9,2-2V24.4c0-0.5,0.3-0.7,0.7-0.3L64.6,36c1.9,1.9,4.7-0.9,2.8-2.8L51.7,17.3z M40,42h-7
			c-2.8,0-5,2.2-5,5v34c0,2.8,2.2,5,5,5h34c2.8,0,5-2.2,5-5V47c0-2.8-2.2-5-5-5h-7c-1.1,0-2,0.9-2,2s0.9,2,2,2h7c0.5,0,1,0.5,1,1v34
			c0,0.6-0.4,1-1,1H33c-0.6,0-1-0.4-1-1V47c0-0.6,0.4-1,1-1h7c1.1,0,2-0.9,2-2S41.1,42,40,42z"/>
	</g>
</g>
</svg>
