<svg xmlns="http://www.w3.org/2000/svg" xmlns:xlink="http://www.w3.org/1999/xlink" version="1.1" x="0px" y="0px" viewBox="0 0 100 125" style="enable-background:new 0 0 100 100;" xml:space="preserve"><path d="M67.7,17.2c-0.5-0.3-1.2-0.3-1.7-0.1l-0.1,0.1c-0.3,0.2-0.5,0.4-0.7,0.7l-4.1,6.8c-0.2,0.4-0.3,0.9-0.2,1.4  c0.1,0.5,0.4,0.9,0.8,1.1c0.6,0.3,1.3,0.3,1.8,0c0.3-0.2,0.5-0.4,0.7-0.7l4.1-6.8c0.2-0.4,0.3-0.9,0.2-1.4  C68.4,17.9,68.1,17.5,67.7,17.2z"/><path d="M30.6,17.2c0.5-0.3,1.2-0.3,1.7-0.1l0.1,0.1c0.3,0.2,0.5,0.4,0.7,0.7l4.1,6.8c0.2,0.4,0.3,0.9,0.2,1.4  c-0.1,0.5-0.4,0.9-0.8,1.1c-0.6,0.3-1.3,0.3-1.8,0c-0.3-0.2-0.5-0.4-0.7-0.7L30,19.7c-0.2-0.4-0.3-0.9-0.2-1.4  C29.9,17.9,30.2,17.5,30.6,17.2z"/><path d="M22.1,35.6c0.2,0,0.3,0,0.5-0.1c0.5-0.1,0.9-0.4,1.1-0.8c0.5-0.9,0.2-2-0.7-2.5l-6.9-4  c-0.3-0.2-0.6-0.3-0.9-0.3l-0.1,0c-0.6,0-1.1,0.4-1.5,0.9c-0.2,0.4-0.3,0.9-0.2,1.4c0.1,0.5,0.4,0.9,0.8,1.1l6.9,4  C21.5,35.5,21.8,35.6,22.1,35.6z"/><path d="M85.3,28.9c-0.3-0.5-0.8-0.9-1.5-0.9l-0.1,0c-0.3,0-0.6,0.1-0.9,0.3l-6.9,4c-0.4,0.2-0.7,0.6-0.9,1.1  c-0.1,0.5-0.1,1,0.2,1.4c0.3,0.6,0.9,0.9,1.6,0.9c0.3,0,0.6-0.1,0.9-0.2l6.9-4c0.4-0.2,0.7-0.6,0.8-1.1  C85.6,29.8,85.6,29.3,85.3,28.9z"/><path d="M49.4,13.3c-0.6,0-1.2,0.3-1.5,0.8l-0.1,0.1c-0.2,0.3-0.2,0.6-0.2,0.9l-0.1,8c0,0.5,0.2,0.9,0.5,1.3  c0.3,0.4,0.8,0.6,1.3,0.6c0.7,0,1.3-0.3,1.6-0.9c0.2-0.3,0.3-0.6,0.3-0.9l0.1-8c0-0.5-0.2-0.9-0.5-1.3  C50.3,13.5,49.9,13.3,49.4,13.3z"/><path d="M27,77.1v10.4h46.2V77.1c0-6.3-4.9-11.2-11.2-11.2H38.3C32.2,65.9,27,70.9,27,77.1z"/><path d="M50.1,61.3c7.1,0,12.9-5.8,12.9-12.9c0-7.1-5.8-12.9-12.9-12.9s-12.9,5.8-12.9,12.9  C37.3,55.5,43,61.3,50.1,61.3z"/><path d="M20,63.2c5.6,0,10.1-4.6,10.1-10.1S25.6,42.9,20,42.9S9.8,47.5,9.8,53.1S14.4,63.2,20,63.2z"/><path d="M80.3,63.2c5.6,0,10.1-4.6,10.1-10.1s-4.6-10.1-10.1-10.1c-5.6,0-10.1,4.6-10.1,10.1S74.7,63.2,80.3,63.2z"/><path d="M10.6,66.9c-4.8,0-8.8,3.9-8.8,8.8v8.2h21.6v-6.7c0-4.2,1.9-7.9,4.8-10.3H10.6z"/><path d="M89.6,66.9H72.2c2.9,2.5,4.7,6.2,4.7,10.3v6.7h21.6v-8.2C98.5,70.8,94.6,66.9,89.6,66.9z"/><text x="0" y="115" fill="#000000" font-size="5px" font-weight="bold" font-family="'Helvetica Neue', Helvetica, Arial-Unicode, Arial, Sans-serif">Created by Aneeque Ahmed</text><text x="0" y="120" fill="#000000" font-size="5px" font-weight="bold" font-family="'Helvetica Neue', Helvetica, Arial-Unicode, Arial, Sans-serif">from the Noun Project</text></svg>