<svg xmlns="http://www.w3.org/2000/svg" xmlns:xlink="http://www.w3.org/1999/xlink" viewBox="0 0 100 125" version="1.1" x="0px" y="0px"><title>Profile 0.6</title><desc>Created with Sketch.</desc><g stroke="none" stroke-width="1" fill="none" fill-rule="evenodd"><g fill="#000000"><path d="M66,68 C66,68.546814 65.5555144,69 65.0072136,69 L34.9927864,69 C34.4523621,69 34,68.5522847 34,68 C34,59.163444 41.163444,52 50,52 C58.836556,52 66,59.163444 66,68 Z M50,50 C45.0294373,50 41,45.9705627 41,41 C41,36.0294373 45.0294373,32 50,32 C54.9705627,32 59,36.0294373 59,41 C59,45.9705627 54.9705627,50 50,50 Z"/></g></g><text x="0" y="115" fill="#000000" font-size="5px" font-weight="bold" font-family="'Helvetica Neue', Helvetica, Arial-Unicode, Arial, Sans-serif">Created by Landan Lloyd</text><text x="0" y="120" fill="#000000" font-size="5px" font-weight="bold" font-family="'Helvetica Neue', Helvetica, Arial-Unicode, Arial, Sans-serif">from the Noun Project</text></svg>