<?xml version="1.0" encoding="utf-8"?>
<!-- Generator: Adobe Illustrator 22.0.1, SVG Export Plug-In . SVG Version: 6.00 Build 0)  -->
<svg version="1.1" id="Layer_1" xmlns="http://www.w3.org/2000/svg" xmlns:xlink="http://www.w3.org/1999/xlink" x="0px" y="0px"
	 viewBox="0 0 512 512" style="enable-background:new 0 0 512 512;" xml:space="preserve">
<style type="text/css">
	.st0{fill:#57BA63;}
</style>
<g>
	<path class="st0" d="M236.7,269.4c-12.2-11.3-25.8-27.2-31.7-41.3c-0.9-1.8-2.7-6.4,0-10c5.4-7.3,6.3-7.7,12.2-14.5
		c4.1-5,7.3-9.5,5.9-13.6L202.7,137c-1.8-3.6-7.3-4.1-13.6-4.5c-5.4,0-11.3,0-15.4,0.9c-9.1,3.2-27.6,27.7-29.9,45.4
		c-5,38.5,29.9,89.8,64.8,121.5c34.9,32.2,88.8,62.6,126.9,54c17.7-4.1,40.3-24.5,42.2-34c0.9-4.1,0.5-10-0.5-15.4
		c-0.5-6.3-1.8-10.9-5.4-12.7l-46.2-21.3c-4.1-2.3-8.2-0.5-12.2,4.5c-5,6.8-7.3,9.5-13.1,16.8c-3.2,4.1-5.4,6.8-9.1,7.2
		c-4.1,0.9-9.5-1.4-10.4-1.4C266.2,293,249.4,280.7,236.7,269.4L236.7,269.4z M84.4,432.2l26.3-66.7C81.7,332,64,288,64,239.9
		c0-106.1,86.1-191.8,192.2-191.8c106.1,0,191.7,85.7,191.7,191.8c0,106.1-85.7,192.3-191.7,192.3c-42.6,0-81.6-13.6-113.3-37.2
		L84.4,432.2z M52.3,366.9L16,512l129.6-59c33.1,17.2,70.7,27.2,110.6,27.2c132.3,0,239.8-107.5,239.8-240.4
		C496,107.5,388.6,0,256.2,0C123.4,0,16,107.5,16,239.9C16,286.6,29.6,330.1,52.3,366.9L52.3,366.9z"/>
</g>
</svg>
