<svg xmlns="http://www.w3.org/2000/svg" xmlns:xlink="http://www.w3.org/1999/xlink" version="1.1" x="0px" y="0px" viewBox="0 0 56 70" enable-background="new 0 0 56 56" xml:space="preserve"><path d="M9.3603516,52.9941406h37.2792969C50.1469727,52.9941406,53,50.140625,53,46.6337891V9.3662109  c0-3.5068359-2.8530273-6.3603516-6.3603516-6.3603516H9.3603516C5.8530273,3.0058594,3,5.859375,3,9.3662109v37.2675781  C3,50.140625,5.8530273,52.9941406,9.3603516,52.9941406z M5,9.3662109c0-2.4042969,1.9560547-4.3603516,4.3603516-4.3603516  h37.2792969C49.0439453,5.0058594,51,6.9619141,51,9.3662109v37.2675781c0,2.4042969-1.9560547,4.3603516-4.3603516,4.3603516  H9.3603516C6.9560547,50.9941406,5,49.0380859,5,46.6337891V9.3662109z"/><path d="M10.7548828,35.6337891c0.5522461,0,1-0.4472656,1-1V21.3662109c0-0.5527344-0.4477539-1-1-1s-1,0.4472656-1,1v13.2675781  C9.7548828,35.1865234,10.2026367,35.6337891,10.7548828,35.6337891z"/><path d="M16.7241211,28.3820801c0.0507812,0.1228027,0.1240845,0.2333984,0.2166748,0.3259277l6.6329346,6.6328125  c0.1953125,0.1953125,0.4511719,0.2929688,0.7070312,0.2929688s0.5117188-0.0976562,0.7070312-0.2929688  c0.390625-0.390625,0.390625-1.0234375,0-1.4140625L20.0610352,29h25.184082c0.5522461,0,1-0.4472656,1-1s-0.4477539-1-1-1  h-25.184082l4.9267578-4.9267578c0.390625-0.390625,0.390625-1.0234375,0-1.4140625s-1.0234375-0.390625-1.4140625,0  l-6.6329346,6.6328125c-0.0925903,0.0925293-0.1658936,0.203125-0.2167358,0.3259277  C16.6229858,27.8623047,16.6230469,28.1376953,16.7241211,28.3820801z"/><text x="0" y="71" fill="#000000" font-size="5px" font-weight="bold" font-family="'Helvetica Neue', Helvetica, Arial-Unicode, Arial, Sans-serif">Created by rivercon</text><text x="0" y="76" fill="#000000" font-size="5px" font-weight="bold" font-family="'Helvetica Neue', Helvetica, Arial-Unicode, Arial, Sans-serif">from the Noun Project</text></svg>