<svg xmlns="http://www.w3.org/2000/svg" data-name="Layer 1" viewBox="0 0 100 125" x="0px" y="0px"><title>all</title><g data-name="Go to Web - Orange"><path d="M95.72,12.54h-0.4c-1.7,0-3.41-.05-5.11-0.1a36.66,36.66,0,0,1-7.8-1,42.39,42.39,0,0,1-9.64-3.88c-2.53-1.33-5-2.71-7.61-4A33.92,33.92,0,0,0,47.86.06,33.32,33.32,0,0,0,35.23,3.38C32.44,4.74,29.73,6.24,27,7.67a43.08,43.08,0,0,1-8.42,3.49,36.91,36.91,0,0,1-9.34,1.29c-1.64,0-3.27,0-4.93,0a2.08,2.08,0,0,0,0,.35c0.11,4.34.16,8.69,0.37,13A100.46,100.46,0,0,0,6.29,39.43a100.41,100.41,0,0,0,5,17.83A84.85,84.85,0,0,0,22.5,77.71a75.54,75.54,0,0,0,14,14.39,56,56,0,0,0,13.11,7.83,1,1,0,0,0,.69,0,50.2,50.2,0,0,0,10.06-5.52A75.94,75.94,0,0,0,82,71.17a89.19,89.19,0,0,0,9.75-23,100.12,100.12,0,0,0,3-15.34c0.36-3.19.65-6.4,0.81-9.6,0.18-3.42.16-6.84,0.22-10.26A3.39,3.39,0,0,0,95.72,12.54ZM54.13,69.11A4.09,4.09,0,0,1,50,73.2H50a4.1,4.1,0,0,1-4.1-4.09V69a4.11,4.11,0,0,1,4.1-4.1H50A4.1,4.1,0,0,1,54.13,69v0.07Zm0-11H45.87V20.79h8.26V58.14Z"/></g></svg>