<svg xmlns="http://www.w3.org/2000/svg" data-name="Layer 1" viewBox="0 0 100 125" x="0px" y="0px"><title>08</title><path d="M71.13,36.75V30.87a21.13,21.13,0,0,0-42.25,0v5.88a10,10,0,0,0-10,10v33.5a10,10,0,0,0,10,10H71.13a10,10,0,0,0,10-10V46.75A10,10,0,0,0,71.13,36.75ZM54,69.12a4,4,0,0,1-8,0V57.87a4,4,0,0,1,8,0Zm9.13-32.37H36.88V30.87a13.13,13.13,0,0,1,26.25,0Z"/><text x="0" y="115" fill="#000000" font-size="5px" font-weight="bold" font-family="'Helvetica Neue', Helvetica, Arial-Unicode, Arial, Sans-serif">Created by Trendy</text><text x="0" y="120" fill="#000000" font-size="5px" font-weight="bold" font-family="'Helvetica Neue', Helvetica, Arial-Unicode, Arial, Sans-serif">from the Noun Project</text></svg>