<svg xmlns="http://www.w3.org/2000/svg" data-name="Layer 1" viewBox="0 0 100 125" x="0px" y="0px"><title>UI version 2 JADI</title><path d="M79.45,78.28h0l-55.08.44,12-7.11a1.24,1.24,0,0,0,.41-.4l19-29.51h0l2.44-3.79h0l4.27-6.63a5.77,5.77,0,0,0-1.73-8l-5.68-3.66h0a5.77,5.77,0,0,0-8,1.73L21.4,61.32a1.24,1.24,0,0,0-.19.54L19.3,79.39a1.23,1.23,0,0,0,0,.42,1.18,1.18,0,0,0,0,.2,1.25,1.25,0,0,0,1.25,1.24h0l58.9-.47a1.25,1.25,0,0,0,0-2.5ZM33.58,70.35,22.06,77.18l1.45-13.32ZM35.21,69,24,61.83,41.82,34.21,53,41.4Zm9.05-38.59,11.16,7.19L54.34,39.3,43.17,32.11Zm4.95-7.68a3.26,3.26,0,0,1,4.5-1l5.68,3.66a3.27,3.27,0,0,1,1,4.5l-3.59,5.58L45.61,28.32Z"/><path d="M50.08,41a1,1,0,0,0-1.38.29L38.59,56.83a1,1,0,1,0,1.68,1.09L50.37,42.38A1,1,0,0,0,50.08,41Z"/><text x="0" y="115" fill="#000000" font-size="5px" font-weight="bold" font-family="'Helvetica Neue', Helvetica, Arial-Unicode, Arial, Sans-serif">Created by Edwin Prayogi M</text><text x="0" y="120" fill="#000000" font-size="5px" font-weight="bold" font-family="'Helvetica Neue', Helvetica, Arial-Unicode, Arial, Sans-serif">from the Noun Project</text></svg>