<svg xmlns="http://www.w3.org/2000/svg" xmlns:xlink="http://www.w3.org/1999/xlink" version="1.1" x="0px" y="0px" viewBox="0 0 67 83.75" enable-background="new 0 0 67 67" xml:space="preserve"><g><path d="M5.7646484,43.6972656h11.9990234v-2H5.7646484C4.515625,41.6972656,3.5,40.8564453,3.5,39.8232422V5.3740234   C3.5,4.3408203,4.515625,3.5,5.7646484,3.5h55.4707031C62.484375,3.5,63.5,4.3408203,63.5,5.3740234v34.4492188   c0,1.0332031-1.015625,1.8740234-2.2646484,1.8740234H49.2363281v2h11.9990234   c2.3515625,0,4.2646484-1.7382813,4.2646484-3.8740234V5.3740234C65.5,3.2382813,63.5869141,1.5,61.2353516,1.5H5.7646484   C3.4130859,1.5,1.5,3.2382813,1.5,5.3740234v34.4492188C1.5,41.9589844,3.4130859,43.6972656,5.7646484,43.6972656z"/><polygon points="57.9257813,6.2802734 9.0732422,6.2802734 9.0732422,38.9169922 24.6230469,38.9169922 24.6230469,36.9169922    11.0732422,36.9169922 11.0732422,8.2802734 55.9257813,8.2802734 55.9257813,36.9169922 49.2197266,36.9169922    49.2197266,38.9169922 57.9257813,38.9169922  "/><rect x="5.2890625" y="19.1582031" width="2" height="6.8818359"/><rect x="59.7158203" y="19.1572266" width="2" height="6.8828125"/><path d="M47.2841797,46.3759766v-6.2548828c0-1.9355469-1.5751953-3.5107422-3.5117188-3.5107422H42.21875   c-0.3642578-0.7099609-1.1035156-1.1972656-1.9550781-1.1972656h-2.9423828   c-0.3828125-0.6484375-1.0878906-1.0839844-1.8935547-1.0839844h-2.6269531v-5.7871094   c0-1.7158203-1.3964844-3.1123047-3.1132813-3.1123047c-1.7158203,0-3.1123047,1.3964844-3.1123047,3.1123047v14.6289063   l-1.2714844-1.6347656c-1.1496582-1.4784546-3.3418579-1.6199951-4.6728516-0.2910156   c-0.9892578,0.9882813-1.1992188,2.5292969-0.5195313,3.7285156l7.5949707,14.0922852   c-0.50354,0.052124-0.9006348,0.4625244-0.9006348,0.9799805V64.5c0,0.5527344,0.4472656,1,1,1h15.8681641   c0.5527344,0,1-0.4472656,1-1v-4.4541016c0-0.5527344-0.4472656-1-1-1h-0.1262817l3.0286255-8.5537109   C47.0458984,49.1669922,47.2841797,47.7822266,47.2841797,46.3759766z M42.6738281,63.5H28.8056641v-2.4541016h0.5644531   h12.7626953h0.5410156V63.5z M45.2841797,46.3759766c0,1.1777344-0.1992188,2.3378906-0.5927734,3.4482422l-3.265625,9.2216797   H29.9667969l-8.1054688-15.0390625c-0.2470703-0.4375-0.171875-0.9912109,0.1835938-1.3466797   c0.4730835-0.4730835,1.2593384-0.4354248,1.6806641,0.1044922l3.0605469,3.9355469   c0.2617188,0.3369141,0.7099609,0.4707031,1.1132813,0.3320313c0.4042969-0.1386719,0.6757813-0.5195313,0.6757813-0.9462891   V28.5419922c0-0.6132813,0.4990234-1.1123047,1.1123047-1.1123047c0.6142578,0,1.1132813,0.4990234,1.1132813,1.1123047v12.3583984   c0,0.5527344,0.4472656,1,1,1s1-0.4472656,1-1v-4.5712891h2.6269531c0.1083984,0,0.1962891,0.0878906,0.1962891,0.1962891   v3.7763672c0,0.5527344,0.4472656,1,1,1c0.5322266,0,0.9677734-0.4160156,0.9980469-0.9414063   c0.0097656-0.0546875,0.0146484-0.1123047,0.0146484-0.1699219v-2.7773438h2.6269531   c0.1083984,0,0.1962891,0.0888672,0.1962891,0.1972656v3.7763672c0,0.5527344,0.4472656,1,1,1s1-0.4472656,1-1v-2.7763672h1.3125   c0.8339844,0,1.5117188,0.6777344,1.5117188,1.5107422V46.3759766z"/><rect x="28.7324219" y="18.6347656" width="2" height="4.8427734"/><rect x="32.4036484" y="18.4634724" transform="matrix(0.9338984 0.3575385 -0.3575385 0.9338984 9.7363977 -10.5511274)" width="1.9993476" height="5.1853614"/><rect x="23.4688435" y="20.0564785" transform="matrix(0.3574515 0.9339317 -0.9339317 0.3574515 36.4108009 -10.8100843)" width="5.1853614" height="1.9993476"/><rect x="44.2626953" y="25.6362305" width="8.5273438" height="2"/><rect x="43.3310547" y="29.359375" width="9.4580078" height="2"/><rect x="44.2617188" y="33.0820313" width="8.5273438" height="2"/><rect x="14.9404297" y="9.9638672" width="8.5273438" height="2"/><rect x="14.0097656" y="13.6865234" width="9.4580078" height="2"/><rect x="14.9404297" y="17.4091797" width="8.5273438" height="2"/></g><text x="0" y="82" fill="#000000" font-size="5px" font-weight="bold" font-family="'Helvetica Neue', Helvetica, Arial-Unicode, Arial, Sans-serif">Created by Vectors Point</text><text x="0" y="87" fill="#000000" font-size="5px" font-weight="bold" font-family="'Helvetica Neue', Helvetica, Arial-Unicode, Arial, Sans-serif">from the Noun Project</text></svg>