<svg xmlns="http://www.w3.org/2000/svg" xmlns:xlink="http://www.w3.org/1999/xlink" version="1.1" x="0px" y="0px" viewBox="0 0 100 125" style="enable-background:new 0 0 100 100;" xml:space="preserve"><g><path d="M78.5,65.5V34.5c0-16-12.8-29-28.5-29s-28.5,13-28.5,29v31.1c0,16,12.8,29,28.5,29S78.5,81.5,78.5,65.5z M26.5,65.5V34.5   c0-13.2,10.6-24,23.5-24s23.5,10.8,23.5,24v31.1c0,13.2-10.6,24-23.5,24S26.5,78.7,26.5,65.5z"/><path d="M52.5,38.9v-12c0-1.4-1.1-2.5-2.5-2.5s-2.5,1.1-2.5,2.5v12c0,1.4,1.1,2.5,2.5,2.5S52.5,40.3,52.5,38.9z"/></g><text x="0" y="115" fill="#000000" font-size="5px" font-weight="bold" font-family="'Helvetica Neue', Helvetica, Arial-Unicode, Arial, Sans-serif">Created by Genius Icons</text><text x="0" y="120" fill="#000000" font-size="5px" font-weight="bold" font-family="'Helvetica Neue', Helvetica, Arial-Unicode, Arial, Sans-serif">from the Noun Project</text></svg>