<svg xmlns="http://www.w3.org/2000/svg" viewBox="0 0 60 75" x="0px" y="0px"><title>048 - Pie Chart</title><path d="M51.4,8.979h0A29.764,29.764,0,0,0,30,0,30.074,30.074,0,0,0,1.086,21.974v0A30.021,30.021,0,0,0,30,60a30.408,30.408,0,0,0,7.488-.94.164.164,0,0,0,.022,0A30.011,30.011,0,0,0,51.4,8.98ZM33.5,43.562A14.023,14.023,0,0,1,16,30c0-.343.015-.685.04-1.025a13.73,13.73,0,0,1,.25-1.8c.038-.184.087-.366.133-.548.031-.124.056-.248.091-.371A14.028,14.028,0,0,1,30,16,14.038,14.038,0,0,1,44,30,14,14,0,0,1,33.5,43.562ZM30,2A27.765,27.765,0,0,1,49.264,9.679L40.684,18.1c-.081-.072-.168-.134-.249-.2-.171-.149-.347-.291-.524-.433-.223-.178-.45-.352-.682-.518q-.278-.2-.561-.382c-.238-.155-.48-.3-.725-.444-.194-.112-.389-.222-.587-.325-.253-.132-.512-.253-.772-.371-.2-.091-.4-.183-.6-.265-.271-.11-.547-.205-.824-.3-.2-.069-.4-.141-.607-.2-.294-.087-.593-.156-.893-.226-.195-.046-.388-.1-.585-.137-.335-.064-.674-.108-1.014-.151-.17-.022-.336-.053-.506-.07C31.039,14.028,30.522,14,30,14q-.657,0-1.3.055c-.142.011-.282.035-.423.05-.287.032-.573.062-.855.108-.169.028-.335.068-.5.1-.251.05-.5.1-.75.158-.176.044-.349.1-.523.149-.232.066-.465.13-.693.206-.178.06-.352.129-.528.2-.218.082-.438.162-.652.254-.175.074-.346.157-.519.238-.207.1-.414.193-.616.3-.172.089-.339.185-.506.281-.2.111-.391.222-.581.341-.166.1-.328.213-.49.322-.183.124-.365.249-.544.381-.159.117-.314.239-.469.363-.171.136-.341.274-.507.418-.151.13-.3.264-.444.4s-.315.3-.469.455-.28.289-.416.437-.289.322-.429.487-.259.312-.385.472-.262.345-.389.522-.236.331-.349.5-.235.368-.348.555-.21.349-.309.528c-.107.194-.207.392-.306.59-.091.183-.183.364-.267.551-.093.206-.177.417-.262.628-.075.187-.152.373-.22.564-.019.054-.043.1-.062.158L3.3,21.548A28.076,28.076,0,0,1,30,2Zm0,56A28.029,28.029,0,0,1,2.763,23.476l10.3,2.861,1.287.357,0,.028c-.1.478-.173.961-.229,1.447-.013.116-.025.233-.036.35C14.031,29.011,14,29.5,14,30A16.019,16.019,0,0,0,30,46c.454,0,.906-.026,1.354-.063.113-.009.226-.02.338-.032.448-.046.893-.1,1.331-.188l3,11.634A28.4,28.4,0,0,1,30,58Zm7.965-1.143L35.183,46.082l-.223-.863c.057-.019.111-.043.168-.062.2-.067.389-.142.583-.216.216-.083.431-.165.642-.256.19-.082.374-.171.559-.26.206-.1.411-.2.611-.3.181-.1.357-.2.534-.3.2-.113.388-.229.578-.35.171-.11.338-.224.5-.34.184-.129.366-.259.545-.395.16-.122.317-.248.472-.375q.261-.215.511-.438c.149-.134.3-.269.439-.408.161-.156.318-.316.473-.478q.206-.216.4-.439c.149-.168.292-.341.434-.516.124-.153.248-.307.367-.465.136-.181.265-.367.394-.553.111-.162.222-.323.327-.489.122-.193.237-.39.351-.589.1-.169.2-.337.287-.509.108-.2.207-.414.306-.623.082-.174.168-.347.244-.525.094-.217.176-.439.26-.66.067-.178.138-.354.2-.534.079-.231.144-.467.212-.7.051-.178.107-.353.152-.532.063-.251.112-.506.162-.761.034-.17.075-.338.1-.509.047-.285.077-.574.109-.862.016-.147.041-.292.053-.44C45.98,30.888,46,30.446,46,30c0-.508-.026-1.012-.073-1.511-.016-.169-.047-.334-.068-.5-.041-.328-.082-.656-.143-.98-.038-.2-.089-.393-.134-.589-.066-.287-.13-.573-.212-.854-.059-.208-.131-.411-.2-.616-.088-.263-.176-.525-.277-.783-.082-.208-.173-.413-.264-.617-.109-.246-.221-.49-.342-.73-.1-.2-.212-.4-.324-.6-.131-.233-.266-.462-.409-.688q-.183-.291-.379-.575c-.154-.223-.315-.44-.481-.655-.139-.179-.278-.358-.424-.532-.064-.076-.12-.158-.186-.233l8.581-8.427a28.015,28.015,0,0,1-12.7,45.752Z"/><path d="M5.159,33a1,1,0,0,0,.917-1.077C6.025,31.29,6,30.644,6,30a1,1,0,0,0-2,0c0,.7.027,1.4.082,2.08a1,1,0,0,0,1,.92C5.1,33,5.132,33,5.159,33Z"/><path d="M25.2,53.519A24.112,24.112,0,0,1,6.7,35.76a1,1,0,1,0-1.941.48A26.116,26.116,0,0,0,24.8,55.478a1.051,1.051,0,0,0,.2.02,1,1,0,0,0,.2-1.979Z"/><path d="M30,54c-.322,0-.643-.007-.962-.019A1.024,1.024,0,0,0,28,54.942a1,1,0,0,0,.961,1.037c.345.014.69.021,1.038.021a1,1,0,0,0,0-2Z"/><text x="0" y="75" fill="#000000" font-size="5px" font-weight="bold" font-family="'Helvetica Neue', Helvetica, Arial-Unicode, Arial, Sans-serif">Created by Juicy Fish</text><text x="0" y="80" fill="#000000" font-size="5px" font-weight="bold" font-family="'Helvetica Neue', Helvetica, Arial-Unicode, Arial, Sans-serif">from the Noun Project</text></svg>