<?xml version="1.0" encoding="utf-8"?>
<!-- Generator: Adobe Illustrator 23.0.1, SVG Export Plug-In . SVG Version: 6.00 Build 0)  -->
<svg version="1.1" id="Layer_1" xmlns="http://www.w3.org/2000/svg" xmlns:xlink="http://www.w3.org/1999/xlink" x="0px" y="0px"
	 viewBox="0 0 100 125" style="enable-background:new 0 0 100 125;" xml:space="preserve">
<path d="M82.3,17.7C78.6,14,73.8,12,68.5,12s-10.1,2-13.8,5.7l-37,37.1C14,58.5,12,63.3,12,68.5s2,10.1,5.7,13.8
	C21.4,86,26.3,88,31.5,88c5.1,0,10-2,13.8-5.7l25.1-25.1l0.1-0.1c4.3-4.8,4.2-12.2-0.4-16.9c-4.7-4.8-12.5-4.8-17.2,0L32.1,61
	c-0.9,0.9-1.4,2.2-1.4,3.5c0,1.3,0.5,2.6,1.4,3.5c1.9,1.9,5.1,1.9,6.9,0l20.6-20.6c0.9-0.9,2.5-0.9,3.4,0s0.9,2.5,0,3.4L38.3,75.4
	c-3.7,3.7-9.9,3.7-13.7,0c-3.7-3.7-3.7-9.9,0-13.7l37.1-37.1c3.7-3.7,9.9-3.7,13.7,0c1.8,1.8,2.8,4.2,2.8,6.8s-1,5-2.8,6.9
	c-1,0.9-1.5,2.2-1.5,3.5s0.6,2.6,1.5,3.5c1.9,1.8,5,1.8,6.9,0C89.9,37.6,89.9,25.3,82.3,17.7z"/>
</svg>
