<svg xmlns="http://www.w3.org/2000/svg" xmlns:xlink="http://www.w3.org/1999/xlink" version="1.1" x="0px" y="0px" viewBox="0 0 100 125" style="enable-background:new 0 0 100 100;" xml:space="preserve"><title>60 all</title><path d="M50,19.6c-16.8,0-30.4,13.6-30.4,30.4S33.2,80.4,50,80.4S80.4,66.8,80.4,50C80.4,33.2,66.8,19.6,50,19.6z M50,76.4  c-14.6,0-26.4-11.8-26.4-26.4S35.4,23.6,50,23.6S76.4,35.4,76.4,50C76.4,64.6,64.6,76.4,50,76.4z"/><path d="M62.8,40.2L49.6,50.7l-10.2-5.1c-1-0.5-2.2-0.1-2.7,0.9c-0.5,1-0.1,2.2,0.9,2.7l11.4,5.7c0.7,0.3,1.5,0.3,2.1-0.2l14.2-11.4  c0.8-0.7,0.9-2,0.2-2.8C64.8,39.7,63.6,39.5,62.8,40.2L62.8,40.2z"/><text x="0" y="115" fill="#000000" font-size="5px" font-weight="bold" font-family="'Helvetica Neue', Helvetica, Arial-Unicode, Arial, Sans-serif">Created by Astonish</text><text x="0" y="120" fill="#000000" font-size="5px" font-weight="bold" font-family="'Helvetica Neue', Helvetica, Arial-Unicode, Arial, Sans-serif">from the Noun Project</text></svg>