<svg xmlns="http://www.w3.org/2000/svg" xmlns:xlink="http://www.w3.org/1999/xlink" viewBox="0 0 100 125" version="1.1" x="0px" y="0px"><title>Download s26.1</title><desc>Created with Sketch.</desc><g stroke="none" stroke-width="1" fill="none" fill-rule="evenodd"><g fill-rule="nonzero" fill="#000000"><path d="M56.6246292,69.2281136 C56.3572027,69.2969444 56.0846123,69.1359508 56.0157815,68.8685243 C55.9469507,68.6010978 56.1079443,68.3285074 56.3753708,68.2596766 C66.6730979,65.6092248 74,56.2849972 74,45.5 C74,32.5213084 63.4786916,22 50.5,22 C37.5213084,22 27,32.5213084 27,45.5 C27,56.2849972 34.3269021,65.6092248 44.6246292,68.2596766 C44.8920557,68.3285074 45.0530493,68.6010978 44.9842185,68.8685243 C44.9153877,69.1359508 44.6427973,69.2969444 44.3753708,69.2281136 C33.6383586,66.4645977 26,56.7440101 26,45.5 C26,31.9690236 36.9690236,21 50.5,21 C64.0309764,21 75,31.9690236 75,45.5 C75,56.7440101 67.3616414,66.4645977 56.6246292,69.2281136 Z M50.8482234,34.5685909 L63.844844,47.6004465 C64.3155314,48.0714465 63.6090006,48.7784465 63.1383131,48.3074465 L51.3495774,36.5118538 C51.1528548,36.3150168 50.9993738,36.381869 50.9993738,36.653774 L50.9993738,79.5076725 C50.9993738,79.7848033 50.7756647,80 50.4997056,80 C50.2318171,80 50.0000374,79.7795775 50.0000374,79.5076725 L50.0000374,36.653774 C50.0000374,36.3766431 49.8432588,36.3183292 49.6498626,36.5118538 L37.8620974,48.3074465 C37.3914099,48.7784465 36.6838798,48.0714465 37.1555665,47.6004465 L50.1343497,34.5685909 C50.3319878,34.3701448 50.6509573,34.37079 50.8482234,34.5685909 Z" transform="translate(50.500000, 50.500000) rotate(-180.000000) translate(-50.500000, -50.500000) "/></g></g><text x="0" y="115" fill="#000000" font-size="5px" font-weight="bold" font-family="'Helvetica Neue', Helvetica, Arial-Unicode, Arial, Sans-serif">Created by Landan Lloyd</text><text x="0" y="120" fill="#000000" font-size="5px" font-weight="bold" font-family="'Helvetica Neue', Helvetica, Arial-Unicode, Arial, Sans-serif">from the Noun Project</text></svg>