<?xml version="1.0" encoding="utf-8"?>
<!-- Generator: Adobe Illustrator 26.5.0, SVG Export Plug-In . SVG Version: 6.00 Build 0)  -->
<svg version="1.1" id="Layer_1" xmlns="http://www.w3.org/2000/svg" xmlns:xlink="http://www.w3.org/1999/xlink" x="0px" y="0px"
	 viewBox="0 0 700 700" style="enable-background:new 0 0 700 700;" xml:space="preserve">
<style type="text/css">
	.st0{fill-rule:evenodd;clip-rule:evenodd;}
</style>
<symbol  id="a" viewBox="-7.7 -8 15.5 16.1">
	<path d="M0.3,0.8c-1,0-1.8,0.2-2.3,0.5c-0.5,0.3-0.8,0.9-0.8,1.5c0,0.6,0.2,1.1,0.6,1.5c0.4,0.3,1,0.5,1.7,0.5c0.9,0,1.7-0.3,2.3-1
		c0.6-0.7,1-1.5,1-2.5V0.8L0.3,0.8z M7.7-1.1v8.7H2.8V5.4C2.2,6.3,1.4,7,0.6,7.4C-0.2,7.8-1.2,8-2.4,8C-4,8-5.3,7.6-6.3,6.7
		c-1-0.9-1.5-2.1-1.5-3.6c0-1.8,0.6-3.1,1.8-3.9c1.2-0.8,3.2-1.3,5.8-1.3h2.9v-0.4c0-0.8-0.3-1.3-0.9-1.7C1.3-4.6,0.3-4.8-1-4.8
		c-1.1,0-2,0.1-2.9,0.3c-0.9,0.2-1.7,0.5-2.5,0.9v-3.7c1-0.2,2.1-0.4,3.1-0.6C-2.2-8-1.1-8-0.1-8c2.8,0,4.8,0.5,6,1.6
		C7.1-5.3,7.7-3.5,7.7-1.1L7.7-1.1z"/>
</symbol>
<symbol  id="b" viewBox="-8.2 -8 16.4 16.1">
	<path d="M8.2-0.1v1.4H-3.2c0.1,1.1,0.5,2,1.2,2.6c0.7,0.6,1.7,0.9,3,0.9c1,0,2.1-0.1,3.2-0.5C5.2,4,6.3,3.6,7.5,2.9v3.8
		C6.3,7.1,5.2,7.5,4,7.7C2.9,7.9,1.7,8,0.5,8c-2.8,0-4.9-0.7-6.5-2.1C-7.5,4.5-8.2,2.6-8.2,0c0-2.5,0.8-4.5,2.3-5.9
		C-4.4-7.3-2.4-8,0.3-8C2.7-8,4.6-7.3,6-5.9C7.5-4.4,8.2-2.5,8.2-0.1L8.2-0.1z M3.2-1.7c0-0.9-0.3-1.7-0.8-2.2
		C1.8-4.5,1.1-4.8,0.3-4.8c-0.9,0-1.7,0.3-2.3,0.8s-1,1.3-1.1,2.3H3.2z"/>
</symbol>
<symbol  id="c" viewBox="-6.2 -9.8 12.4 19.7">
	<path d="M1.1-9.8v4.3h5V-2h-5v6.5c0,0.7,0.1,1.2,0.4,1.4s0.8,0.4,1.7,0.4h2.5v3.5H1.6c-1.9,0-3.3-0.4-4.1-1.2
		c-0.8-0.8-1.2-2.2-1.2-4.1V-2h-2.4v-3.5h2.4v-4.3H1.1z"/>
</symbol>
<symbol  id="d" viewBox="-5.7 -7.8 11.4 15.7">
	<path d="M5.7-3.3C5.2-3.5,4.8-3.6,4.4-3.7C4-3.8,3.6-3.9,3.1-3.9c-1.3,0-2.2,0.4-2.9,1.2c-0.7,0.8-1,2-1,3.5v7.1h-4.9V-7.5h4.9V-5
		c0.6-1,1.3-1.7,2.2-2.2c0.8-0.5,1.8-0.7,2.9-0.7c0.2,0,0.3,0,0.5,0c0.2,0,0.5,0,0.8,0.1L5.7-3.3z"/>
</symbol>
<symbol  id="e" viewBox="-8.4 -8 16.8 16.1">
	<path d="M0-4.5c-1.1,0-1.9,0.4-2.5,1.2C-3-2.6-3.3-1.5-3.3,0S-3,2.6-2.5,3.4C-1.9,4.2-1.1,4.5,0,4.5c1.1,0,1.9-0.4,2.4-1.2
		C3,2.6,3.3,1.5,3.3,0S3-2.6,2.5-3.4C1.9-4.1,1.1-4.5,0-4.5z M0-8c2.6,0,4.7,0.7,6.2,2.1C7.7-4.5,8.4-2.5,8.4,0
		c0,2.5-0.7,4.5-2.2,5.9C4.7,7.3,2.7,8,0,8c-2.6,0-4.7-0.7-6.2-2.1C-7.7,4.5-8.4,2.5-8.4,0c0-2.5,0.7-4.5,2.2-5.9
		C-4.7-7.3-2.6-8,0-8z"/>
</symbol>
<symbol  id="f" viewBox="-8.7 -10.7 17.4 21.4">
	<path d="M-8.7-10.7h4.9L0.3-0.3l3.5-10.4h4.9L2.3,6.1C1.6,7.8,0.9,9,0,9.6c-0.9,0.7-2,1-3.4,1h-2.8V7.5h1.5c0.8,0,1.4-0.1,1.8-0.4
		C-2.5,6.8-2.2,6.3-2,5.6l0.1-0.4L-8.7-10.7z"/>
</symbol>
<symbol  id="g" viewBox="-4.1 -13.7 8.2 27.3">
	<path d="M-0.8-7.7h4.9v15c0,2.1-0.5,3.6-1.5,4.7c-1,1.1-2.4,1.6-4.3,1.6h-2.4v-3.2h0.9c0.9,0,1.6-0.2,1.9-0.6
		C-1,9.4-0.8,8.6-0.8,7.3L-0.8-7.7z M-0.8-13.7h4.9v4h-4.9L-0.8-13.7z"/>
</symbol>
<symbol  id="h" viewBox="-7.7 -7.8 15.4 15.7">
	<path d="M7.7-1.5v9.3H2.8V0.7c0-1.3,0-2.2-0.1-2.7S2.5-2.9,2.4-3.1C2.2-3.5,1.9-3.7,1.6-3.9C1.3-4.1,0.9-4.1,0.5-4.1
		c-1,0-1.8,0.4-2.4,1.2c-0.6,0.8-0.9,1.9-0.9,3.3v7.5h-4.9V-7.5h4.9v2.2c0.7-0.9,1.5-1.5,2.3-2c0.8-0.4,1.8-0.6,2.8-0.6
		c1.8,0,3.1,0.5,4,1.6C7.2-5.1,7.7-3.5,7.7-1.5L7.7-1.5z"/>
</symbol>
<symbol  id="i" viewBox="-2.4 -10.6 4.9 21.3">
	<path d="M-2.4-4.7h4.9v15.3h-4.9L-2.4-4.7z M-2.4-10.6h4.9v4h-4.9L-2.4-10.6z"/>
</symbol>
<symbol  id="j" viewBox="-2.4 -10.6 4.9 21.3">
	<path d="M-2.4-10.6h4.9v21.3h-4.9L-2.4-10.6z"/>
</symbol>
<symbol  id="k" viewBox="-8.2 -10.8 16.4 21.7">
	<path d="M-0.1,7.3c1.1,0,1.9-0.4,2.4-1.1c0.6-0.8,0.8-1.9,0.8-3.3c0-1.5-0.3-2.6-0.8-3.3C1.8-1.3,1-1.7-0.1-1.7
		c-1.1,0-1.9,0.4-2.4,1.2C-3,0.2-3.3,1.4-3.3,2.8c0,1.4,0.3,2.6,0.8,3.3C-1.9,6.9-1.1,7.3-0.1,7.3L-0.1,7.3z M-3.3-2.6
		c0.7-0.9,1.4-1.5,2.2-2C-0.3-5,0.7-5.2,1.7-5.2c1.9,0,3.4,0.8,4.7,2.2c1.2,1.5,1.8,3.4,1.8,5.8c0,2.4-0.6,4.3-1.8,5.8
		c-1.2,1.5-2.8,2.2-4.7,2.2c-1.1,0-2-0.2-2.8-0.6c-0.8-0.4-1.6-1.1-2.2-2v2.2h-4.9v-21.3h4.9V-2.6z"/>
</symbol>
<symbol  id="l" viewBox="-8.2 -10.8 16.4 21.7">
	<path d="M3.3-2.6v-8.2h4.9v21.3H3.3V8.2c-0.7,0.9-1.4,1.6-2.2,2c-0.8,0.4-1.8,0.6-2.8,0.6c-1.9,0-3.4-0.8-4.6-2.2
		c-1.2-1.5-1.8-3.4-1.8-5.8c0-2.4,0.6-4.3,1.8-5.8c1.2-1.5,2.8-2.2,4.6-2.2c1.1,0,2,0.2,2.8,0.6C1.9-4.2,2.6-3.5,3.3-2.6L3.3-2.6z
		 M0.1,7.3c1,0,1.8-0.4,2.4-1.1C3,5.4,3.3,4.3,3.3,2.8c0-1.5-0.3-2.6-0.8-3.3C1.9-1.3,1.1-1.7,0.1-1.7c-1,0-1.8,0.4-2.4,1.2
		c-0.6,0.8-0.8,1.9-0.8,3.3c0,1.5,0.3,2.6,0.8,3.3C-1.8,6.9-1,7.3,0.1,7.3z"/>
</symbol>
<symbol  id="m" viewBox="-6.8 -8 13.5 16.1">
	<path d="M6.8-7.2v4c-0.7-0.5-1.3-0.8-2-1C4.1-4.4,3.4-4.5,2.7-4.5c-1.4,0-2.4,0.4-3.2,1.2C-1.3-2.5-1.7-1.4-1.7,0
		c0,1.4,0.4,2.5,1.1,3.3c0.8,0.8,1.8,1.2,3.2,1.2c0.8,0,1.5-0.1,2.2-0.3c0.7-0.2,1.3-0.6,1.9-1v4C6,7.5,5.2,7.7,4.4,7.8
		C3.6,8,2.9,8,2.1,8c-2.8,0-4.9-0.7-6.5-2.1C-6,4.5-6.8,2.5-6.8,0c0-2.5,0.8-4.5,2.3-5.9C-2.9-7.3-0.7-8,2.1-8C2.9-8,3.6-8,4.4-7.8
		C5.2-7.7,6-7.5,6.8-7.2L6.8-7.2z"/>
</symbol>
<symbol  id="n" viewBox="-8.4 -10.2 16.8 20.4">
	<path d="M-8.4-10.2h8.7c2.6,0,4.6,0.6,6,1.7c1.4,1.1,2.1,2.8,2.1,4.9c0,2.1-0.7,3.8-2.1,4.9c-1.4,1.2-3.4,1.7-6,1.7h-3.5v7.1h-5.2
		V-10.2z M-3.1-6.4v5.7h2.9c1,0,1.8-0.2,2.4-0.8C2.7-1.9,3-2.6,3-3.5c0-0.9-0.3-1.6-0.8-2.1C1.6-6.1,0.8-6.4-0.2-6.4L-3.1-6.4z"/>
</symbol>
<symbol  id="o" viewBox="-7.7 -7.9 15.4 15.7">
	<path d="M-7.7,1.5v-9.3h4.9v1.5c0,0.8,0,1.9,0,3.1c0,1.3,0,2.1,0,2.5c0,1.2,0,2.1,0.1,2.7c0.1,0.5,0.2,0.9,0.3,1.2
		c0.2,0.3,0.5,0.6,0.8,0.8c0.3,0.2,0.7,0.2,1.1,0.2c1,0,1.8-0.4,2.4-1.2c0.6-0.8,0.9-1.9,0.9-3.3v-7.6h4.9V7.5H2.8V5.2
		c-0.7,0.9-1.5,1.6-2.3,2c-0.8,0.4-1.7,0.6-2.7,0.6c-1.8,0-3.1-0.5-4-1.6C-7.2,5.1-7.7,3.6-7.7,1.5L-7.7,1.5z"/>
</symbol>
<symbol  id="p" viewBox="-9.1 -10.2 18.3 20.4">
	<path d="M-9.1-10.2h5.9l7.4,14v-14h5v20.4H3.3l-7.4-14v14h-5V-10.2z"/>
</symbol>
<symbol  id="q" viewBox="-7.7 -10.6 15.4 21.3">
	<path d="M7.7,1.3v9.3H2.8V3.5c0-1.3,0-2.3-0.1-2.8S2.5-0.1,2.4-0.3C2.2-0.7,1.9-0.9,1.6-1.1C1.3-1.3,0.9-1.3,0.5-1.3
		c-1,0-1.8,0.4-2.4,1.2c-0.6,0.8-0.9,1.9-0.9,3.3v7.5h-4.9v-21.3h4.9v8.2c0.7-0.9,1.5-1.5,2.3-2C0.4-4.8,1.3-5,2.3-5
		c1.8,0,3.1,0.5,4,1.6C7.2-2.3,7.7-0.8,7.7,1.3L7.7,1.3z"/>
</symbol>
<symbol  id="r" viewBox="-12.3 -7.8 24.6 15.7">
	<path d="M1.9-4.9c0.6-0.9,1.3-1.7,2.2-2.2C5-7.6,5.9-7.8,6.9-7.8c1.8,0,3.1,0.5,4,1.6c0.9,1.1,1.4,2.7,1.4,4.7v9.3H7.4v-8v-0.4
		c0-0.1,0-0.3,0-0.6c0-1.1-0.2-1.9-0.5-2.3C6.6-3.9,6.1-4.1,5.4-4.1C4.5-4.1,3.8-3.8,3.2-3C2.7-2.2,2.5-1.1,2.5,0.3v7.5h-4.9v-8
		c0-1.7-0.1-2.8-0.4-3.3c-0.3-0.5-0.8-0.7-1.6-0.7c-0.9,0-1.7,0.4-2.2,1.2c-0.5,0.8-0.8,1.9-0.8,3.3v7.5h-4.9V-7.5h4.9v2.2
		c0.6-0.9,1.3-1.5,2.1-2c0.8-0.4,1.6-0.7,2.6-0.7c1.1,0,2,0.3,2.8,0.8C0.9-6.6,1.5-5.8,1.9-4.9L1.9-4.9z"/>
</symbol>
<symbol  id="s" viewBox="-5.9 -10.6 11.9 21.3">
	<path d="M5.9-10.6v3.2H3.2C2.6-7.4,2.1-7.3,1.8-7C1.5-6.8,1.4-6.4,1.4-5.7v1.1h4.2v3.5H1.4v11.8h-4.9V-1.2h-2.4v-3.5h2.4v-1.1
		c0-1.7,0.5-2.9,1.4-3.7c0.9-0.8,2.4-1.2,4.3-1.2L5.9-10.6z"/>
</symbol>
<symbol  id="t" viewBox="-12 -7.7 23.9 15.3">
	<path d="M-12-7.7h4.8l2.6,10.5L-2-7.7H2L4.6,2.8L7.2-7.7H12l-4,15.3H2.6L0-2.9L-2.6,7.7h-5.3L-12-7.7z"/>
</symbol>
<symbol  id="u" viewBox="-8.7 -7.7 17.4 15.3">
	<path d="M-8.7-7.7h4.9L0,2.9L3.8-7.7h4.9l-6,15.3h-5.4L-8.7-7.7z"/>
</symbol>
<symbol  id="v" viewBox="-8.7 -10.6 17.4 21.2">
	<path d="M8.7,9.1c-1,0.5-2,0.9-3,1.1c-1,0.3-2.1,0.4-3.3,0.4c-3.4,0-6.1-0.9-8.1-2.8c-2-1.9-3-4.5-3-7.7c0-3.3,1-5.8,3-7.7
		c2-1.9,4.7-2.9,8.1-2.9c1.1,0,2.2,0.1,3.3,0.4c1.1,0.2,2.1,0.6,3,1.1v4.2C7.7-5.5,6.7-6,5.8-6.3c-0.9-0.3-1.9-0.5-3-0.5
		C0.9-6.8-0.6-6.2-1.6-5c-1.1,1.2-1.6,2.9-1.6,5c0,2.1,0.5,3.8,1.6,5c1.1,1.2,2.5,1.8,4.4,1.8c1.1,0,2.1-0.1,3-0.5
		C6.7,6,7.7,5.5,8.7,4.9V9.1z"/>
</symbol>
<path class="st0" d="M414.6,183.4c-1.5,0-3,0.3-4.4,0.9s-2.6,1.4-3.7,2.4c-1,1-1.7,2.3-2.3,3.7c-0.6,1.4-0.9,2.7-0.9,4.2v74.2H293.3
	c-5.6-47.2-45.9-84-94.5-84c-52.4,0-95.2,42.8-95.2,95.2s42.8,95.2,95.2,95.2c48.6,0,88.9-36.8,94.5-84h110.1v74.2
	c0,1.5,0.3,2.8,0.9,4.2c0.6,1.4,1.2,2.6,2.3,3.7c1,1,2.3,1.9,3.7,2.4c1.4,0.6,2.9,0.9,4.4,0.9h170.6c1.5,0,2.8-0.3,4.2-0.9
	c1.4-0.6,2.6-1.4,3.7-2.4c1-1,1.9-2.3,2.4-3.7c0.6-1.4,0.9-2.7,0.9-4.2V194.6c0-1.5-0.3-2.8-0.9-4.2c-0.6-1.4-1.4-2.6-2.4-3.7
	c-1-1-2.3-1.9-3.7-2.4c-1.4-0.6-2.7-0.9-4.2-0.9L414.6,183.4L414.6,183.4z M198.8,207.2c36.5,0,66.6,26.6,71.9,61.6h-71.9
	c-1.5,0-3,0.1-4.4,0.7s-2.6,1.4-3.7,2.4s-1.9,2.3-2.4,3.7c-0.6,1.4-0.9,2.9-0.9,4.4s0.3,3,0.9,4.4c0.6,1.4,1.4,2.5,2.4,3.5
	s2.3,1.9,3.7,2.4c1.4,0.6,2.9,0.9,4.4,0.9h71.9c-5.4,35-35.4,61.6-71.9,61.6c-40.3,0-72.8-32.5-72.8-72.8S158.5,207.2,198.8,207.2
	L198.8,207.2z"/>
<use xlink:href="#v"  width="17.4" height="21.2" x="-8.7" y="-10.6" transform="matrix(1 0 0 1 80.0786 633.8046)" style="overflow:visible;"/>
<use xlink:href="#d"  width="11.4" height="15.7" x="-5.7" y="-7.8" transform="matrix(1 0 0 1 98.5973 636.1561)" style="overflow:visible;"/>
<use xlink:href="#b"  width="16.4" height="16.1" x="-8.2" y="-8" transform="matrix(1 0 0 1 113.7816 636.3516)" style="overflow:visible;"/>
<use xlink:href="#a"  width="15.5" height="16.1" x="-7.7" y="-8" transform="matrix(1 0 0 1 132.293 636.3515)" style="overflow:visible;"/>
<use xlink:href="#c"  width="12.4" height="19.7" x="-6.2" y="-9.8" transform="matrix(1 0 0 1 148.8047 634.1721)" style="overflow:visible;"/>
<g>
	<defs>
		<rect id="SVGID_1_" x="155.6" y="644" width="700" height="700"/>
	</defs>
	<clipPath id="SVGID_00000115485288459799624720000007111829687676018333_">
		<use xlink:href="#SVGID_1_"  style="overflow:visible;"/>
	</clipPath>
	<g style="clip-path:url(#SVGID_00000115485288459799624720000007111829687676018333_);">
		
			<use xlink:href="#b"  width="16.4" height="16.1" x="-8.2" y="-8" transform="matrix(1 0 0 1 165.0511 636.3516)" style="overflow:visible;"/>
	</g>
</g>
<use xlink:href="#l"  width="16.4" height="21.7" x="-8.2" y="-10.8" transform="matrix(1 0 0 1 184.0941 633.5547)" style="overflow:visible;"/>
<use xlink:href="#k"  width="16.4" height="21.7" x="-8.2" y="-10.8" transform="matrix(1 0 0 1 214.9805 633.5548)" style="overflow:visible;"/>
<use xlink:href="#f"  width="17.4" height="21.4" x="-8.7" y="-10.7" transform="matrix(1 0 0 1 233.5 639.3679)" style="overflow:visible;"/>
<g>
	<defs>
		<rect id="SVGID_00000131362527103384171910000014355609435035386011_" x="252.5" y="644" width="700" height="700"/>
	</defs>
	<clipPath id="SVGID_00000004541281611508025200000000972118152081060026_">
		<use xlink:href="#SVGID_00000131362527103384171910000014355609435035386011_"  style="overflow:visible;"/>
	</clipPath>
	<g style="clip-path:url(#SVGID_00000004541281611508025200000000972118152081060026_);">
		
			<use xlink:href="#a"  width="15.5" height="16.1" x="-7.7" y="-8" transform="matrix(1 0 0 1 261.3985 636.3515)" style="overflow:visible;"/>
	</g>
</g>
<use xlink:href="#j"  width="4.9" height="21.3" x="-2.4" y="-10.6" transform="matrix(1 0 0 1 276.1484 633.3595)" style="overflow:visible;"/>
<use xlink:href="#u"  width="17.4" height="15.3" x="-8.7" y="-7.7" transform="matrix(1 0 0 1 290.0781 636.344)" style="overflow:visible;"/>
<use xlink:href="#i"  width="4.9" height="21.3" x="-2.4" y="-10.6" transform="matrix(1 0 0 1 304 633.3596)" style="overflow:visible;"/>
<g>
	<defs>
		<rect id="SVGID_00000067227647053030748320000008079557497199096461_" x="308.8" y="644" width="700" height="700"/>
	</defs>
	<clipPath id="SVGID_00000015349712120357859210000012900803808213877637_">
		<use xlink:href="#SVGID_00000067227647053030748320000008079557497199096461_"  style="overflow:visible;"/>
	</clipPath>
	<g style="clip-path:url(#SVGID_00000015349712120357859210000012900803808213877637_);">
		
			<use xlink:href="#a"  width="15.5" height="16.1" x="-7.7" y="-8" transform="matrix(1 0 0 1 317.7383 636.3515)" style="overflow:visible;"/>
	</g>
</g>
<use xlink:href="#h"  width="15.4" height="15.7" x="-7.7" y="-7.8" transform="matrix(1 0 0 1 337.7422 636.1564)" style="overflow:visible;"/>
<use xlink:href="#t"  width="23.9" height="15.3" x="-12" y="-7.7" transform="matrix(1 0 0 1 360.5586 636.344)" style="overflow:visible;"/>
<g>
	<defs>
		<rect id="SVGID_00000054268080949858695360000008859414977278193075_" x="373.5" y="644" width="700" height="700"/>
	</defs>
	<clipPath id="SVGID_00000097460867960574479520000013492137279210358945_">
		<use xlink:href="#SVGID_00000054268080949858695360000008859414977278193075_"  style="overflow:visible;"/>
	</clipPath>
	<g style="clip-path:url(#SVGID_00000097460867960574479520000013492137279210358945_);">
		
			<use xlink:href="#i"  width="4.9" height="21.3" x="-2.4" y="-10.6" transform="matrix(1 0 0 1 378.293 633.3596)" style="overflow:visible;"/>
	</g>
</g>
<use xlink:href="#g"  width="8.2" height="27.3" x="-4.1" y="-13.7" transform="matrix(1 0 0 1 386.2422 636.3832)" style="overflow:visible;"/>
<g>
	<defs>
		<rect id="SVGID_00000122681425154776783940000018243957008392146067_" x="392.7" y="644" width="700" height="700"/>
	</defs>
	<clipPath id="SVGID_00000119813114036189689790000014263666815816581049_">
		<use xlink:href="#SVGID_00000122681425154776783940000018243957008392146067_"  style="overflow:visible;"/>
	</clipPath>
	<g style="clip-path:url(#SVGID_00000119813114036189689790000014263666815816581049_);">
		
			<use xlink:href="#a"  width="15.5" height="16.1" x="-7.7" y="-8" transform="matrix(1 0 0 1 401.6289 636.3515)" style="overflow:visible;"/>
	</g>
</g>
<g>
	<defs>
		<rect id="SVGID_00000115500183914353250190000008907902786391522711_" x="411.6" y="644" width="700" height="700"/>
	</defs>
	<clipPath id="SVGID_00000088835782049850343500000001270628019157550740_">
		<use xlink:href="#SVGID_00000115500183914353250190000008907902786391522711_"  style="overflow:visible;"/>
	</clipPath>
	<g style="clip-path:url(#SVGID_00000088835782049850343500000001270628019157550740_);">
		
			<use xlink:href="#f"  width="17.4" height="21.4" x="-8.7" y="-10.7" transform="matrix(1 0 0 1 420.625 639.3679)" style="overflow:visible;"/>
	</g>
</g>
<g>
	<defs>
		<rect id="SVGID_00000136392323960186396600000010838927660989363347_" x="429.8" y="644" width="700" height="700"/>
	</defs>
	<clipPath id="SVGID_00000021111798998196065830000005390560177564008077_">
		<use xlink:href="#SVGID_00000136392323960186396600000010838927660989363347_"  style="overflow:visible;"/>
	</clipPath>
	<g style="clip-path:url(#SVGID_00000021111798998196065830000005390560177564008077_);">
		
			<use xlink:href="#a"  width="15.5" height="16.1" x="-7.7" y="-8" transform="matrix(1 0 0 1 438.7735 636.3515)" style="overflow:visible;"/>
	</g>
</g>
<use xlink:href="#s"  width="11.9" height="21.3" x="-5.9" y="-10.6" transform="matrix(1 0 0 1 76.4767 661.3594)" style="overflow:visible;"/>
<g>
	<defs>
		<rect id="SVGID_00000077308762930354720530000012352873801994492316_" x="82.2" y="672" width="700" height="700"/>
	</defs>
	<clipPath id="SVGID_00000044136070922940955840000012892206305827886981_">
		<use xlink:href="#SVGID_00000077308762930354720530000012352873801994492316_"  style="overflow:visible;"/>
	</clipPath>
	<g style="clip-path:url(#SVGID_00000044136070922940955840000012892206305827886981_);">
		
			<use xlink:href="#d"  width="11.4" height="15.7" x="-5.7" y="-7.8" transform="matrix(1 0 0 1 90.2301 664.1561)" style="overflow:visible;"/>
	</g>
</g>
<use xlink:href="#e"  width="16.8" height="16.1" x="-8.4" y="-8" transform="matrix(1 0 0 1 105.6094 664.351)" style="overflow:visible;"/>
<use xlink:href="#r"  width="24.6" height="15.7" x="-12.3" y="-7.8" transform="matrix(1 0 0 1 129.875 664.1558)" style="overflow:visible;"/>
<g>
	<defs>
		<rect id="SVGID_00000064333653023347336500000002028930481352176768_" x="154.2" y="672" width="700" height="700"/>
	</defs>
	<clipPath id="SVGID_00000145038300041257483770000000351531811690886847_">
		<use xlink:href="#SVGID_00000064333653023347336500000002028930481352176768_"  style="overflow:visible;"/>
	</clipPath>
	<g style="clip-path:url(#SVGID_00000145038300041257483770000000351531811690886847_);">
		
			<use xlink:href="#c"  width="12.4" height="19.7" x="-6.2" y="-9.8" transform="matrix(1 0 0 1 160.7148 662.1721)" style="overflow:visible;"/>
	</g>
</g>
<use xlink:href="#q"  width="15.4" height="21.3" x="-7.7" y="-10.6" transform="matrix(1 0 0 1 177.5899 661.3594)" style="overflow:visible;"/>
<g>
	<defs>
		<rect id="SVGID_00000059274154009017213780000010080402341307392934_" x="187.5" y="672" width="700" height="700"/>
	</defs>
	<clipPath id="SVGID_00000033333279701113859500000015643040529417571985_">
		<use xlink:href="#SVGID_00000059274154009017213780000010080402341307392934_"  style="overflow:visible;"/>
	</clipPath>
	<g style="clip-path:url(#SVGID_00000033333279701113859500000015643040529417571985_);">
		
			<use xlink:href="#b"  width="16.4" height="16.1" x="-8.2" y="-8" transform="matrix(1 0 0 1 196.8909 664.3516)" style="overflow:visible;"/>
	</g>
</g>
<use xlink:href="#p"  width="18.3" height="20.4" x="-9.1" y="-10.2" transform="matrix(1 0 0 1 227.9258 661.797)" style="overflow:visible;"/>
<g>
	<defs>
		<rect id="SVGID_00000029751008129641172910000015816657999946079666_" x="239.6" y="672" width="700" height="700"/>
	</defs>
	<clipPath id="SVGID_00000087376742046105051530000006171607675657850522_">
		<use xlink:href="#SVGID_00000029751008129641172910000015816657999946079666_"  style="overflow:visible;"/>
	</clipPath>
	<g style="clip-path:url(#SVGID_00000087376742046105051530000006171607675657850522_);">
		
			<use xlink:href="#e"  width="16.8" height="16.1" x="-8.4" y="-8" transform="matrix(1 0 0 1 249.2578 664.351)" style="overflow:visible;"/>
	</g>
</g>
<use xlink:href="#o"  width="15.4" height="15.7" x="-7.7" y="-7.9" transform="matrix(1 0 0 1 268.7617 664.5387)" style="overflow:visible;"/>
<g>
	<defs>
		<rect id="SVGID_00000075137958362807383420000005189494951514886833_" x="278.8" y="672" width="700" height="700"/>
	</defs>
	<clipPath id="SVGID_00000070815308977865303560000014604538782985884310_">
		<use xlink:href="#SVGID_00000075137958362807383420000005189494951514886833_"  style="overflow:visible;"/>
	</clipPath>
	<g style="clip-path:url(#SVGID_00000070815308977865303560000014604538782985884310_);">
		
			<use xlink:href="#h"  width="15.4" height="15.7" x="-7.7" y="-7.8" transform="matrix(1 0 0 1 288.8672 664.1564)" style="overflow:visible;"/>
	</g>
</g>
<use xlink:href="#n"  width="16.8" height="20.4" x="-8.4" y="-10.2" transform="matrix(1 0 0 1 319.4688 661.7971)" style="overflow:visible;"/>
<g>
	<defs>
		<rect id="SVGID_00000138538731287273386920000007116583232424018563_" x="329" y="672" width="700" height="700"/>
	</defs>
	<clipPath id="SVGID_00000107578918017370823430000010728587869861142955_">
		<use xlink:href="#SVGID_00000138538731287273386920000007116583232424018563_"  style="overflow:visible;"/>
	</clipPath>
	<g style="clip-path:url(#SVGID_00000107578918017370823430000010728587869861142955_);">
		
			<use xlink:href="#d"  width="11.4" height="15.7" x="-5.7" y="-7.8" transform="matrix(1 0 0 1 337.0622 664.1561)" style="overflow:visible;"/>
	</g>
</g>
<g>
	<defs>
		<rect id="SVGID_00000043442813674938683600000011940965420978717327_" x="342.8" y="672" width="700" height="700"/>
	</defs>
	<clipPath id="SVGID_00000054947631131117082370000005301685288582183597_">
		<use xlink:href="#SVGID_00000043442813674938683600000011940965420978717327_"  style="overflow:visible;"/>
	</clipPath>
	<g style="clip-path:url(#SVGID_00000054947631131117082370000005301685288582183597_);">
		
			<use xlink:href="#e"  width="16.8" height="16.1" x="-8.4" y="-8" transform="matrix(1 0 0 1 352.4375 664.351)" style="overflow:visible;"/>
	</g>
</g>
<g>
	<defs>
		<rect id="SVGID_00000078014777806841316410000017621025993954747550_" x="362.1" y="672" width="700" height="700"/>
	</defs>
	<clipPath id="SVGID_00000017503338561213924030000007987791061420306070_">
		<use xlink:href="#SVGID_00000078014777806841316410000017621025993954747550_"  style="overflow:visible;"/>
	</clipPath>
	<g style="clip-path:url(#SVGID_00000017503338561213924030000007987791061420306070_);">
		
			<use xlink:href="#g"  width="8.2" height="27.3" x="-4.1" y="-13.7" transform="matrix(1 0 0 1 365.2148 664.3832)" style="overflow:visible;"/>
	</g>
</g>
<g>
	<defs>
		<rect id="SVGID_00000063615102890155797810000012967968861226172562_" x="371.7" y="672" width="700" height="700"/>
	</defs>
	<clipPath id="SVGID_00000048461899425765790520000010862999510419748237_">
		<use xlink:href="#SVGID_00000063615102890155797810000012967968861226172562_"  style="overflow:visible;"/>
	</clipPath>
	<g style="clip-path:url(#SVGID_00000048461899425765790520000010862999510419748237_);">
		
			<use xlink:href="#b"  width="16.4" height="16.1" x="-8.2" y="-8" transform="matrix(1 0 0 1 381.0785 664.3516)" style="overflow:visible;"/>
	</g>
</g>
<use xlink:href="#m"  width="13.5" height="16.1" x="-6.8" y="-8" transform="matrix(1 0 0 1 398.6096 664.3519)" style="overflow:visible;"/>
<g>
	<defs>
		<rect id="SVGID_00000101785375619480295010000015368362810931464092_" x="407.2" y="672" width="700" height="700"/>
	</defs>
	<clipPath id="SVGID_00000163034893693447085950000000429500641244801466_">
		<use xlink:href="#SVGID_00000101785375619480295010000015368362810931464092_"  style="overflow:visible;"/>
	</clipPath>
	<g style="clip-path:url(#SVGID_00000163034893693447085950000000429500641244801466_);">
		
			<use xlink:href="#c"  width="12.4" height="19.7" x="-6.2" y="-9.8" transform="matrix(1 0 0 1 413.8047 662.1721)" style="overflow:visible;"/>
	</g>
</g>
</svg>
