<svg xmlns="http://www.w3.org/2000/svg" xmlns:xlink="http://www.w3.org/1999/xlink" version="1.1" x="0px" y="0px" viewBox="0 0 100 125" style="enable-background:new 0 0 100 100;" xml:space="preserve"><g><path d="M21.6,83.3c7.6,5.9,16.7,9,26.1,9c1.7,0,3.5-0.1,5.3-0.3c17.6-2.2,31.4-14.9,35.8-31c0.5,0,1.1,0,1.6,0   c1.2,0,2.5,0,3.7-0.1c0.2,0,0.4-0.1,0.5-0.3c0.1-0.2,0.2-0.4,0.1-0.6c-1.3-6.8-3.1-13.7-5.3-20.6c-0.4-1.3-0.9-2.7-1.5-4.3   c-0.1-0.3-0.4-0.5-0.7-0.5c-0.3,0-0.6,0.2-0.7,0.5c-1.5,5.6-3.4,11.3-5.6,16.9c-0.9,2.4-1.9,4.8-3,7.2c-0.1,0.2-0.1,0.4,0,0.6   c0.1,0.2,0.3,0.3,0.5,0.4c1.9,0.2,3.8,0.4,5.7,0.5c-4.3,14.1-16.5,25.1-32,27c-10.1,1.2-20.2-1.5-28.2-7.8   C16.1,73.7,11,64.6,9.8,54.5c-1.2-10.1,1.5-20.2,7.8-28.2c6.3-8.1,15.3-13.2,25.5-14.4c1.2-0.1,2-1.2,1.8-2.4   c-0.1-1.2-1.2-2-2.4-1.8c-11.3,1.4-21.3,7.1-28.3,16C7.3,32.6,4.2,43.7,5.5,55C6.9,66.3,12.6,76.3,21.6,83.3z"/><path d="M38.6,34.5h-5.3c-4.2,0-7.5,3.4-7.5,7.5v15.9c0,4.2,3.4,7.5,7.5,7.5h29.3c4.2,0,7.5-3.4,7.5-7.5V42c0-4.2-3.4-7.5-7.5-7.5   h-5.3c-1-3-3.8-5.2-7.2-5.2h-4.3C42.4,29.3,39.6,31.5,38.6,34.5z M47.9,38.1c6.6,0,11.9,5.3,11.9,11.9s-5.3,11.9-11.9,11.9   S36,56.5,36,50S41.3,38.1,47.9,38.1z"/><circle cx="47.9" cy="50" r="7.6"/></g><text x="0" y="115" fill="#000000" font-size="5px" font-weight="bold" font-family="'Helvetica Neue', Helvetica, Arial-Unicode, Arial, Sans-serif">Created by mikicon</text><text x="0" y="120" fill="#000000" font-size="5px" font-weight="bold" font-family="'Helvetica Neue', Helvetica, Arial-Unicode, Arial, Sans-serif">from the Noun Project</text></svg>