<svg xmlns="http://www.w3.org/2000/svg" xmlns:xlink="http://www.w3.org/1999/xlink" version="1.1" x="0px" y="0px" viewBox="0 0 100 125" enable-background="new 0 0 100 100" xml:space="preserve"><path fill="#000000" d="M49.996,40.515c-25.123,0-44.742,2.901-44.742,6.386c0,3.98,17.52,7.474,40.643,7.846v4.738l11.581-6.975  l-11.581-6.544v4.303c-19.14-0.16-34.099-1.438-34.099-3.437c0-2.921,17.136-5.296,38.198-5.296s38.198,2.375,38.198,5.296  c0,1.826-12.497,3.047-29.248,3.367v4.422c20.68-0.747,35.792-4.024,35.792-7.721C94.738,43.416,75.118,40.515,49.996,40.515z"/><text x="0" y="115" fill="#000000" font-size="5px" font-weight="bold" font-family="'Helvetica Neue', Helvetica, Arial-Unicode, Arial, Sans-serif">Created by Thomas Loizeau</text><text x="0" y="120" fill="#000000" font-size="5px" font-weight="bold" font-family="'Helvetica Neue', Helvetica, Arial-Unicode, Arial, Sans-serif">from the Noun Project</text></svg>