<?xml version="1.0" encoding="utf-8"?>
<!-- Generator: Adobe Illustrator 23.0.3, SVG Export Plug-In . SVG Version: 6.00 Build 0)  -->
<svg version="1.1" id="Layer_1" xmlns="http://www.w3.org/2000/svg" xmlns:xlink="http://www.w3.org/1999/xlink" x="0px" y="0px"
	 viewBox="0 0 112 100" style="enable-background:new 0 0 112 100;" xml:space="preserve">
<style type="text/css">
	.st0{fill:#484848;}
</style>
<g>
	<g>
		<path class="st0" d="M100,90.6h-4.5v-52c0-0.8-0.7-1.5-1.5-1.5H82.1c-0.8,0-1.5,0.7-1.5,1.5v52h-5.9V68.3c0-0.8-0.7-1.5-1.5-1.5
			H61.3c-0.8,0-1.5,0.7-1.5,1.5v22.3h-5.9V49c0-0.8-0.7-1.5-1.5-1.5H40.5c-0.8,0-1.5,0.7-1.5,1.5v41.6h-5.9V77.3
			c0-0.8-0.7-1.5-1.5-1.5H19.8c-0.8,0-1.5,0.7-1.5,1.5v13.4h-4.5c-0.8,0-1.5,0.7-1.5,1.5s0.7,1.5,1.5,1.5h5.9h11.9h8.9h11.9h8.9
			h11.9h8.9H94h5.9c0.8,0,1.5-0.7,1.5-1.5S100.8,90.6,100,90.6z"/>
		<path class="st0" d="M18.3,59.4c0.4,0,0.7-0.1,1-0.4l27.3-25.8l18.3,15.5c0.3,0.3,0.7,0.4,1.1,0.3c0.4,0,0.8-0.2,1-0.5L94,16v4.8
			c0,0.8,0.7,1.5,1.5,1.5s1.5-0.7,1.5-1.5c0-0.4,0-0.8,0-1.2c0-0.9,0-1.8,0-2.8c0-1,0-2,0-3c0-0.6,0-1.2,0-1.8
			c0-0.5-0.1-0.9-0.5-1.2c-0.6-0.6-1.7-0.4-2.5-0.4c-1,0-2,0-3,0c-1,0-2,0-2.9,0c-0.5,0-0.9,0-1.4,0c-0.8,0-1.5,0.7-1.5,1.5
			c0,0.8,0.7,1.5,1.5,1.5h5.7L65.6,45.4L47.4,30.1c-0.6-0.5-1.4-0.5-2,0.1L17.2,56.9c-0.6,0.6-0.6,1.5-0.1,2.1
			C17.5,59.3,17.9,59.4,18.3,59.4z"/>
	</g>
</g>
</svg>
