<svg xmlns:dc="http://purl.org/dc/elements/1.1/" xmlns:cc="http://creativecommons.org/ns#" xmlns:rdf="http://www.w3.org/1999/02/22-rdf-syntax-ns#" xmlns:svg="http://www.w3.org/2000/svg" xmlns="http://www.w3.org/2000/svg" xmlns:sodipodi="http://sodipodi.sourceforge.net/DTD/sodipodi-0.dtd" xmlns:inkscape="http://www.inkscape.org/namespaces/inkscape" version="1.1" x="0px" y="0px" viewBox="0 0 100 125"><g transform="translate(0,-952.36218)"><path style="text-indent:0;text-transform:none;direction:ltr;block-progression:tb;baseline-shift:baseline;color:#000000;enable-background:accumulate;" d="m 50,960.36216 c -23.1603,0 -42,18.83975 -42,42.00004 0,23.1602 18.8397,42 42,42 23.1603,0 42,-18.8398 42,-42 0,-23.16029 -18.8397,-42.00004 -42,-42.00004 z m 0,6 c 19.9175,0 36,16.08245 36,36.00004 0,19.9175 -16.0825,36 -36,36 -19.9175,0 -36,-16.0825 -36,-36 0,-19.91759 16.0825,-36.00004 36,-36.00004 z m -10.625,17 c -2.3118,0.052 -4.3159,1.90874 -4.375,4.56254 l 0,28.8437 c 0.079,3.5382 3.6119,5.6844 6.7188,4 l 25,-14.4687 c 1.3606,-0.7903 2.2812,-2.2408 2.2812,-3.9375 0,-1.6967 -0.9205,-3.1473 -2.2812,-3.9375 l -25,-14.46879 c -0.7768,-0.4211 -1.5732,-0.6111 -2.3438,-0.59375 z" fill="#000000" fill-opacity="1" stroke="none" marker="none" visibility="visible" display="inline" overflow="visible"/></g><text x="0" y="115" fill="#000000" font-size="5px" font-weight="bold" font-family="'Helvetica Neue', Helvetica, Arial-Unicode, Arial, Sans-serif">Created by Numero Uno</text><text x="0" y="120" fill="#000000" font-size="5px" font-weight="bold" font-family="'Helvetica Neue', Helvetica, Arial-Unicode, Arial, Sans-serif">from the Noun Project</text></svg>