<?xml version="1.0" encoding="utf-8"?>
<!-- Generator: Adobe Illustrator 22.1.0, SVG Export Plug-In . SVG Version: 6.00 Build 0)  -->
<svg version="1.1" id="Layer_1" xmlns="http://www.w3.org/2000/svg" xmlns:xlink="http://www.w3.org/1999/xlink" x="0px" y="0px"
	 viewBox="0 0 100 100" style="enable-background:new 0 0 100 100;" xml:space="preserve">
<g>
	<g>
		<path d="M50,88.5c-21.2,0-38.5-17.3-38.5-38.5S28.8,11.5,50,11.5S88.5,28.8,88.5,50S71.2,88.5,50,88.5z M50,16.5
			c-18.5,0-33.5,15-33.5,33.5s15,33.5,33.5,33.5s33.5-15,33.5-33.5S68.5,16.5,50,16.5z"/>
	</g>
	<g>
		<path d="M42,65.8c-0.6,0-1.2-0.2-1.7-0.5c-1.1-0.6-1.8-1.8-1.8-3V37.7c0-1.2,0.7-2.4,1.8-3s2.4-0.6,3.5,0l21,12.3
			c1.1,0.6,1.7,1.8,1.7,3s-0.7,2.4-1.7,3l-21,12.3C43.2,65.6,42.6,65.8,42,65.8z"/>
	</g>
</g>
</svg>
