<?xml version="1.0" encoding="utf-8"?>
<!-- Generator: Adobe Illustrator 21.1.0, SVG Export Plug-In . SVG Version: 6.00 Build 0)  -->
<svg version="1.1"
	 id="Layer_1" xmlns:cc="http://creativecommons.org/ns#" xmlns:dc="http://purl.org/dc/elements/1.1/" xmlns:inkscape="http://www.inkscape.org/namespaces/inkscape" xmlns:rdf="http://www.w3.org/1999/02/22-rdf-syntax-ns#" xmlns:sodipodi="http://sodipodi.sourceforge.net/DTD/sodipodi-0.dtd" xmlns:svg="http://www.w3.org/2000/svg"
	 xmlns="http://www.w3.org/2000/svg" xmlns:xlink="http://www.w3.org/1999/xlink" x="0px" y="0px" viewBox="0 0 705.8 705.8"
	 style="enable-background:new 0 0 705.8 705.8;" xml:space="preserve">
<path d="M352.9,0C158.4,0,0,158.3,0,352.9s158.4,352.9,352.9,352.9c194.6,0,352.9-158.3,352.9-352.9S547.6,0,352.9,0z M352.9,62.5
	c160.2,0,290.4,130.3,290.4,290.4S513.1,643.3,352.9,643.3c-160.1,0-290.4-130.3-290.4-290.4S192.8,62.5,352.9,62.5z M273.1,195.8
	c-5,0-9.9,1.3-14.4,3.8c-8.9,5.1-14.4,14.6-14.4,24.9v256.8c0,10.3,5.5,19.8,14.4,24.9c4.5,2.6,9.4,3.9,14.3,3.9
	c5,0,9.9-1.3,14.4-3.9l222.4-128.4c8.9-5.1,14.4-14.6,14.4-24.9c-0.1-10.3-5.5-19.8-14.4-24.9L287.4,199.6
	C283,197,278.1,195.8,273.1,195.8z M301.8,274.4l136.1,78.5l-136.1,78.6V274.4z"/>
</svg>
