<?xml version="1.0" ?><!DOCTYPE svg  PUBLIC '-//W3C//DTD SVG 1.1//EN'  'http://www.w3.org/Graphics/SVG/1.1/DTD/svg11.dtd'><svg height="256px" style="shape-rendering:geometricPrecision; text-rendering:geometricPrecision; image-rendering:optimizeQuality; fill-rule:evenodd; clip-rule:evenodd" version="1.1" viewBox="0 0 256000 256000" width="256px" xml:space="preserve" xmlns="http://www.w3.org/2000/svg" xmlns:xlink="http://www.w3.org/1999/xlink"><defs><style type="text/css">
   <![CDATA[
    .fil1 {fill:none}
    .fil0 {fill:#DD4B39;fill-rule:nonzero}
   ]]>
  </style></defs><g id="Layer_x0020_1"><polygon class="fil0" points="253278,142113 233222,142113 233222,162167 233222,164891 230499,164891 207721,164891 204997,164891 204997,162167 204997,142113 184942,142113 182219,142113 182219,139389 182219,116611 182219,113888 184942,113888 204997,113888 204997,93833 204997,91109 207721,91109 230499,91109 233222,91109 233222,93833 233222,113888 253278,113888 256000,113888 256000,116611 256000,139389 256000,142113 "/><path class="fil0" d="M82444 210444c-22959,0 -43569,-9130 -58442,-24003 -14872,-14872 -24002,-35483 -24002,-58441 0,-22958 9130,-43569 24002,-58441 14873,-14873 35483,-24004 58442,-24004 10971,0 21113,1994 30281,5700 9527,3852 17969,9534 25173,16738l1973 1975 -2026 1919 -21640 20498 -1928 1826 -1870 -1869c-3027,-3028 -7428,-6399 -13390,-8741 -4562,-1792 -10053,-2989 -16573,-2989 -12826,0 -24321,5310 -32636,13819 -8434,8631 -13611,20552 -13611,33569 0,13017 5177,24938 13611,33569 8315,8509 19810,13819 32636,13819 12271,0 21290,-3512 27809,-8402 8026,-6019 12327,-14127 14243,-20317l-42052 0 -2724 0 0 -2724 0 -27334 0 -2723 2724 0 75168 0 2122 0 516 2064c1224,4895 1224,8431 1224,14323l0 3 0 0c0,23509 -7975,43532 -21857,57709 -13888,14183 -33636,22457 -57172,22457l-1 0z"/></g><rect class="fil1" height="256000" width="256000"/></svg>