<?xml version="1.0" encoding="utf-8"?>
<!-- Generator: Adobe Illustrator 23.0.1, SVG Export Plug-In . SVG Version: 6.00 Build 0)  -->
<svg version="1.1" id="Layer_1" xmlns="http://www.w3.org/2000/svg" xmlns:xlink="http://www.w3.org/1999/xlink" x="0px" y="0px"
	 viewBox="0 0 100 125" style="enable-background:new 0 0 100 125;" xml:space="preserve">
<path d="M64.9,75.8c-3.8,0-7.8-1.9-11.5-5.6l-28.9-29c-1.1-1.1-2.5-3.2-3-5.7c-0.4-2.1-0.2-5.3,2.8-8.3c3.1-3.1,6.1-3.3,8.1-3
	c2.9,0.5,5,2.3,5.8,3.1l29.1,29.1c0.8,0.8,2.6,2.6,2.6,5.1c0,1.5-0.7,2.9-2,4.2c-1.2,1.2-4.4,3.4-8.9-1.1l-29-29
	c-0.6-0.6-0.6-1.5,0-2.1c0.6-0.6,1.5-0.6,2.1,0l29,29c2.9,2.9,4.2,1.6,4.7,1.1c0.7-0.7,1.1-1.4,1.1-2.1c0-1.2-1.2-2.4-1.7-3
	L36.1,29.4c-0.6-0.6-2.1-1.9-4.1-2.2c-1.9-0.3-3.8,0.4-5.5,2.2c-1.7,1.7-2.3,3.6-2,5.6c0.3,1.8,1.3,3.3,2.1,4.1l28.9,29
	c3.4,3.4,10,8,16.7,1.3c3.1-3.1,4-6.3,2.9-9.8c-0.7-2.2-2.2-4.5-4.4-6.7L45.5,27.8c-0.6-0.6-0.6-1.5,0-2.1c0.6-0.6,1.5-0.6,2.1,0
	l25.2,25.1c2.5,2.5,4.3,5.3,5.1,7.9c1.4,4.6,0.2,9-3.7,12.8C71.5,74.4,68.3,75.8,64.9,75.8z"/>
</svg>
