<svg xmlns="http://www.w3.org/2000/svg" xmlns:xlink="http://www.w3.org/1999/xlink" version="1.1" x="0px" y="0px" viewBox="0 0 100 125" style="enable-background:new 0 0 100 100;" xml:space="preserve"><g><path d="M27.4,72.6c3.2,3.2,7.5,5,12,5c4.5,0,8.8-1.8,12-5l5.7-5.7c1.2-1.2,1.2-3.1,0-4.2c-1.2-1.2-3.1-1.2-4.2,0l-5.7,5.7   c-2.1,2.1-4.8,3.2-7.8,3.2c-2.9,0-5.7-1.1-7.8-3.2c-2.1-2.1-3.2-4.8-3.2-7.8s1.1-5.7,3.2-7.8l5.7-5.7c1.2-1.2,1.2-3.1,0-4.2   c-1.2-1.2-3.1-1.2-4.2,0l-5.7,5.7c-3.2,3.2-5,7.5-5,12S24.2,69.4,27.4,72.6z"/><path d="M62.7,52.8c-1.2,1.2-1.2,3.1,0,4.2c0.6,0.6,1.4,0.9,2.1,0.9s1.5-0.3,2.1-0.9l5.7-5.7c3.2-3.2,5-7.5,5-12s-1.8-8.8-5-12   c-3.2-3.2-7.5-5-12-5c-4.5,0-8.8,1.8-12,5L42.9,33c-1.2,1.2-1.2,3.1,0,4.2c1.2,1.2,3.1,1.2,4.2,0l5.7-5.7c2.1-2.1,4.8-3.2,7.8-3.2   c2.9,0,5.7,1.1,7.8,3.2c2.1,2.1,3.2,4.8,3.2,7.8s-1.1,5.7-3.2,7.8L62.7,52.8z"/><path d="M55,40.8L40.8,55c-1.2,1.2-1.2,3.1,0,4.2c0.6,0.6,1.4,0.9,2.1,0.9s1.5-0.3,2.1-0.9L59.2,45c1.2-1.2,1.2-3.1,0-4.2   C58,39.6,56.1,39.6,55,40.8z"/></g><text x="0" y="115" fill="#000000" font-size="5px" font-weight="bold" font-family="'Helvetica Neue', Helvetica, Arial-Unicode, Arial, Sans-serif">Created by Agrahara</text><text x="0" y="120" fill="#000000" font-size="5px" font-weight="bold" font-family="'Helvetica Neue', Helvetica, Arial-Unicode, Arial, Sans-serif">from the Noun Project</text></svg>