<?xml version="1.0" encoding="utf-8"?>
<!-- Generator: Adobe Illustrator 23.0.1, SVG Export Plug-In . SVG Version: 6.00 Build 0)  -->
<svg version="1.1" id="Layer_1" xmlns="http://www.w3.org/2000/svg" xmlns:xlink="http://www.w3.org/1999/xlink" x="0px" y="0px"
	 viewBox="0 0 100 125" style="enable-background:new 0 0 100 125;" xml:space="preserve">
<path d="M89.8,62.5L77.3,50c2.4-3.7,3.7-8,3.7-12.7c0-13-10.5-23.5-23.5-23.5S34.1,24.4,34.1,37.3s10.5,23.5,23.5,23.5
	c4.7,0,9-1.4,12.7-3.7l12.5,12.5c1,1,2.3,1.5,3.5,1.5s2.6-0.5,3.5-1.5C91.8,67.7,91.8,64.5,89.8,62.5z M57.6,55.8
	c-10.2,0-18.5-8.3-18.5-18.5s8.3-18.5,18.5-18.5s18.5,8.3,18.5,18.5S67.8,55.8,57.6,55.8z M54.1,64.6v14.6H15.7V40.8h14.6
	c-0.1-1.1-0.2-2.3-0.2-3.5s0.1-2.4,0.2-3.5H8.7v52.4h52.4V64.6c-1.2,0.1-2.3,0.2-3.5,0.2C56.4,64.8,55.2,64.7,54.1,64.6z M43.3,34.8
	h16.8v16.8c2.7-0.5,5.1-1.7,7-3.4V27.8H46.7C45,29.7,43.8,32.1,43.3,34.8z M18.4,74.4h23.1L30,53.8L18.4,74.4z M51.3,74.4L43,59.6
	l-3.6,6.5l4.6,8.3L51.3,74.4L51.3,74.4z M26.3,51c0-1.8-1.4-3.2-3.2-3.2c-1.8,0-3.2,1.4-3.2,3.2c0,1.8,1.4,3.2,3.2,3.2
	C24.9,54.2,26.3,52.8,26.3,51z"/>
</svg>
