<svg xmlns="http://www.w3.org/2000/svg" xmlns:xlink="http://www.w3.org/1999/xlink" version="1.0" x="0px" y="0px" viewBox="0 0 100 125" enable-background="new 0 0 100 100" xml:space="preserve"><path d="M31.195,75.176c0,8.489-6.882,15.371-15.372,15.371S0.452,83.665,0.452,75.176s6.882-15.371,15.371-15.371  S31.195,66.687,31.195,75.176z M15.823,66.204c-4.955,0-8.973,4.017-8.973,8.972s4.018,8.973,8.973,8.973  c4.956,0,8.972-4.018,8.972-8.973S20.779,66.204,15.823,66.204z M84.081,59.805c-8.489,0-15.371,6.882-15.371,15.371  s6.882,15.371,15.371,15.371c8.488,0,15.371-6.882,15.371-15.371S92.569,59.805,84.081,59.805z M93.053,75.176  c0,4.955-4.017,8.973-8.972,8.973s-8.973-4.018-8.973-8.973s4.018-8.972,8.973-8.972S93.053,70.221,93.053,75.176z M84.081,56.238  c0.556,0,1.104,0.029,1.647,0.076l0.046-0.076c0,0,2.316-3.474,2.316-6.058c0-8.376-17.02-12.832-17.02-12.832l-2.377,3.925  c-2.377-1.169-4.884-2.551-6.398-3.789c-2.803-2.294-10.07-11.045-10.792-11.717c-2.509-2.333-6.433-2.192-8.766,0.316  c-0.139,0.149-3.426,3.688-6.77,7.69c-1.297,1.554-2.39,2.918-3.312,4.131c0.597,0.669,5.228,5.641,11.052,5.936  c0.015,0.001,0.029,0.003,0.044,0.005c2.09-2.614,4.789-5.742,7.327-8.509c2.252,2.418,5.072,5.313,7.201,7.056  c1.864,1.525,4.602,3.065,7.117,4.325l-3.238,5.346v-0.409c0-0.863-0.699-1.563-1.562-1.563H49.881  c-2.343-0.967-4.624-2.014-6.474-2.957c-6.227-0.375-11.049-4.76-12.717-6.486c-2.181,3.277-2.714,5.168-2.714,6.948  c0,1.359,0.337,2.579,0.973,3.706l-18.632-1.823l-2.086,8.346c2.325-1.019,4.892-1.587,7.592-1.587  c10.459,0,18.938,8.479,18.938,18.938c0,1.776-0.25,3.493-0.707,5.124h31.797c-0.457-1.631-0.707-3.348-0.707-5.124  C65.144,64.717,73.623,56.238,84.081,56.238z M61.945,26.882c1.799-1.985,1.923-4.155,1.923-4.155l-0.279-0.11  c-0.014-0.857-0.156-1.969-0.156-1.969s-0.029-0.465-0.465-0.465c0,0,0,0-0.185,0.465c-0.187,0.465-0.87,0.714-0.87,0.714  s-2.573-0.651-3.068-0.899c-0.497-0.249-0.528-0.869-0.528-0.869s0.124-1.426,0.124-2.294s0.745-0.868,0.745-0.868  s3.008-0.031,3.411-0.094c0.304-0.045,0.325-0.394,0.317-0.561l0.365,0.003c0,0-1.924-6.482-8.156-6.482  c-6.233,0-8.498,4.218-8.498,7.319c0,3.101,1.055,5.303,1.055,5.303L61.945,26.882z"/><text x="0" y="115" fill="#000000" font-size="5px" font-weight="bold" font-family="'Helvetica Neue', Helvetica, Arial-Unicode, Arial, Sans-serif">Created by Effach</text><text x="0" y="120" fill="#000000" font-size="5px" font-weight="bold" font-family="'Helvetica Neue', Helvetica, Arial-Unicode, Arial, Sans-serif">from the Noun Project</text></svg>