<svg xmlns="http://www.w3.org/2000/svg" xmlns:xlink="http://www.w3.org/1999/xlink" version="1.1" x="0px" y="0px" viewBox="0 0 100 125" style="enable-background:new 0 0 100 100;" xml:space="preserve"><path d="M50,0.9C22.9,0.9,0.9,22.9,0.9,50c0,27.1,22,49.1,49.1,49.1c27.1,0,49.1-22,49.1-49.1  C99.1,22.9,77.1,0.9,50,0.9z M50,90.8C27.5,90.8,9.2,72.5,9.2,50C9.2,27.5,27.5,9.2,50,9.2c22.5,0,40.8,18.3,40.8,40.8  C90.8,72.5,72.5,90.8,50,90.8z"/><path d="M41.5,66.9c0.6,0.3,1.2,0.4,1.8,0.4c0.7,0,1.5-0.2,2.1-0.7l20.2-13.8c1-0.7,1.6-1.9,1.6-3.1  c0-1.2-0.6-2.4-1.7-3.1L45.3,33.2c-1.2-0.8-2.6-0.8-3.9-0.2c-1.2,0.7-2,1.9-2,3.3v27.2C39.5,65,40.2,66.3,41.5,66.9z"/><text x="0" y="115" fill="#000000" font-size="5px" font-weight="bold" font-family="'Helvetica Neue', Helvetica, Arial-Unicode, Arial, Sans-serif">Created by Aneeque Ahmed</text><text x="0" y="120" fill="#000000" font-size="5px" font-weight="bold" font-family="'Helvetica Neue', Helvetica, Arial-Unicode, Arial, Sans-serif">from the Noun Project</text></svg>