<svg xmlns="http://www.w3.org/2000/svg" xmlns:xlink="http://www.w3.org/1999/xlink" version="1.1" preserveAspectRatio="none" x="0px" y="0px" viewBox="0 0 100 125"><defs><g id="a"><path fill="#000000" stroke="none" d=" M 48.4 64.5 L 78.15 83.65 48.4 16.35 21.85 83.65 48.4 64.5 M -5.3 -52.15 L -31 -97.85 -30.85 -74.85 -55.05 -73.75 -5.3 -47.75 -5.3 -52.15 M -128.75 -73.75 L -153 -74.85 -152.85 -97.85 -182.05 -45.95 -128.75 -73.75 M -118.55 -70.15 L -94.3 -68.95 -94.5 -45.95 -65.3 -97.85 -118.55 -70.15 M -288.55 -103 L -270.55 -45.7 -254.4 -103 -270.55 -86.7 -288.55 -103 M -216.3 -45.95 L -216.5 -68.95 -192.25 -70.15 -245.55 -97.85 -216.3 -45.95 M -312.15 -62.05 L -296 -45.7 -312.15 -103 -330.15 -45.7 -312.15 -62.05 M -338.3 -58.65 L -354.65 -76.65 -338.3 -92.75 -395.6 -76.65 -338.3 -58.65 M -447.2 -76.65 L -463.5 -58.65 -406.2 -76.65 -463.5 -92.75 -447.2 -76.65 Z"/></g></defs><g transform="matrix( 1, 0, 0, 1, 0,0) "><use xlink:href="#a"/></g><text x="0" y="115" fill="#000000" font-size="5px" font-weight="bold" font-family="'Helvetica Neue', Helvetica, Arial-Unicode, Arial, Sans-serif">Created by Oliver Kittler</text><text x="0" y="120" fill="#000000" font-size="5px" font-weight="bold" font-family="'Helvetica Neue', Helvetica, Arial-Unicode, Arial, Sans-serif">from the Noun Project</text></svg>