<svg xmlns="http://www.w3.org/2000/svg" xmlns:xlink="http://www.w3.org/1999/xlink" version="1.1" x="0px" y="0px" viewBox="0 0 100 125" style="enable-background:new 0 0 100 100;" xml:space="preserve"><g><path d="M51,15.8h-5.6c-4.4,0-8.1,2.9-9.4,6.8h-7c-5.5,0-9.9,4.5-9.9,9.9v20.9c0,5.5,4.5,9.9,9.9,9.9h38.5c5.5,0,9.9-4.5,9.9-9.9   V32.5c0-5.5-4.5-9.9-9.9-9.9h-7C59,18.7,55.3,15.8,51,15.8z M48.1,58.6c-8.6,0-15.6-7-15.6-15.6s7-15.6,15.6-15.6s15.6,7,15.6,15.6   S56.7,58.6,48.1,58.6z"/><path d="M48.1,32.9c-5.5,0-10,4.5-10,10s4.5,10,10,10s10-4.5,10-10S53.7,32.9,48.1,32.9z"/><path d="M95,55c-1.4,0-2.5,1.1-2.5,2.5c0,11.3-19.9,20.8-43.5,20.8c-4.7,0-9.4-0.4-13.8-1.1l4.3-2.4l-6.2-1.5   c-2.5-0.6-4.9-1.2-7.2-1.9h0c-5.5-1.5-10.8-3.1-15.8-4.8L2.5,64l5,6.5c0.7,0.9,1.3,1.6,1.8,2.3c3,3.6,6.4,7.1,10,10.3l1.1,1   l1.4-0.6c2.2-0.9,4.3-1.8,6.3-2.8c6.4,1.6,13.5,2.4,20.7,2.4c27.2,0,48.5-11.3,48.5-25.8C97.5,56.1,96.4,55,95,55z"/></g><text x="0" y="115" fill="#000000" font-size="5px" font-weight="bold" font-family="'Helvetica Neue', Helvetica, Arial-Unicode, Arial, Sans-serif">Created by mikicon</text><text x="0" y="120" fill="#000000" font-size="5px" font-weight="bold" font-family="'Helvetica Neue', Helvetica, Arial-Unicode, Arial, Sans-serif">from the Noun Project</text></svg>