<svg enable-background="new 0 0 512 512" viewBox="0 0 512 640" xmlns="http://www.w3.org/2000/svg"><path d="m256 506c-66.8 0-129.6-26-176.8-73.2s-73.2-110-73.2-176.8 26-129.6 73.2-176.8 110-73.2 176.8-73.2 129.6 26 176.8 73.2 73.2 110 73.2 176.8-26 129.6-73.2 176.8-110 73.2-176.8 73.2zm0-490c-132.3 0-240 107.7-240 240s107.7 240 240 240 240-107.7 240-240-107.7-240-240-240z"/><path d="m206.3 310.5 49.7 49.7 49.7-49.7 6.3 6.4-56 56-56-56z"/><path d="m251.5 132.2h9v229.7h-9z"/><g font-family="'Helvetica Neue', Helvetica, Arial-Unicode, Arial, Sans-serif" font-size="5" font-weight="bold"><text y="527">Created by SBTS</text><text y="532">from the Noun Project</text></g></svg>