<?xml version="1.0" encoding="utf-8"?>
<!-- Generator: Adobe Illustrator 21.1.0, SVG Export Plug-In . SVG Version: 6.00 Build 0)  -->
<svg version="1.1" id="Layer_1" xmlns="http://www.w3.org/2000/svg" xmlns:xlink="http://www.w3.org/1999/xlink" x="0px" y="0px"
	 viewBox="0 0 77.4 61" style="enable-background:new 0 0 77.4 61;" xml:space="preserve">
<g>
	<path d="M75.3,7.2l-16.5-7C57.3-0.2,55,0,53.6,0.8L1.5,29c-1.4,0.7-1.9,2.5-1.1,3.8l14.5,26.7c0.7,1.4,2.5,1.9,3.8,1.1l52.2-28.3
		c1.4-0.7,2.9-2.6,3.3-4.1l3.2-17.6C77.7,9.2,76.8,7.6,75.3,7.2z M69,18c-2.2,1.2-4.9,0.4-6.1-1.8c-1.2-2.2-0.4-4.9,1.8-6.1
		c2.2-1.2,4.9-0.4,6.1,1.8C72,14.1,71.2,16.8,69,18z"/>
</g>
</svg>
