<svg xmlns="http://www.w3.org/2000/svg" xmlns:xlink="http://www.w3.org/1999/xlink" version="1.1" x="0px" y="0px" viewBox="0 0 100 125" enable-background="new 0 0 100 100" xml:space="preserve"><path d="M95,93V52l-4-12V18h-7v29H74v30h-4V38.5L62,30V1h-3v6L49,17v10H34v48h-4V42h-9v20H10v31H0v7h100v-7H95z M20,91h-6v-6h6V91z   M20,82h-6v-6h6V82z M20,73h-6v-6h6V73z M49,88h-7v-7h7V88z M49,78h-7v-7h7V78z M49,68h-7v-7h7V68z M49,58h-7v-7h7V58z M49,48h-7v-7  h7V48z M49,38h-7v-7h7V38z M84,87h-7v-7h7V87z M84,77h-7v-7h7V77z M84,67h-7v-7h7V67z M84,57h-7v-7h7V57z"/><text x="0" y="115" fill="#000000" font-size="5px" font-weight="bold" font-family="'Helvetica Neue', Helvetica, Arial-Unicode, Arial, Sans-serif">Created by Thengakola</text><text x="0" y="120" fill="#000000" font-size="5px" font-weight="bold" font-family="'Helvetica Neue', Helvetica, Arial-Unicode, Arial, Sans-serif">from the Noun Project</text></svg>