<svg xmlns="http://www.w3.org/2000/svg" xmlns:xlink="http://www.w3.org/1999/xlink" version="1.1" x="0px" y="0px" viewBox="0 0 100 125" enable-background="new 0 0 100 100" xml:space="preserve"><path d="M92.39,33.324c2.776,2.074,3.079,6.125,0.649,8.595l-4.38,4.453c-1.828,1.858-4.68,2.246-6.937,0.944l-11.097-6.398  c-0.109-0.063-0.219-0.122-0.336-0.168c-0.451-0.178-2.33-1.297-3.684-7.836c-0.446-2.152-2.082-3.866-4.216-4.393  c-2.867-0.707-7.23-1.52-12.388-1.609c-5.158,0.089-9.521,0.901-12.388,1.609c-2.134,0.526-3.77,2.241-4.216,4.393  c-1.354,6.539-3.233,7.658-3.684,7.836c-0.117,0.046-0.227,0.105-0.336,0.168l-11.097,6.398c-2.258,1.302-5.11,0.913-6.937-0.944  l-4.38-4.453c-2.43-2.47-2.127-6.522,0.649-8.595C22.825,21.957,37.288,18.042,50,18.044C62.712,18.042,77.175,21.957,92.39,33.324z   M44.706,48.081L44.706,48.081c0,2.112,1.728,3.841,3.841,3.841h2.907c2.112,0,3.841-1.728,3.841-3.841v0  c0-2.112-1.728-3.841-3.841-3.841h-2.907C46.434,44.241,44.706,45.969,44.706,48.081z M58.406,48.081L58.406,48.081  c0,2.112,1.728,3.841,3.841,3.841h2.907c2.112,0,3.841-1.728,3.841-3.841v0c0-2.112-1.728-3.841-3.841-3.841h-2.907  C60.134,44.241,58.406,45.969,58.406,48.081z M31.006,48.081L31.006,48.081c0,2.112,1.728,3.841,3.841,3.841h2.907  c2.112,0,3.841-1.728,3.841-3.841v0c0-2.112-1.728-3.841-3.841-3.841h-2.907C32.735,44.241,31.006,45.969,31.006,48.081z   M44.706,58.093L44.706,58.093c0,2.112,1.728,3.841,3.841,3.841h2.907c2.112,0,3.841-1.728,3.841-3.841v0  c0-2.112-1.728-3.841-3.841-3.841h-2.907C46.434,54.252,44.706,55.98,44.706,58.093z M58.406,58.093L58.406,58.093  c0,2.112,1.728,3.841,3.841,3.841h2.907c2.112,0,3.841-1.728,3.841-3.841v0c0-2.112-1.728-3.841-3.841-3.841h-2.907  C60.134,54.252,58.406,55.98,58.406,58.093z M31.006,58.093L31.006,58.093c0,2.112,1.728,3.841,3.841,3.841h2.907  c2.112,0,3.841-1.728,3.841-3.841v0c0-2.112-1.728-3.841-3.841-3.841h-2.907C32.735,54.252,31.006,55.98,31.006,58.093z   M44.706,68.104L44.706,68.104c0,2.112,1.728,3.841,3.841,3.841h2.907c2.112,0,3.841-1.728,3.841-3.841v0  c0-2.112-1.728-3.841-3.841-3.841h-2.907C46.434,64.263,44.706,65.991,44.706,68.104z M58.406,68.104L58.406,68.104  c0,2.112,1.728,3.841,3.841,3.841h2.907c2.112,0,3.841-1.728,3.841-3.841v0c0-2.112-1.728-3.841-3.841-3.841h-2.907  C60.134,64.263,58.406,65.991,58.406,68.104z M31.006,68.104L31.006,68.104c0,2.112,1.728,3.841,3.841,3.841h2.907  c2.112,0,3.841-1.728,3.841-3.841v0c0-2.112-1.728-3.841-3.841-3.841h-2.907C32.735,64.263,31.006,65.991,31.006,68.104z   M58.406,78.115L58.406,78.115c0,2.112,1.728,3.841,3.841,3.841h2.907c2.112,0,3.841-1.728,3.841-3.841v0  c0-2.112-1.728-3.841-3.841-3.841h-2.907C60.134,74.274,58.406,76.003,58.406,78.115z M31.006,78.115L31.006,78.115  c0,2.112,1.728,3.841,3.841,3.841h2.907c2.112,0,3.841-1.728,3.841-3.841v0c0-2.112-1.728-3.841-3.841-3.841h-2.907  C32.735,74.274,31.006,76.003,31.006,78.115z"/><text x="0" y="115" fill="#000000" font-size="5px" font-weight="bold" font-family="'Helvetica Neue', Helvetica, Arial-Unicode, Arial, Sans-serif">Created by Gregor Cresnar</text><text x="0" y="120" fill="#000000" font-size="5px" font-weight="bold" font-family="'Helvetica Neue', Helvetica, Arial-Unicode, Arial, Sans-serif">from the Noun Project</text></svg>