<svg xmlns="http://www.w3.org/2000/svg" xmlns:xlink="http://www.w3.org/1999/xlink" version="1.1" x="0px" y="0px" viewBox="0 0 100 125" enable-background="new 0 0 100 100" xml:space="preserve"><title>Tag</title><path d="M93.68,0H58.24c-3.857,0.046-7.572,1.464-10.48,4L2.16,49.24l0,0c-2.784,2.683-2.865,7.114-0.182,9.897  c0.06,0.062,0.12,0.122,0.182,0.183l38.52,38.52c2.856,2.861,7.491,2.865,10.352,0.008c0.003-0.002,0.005-0.005,0.008-0.008  L96,52.24c2.535-2.908,3.953-6.623,4-10.48V6.32c0.326-3.164-1.975-5.994-5.139-6.32C94.469-0.041,94.072-0.041,93.68,0z M72,40  c-6.627,0-12-5.373-12-12s5.373-12,12-12s12,5.373,12,12S78.627,40,72,40z"/><text x="0" y="115" fill="#000000" font-size="5px" font-weight="bold" font-family="'Helvetica Neue', Helvetica, Arial-Unicode, Arial, Sans-serif">Created by Suresh Savani</text><text x="0" y="120" fill="#000000" font-size="5px" font-weight="bold" font-family="'Helvetica Neue', Helvetica, Arial-Unicode, Arial, Sans-serif">from the Noun Project</text></svg>