<?xml version="1.0" encoding="utf-8"?>
<!-- Generator: Adobe Illustrator 21.1.0, SVG Export Plug-In . SVG Version: 6.00 Build 0)  -->
<svg version="1.1" id="Layer_1" xmlns="http://www.w3.org/2000/svg" xmlns:xlink="http://www.w3.org/1999/xlink" x="0px" y="0px"
	 viewBox="0 0 58.2 55" style="enable-background:new 0 0 58.2 55;" xml:space="preserve">
<path d="M58.2,15.3c0-8.4-6.8-15.2-15.2-15.2c-6.1,0-11.3,3.5-13.7,8.7l-0.1-0.1l0,0l-0.1,0.1c-0.2-0.2-0.3-0.3-0.3-0.5
	C26.3,3.4,21.1,0,15.2,0C6.8,0,0,6.8,0,15.2c0,3.9,1.5,7.5,3.9,10.2l0,0L29.1,55l0,0l25.2-29.6l0,0C56.7,22.7,58.2,19.2,58.2,15.3z"
	/>
</svg>
