<?xml version="1.0" encoding="utf-8"?>
<!-- Generator: Adobe Illustrator 21.1.0, SVG Export Plug-In . SVG Version: 6.00 Build 0)  -->
<svg version="1.1" id="Layer_1" xmlns="http://www.w3.org/2000/svg" xmlns:xlink="http://www.w3.org/1999/xlink" x="0px" y="0px"
	 viewBox="0 0 70.9 36" style="enable-background:new 0 0 70.9 36;" xml:space="preserve">
<path d="M17.9,0h-7L3.4,8.7C3.1,9,2.9,9.3,2.6,9.6C2.5,9.7,2.4,9.8,2.3,10c-0.8,0.9-1.5,1.7-2.3,2.6c0.8,0.9,1.6,1.8,2.3,2.8
	c0.3,0.4,0.6,0.8,1,1.1H3.2l5.1,5.9c0.8,0.9,1.5,1.8,2.3,2.7l0,0l0.3,0.3h7l-8.6-10l-2-2.3l2,2.3c16.1,0.1,32.3,0.1,48.5,0.2
	c2.3,0.1,4.2,1.1,5.6,2.5s2.2,3.3,2.2,5.2v0.4c-0.1,1.6-0.8,3.2-2,4.5c-1.1,1.2-2.7,2.2-4.6,2.5c-8.7,0-17.5,0-26.2,0V36
	c8.9,0,17.7,0,26.6,0h0.2h0.2c3.1-0.6,5.8-2.1,7.7-4.2c2-2.1,3.2-4.9,3.4-7.8c0-0.2,0-0.4,0-0.7c0-3.4-1.4-6.5-3.7-8.9
	c-2.3-2.4-5.5-4-9.2-4.1h-0.1h-0.1c-16.2-0.1-32.3-0.1-48.5-0.2L17.9,0"/>
</svg>
