<svg xmlns="http://www.w3.org/2000/svg" xmlns:xlink="http://www.w3.org/1999/xlink" version="1.1" x="0px" y="0px" viewBox="0 0 110 137.5" enable-background="new 0 0 110 110" xml:space="preserve"><path d="M43.577,45.449c0,0.553-0.447,1-1,1H18.94c-0.553,0-1-0.447-1-1s0.447-1,1-1h23.637  C43.13,44.449,43.577,44.896,43.577,45.449z M42.577,63.551H18.94c-0.553,0-1,0.447-1,1s0.447,1,1,1h23.637c0.553,0,1-0.447,1-1  S43.13,63.551,42.577,63.551z M33.882,55c0-0.553-0.447-1-1-1H4.999c-0.553,0-1,0.447-1,1s0.447,1,1,1h27.883  C33.435,56,33.882,55.553,33.882,55z M106.001,40.18V69.82c0,3.309-2.691,6-6,6h-45.42c-3.309,0-6-2.691-6-6V40.18  c0-3.309,2.691-6,6-6h45.42C103.31,34.18,106.001,36.871,106.001,40.18z M54.581,36.18c-0.733,0-1.412,0.213-2.004,0.559  l22.975,18.199c0.922,0.732,2.539,0.731,3.461,0.001l22.983-18.205c-0.59-0.343-1.266-0.554-1.995-0.554H54.581z M104.001,40.18  c0-0.743-0.217-1.432-0.571-2.029L80.255,56.507c-0.833,0.66-1.902,0.99-2.972,0.99c-1.07,0-2.141-0.331-2.974-0.992L51.148,38.158  c-0.352,0.596-0.567,1.281-0.567,2.021V69.82c0,2.206,1.794,4,4,4h45.42c2.206,0,4-1.794,4-4V40.18z"/><text x="0" y="125" fill="#000000" font-size="5px" font-weight="bold" font-family="'Helvetica Neue', Helvetica, Arial-Unicode, Arial, Sans-serif">Created by dilakuscan</text><text x="0" y="130" fill="#000000" font-size="5px" font-weight="bold" font-family="'Helvetica Neue', Helvetica, Arial-Unicode, Arial, Sans-serif">from the Noun Project</text></svg>