<svg xmlns="http://www.w3.org/2000/svg" data-name="Layer 1" viewBox="0 0 100 125" x="0px" y="0px"><title>2Artboard 30</title><path d="M65.26,20H34.74A4,4,0,0,0,31,22.56L18,56V74a6,6,0,0,0,6,6H76a6,6,0,0,0,6-6V56L69,22.56A4,4,0,0,0,65.26,20ZM60,56v5a5,5,0,0,1-5,5H45a5,5,0,0,1-5-5V56H26.58L37.47,28H62.53L73.42,56Z"/><text x="0" y="115" fill="#000000" font-size="5px" font-weight="bold" font-family="'Helvetica Neue', Helvetica, Arial-Unicode, Arial, Sans-serif">Created by Gregor Cresnar</text><text x="0" y="120" fill="#000000" font-size="5px" font-weight="bold" font-family="'Helvetica Neue', Helvetica, Arial-Unicode, Arial, Sans-serif">from the Noun Project</text></svg>