<svg xmlns="http://www.w3.org/2000/svg" xmlns:xlink="http://www.w3.org/1999/xlink" version="1.1" x="0px" y="0px" viewBox="0 0 95 118.75" enable-background="new 0 0 95 95" xml:space="preserve"><g><path d="M69.099,26.184H64.89v31.129c0,0.894-0.724,1.618-1.618,1.618H36.438c3.65,4.311,9.099,7.05,15.188,7.05h12.438   l13.513,11.503V64.085c6.749-3.184,11.42-10.046,11.42-18.002C88.998,35.092,80.089,26.184,69.099,26.184z"/><path d="M63.271,55.696v-31.13v-5.432c0-0.893-0.725-1.617-1.617-1.617H7.62c-0.894,0-1.618,0.724-1.618,1.617v36.563   c0,0.894,0.725,1.617,1.618,1.617h5.595v11.503l13.515-11.503h8.09h26.835C62.547,57.313,63.271,56.589,63.271,55.696z"/></g><text x="0" y="110" fill="#000000" font-size="5px" font-weight="bold" font-family="'Helvetica Neue', Helvetica, Arial-Unicode, Arial, Sans-serif">Created by Guilherme Furtado</text><text x="0" y="115" fill="#000000" font-size="5px" font-weight="bold" font-family="'Helvetica Neue', Helvetica, Arial-Unicode, Arial, Sans-serif">from the Noun Project</text></svg>