<svg xmlns="http://www.w3.org/2000/svg" xmlns:xlink="http://www.w3.org/1999/xlink" version="1.1" x="0px" y="0px" viewBox="0 0 22 27.5" style="enable-background:new 0 0 22 22;" xml:space="preserve"><g><path d="M0,2v12c0,1.104,0.895,2,2,2h7v6l5-6h6c1.104,0,2-0.896,2-2V2c0-1.105-0.896-2-2-2H2C0.895,0,0,0.896,0,2z M17,6   c1.104,0,2,0.896,2,2s-0.896,2-2,2c-1.106,0-2-0.896-2-2S15.894,6,17,6z M11,6c1.104,0,2,0.896,2,2s-0.896,2-2,2   c-1.106,0-2-0.896-2-2S9.894,6,11,6z M5,6c1.104,0,2,0.896,2,2s-0.896,2-2,2c-1.106,0-2-0.896-2-2S3.894,6,5,6z"/></g><text x="0" y="37" fill="#000000" font-size="5px" font-weight="bold" font-family="'Helvetica Neue', Helvetica, Arial-Unicode, Arial, Sans-serif">Created by Hea Poh Lin</text><text x="0" y="42" fill="#000000" font-size="5px" font-weight="bold" font-family="'Helvetica Neue', Helvetica, Arial-Unicode, Arial, Sans-serif">from the Noun Project</text></svg>