<svg xmlns="http://www.w3.org/2000/svg" xmlns:xlink="http://www.w3.org/1999/xlink" version="1.1" x="0px" y="0px" viewBox="0 0 100 125" enable-background="new 0 0 100 100" xml:space="preserve"><path d="M15.334,88.728h32.297V95H5V51.789h5.662v32.267v4.672H15.334z M78.613,48.407l-9.071-9.529L55.69,49.228l-14.821-4.545  L26.297,56.54v16.301h52.316V48.407z M39.241,36.851c3.287,0,5.954-2.667,5.954-5.955c0-3.287-2.667-5.953-5.954-5.953  c-3.287,0-5.953,2.666-5.953,5.953C33.288,34.184,35.954,36.851,39.241,36.851z M15.334,84.056h73.975V35.12  c-1.706,0.852-3.561,1.44-5.517,1.721V78.54H20.85V16.207h42.309c0.28-1.956,0.869-3.811,1.721-5.516H15.334V84.056z M67.391,18.804  C67.391,11.18,73.571,5,81.194,5C88.819,5,95,11.18,95,18.804c0,7.625-6.181,13.805-13.806,13.805  C73.571,32.609,67.391,26.429,67.391,18.804z M79.284,16.894h-6.437v3.821h6.437v6.436h3.821v-6.436h6.436v-3.821h-6.436v-6.436  h-3.821V16.894z"/><text x="0" y="115" fill="#000000" font-size="5px" font-weight="bold" font-family="'Helvetica Neue', Helvetica, Arial-Unicode, Arial, Sans-serif">Created by Andrew Nolte</text><text x="0" y="120" fill="#000000" font-size="5px" font-weight="bold" font-family="'Helvetica Neue', Helvetica, Arial-Unicode, Arial, Sans-serif">from the Noun Project</text></svg>