<svg xmlns="http://www.w3.org/2000/svg" xmlns:xlink="http://www.w3.org/1999/xlink" version="1.1" x="0px" y="0px" viewBox="0 0 100 125" enable-background="new 0 0 100 100" xml:space="preserve"><g><g><path d="M74.93,56.173h-32c-2.757,0-5-2.243-5-5v-22c0-2.757,2.243-5,5-5h32c2.757,0,5,2.243,5,5v22    C79.93,53.93,77.687,56.173,74.93,56.173z M42.93,26.173c-1.654,0-3,1.346-3,3v22c0,1.654,1.346,3,3,3h32c1.654,0,3-1.346,3-3v-22    c0-1.654-1.346-3-3-3H42.93z"/></g></g><g><g><path d="M66.529,64.574h-32c-2.757,0-5-2.243-5-5v-22c0-2.804,1.625-5,3.7-5h2.7c0.553,0,1,0.447,1,1s-0.447,1-1,1h-2.7    c-0.803,0-1.7,1.283-1.7,3v22c0,1.654,1.346,3,3,3h32c1.717,0,3-0.898,3-1.701v-2.7c0-0.553,0.447-1,1-1s1,0.447,1,1v2.7    C71.529,62.948,69.333,64.574,66.529,64.574z"/></g></g><g><g><path d="M58.256,72.848h-32c-2.757,0-5-2.243-5-5v-22c0-2.804,1.625-5,3.7-5h2.7c0.553,0,1,0.447,1,1s-0.447,1-1,1h-2.7    c-0.803,0-1.7,1.283-1.7,3v22c0,1.654,1.346,3,3,3h32c1.717,0,3-0.898,3-1.701v-2.7c0-0.553,0.447-1,1-1s1,0.447,1,1v2.7    C63.256,71.222,61.06,72.848,58.256,72.848z"/></g></g></svg>
