<svg xmlns="http://www.w3.org/2000/svg" data-name="Layer 1" viewBox="0 0 100 125" x="0px" y="0px"><title>work-outline</title><path d="M30,72a2,2,0,0,1-1.41-3.41l40-40a2,2,0,1,1,2.83,2.83l-40,40A2,2,0,0,1,30,72Z"/><path d="M70,72a2,2,0,0,1-1.41-.59l-40-40a2,2,0,1,1,2.83-2.83l40,40A2,2,0,0,1,70,72Z"/><text x="0" y="115" fill="#000000" font-size="5px" font-weight="bold" font-family="'Helvetica Neue', Helvetica, Arial-Unicode, Arial, Sans-serif">Created by Yana</text><text x="0" y="120" fill="#000000" font-size="5px" font-weight="bold" font-family="'Helvetica Neue', Helvetica, Arial-Unicode, Arial, Sans-serif">from the Noun Project</text></svg>