<svg xmlns="http://www.w3.org/2000/svg" xmlns:xlink="http://www.w3.org/1999/xlink" version="1.1" x="0px" y="0px" viewBox="0 0 100 125" enable-background="new 0 0 100 100" xml:space="preserve"><g><path d="M88.742,62.444c-1.13-9.943-1.204-27.344-10.122-35.892c0.028-0.178,0.056-0.367,0.082-0.571   c0.456-3.56-5.841-5.203-9.584-6.024c-2.929-0.643-3.845,2.125-4.105,3.358c-1.97,0.552-4.375,1.426-7.213,2.803   c0,0-6.115,0.456-7.028,0.456h-2.648c-0.913,0-7.028-0.456-7.028-0.456c-2.865-1.39-5.288-2.268-7.269-2.819   c-0.324-1.395-1.298-3.946-4.049-3.342c-3.742,0.821-10.04,2.464-9.584,6.024c0.026,0.204,0.054,0.393,0.082,0.571   c-8.918,8.548-8.992,25.949-10.122,35.892c-1.369,12.048,1.761,13.388,5.476,14.421c3.757,1.045,7.758,1.643,14.147-6.572   c5.602-7.203,16.859-7.075,19.581-7.075s14.157-0.128,19.759,7.075c6.389,8.215,10.39,7.616,14.147,6.572   C86.981,75.832,90.111,74.492,88.742,62.444z"/></g><text x="0" y="115" fill="#000000" font-size="5px" font-weight="bold" font-family="'Helvetica Neue', Helvetica, Arial-Unicode, Arial, Sans-serif">Created by Visual Glow</text><text x="0" y="120" fill="#000000" font-size="5px" font-weight="bold" font-family="'Helvetica Neue', Helvetica, Arial-Unicode, Arial, Sans-serif">from the Noun Project</text></svg>