<svg xmlns="http://www.w3.org/2000/svg" xmlns:xlink="http://www.w3.org/1999/xlink" version="1.1" x="0px" y="0px" viewBox="0 0 188.7 153.75" enable-background="new 0 0 188.7 123" xml:space="preserve"><path fill="#000000" d="M133.9,38.3H54.8c-3,0-5.4-2.4-5.4-5.4v0c0-3,2.4-5.4,5.4-5.4l79.1,0c3,0,5.4,2.4,5.4,5.4v0  C139.4,35.9,136.9,38.3,133.9,38.3z"/><path fill="#000000" d="M93.1,66.5H54.8c-3,0-5.4-2.4-5.4-5.4v0c0-3,2.4-5.4,5.4-5.4h38.3c3,0,5.4,2.4,5.4,5.4v0  C98.6,64,96.2,66.5,93.1,66.5z"/><path fill="#000000" d="M113.1,94.3H54.8c-3,0-5.4-2.4-5.4-5.4v0c0-3,2.4-5.4,5.4-5.4h58.2c3,0,5.4,2.4,5.4,5.4v0  C118.5,91.9,116.1,94.3,113.1,94.3z"/><text x="0" y="138" fill="#000000" font-size="5px" font-weight="bold" font-family="'Helvetica Neue', Helvetica, Arial-Unicode, Arial, Sans-serif">Created by Anup Sharma</text><text x="0" y="143" fill="#000000" font-size="5px" font-weight="bold" font-family="'Helvetica Neue', Helvetica, Arial-Unicode, Arial, Sans-serif">from the Noun Project</text></svg>