<svg xmlns="http://www.w3.org/2000/svg" xmlns:xlink="http://www.w3.org/1999/xlink" version="1.1" x="0px" y="0px" viewBox="0 0 100 125" style="enable-background:new 0 0 100 100;" xml:space="preserve"><path d="M42,28c0-4.4,3.6-8,8-8s8,3.6,8,8c0,4.4-3.6,8-8,8S42,32.4,42,28z M50,42c-4.4,0-8,3.6-8,8s3.6,8,8,8s8-3.6,8-8  S54.4,42,50,42z M50,64.1c-4.4,0-8,3.6-8,8s3.6,8,8,8s8-3.6,8-8S54.4,64.1,50,64.1z"/><text x="0" y="115" fill="#000000" font-size="5px" font-weight="bold" font-family="'Helvetica Neue', Helvetica, Arial-Unicode, Arial, Sans-serif">Created by Mello</text><text x="0" y="120" fill="#000000" font-size="5px" font-weight="bold" font-family="'Helvetica Neue', Helvetica, Arial-Unicode, Arial, Sans-serif">from the Noun Project</text></svg>