<svg xmlns="http://www.w3.org/2000/svg" xmlns:xlink="http://www.w3.org/1999/xlink" version="1.1" x="0px" y="0px" viewBox="0 0 100 125" style="enable-background:new 0 0 100 100;" xml:space="preserve"><path d="M17,14v58h1c1.104,0,2,0.896,2,2s-0.896,2-2,2h-6c-1.104,0-2-0.896-2-2s0.896-2,2-2h1V14h-1c-1.104,0-2-0.896-2-2  s0.896-2,2-2h6c1.104,0,2,0.896,2,2s-0.896,2-2,2H17z M88,80c-1.104,0-2,0.896-2,2v1H28v-1c0-1.104-0.896-2-2-2s-2,0.896-2,2v6  c0,1.104,0.896,2,2,2s2-0.896,2-2v-1h58v1c0,1.104,0.896,2,2,2s2-0.896,2-2v-6C90,80.896,89.104,80,88,80z M90,12v62  c0,1.104-0.896,2-2,2H26c-1.104,0-2-0.896-2-2V12c0-1.104,0.896-2,2-2h62C89.104,10,90,10.896,90,12z M86,72V51H56v5  c0,1.104-0.896,2-2,2s-2-0.896-2-2v-7c0-1.104,0.896-2,2-2h32V14H44v8c0,1.104-0.896,2-2,2s-2-0.896-2-2v-8H28v33h12V34  c0-1.104,0.896-2,2-2s2,0.896,2,2v22c0,1.104-0.896,2-2,2s-2-0.896-2-2v-5H28v21h12v-4c0-1.104,0.896-2,2-2s2,0.896,2,2v4h8v-4  c0-1.104,0.896-2,2-2s2,0.896,2,2v4H86z"/><text x="0" y="115" fill="#000000" font-size="5px" font-weight="bold" font-family="'Helvetica Neue', Helvetica, Arial-Unicode, Arial, Sans-serif">Created by Setyo Ari Wibowo</text><text x="0" y="120" fill="#000000" font-size="5px" font-weight="bold" font-family="'Helvetica Neue', Helvetica, Arial-Unicode, Arial, Sans-serif">from the Noun Project</text></svg>