<svg xmlns="http://www.w3.org/2000/svg" xmlns:xlink="http://www.w3.org/1999/xlink" version="1.1" x="0px" y="0px" viewBox="0 0 100 125" enable-background="new 0 0 100 100" xml:space="preserve"><path d="M41.703,56.297L9.164,68.113C7.581,58.822,7.344,49.808,10.07,41H47v7.087  C47,51.692,44.858,54.939,41.703,56.297z"/><path d="M88.467,64.953c-0.277,0.864-0.929,1.559-1.775,1.885L22.139,91.798c-1.146,0.442-2.44,0.144-3.275-0.75  c-4.022-4.309-6.741-10.447-8.455-17.004l33.5-12.169C49.432,59.507,53,54.096,53,48.087V38c0-1.657-1.343-3-3-3H12.444  C19.943,19.081,36.188,8,55.032,8c12.995,0,23.747,4.922,30.275,13.859C90.677,29.212,95.586,42.658,88.467,64.953z"/><text x="0" y="115" fill="#000000" font-size="5px" font-weight="bold" font-family="'Helvetica Neue', Helvetica, Arial-Unicode, Arial, Sans-serif">Created by Ayub Irawan</text><text x="0" y="120" fill="#000000" font-size="5px" font-weight="bold" font-family="'Helvetica Neue', Helvetica, Arial-Unicode, Arial, Sans-serif">from the Noun Project</text></svg>