<svg xmlns="http://www.w3.org/2000/svg" xmlns:xlink="http://www.w3.org/1999/xlink" version="1.1" x="0px" y="0px" viewBox="0 0 100 125" style="enable-background:new 0 0 100 100;" xml:space="preserve"><g><path d="M20.4,46h18.2c4.1,0,7.4-3.3,7.4-7.4V20.4c0-4.1-3.3-7.4-7.4-7.4H20.4c-4.1,0-7.4,3.3-7.4,7.4v18.2   C13,42.7,16.3,46,20.4,46z M17,20.4c0-1.9,1.5-3.4,3.4-3.4h18.2c1.9,0,3.4,1.5,3.4,3.4v18.2c0,1.9-1.5,3.4-3.4,3.4H20.4   c-1.9,0-3.4-1.5-3.4-3.4V20.4z"/><path d="M79.6,13H61.4c-4.1,0-7.4,3.3-7.4,7.4v18.2c0,4.1,3.3,7.4,7.4,7.4h18.2c4.1,0,7.4-3.3,7.4-7.4V20.4   C87,16.3,83.7,13,79.6,13z M83,38.6c0,1.9-1.5,3.4-3.4,3.4H61.4c-1.9,0-3.4-1.5-3.4-3.4V20.4c0-1.9,1.5-3.4,3.4-3.4h18.2   c1.9,0,3.4,1.5,3.4,3.4V38.6z"/><path d="M20.4,87h18.2c4.1,0,7.4-3.3,7.4-7.4V61.4c0-4.1-3.3-7.4-7.4-7.4H20.4c-4.1,0-7.4,3.3-7.4,7.4v18.2   C13,83.7,16.3,87,20.4,87z M17,61.4c0-1.9,1.5-3.4,3.4-3.4h18.2c1.9,0,3.4,1.5,3.4,3.4v18.2c0,1.9-1.5,3.4-3.4,3.4H20.4   c-1.9,0-3.4-1.5-3.4-3.4V61.4z"/><path d="M70.5,54C61.4,54,54,61.4,54,70.5S61.4,87,70.5,87S87,79.6,87,70.5S79.6,54,70.5,54z M70.5,83C63.6,83,58,77.4,58,70.5   S63.6,58,70.5,58S83,63.6,83,70.5S77.4,83,70.5,83z"/></g><text x="0" y="115" fill="#000000" font-size="5px" font-weight="bold" font-family="'Helvetica Neue', Helvetica, Arial-Unicode, Arial, Sans-serif">Created by Besticons</text><text x="0" y="120" fill="#000000" font-size="5px" font-weight="bold" font-family="'Helvetica Neue', Helvetica, Arial-Unicode, Arial, Sans-serif">from the Noun Project</text></svg>