<svg xmlns="http://www.w3.org/2000/svg" xmlns:xlink="http://www.w3.org/1999/xlink" viewBox="0 0 28 40" version="1.1" x="0px" y="0px"><title>Download 140</title><desc>Created with Sketch.</desc><g stroke="none" stroke-width="1" fill="none" fill-rule="evenodd"><g fill="#000000" fill-rule="nonzero"><path d="M12.1469724,23.1017049 C12.5608466,23.5155791 13.1816578,23.7225162 13.595532,23.7225162 C14.2163433,23.7225162 14.6302175,23.5155791 15.0440917,23.1017049 L22.2492651,15.8965314 C23.0770135,15.0687831 23.0770135,13.8271605 22.2492651,13.0182246 C21.4215167,12.1904762 20.1798942,12.1904762 19.3709582,13.0182246 L15.6460905,16.7242798 L15.6460905,2.08818341 C15.6460905,1.05349794 14.8183422,0.0188124375 13.5767196,0.0188124375 C12.335097,0.0188124375 11.5073486,0.846560813 11.5073486,2.08818341 L11.5073486,16.9312169 L7.61316872,12.9994121 C6.78542034,12.1716638 5.54379775,12.1716638 4.73486184,12.9994121 C3.90711347,13.8271605 3.90711347,15.0687831 4.73486184,15.877719 L12.1469724,23.1017049 Z M25.3345091,27.8424456 L2.66549087,27.8424456 C1.42386831,27.8424456 0.596119906,28.670194 0.596119906,29.9118166 C0.596119906,31.1534392 1.42386828,31.9811876 2.66549087,31.9811876 L25.3345091,31.9811876 C26.5761317,31.9811876 27.4038801,31.1534392 27.4038801,29.9118166 C27.3850676,28.670194 26.5761317,27.8424456 25.3345091,27.8424456 Z"/></g></g><text x="0" y="47" fill="#000000" font-size="5px" font-weight="bold" font-family="'Helvetica Neue', Helvetica, Arial-Unicode, Arial, Sans-serif">Created by iconfun</text><text x="0" y="52" fill="#000000" font-size="5px" font-weight="bold" font-family="'Helvetica Neue', Helvetica, Arial-Unicode, Arial, Sans-serif">from the Noun Project</text></svg>