<svg xmlns:dc="http://purl.org/dc/elements/1.1/" xmlns:cc="http://creativecommons.org/ns#" xmlns:rdf="http://www.w3.org/1999/02/22-rdf-syntax-ns#" xmlns:svg="http://www.w3.org/2000/svg" xmlns="http://www.w3.org/2000/svg" xmlns:sodipodi="http://sodipodi.sourceforge.net/DTD/sodipodi-0.dtd" xmlns:inkscape="http://www.inkscape.org/namespaces/inkscape" viewBox="0 0 511.99998 639.999975" version="1.1" x="0px" y="0px"><g transform="translate(-91.214475,-152.15558)"><path style="opacity:1;fill:#000000;fill-opacity:1;fill-rule:nonzero;stroke:none;stroke-width:26.6970005;stroke-linecap:butt;stroke-linejoin:round;stroke-miterlimit:4;stroke-dasharray:none;stroke-dashoffset:0;stroke-opacity:1" d="m 347.21445,152.15557 a 256,256 0 0 0 -256,256 256,256 0 0 0 256,256 256,256 0 0 0 256.00003,-256 256,256 0 0 0 -256.00003,-256 z m 0,107.5 c 4.155,0 7.5,3.34501 7.5,7.5 l 0,207.43945 62.9453,-62.94531 c 2.9381,-2.93802 7.6675,-2.93802 10.6055,0 2.938,2.93804 2.938,7.66938 0,10.60742 l -75.6113,75.61133 c -1.469,1.46902 -3.3856,2.20313 -5.3028,2.20313 -0.025,0 -0.05,-0.002 -0.074,-0.004 -0.021,0 -0.041,0.004 -0.062,0.004 -0.1051,0 -0.2065,-0.0116 -0.3105,-0.0156 -1.8578,-0.0434 -3.7032,-0.76374 -5.127,-2.1875 l -75.6113,-75.61133 c -2.938,-2.93804 -2.938,-7.66938 0,-10.60742 2.938,-2.93802 7.6694,-2.93802 10.6074,0 l 62.9414,62.94141 0,-207.43555 c 0,-4.15499 3.345,-7.5 7.5,-7.5 z m -74.5234,282 149.0488,0 c 4.155,0 7.5,3.345 7.5,7.5 0,4.155 -3.345,7.5 -7.5,7.5 l -149.0488,0 c -4.155,0 -7.5,-3.345 -7.5,-7.5 0,-4.155 3.345,-7.5 7.5,-7.5 z"/></g><text x="0" y="526.99998" fill="#000000" font-size="5px" font-weight="bold" font-family="'Helvetica Neue', Helvetica, Arial-Unicode, Arial, Sans-serif">Created by Ali Coşkun</text><text x="0" y="531.99998" fill="#000000" font-size="5px" font-weight="bold" font-family="'Helvetica Neue', Helvetica, Arial-Unicode, Arial, Sans-serif">from the Noun Project</text></svg>