<svg xmlns:dc="http://purl.org/dc/elements/1.1/" xmlns:cc="http://creativecommons.org/ns#" xmlns:rdf="http://www.w3.org/1999/02/22-rdf-syntax-ns#" xmlns:svg="http://www.w3.org/2000/svg" xmlns="http://www.w3.org/2000/svg" xmlns:sodipodi="http://sodipodi.sourceforge.net/DTD/sodipodi-0.dtd" xmlns:inkscape="http://www.inkscape.org/namespaces/inkscape" version="1.1" x="0px" y="0px" viewBox="0 0 100 125"><g transform="translate(0,-952.36218)"><path style="font-size:medium;font-style:normal;font-variant:normal;font-weight:normal;font-stretch:normal;text-indent:0;text-align:start;text-decoration:none;line-height:normal;letter-spacing:normal;word-spacing:normal;text-transform:none;direction:ltr;block-progression:tb;writing-mode:lr-tb;text-anchor:start;baseline-shift:baseline;opacity:1;color:#000000;fill:#000000;fill-opacity:1;stroke:none;stroke-width:2;marker:none;visibility:visible;display:inline;overflow:visible;enable-background:accumulate;font-family:Sans;-inkscape-font-specification:Sans" d="M 29.78125 7 A 1.0001 1.0001 0 0 0 29.25 7.34375 L 12.25 27.34375 A 1.0001 1.0001 0 1 0 13.75 28.625 L 29 10.6875 L 29 82 C 28.9925 82.5283 29.471635 83.03125 30 83.03125 C 30.528365 83.03125 31.007472 82.5283 31 82 L 31 10.6875 L 46.25 28.625 A 1.0001 1.0001 0 1 0 47.75 27.34375 L 30.75 7.34375 A 1.0001 1.0001 0 0 0 29.78125 7 z M 69.875 16.96875 C 69.383772 17.03035 68.980739 17.50531 69 18 L 69 89.28125 L 53.75 71.34375 A 1.0001 1.0001 0 0 0 52.875 70.96875 A 1.0001 1.0001 0 0 0 52.25 72.625 L 69.25 92.625 A 1.0001 1.0001 0 0 0 70.75 92.625 L 87.75 72.625 A 1.0001 1.0001 0 1 0 86.25 71.34375 L 71 89.28125 L 71 18 C 71.02261 17.42176 70.449092 16.89604 69.875 16.96875 z " transform="translate(0,952.36218)"/></g><text x="0" y="115" fill="#000000" font-size="5px" font-weight="bold" font-family="'Helvetica Neue', Helvetica, Arial-Unicode, Arial, Sans-serif">Created by Icons Bazaar</text><text x="0" y="120" fill="#000000" font-size="5px" font-weight="bold" font-family="'Helvetica Neue', Helvetica, Arial-Unicode, Arial, Sans-serif">from the Noun Project</text></svg>