<svg xmlns:dc="http://purl.org/dc/elements/1.1/" xmlns:cc="http://creativecommons.org/ns#" xmlns:rdf="http://www.w3.org/1999/02/22-rdf-syntax-ns#" xmlns:svg="http://www.w3.org/2000/svg" xmlns="http://www.w3.org/2000/svg" xmlns:sodipodi="http://sodipodi.sourceforge.net/DTD/sodipodi-0.dtd" xmlns:inkscape="http://www.inkscape.org/namespaces/inkscape" version="1.1" x="0px" y="0px" viewBox="0 0 100 125"><g transform="translate(0,-952.36218)"><path style="text-indent:0;text-transform:none;direction:ltr;block-progression:tb;baseline-shift:baseline;color:#000000;enable-background:accumulate;" d="m 69.872612,970.36511 a 2.0001251,1.9991278 0 0 0 -1.21871,3.4981 l 18.18682,16.52238 -58.84155,0 c -12.393139,0 -21.9991691,9.87331 -21.9991691,21.98821 0,6.2666 3.41165,11.7776 8.2184401,15.6791 4.80679,3.9015 11.052789,6.3091 17.249349,6.3091 a 2.0001252,1.9991279 0 1 0 0,-3.9979 c -5.14831,0 -10.622219,-2.0788 -14.718199,-5.4033 -4.09597,-3.3246 -6.7497401,-7.7797 -6.7497401,-12.587 0,-10.033 7.7027401,-17.99041 17.9993191,-17.99041 l 58.84155,0 -18.18682,16.49121 a 2.0022008,2.0012026 0 1 0 2.6874,2.9672 l 21.99918,-19.98931 a 2.0001251,1.9991278 0 0 0 0,-2.9672 l -21.99918,-19.98928 a 2.0001251,1.9991278 0 0 0 -1.46869,-0.5309 z" fill="#000000" fill-opacity="1" stroke="none" marker="none" visibility="visible" display="inline" overflow="visible"/></g><text x="0" y="115" fill="#000000" font-size="5px" font-weight="bold" font-family="'Helvetica Neue', Helvetica, Arial-Unicode, Arial, Sans-serif">Created by Nanda Ririz</text><text x="0" y="120" fill="#000000" font-size="5px" font-weight="bold" font-family="'Helvetica Neue', Helvetica, Arial-Unicode, Arial, Sans-serif">from the Noun Project</text></svg>