<svg xmlns="http://www.w3.org/2000/svg" xmlns:xlink="http://www.w3.org/1999/xlink" viewBox="0 0 39 55" version="1.1" x="0px" y="0px"><title>Combined Shape</title><desc>Created with Sketch.</desc><g stroke="none" stroke-width="1" fill="none" fill-rule="evenodd"><path d="M19.871118,41.1665933 C30.3738024,40.9189711 38.8108108,32.3179542 38.8108108,21.7451299 C38.8108108,16.4428813 36.676082,11.4752551 32.961207,7.84409927 L30.1651957,10.7045749 C33.1176877,13.5905289 34.8108108,17.5305155 34.8108108,21.7451299 C34.8108108,30.1097251 28.163328,36.9186047 19.871118,37.165163 L19.871118,35.1672944 L14.0107284,39.1720779 L19.871118,43.1768615 L19.871118,41.1665933 Z M19.0937229,2.32063686 C8.51962114,2.48732215 0,11.1206686 0,21.7451299 C0,26.8245159 1.95826582,31.6007907 5.40098557,35.1930951 L8.28890036,32.425434 C5.55299926,29.5706592 4,25.7828428 4,21.7451299 C4,13.3288061 10.729956,6.4874993 19.0937229,6.3212765 L19.0937229,8.16874458 L24.9541125,4.16396104 L19.0937229,0.159177494 L19.0937229,2.32063686 Z M19.4054054,24.3668831 C21.0217068,24.3668831 22.331978,23.0549902 22.331978,21.4366883 C22.331978,19.8183864 21.0217068,18.5064935 19.4054054,18.5064935 C17.789104,18.5064935 16.4788328,19.8183864 16.4788328,21.4366883 C16.4788328,23.0549902 17.789104,24.3668831 19.4054054,24.3668831 Z" fill="#000000"/></g><text x="0" y="59" fill="#000000" font-size="5px" font-weight="bold" font-family="'Helvetica Neue', Helvetica, Arial-Unicode, Arial, Sans-serif">Created by Joshua Weber</text><text x="0" y="64" fill="#000000" font-size="5px" font-weight="bold" font-family="'Helvetica Neue', Helvetica, Arial-Unicode, Arial, Sans-serif">from the Noun Project</text></svg>