<svg xmlns="http://www.w3.org/2000/svg" xmlns:xlink="http://www.w3.org/1999/xlink" version="1.1" x="0px" y="0px" viewBox="0 0 100 125" style="enable-background:new 0 0 100 100;" xml:space="preserve"><g><path d="M25.9,53.7c0,13.3,10.8,24.1,24.1,24.1v-4c-11.1,0-20.1-9-20.1-20.1c0-10.8,8.5-19.6,19.2-20L44.7,38l2.8,2.8l9.3-9.3   l-9.3-9.3l-2.8,2.8l4.5,4.5C36.3,30,25.9,40.7,25.9,53.7z"/><path d="M64.4,39.8c3.7,3.9,5.7,8.9,5.6,14.3l4,0.1c0.1-6.4-2.3-12.5-6.8-17.2L64.4,39.8z"/><path d="M71.3,65.1l-3.5-1.9c-2.5,4.7-6.8,8.2-11.9,9.8l1.2,3.8C63.2,74.9,68.2,70.8,71.3,65.1z"/></g><text x="0" y="115" fill="#000000" font-size="5px" font-weight="bold" font-family="'Helvetica Neue', Helvetica, Arial-Unicode, Arial, Sans-serif">Created by mikicon</text><text x="0" y="120" fill="#000000" font-size="5px" font-weight="bold" font-family="'Helvetica Neue', Helvetica, Arial-Unicode, Arial, Sans-serif">from the Noun Project</text></svg>